%TF.GenerationSoftware,KiCad,Pcbnew,10.0.3*%
%TF.CreationDate,2026-05-28T18:30:17-05:00*%
%TF.ProjectId,michele42_trackpad-splayed,6d696368-656c-4653-9432-5f747261636b,rev?*%
%TF.SameCoordinates,Original*%
%TF.FileFunction,Drillmap*%
%TF.FilePolarity,Positive*%
%FSLAX45Y45*%
G04 Gerber Fmt 4.5, Leading zero omitted, Abs format (unit mm)*
G04 Created by KiCad (PCBNEW 10.0.3) date 2026-05-28 18:30:17*
%MOMM*%
%LPD*%
G01*
G04 APERTURE LIST*
%ADD10C,0.100000*%
%ADD11C,0.177193*%
%ADD12C,0.120000*%
%ADD13C,0.200000*%
%ADD14C,0.130000*%
G04 APERTURE END LIST*
D10*
X6650000Y-5850000D02*
X6650000Y-12200000D01*
X6650000Y-5850000D02*
G75*
G02*
X6902802Y-5600016I250000J0D01*
G01*
X6650000Y-12200000D02*
X8050000Y-14650000D01*
D11*
X7450000Y-10027193D02*
G75*
G02*
X7450000Y-9850007I0J88593D01*
G01*
D10*
X8122790Y-14673597D02*
G75*
G02*
X8050000Y-14650000I-24790J47597D01*
G01*
X8122790Y-14673597D02*
X11661000Y-13000000D01*
D11*
X8513157Y-9850000D02*
X7450000Y-9850000D01*
X8513157Y-9850000D02*
G75*
G02*
X8513157Y-10027200I3J-88600D01*
G01*
X8513157Y-10027194D02*
X7450000Y-10027193D01*
D10*
X11661000Y-13000000D02*
X13327294Y-13000000D01*
X13327294Y-13000000D02*
X13388411Y-12686677D01*
X13388411Y-12686677D02*
G75*
G02*
X13500001Y-12572849I142589J-28173D01*
G01*
X13500000Y-12572845D02*
X20550000Y-12572899D01*
X15200000Y-5600152D02*
X6902802Y-5600016D01*
X15200000Y-5600152D02*
X15200000Y-6000000D01*
X15200000Y-6000000D02*
X17450000Y-6200000D01*
X17400000Y-6800000D02*
X21243952Y-7299209D01*
X17450000Y-6200000D02*
X17400000Y-6800000D01*
X20604645Y-12500478D02*
G75*
G02*
X20550002Y-12572903I-87205J8968D01*
G01*
X20604645Y-12500478D02*
X21243952Y-7299209D01*
D12*
X18008771Y-9286607D02*
X18045332Y-8988843D01*
X18045332Y-8988843D02*
X18382798Y-9030278D01*
X18346237Y-9328042D02*
X18008771Y-9286607D01*
X18382798Y-9030278D02*
X18346237Y-9328042D01*
X14053175Y-7686554D02*
X14393175Y-7686554D01*
X14053175Y-7986554D02*
X14053175Y-7686554D01*
X14393175Y-7686554D02*
X14393175Y-7986554D01*
X14393175Y-7986554D02*
X14053175Y-7986554D01*
X9927949Y-12041609D02*
X10247445Y-11925323D01*
X10030555Y-12323517D02*
X9927949Y-12041609D01*
X10247445Y-11925323D02*
X10350051Y-12207230D01*
X10350051Y-12207230D02*
X10030555Y-12323517D01*
X19631710Y-11249020D02*
X19668271Y-10951257D01*
X19668271Y-10951257D02*
X20005737Y-10992692D01*
X19969176Y-11290456D02*
X19631710Y-11249020D01*
X20005737Y-10992692D02*
X19969176Y-11290456D01*
X7552959Y-11150747D02*
X7861104Y-11007057D01*
X7679745Y-11422640D02*
X7552959Y-11150747D01*
X7861104Y-11007057D02*
X7987890Y-11278950D01*
X7987890Y-11278950D02*
X7679745Y-11422640D01*
X15977133Y-10231188D02*
X16003281Y-9932330D01*
X16003281Y-9932330D02*
X16341986Y-9961962D01*
X16315839Y-10260821D02*
X15977133Y-10231188D01*
X16341986Y-9961962D02*
X16315839Y-10260821D01*
X10353175Y-8136554D02*
X10693175Y-8136554D01*
X10353175Y-8436554D02*
X10353175Y-8136554D01*
X10693175Y-8136554D02*
X10693175Y-8436554D01*
X10693175Y-8436554D02*
X10353175Y-8436554D01*
X8004221Y-12988723D02*
X8298670Y-12818723D01*
X8154221Y-13248531D02*
X8004221Y-12988723D01*
X8298670Y-12818723D02*
X8448670Y-13078531D01*
X8448670Y-13078531D02*
X8154221Y-13248531D01*
X14053175Y-9436554D02*
X14393175Y-9436554D01*
X14053175Y-9736554D02*
X14053175Y-9436554D01*
X14393175Y-9436554D02*
X14393175Y-9736554D01*
X14393175Y-9736554D02*
X14053175Y-9736554D01*
X17795500Y-11023562D02*
X17832061Y-10725798D01*
X17832061Y-10725798D02*
X18169526Y-10767234D01*
X18132965Y-11064998D02*
X17795500Y-11023562D01*
X18169526Y-10767234D02*
X18132965Y-11064998D01*
X12203175Y-6186554D02*
X12543175Y-6186554D01*
X12203175Y-6486554D02*
X12203175Y-6186554D01*
X12543175Y-6186554D02*
X12543175Y-6486554D01*
X12543175Y-6486554D02*
X12203175Y-6486554D01*
X20058253Y-7775109D02*
X20094814Y-7477345D01*
X20094814Y-7477345D02*
X20432279Y-7518781D01*
X20395719Y-7816545D02*
X20058253Y-7775109D01*
X20432279Y-7518781D02*
X20395719Y-7816545D01*
X16282179Y-6744507D02*
X16308326Y-6445648D01*
X16308326Y-6445648D02*
X16647031Y-6475281D01*
X16620884Y-6774140D02*
X16282179Y-6744507D01*
X16647031Y-6475281D02*
X16620884Y-6774140D01*
X12203175Y-7936554D02*
X12543175Y-7936554D01*
X12203175Y-8236554D02*
X12203175Y-7936554D01*
X12543175Y-7936554D02*
X12543175Y-8236554D01*
X12543175Y-8236554D02*
X12203175Y-8236554D01*
X10353175Y-9891554D02*
X10693175Y-9891554D01*
X10353175Y-10191554D02*
X10353175Y-9891554D01*
X10693175Y-9891554D02*
X10693175Y-10191554D01*
X10693175Y-10191554D02*
X10353175Y-10191554D01*
X18222043Y-7549651D02*
X18258603Y-7251887D01*
X18258603Y-7251887D02*
X18596069Y-7293322D01*
X18559508Y-7591086D02*
X18222043Y-7549651D01*
X18596069Y-7293322D02*
X18559508Y-7591086D01*
X19844982Y-9512065D02*
X19881542Y-9214301D01*
X19881542Y-9214301D02*
X20219008Y-9255737D01*
X20182447Y-9553500D02*
X19844982Y-9512065D01*
X20219008Y-9255737D02*
X20182447Y-9553500D01*
X10353175Y-6386554D02*
X10693175Y-6386554D01*
X10353175Y-6686554D02*
X10353175Y-6386554D01*
X10693175Y-6386554D02*
X10693175Y-6686554D01*
X10693175Y-6686554D02*
X10353175Y-6686554D01*
X14053175Y-5936554D02*
X14393175Y-5936554D01*
X14053175Y-6236554D02*
X14053175Y-5936554D01*
X14393175Y-5936554D02*
X14393175Y-6236554D01*
X14393175Y-6236554D02*
X14053175Y-6236554D01*
X12203175Y-11436554D02*
X12543175Y-11436554D01*
X12203175Y-11736554D02*
X12203175Y-11436554D01*
X12543175Y-11436554D02*
X12543175Y-11736554D01*
X12543175Y-11736554D02*
X12203175Y-11736554D01*
X16129657Y-8487847D02*
X16155804Y-8188988D01*
X16155804Y-8188988D02*
X16494510Y-8218620D01*
X16468363Y-8517479D02*
X16129657Y-8487847D01*
X16494510Y-8218620D02*
X16468363Y-8517479D01*
X12203175Y-9686554D02*
X12543175Y-9686554D01*
X12203175Y-9986554D02*
X12203175Y-9686554D01*
X12543175Y-9686554D02*
X12543175Y-9986554D01*
X12543175Y-9986554D02*
X12203175Y-9986554D01*
D13*
D10*
X6685000Y-8585000D02*
X6715000Y-8615000D01*
X6715000Y-8585000D02*
X6685000Y-8615000D01*
X6787500Y-9285000D02*
X6817500Y-9315000D01*
X6817500Y-9285000D02*
X6787500Y-9315000D01*
X6810000Y-9110000D02*
X6840000Y-9140000D01*
X6840000Y-9110000D02*
X6810000Y-9140000D01*
X6885000Y-8835000D02*
X6915000Y-8865000D01*
X6915000Y-8835000D02*
X6885000Y-8865000D01*
X6935000Y-7935000D02*
X6965000Y-7965000D01*
X6965000Y-7935000D02*
X6935000Y-7965000D01*
X6935000Y-8185000D02*
X6965000Y-8215000D01*
X6965000Y-8185000D02*
X6935000Y-8215000D01*
X6935000Y-9235000D02*
X6965000Y-9265000D01*
X6965000Y-9235000D02*
X6935000Y-9265000D01*
X7135000Y-6285000D02*
X7165000Y-6315000D01*
X7165000Y-6285000D02*
X7135000Y-6315000D01*
X7150659Y-6850659D02*
X7180659Y-6880659D01*
X7180659Y-6850659D02*
X7150659Y-6880659D01*
X7185000Y-9885000D02*
X7215000Y-9915000D01*
X7215000Y-9885000D02*
X7185000Y-9915000D01*
X7195000Y-6285000D02*
X7225000Y-6315000D01*
X7225000Y-6285000D02*
X7195000Y-6315000D01*
X7199647Y-10420736D02*
X7229647Y-10450736D01*
X7229647Y-10420736D02*
X7199647Y-10450736D01*
X7199647Y-10220736D02*
X7229647Y-10250736D01*
X7229647Y-10220736D02*
X7199647Y-10250736D01*
X7235000Y-11285000D02*
X7265000Y-11315000D01*
X7265000Y-11285000D02*
X7235000Y-11315000D01*
X7235130Y-10534870D02*
X7265130Y-10564870D01*
X7265130Y-10534870D02*
X7235130Y-10564870D01*
X7306000Y-7235000D02*
X7336000Y-7265000D01*
X7336000Y-7235000D02*
X7306000Y-7265000D01*
X7335000Y-8685000D02*
X7365000Y-8715000D01*
X7365000Y-8685000D02*
X7335000Y-8715000D01*
X7335000Y-8985000D02*
X7365000Y-9015000D01*
X7365000Y-8985000D02*
X7335000Y-9015000D01*
X7335000Y-11385000D02*
X7365000Y-11415000D01*
X7365000Y-11385000D02*
X7335000Y-11415000D01*
X7356000Y-7335000D02*
X7386000Y-7365000D01*
X7386000Y-7335000D02*
X7356000Y-7365000D01*
X7385000Y-11335000D02*
X7415000Y-11365000D01*
X7415000Y-11335000D02*
X7385000Y-11365000D01*
X7403000Y-6703000D02*
X7433000Y-6733000D01*
X7433000Y-6703000D02*
X7403000Y-6733000D01*
X7635000Y-10585000D02*
X7665000Y-10615000D01*
X7665000Y-10585000D02*
X7635000Y-10615000D01*
X7635000Y-10885000D02*
X7665000Y-10915000D01*
X7665000Y-10885000D02*
X7635000Y-10915000D01*
X7785000Y-12985000D02*
X7815000Y-13015000D01*
X7815000Y-12985000D02*
X7785000Y-13015000D01*
X7806000Y-7211574D02*
X7836000Y-7241574D01*
X7836000Y-7211574D02*
X7806000Y-7241574D01*
X7835000Y-13285000D02*
X7865000Y-13315000D01*
X7865000Y-13285000D02*
X7835000Y-13315000D01*
X7866430Y-8875510D02*
X7896430Y-8905510D01*
X7896430Y-8875510D02*
X7866430Y-8905510D01*
X7885000Y-10335000D02*
X7915000Y-10365000D01*
X7915000Y-10335000D02*
X7885000Y-10365000D01*
X7885000Y-13235000D02*
X7915000Y-13265000D01*
X7915000Y-13235000D02*
X7885000Y-13265000D01*
X7892000Y-7092000D02*
X7922000Y-7122000D01*
X7922000Y-7092000D02*
X7892000Y-7122000D01*
X7935000Y-10535000D02*
X7965000Y-10565000D01*
X7965000Y-10535000D02*
X7935000Y-10565000D01*
X7940083Y-8874917D02*
X7970083Y-8904917D01*
X7970083Y-8874917D02*
X7940083Y-8904917D01*
X7968000Y-6449574D02*
X7998000Y-6479574D01*
X7998000Y-6449574D02*
X7968000Y-6479574D01*
X7968000Y-6836374D02*
X7998000Y-6866374D01*
X7998000Y-6836374D02*
X7968000Y-6866374D01*
X7985000Y-10435000D02*
X8015000Y-10465000D01*
X8015000Y-10435000D02*
X7985000Y-10465000D01*
X7985000Y-10587500D02*
X8015000Y-10617500D01*
X8015000Y-10587500D02*
X7985000Y-10617500D01*
X8027090Y-8870000D02*
X8057090Y-8900000D01*
X8057090Y-8870000D02*
X8027090Y-8900000D01*
X8128424Y-11086393D02*
X8158424Y-11116393D01*
X8158424Y-11086393D02*
X8128424Y-11116393D01*
X8185000Y-11035000D02*
X8215000Y-11065000D01*
X8215000Y-11035000D02*
X8185000Y-11065000D01*
X8207000Y-8941500D02*
X8237000Y-8971500D01*
X8237000Y-8941500D02*
X8207000Y-8971500D01*
X8208000Y-8737500D02*
X8238000Y-8767500D01*
X8238000Y-8737500D02*
X8208000Y-8767500D01*
X8285000Y-11885000D02*
X8315000Y-11915000D01*
X8315000Y-11885000D02*
X8285000Y-11915000D01*
X8335000Y-11535000D02*
X8365000Y-11565000D01*
X8365000Y-11535000D02*
X8335000Y-11565000D01*
X8350000Y-6957574D02*
X8380000Y-6987574D01*
X8380000Y-6957574D02*
X8350000Y-6987574D01*
X8416000Y-8737500D02*
X8446000Y-8767500D01*
X8446000Y-8737500D02*
X8416000Y-8767500D01*
X8449000Y-8973000D02*
X8479000Y-9003000D01*
X8479000Y-8973000D02*
X8449000Y-9003000D01*
X8474000Y-7346000D02*
X8504000Y-7376000D01*
X8504000Y-7346000D02*
X8474000Y-7376000D01*
X8535000Y-12835000D02*
X8565000Y-12865000D01*
X8565000Y-12835000D02*
X8535000Y-12865000D01*
X8580000Y-7600000D02*
X8610000Y-7630000D01*
X8610000Y-7600000D02*
X8580000Y-7630000D01*
X8580000Y-8687500D02*
X8610000Y-8717500D01*
X8610000Y-8687500D02*
X8580000Y-8717500D01*
X8585000Y-11235000D02*
X8615000Y-11265000D01*
X8615000Y-11235000D02*
X8585000Y-11265000D01*
X8600000Y-12808076D02*
X8630000Y-12838076D01*
X8630000Y-12808076D02*
X8600000Y-12838076D01*
X8735000Y-11935000D02*
X8765000Y-11965000D01*
X8765000Y-11935000D02*
X8735000Y-11965000D01*
X8735000Y-13635000D02*
X8765000Y-13665000D01*
X8765000Y-13635000D02*
X8735000Y-13665000D01*
X8736000Y-9634000D02*
X8766000Y-9664000D01*
X8766000Y-9634000D02*
X8736000Y-9664000D01*
X8739000Y-7465574D02*
X8769000Y-7495574D01*
X8769000Y-7465574D02*
X8739000Y-7495574D01*
X8766000Y-8843000D02*
X8796000Y-8873000D01*
X8796000Y-8843000D02*
X8766000Y-8873000D01*
X8798647Y-10235000D02*
X8828647Y-10265000D01*
X8828647Y-10235000D02*
X8798647Y-10265000D01*
X8798647Y-10435000D02*
X8828647Y-10465000D01*
X8828647Y-10435000D02*
X8798647Y-10465000D01*
X8835000Y-13335000D02*
X8865000Y-13365000D01*
X8865000Y-13335000D02*
X8835000Y-13365000D01*
X8874873Y-8692627D02*
X8904873Y-8722627D01*
X8904873Y-8692627D02*
X8874873Y-8722627D01*
X8892000Y-7383000D02*
X8922000Y-7413000D01*
X8922000Y-7383000D02*
X8892000Y-7413000D01*
X8902000Y-6122000D02*
X8932000Y-6152000D01*
X8932000Y-6122000D02*
X8902000Y-6152000D01*
X8904000Y-7134000D02*
X8934000Y-7164000D01*
X8934000Y-7134000D02*
X8904000Y-7164000D01*
X8905000Y-6361000D02*
X8935000Y-6391000D01*
X8935000Y-6361000D02*
X8905000Y-6391000D01*
X8906000Y-7889000D02*
X8936000Y-7919000D01*
X8936000Y-7889000D02*
X8906000Y-7919000D01*
X8906000Y-8400000D02*
X8936000Y-8430000D01*
X8936000Y-8400000D02*
X8906000Y-8430000D01*
X8907000Y-8143000D02*
X8937000Y-8173000D01*
X8937000Y-8143000D02*
X8907000Y-8173000D01*
X8908000Y-8534075D02*
X8938000Y-8564075D01*
X8938000Y-8534075D02*
X8908000Y-8564075D01*
X8909000Y-7636000D02*
X8939000Y-7666000D01*
X8939000Y-7636000D02*
X8909000Y-7666000D01*
X9071000Y-9073000D02*
X9101000Y-9103000D01*
X9101000Y-9073000D02*
X9071000Y-9103000D01*
X9135000Y-11835000D02*
X9165000Y-11865000D01*
X9165000Y-11835000D02*
X9135000Y-11865000D01*
X9235000Y-12735000D02*
X9265000Y-12765000D01*
X9265000Y-12735000D02*
X9235000Y-12765000D01*
X9326000Y-7437000D02*
X9356000Y-7467000D01*
X9356000Y-7437000D02*
X9326000Y-7467000D01*
X9385000Y-13085000D02*
X9415000Y-13115000D01*
X9415000Y-13085000D02*
X9385000Y-13115000D01*
X9435000Y-13235000D02*
X9465000Y-13265000D01*
X9465000Y-13235000D02*
X9435000Y-13265000D01*
X9485000Y-10935000D02*
X9515000Y-10965000D01*
X9515000Y-10935000D02*
X9485000Y-10965000D01*
X9497000Y-9201000D02*
X9527000Y-9231000D01*
X9527000Y-9201000D02*
X9497000Y-9231000D01*
X9508500Y-7483991D02*
X9538500Y-7513991D01*
X9538500Y-7483991D02*
X9508500Y-7513991D01*
X9535000Y-12985000D02*
X9565000Y-13015000D01*
X9565000Y-12985000D02*
X9535000Y-13015000D01*
X9554000Y-9101000D02*
X9584000Y-9131000D01*
X9584000Y-9101000D02*
X9554000Y-9131000D01*
X9559000Y-8489000D02*
X9589000Y-8519000D01*
X9589000Y-8489000D02*
X9559000Y-8519000D01*
X9607500Y-7120000D02*
X9637500Y-7150000D01*
X9637500Y-7120000D02*
X9607500Y-7150000D01*
X9607500Y-10667500D02*
X9637500Y-10697500D01*
X9637500Y-10667500D02*
X9607500Y-10697500D01*
X9614000Y-8900000D02*
X9644000Y-8930000D01*
X9644000Y-8900000D02*
X9614000Y-8930000D01*
X9635000Y-11385000D02*
X9665000Y-11415000D01*
X9665000Y-11385000D02*
X9635000Y-11415000D01*
X9714066Y-12235000D02*
X9744066Y-12265000D01*
X9744066Y-12235000D02*
X9714066Y-12265000D01*
X9735000Y-11135000D02*
X9765000Y-11165000D01*
X9765000Y-11135000D02*
X9735000Y-11165000D01*
X9758377Y-9432623D02*
X9788377Y-9462623D01*
X9788377Y-9432623D02*
X9758377Y-9462623D01*
X9779066Y-12234966D02*
X9809066Y-12264966D01*
X9809066Y-12234966D02*
X9779066Y-12264966D01*
X9982000Y-6227000D02*
X10012000Y-6257000D01*
X10012000Y-6227000D02*
X9982000Y-6257000D01*
X10024000Y-10038000D02*
X10054000Y-10068000D01*
X10054000Y-10038000D02*
X10024000Y-10068000D01*
X10025000Y-8272500D02*
X10055000Y-8302500D01*
X10055000Y-8272500D02*
X10025000Y-8302500D01*
X10043000Y-6533000D02*
X10073000Y-6563000D01*
X10073000Y-6533000D02*
X10043000Y-6563000D01*
X10085000Y-11585000D02*
X10115000Y-11615000D01*
X10115000Y-11585000D02*
X10085000Y-11615000D01*
X10127500Y-8272500D02*
X10157500Y-8302500D01*
X10157500Y-8272500D02*
X10127500Y-8302500D01*
X10129000Y-6522000D02*
X10159000Y-6552000D01*
X10159000Y-6522000D02*
X10129000Y-6552000D01*
X10129311Y-10024689D02*
X10159311Y-10054689D01*
X10159311Y-10024689D02*
X10129311Y-10054689D01*
X10335000Y-12785000D02*
X10365000Y-12815000D01*
X10365000Y-12785000D02*
X10335000Y-12815000D01*
X10485000Y-11985000D02*
X10515000Y-12015000D01*
X10515000Y-11985000D02*
X10485000Y-12015000D01*
X10535000Y-11935000D02*
X10565000Y-11965000D01*
X10565000Y-11935000D02*
X10535000Y-11965000D01*
X10560000Y-12860000D02*
X10590000Y-12890000D01*
X10590000Y-12860000D02*
X10560000Y-12890000D01*
X10604267Y-12047703D02*
X10634267Y-12077703D01*
X10634267Y-12047703D02*
X10604267Y-12077703D01*
X10670000Y-10850000D02*
X10700000Y-10880000D01*
X10700000Y-10850000D02*
X10670000Y-10880000D01*
X10679000Y-9100000D02*
X10709000Y-9130000D01*
X10709000Y-9100000D02*
X10679000Y-9130000D01*
X10692000Y-7350000D02*
X10722000Y-7380000D01*
X10722000Y-7350000D02*
X10692000Y-7380000D01*
X10785000Y-11885000D02*
X10815000Y-11915000D01*
X10815000Y-11885000D02*
X10785000Y-11915000D01*
X10835000Y-12135000D02*
X10865000Y-12165000D01*
X10865000Y-12135000D02*
X10835000Y-12165000D01*
X10872500Y-8267500D02*
X10902500Y-8297500D01*
X10902500Y-8267500D02*
X10872500Y-8297500D01*
X10880000Y-10030000D02*
X10910000Y-10060000D01*
X10910000Y-10030000D02*
X10880000Y-10060000D01*
X10883000Y-6532000D02*
X10913000Y-6562000D01*
X10913000Y-6532000D02*
X10883000Y-6562000D01*
X10965000Y-8267500D02*
X10995000Y-8297500D01*
X10995000Y-8267500D02*
X10965000Y-8297500D01*
X10970000Y-10032000D02*
X11000000Y-10062000D01*
X11000000Y-10032000D02*
X10970000Y-10062000D01*
X10984000Y-6530000D02*
X11014000Y-6560000D01*
X11014000Y-6530000D02*
X10984000Y-6560000D01*
X11015000Y-6810000D02*
X11045000Y-6840000D01*
X11045000Y-6810000D02*
X11015000Y-6840000D01*
X11035000Y-11235000D02*
X11065000Y-11265000D01*
X11065000Y-11235000D02*
X11035000Y-11265000D01*
X11185000Y-9977500D02*
X11215000Y-10007500D01*
X11215000Y-9977500D02*
X11185000Y-10007500D01*
X11185000Y-12185000D02*
X11215000Y-12215000D01*
X11215000Y-12185000D02*
X11185000Y-12215000D01*
X11186000Y-6461000D02*
X11216000Y-6491000D01*
X11216000Y-6461000D02*
X11186000Y-6491000D01*
X11186000Y-6790000D02*
X11216000Y-6820000D01*
X11216000Y-6790000D02*
X11186000Y-6820000D01*
X11187500Y-10307500D02*
X11217500Y-10337500D01*
X11217500Y-10307500D02*
X11187500Y-10337500D01*
X11189000Y-8214000D02*
X11219000Y-8244000D01*
X11219000Y-8214000D02*
X11189000Y-8244000D01*
X11190000Y-8543000D02*
X11220000Y-8573000D01*
X11220000Y-8543000D02*
X11190000Y-8573000D01*
X11235000Y-12385000D02*
X11265000Y-12415000D01*
X11265000Y-12385000D02*
X11235000Y-12415000D01*
X11335000Y-11235000D02*
X11365000Y-11265000D01*
X11365000Y-11235000D02*
X11335000Y-11265000D01*
X11385000Y-11385000D02*
X11415000Y-11415000D01*
X11415000Y-11385000D02*
X11385000Y-11415000D01*
X11452000Y-6953000D02*
X11482000Y-6983000D01*
X11482000Y-6953000D02*
X11452000Y-6983000D01*
X11452000Y-8705000D02*
X11482000Y-8735000D01*
X11482000Y-8705000D02*
X11452000Y-8735000D01*
X11453000Y-10455000D02*
X11483000Y-10485000D01*
X11483000Y-10455000D02*
X11453000Y-10485000D01*
X11485000Y-12185000D02*
X11515000Y-12215000D01*
X11515000Y-12185000D02*
X11485000Y-12215000D01*
X11585000Y-8335000D02*
X11615000Y-8365000D01*
X11615000Y-8335000D02*
X11585000Y-8365000D01*
X11835000Y-6335000D02*
X11865000Y-6365000D01*
X11865000Y-6335000D02*
X11835000Y-6365000D01*
X11835000Y-8035000D02*
X11865000Y-8065000D01*
X11865000Y-8035000D02*
X11835000Y-8065000D01*
X11835000Y-9835000D02*
X11865000Y-9865000D01*
X11865000Y-9835000D02*
X11835000Y-9865000D01*
X11885000Y-11585000D02*
X11915000Y-11615000D01*
X11915000Y-11585000D02*
X11885000Y-11615000D01*
X11911000Y-10878000D02*
X11941000Y-10908000D01*
X11941000Y-10878000D02*
X11911000Y-10908000D01*
X11935000Y-6331424D02*
X11965000Y-6361424D01*
X11965000Y-6331424D02*
X11935000Y-6361424D01*
X11935000Y-8085000D02*
X11965000Y-8115000D01*
X11965000Y-8085000D02*
X11935000Y-8115000D01*
X11935000Y-9835000D02*
X11965000Y-9865000D01*
X11965000Y-9835000D02*
X11935000Y-9865000D01*
X11960000Y-11560000D02*
X11990000Y-11590000D01*
X11990000Y-11560000D02*
X11960000Y-11590000D01*
X12435000Y-7137500D02*
X12465000Y-7167500D01*
X12465000Y-7137500D02*
X12435000Y-7167500D01*
X12526000Y-12400000D02*
X12556000Y-12430000D01*
X12556000Y-12400000D02*
X12526000Y-12430000D01*
X12535000Y-8885000D02*
X12565000Y-8915000D01*
X12565000Y-8885000D02*
X12535000Y-8915000D01*
X12585000Y-8385000D02*
X12615000Y-8415000D01*
X12615000Y-8385000D02*
X12585000Y-8415000D01*
X12585000Y-10635000D02*
X12615000Y-10665000D01*
X12615000Y-10635000D02*
X12585000Y-10665000D01*
X12635000Y-6635000D02*
X12665000Y-6665000D01*
X12665000Y-6635000D02*
X12635000Y-6665000D01*
X12685000Y-11235000D02*
X12715000Y-11265000D01*
X12715000Y-11235000D02*
X12685000Y-11265000D01*
X12685000Y-12035000D02*
X12715000Y-12065000D01*
X12715000Y-12035000D02*
X12685000Y-12065000D01*
X12735000Y-11385000D02*
X12765000Y-11415000D01*
X12765000Y-11385000D02*
X12735000Y-11415000D01*
X12785000Y-6335000D02*
X12815000Y-6365000D01*
X12815000Y-6335000D02*
X12785000Y-6365000D01*
X12785000Y-8085000D02*
X12815000Y-8115000D01*
X12815000Y-8085000D02*
X12785000Y-8115000D01*
X12785000Y-9835000D02*
X12815000Y-9865000D01*
X12815000Y-9835000D02*
X12785000Y-9865000D01*
X12785000Y-11585000D02*
X12815000Y-11615000D01*
X12815000Y-11585000D02*
X12785000Y-11615000D01*
X12850000Y-6335000D02*
X12880000Y-6365000D01*
X12880000Y-6335000D02*
X12850000Y-6365000D01*
X12885000Y-8085000D02*
X12915000Y-8115000D01*
X12915000Y-8085000D02*
X12885000Y-8115000D01*
X12885000Y-9835000D02*
X12915000Y-9865000D01*
X12915000Y-9835000D02*
X12885000Y-9865000D01*
X12885000Y-11585000D02*
X12915000Y-11615000D01*
X12915000Y-11585000D02*
X12885000Y-11615000D01*
X12985000Y-6485000D02*
X13015000Y-6515000D01*
X13015000Y-6485000D02*
X12985000Y-6515000D01*
X12985000Y-11235000D02*
X13015000Y-11265000D01*
X13015000Y-11235000D02*
X12985000Y-11265000D01*
X13035000Y-6285000D02*
X13065000Y-6315000D01*
X13065000Y-6285000D02*
X13035000Y-6315000D01*
X13035000Y-6585000D02*
X13065000Y-6615000D01*
X13065000Y-6585000D02*
X13035000Y-6615000D01*
X13035000Y-8035000D02*
X13065000Y-8065000D01*
X13065000Y-8035000D02*
X13035000Y-8065000D01*
X13035000Y-8335000D02*
X13065000Y-8365000D01*
X13065000Y-8335000D02*
X13035000Y-8365000D01*
X13035000Y-9785000D02*
X13065000Y-9815000D01*
X13065000Y-9785000D02*
X13035000Y-9815000D01*
X13035000Y-10085000D02*
X13065000Y-10115000D01*
X13065000Y-10085000D02*
X13035000Y-10115000D01*
X13035000Y-11535000D02*
X13065000Y-11565000D01*
X13065000Y-11535000D02*
X13035000Y-11565000D01*
X13035000Y-11835000D02*
X13065000Y-11865000D01*
X13065000Y-11835000D02*
X13035000Y-11865000D01*
X13235000Y-11035000D02*
X13265000Y-11065000D01*
X13265000Y-11035000D02*
X13235000Y-11065000D01*
X13285000Y-6685000D02*
X13315000Y-6715000D01*
X13315000Y-6685000D02*
X13285000Y-6715000D01*
X13285000Y-7485000D02*
X13315000Y-7515000D01*
X13315000Y-7485000D02*
X13285000Y-7515000D01*
X13301000Y-10306000D02*
X13331000Y-10336000D01*
X13331000Y-10306000D02*
X13301000Y-10336000D01*
X13301000Y-10919000D02*
X13331000Y-10949000D01*
X13331000Y-10919000D02*
X13301000Y-10949000D01*
X13335000Y-8485000D02*
X13365000Y-8515000D01*
X13365000Y-8485000D02*
X13335000Y-8515000D01*
X13535000Y-10835000D02*
X13565000Y-10865000D01*
X13565000Y-10835000D02*
X13535000Y-10865000D01*
X13685000Y-6085000D02*
X13715000Y-6115000D01*
X13715000Y-6085000D02*
X13685000Y-6115000D01*
X13685000Y-7835000D02*
X13715000Y-7865000D01*
X13715000Y-7835000D02*
X13685000Y-7865000D01*
X13685000Y-9585000D02*
X13715000Y-9615000D01*
X13715000Y-9585000D02*
X13685000Y-9615000D01*
X13785000Y-6085000D02*
X13815000Y-6115000D01*
X13815000Y-6085000D02*
X13785000Y-6115000D01*
X13785000Y-7835000D02*
X13815000Y-7865000D01*
X13815000Y-7835000D02*
X13785000Y-7865000D01*
X13785000Y-9585000D02*
X13815000Y-9615000D01*
X13815000Y-9585000D02*
X13785000Y-9615000D01*
X13885000Y-6335000D02*
X13915000Y-6365000D01*
X13915000Y-6335000D02*
X13885000Y-6365000D01*
X13885000Y-8085000D02*
X13915000Y-8115000D01*
X13915000Y-8085000D02*
X13885000Y-8115000D01*
X14085000Y-6887500D02*
X14115000Y-6917500D01*
X14115000Y-6887500D02*
X14085000Y-6917500D01*
X14385000Y-10385000D02*
X14415000Y-10415000D01*
X14415000Y-10385000D02*
X14385000Y-10415000D01*
X14435000Y-8635000D02*
X14465000Y-8665000D01*
X14465000Y-8635000D02*
X14435000Y-8665000D01*
X14635000Y-6085000D02*
X14665000Y-6115000D01*
X14665000Y-6085000D02*
X14635000Y-6115000D01*
X14635000Y-7835000D02*
X14665000Y-7865000D01*
X14665000Y-7835000D02*
X14635000Y-7865000D01*
X14635000Y-9585000D02*
X14665000Y-9615000D01*
X14665000Y-9585000D02*
X14635000Y-9615000D01*
X14735000Y-6085000D02*
X14765000Y-6115000D01*
X14765000Y-6085000D02*
X14735000Y-6115000D01*
X14735000Y-7835000D02*
X14765000Y-7865000D01*
X14765000Y-7835000D02*
X14735000Y-7865000D01*
X14735000Y-9585000D02*
X14765000Y-9615000D01*
X14765000Y-9585000D02*
X14735000Y-9615000D01*
X14835000Y-7579054D02*
X14865000Y-7609054D01*
X14865000Y-7579054D02*
X14835000Y-7609054D01*
X14885000Y-6035000D02*
X14915000Y-6065000D01*
X14915000Y-6035000D02*
X14885000Y-6065000D01*
X14885000Y-6285000D02*
X14915000Y-6315000D01*
X14915000Y-6285000D02*
X14885000Y-6315000D01*
X14885000Y-7785000D02*
X14915000Y-7815000D01*
X14915000Y-7785000D02*
X14885000Y-7815000D01*
X14885000Y-8035000D02*
X14915000Y-8065000D01*
X14915000Y-8035000D02*
X14885000Y-8065000D01*
X14885000Y-9535000D02*
X14915000Y-9565000D01*
X14915000Y-9535000D02*
X14885000Y-9565000D01*
X14885000Y-9835000D02*
X14915000Y-9865000D01*
X14915000Y-9835000D02*
X14885000Y-9865000D01*
X15135000Y-10935000D02*
X15165000Y-10965000D01*
X15165000Y-10935000D02*
X15135000Y-10965000D01*
X15235000Y-10235000D02*
X15265000Y-10265000D01*
X15265000Y-10235000D02*
X15235000Y-10265000D01*
X15335000Y-10584522D02*
X15365000Y-10614522D01*
X15365000Y-10584522D02*
X15335000Y-10614522D01*
X15435000Y-8835000D02*
X15465000Y-8865000D01*
X15465000Y-8835000D02*
X15435000Y-8865000D01*
X15485000Y-7085000D02*
X15515000Y-7115000D01*
X15515000Y-7085000D02*
X15485000Y-7115000D01*
X15485000Y-10235000D02*
X15515000Y-10265000D01*
X15515000Y-10235000D02*
X15485000Y-10265000D01*
X15585000Y-10035000D02*
X15615000Y-10065000D01*
X15615000Y-10035000D02*
X15585000Y-10065000D01*
X15635000Y-6585000D02*
X15665000Y-6615000D01*
X15665000Y-6585000D02*
X15635000Y-6615000D01*
X15685000Y-10035000D02*
X15715000Y-10065000D01*
X15715000Y-10035000D02*
X15685000Y-10065000D01*
X15785000Y-8285000D02*
X15815000Y-8315000D01*
X15815000Y-8285000D02*
X15785000Y-8315000D01*
X15835000Y-6285000D02*
X15865000Y-6315000D01*
X15865000Y-6285000D02*
X15835000Y-6315000D01*
X15885000Y-8285000D02*
X15915000Y-8315000D01*
X15915000Y-8285000D02*
X15885000Y-8315000D01*
X15935000Y-6535000D02*
X15965000Y-6565000D01*
X15965000Y-6535000D02*
X15935000Y-6565000D01*
X16035000Y-6535000D02*
X16065000Y-6565000D01*
X16065000Y-6535000D02*
X16035000Y-6565000D01*
X16185000Y-7885000D02*
X16215000Y-7915000D01*
X16215000Y-7885000D02*
X16185000Y-7915000D01*
X16235000Y-7387500D02*
X16265000Y-7417500D01*
X16265000Y-7387500D02*
X16235000Y-7417500D01*
X16235000Y-10887500D02*
X16265000Y-10917500D01*
X16265000Y-10887500D02*
X16235000Y-10917500D01*
X16335000Y-9135000D02*
X16365000Y-9165000D01*
X16365000Y-9135000D02*
X16335000Y-9165000D01*
X16585000Y-10135000D02*
X16615000Y-10165000D01*
X16615000Y-10135000D02*
X16585000Y-10165000D01*
X16685000Y-6985000D02*
X16715000Y-7015000D01*
X16715000Y-6985000D02*
X16685000Y-7015000D01*
X16685000Y-8385000D02*
X16715000Y-8415000D01*
X16715000Y-8385000D02*
X16685000Y-8415000D01*
X16685000Y-10085000D02*
X16715000Y-10115000D01*
X16715000Y-10085000D02*
X16685000Y-10115000D01*
X16785000Y-8385000D02*
X16815000Y-8415000D01*
X16815000Y-8385000D02*
X16785000Y-8415000D01*
X16835000Y-6635000D02*
X16865000Y-6665000D01*
X16865000Y-6635000D02*
X16835000Y-6665000D01*
X16835000Y-10135000D02*
X16865000Y-10165000D01*
X16865000Y-10135000D02*
X16835000Y-10165000D01*
X16835000Y-10335000D02*
X16865000Y-10365000D01*
X16865000Y-10335000D02*
X16835000Y-10365000D01*
X16935000Y-6635000D02*
X16965000Y-6665000D01*
X16965000Y-6635000D02*
X16935000Y-6665000D01*
X16935000Y-8485000D02*
X16965000Y-8515000D01*
X16965000Y-8485000D02*
X16935000Y-8515000D01*
X16935000Y-8635000D02*
X16965000Y-8665000D01*
X16965000Y-8635000D02*
X16935000Y-8665000D01*
X16985000Y-8335000D02*
X17015000Y-8365000D01*
X17015000Y-8335000D02*
X16985000Y-8365000D01*
X17035000Y-6525085D02*
X17065000Y-6555085D01*
X17065000Y-6525085D02*
X17035000Y-6555085D01*
X17035000Y-6775085D02*
X17065000Y-6805085D01*
X17065000Y-6775085D02*
X17035000Y-6805085D01*
X17035000Y-11335000D02*
X17065000Y-11365000D01*
X17065000Y-11335000D02*
X17035000Y-11365000D01*
X17235000Y-9635000D02*
X17265000Y-9665000D01*
X17265000Y-9635000D02*
X17235000Y-9665000D01*
X17435000Y-7835000D02*
X17465000Y-7865000D01*
X17465000Y-7835000D02*
X17435000Y-7865000D01*
X17435000Y-10835000D02*
X17465000Y-10865000D01*
X17465000Y-10835000D02*
X17435000Y-10865000D01*
X17535000Y-10835000D02*
X17565000Y-10865000D01*
X17565000Y-10835000D02*
X17535000Y-10865000D01*
X17685000Y-9035000D02*
X17715000Y-9065000D01*
X17715000Y-9035000D02*
X17685000Y-9065000D01*
X17685000Y-11687500D02*
X17715000Y-11717500D01*
X17715000Y-11687500D02*
X17685000Y-11717500D01*
X17785000Y-9085000D02*
X17815000Y-9115000D01*
X17815000Y-9085000D02*
X17785000Y-9115000D01*
X17885000Y-7285000D02*
X17915000Y-7315000D01*
X17915000Y-7285000D02*
X17885000Y-7315000D01*
X17935000Y-9937500D02*
X17965000Y-9967500D01*
X17965000Y-9937500D02*
X17935000Y-9967500D01*
X17985000Y-7335000D02*
X18015000Y-7365000D01*
X18015000Y-7335000D02*
X17985000Y-7365000D01*
X18085000Y-7535000D02*
X18115000Y-7565000D01*
X18115000Y-7535000D02*
X18085000Y-7565000D01*
X18135000Y-8235000D02*
X18165000Y-8265000D01*
X18165000Y-8235000D02*
X18135000Y-8265000D01*
X18385000Y-10935000D02*
X18415000Y-10965000D01*
X18415000Y-10935000D02*
X18385000Y-10965000D01*
X18485000Y-10935000D02*
X18515000Y-10965000D01*
X18515000Y-10935000D02*
X18485000Y-10965000D01*
X18535112Y-11482500D02*
X18565112Y-11512500D01*
X18565112Y-11482500D02*
X18535112Y-11512500D01*
X18585000Y-9185000D02*
X18615000Y-9215000D01*
X18615000Y-9185000D02*
X18585000Y-9215000D01*
X18635000Y-11022670D02*
X18665000Y-11052670D01*
X18665000Y-11022670D02*
X18635000Y-11052670D01*
X18635000Y-11272670D02*
X18665000Y-11302670D01*
X18665000Y-11272670D02*
X18635000Y-11302670D01*
X18685000Y-9185000D02*
X18715000Y-9215000D01*
X18715000Y-9185000D02*
X18685000Y-9215000D01*
X18785000Y-7435000D02*
X18815000Y-7465000D01*
X18815000Y-7435000D02*
X18785000Y-7465000D01*
X18823823Y-9220297D02*
X18853823Y-9250297D01*
X18853823Y-9220297D02*
X18823823Y-9250297D01*
X18823823Y-9470297D02*
X18853823Y-9500297D01*
X18853823Y-9470297D02*
X18823823Y-9500297D01*
X18835000Y-11585000D02*
X18865000Y-11615000D01*
X18865000Y-11585000D02*
X18835000Y-11615000D01*
X18885000Y-7435000D02*
X18915000Y-7465000D01*
X18915000Y-7435000D02*
X18885000Y-7465000D01*
X19035000Y-7485000D02*
X19065000Y-7515000D01*
X19065000Y-7485000D02*
X19035000Y-7515000D01*
X19035000Y-7735000D02*
X19065000Y-7765000D01*
X19065000Y-7735000D02*
X19035000Y-7765000D01*
X19035000Y-9885000D02*
X19065000Y-9915000D01*
X19065000Y-9885000D02*
X19035000Y-9915000D01*
X19035000Y-11485000D02*
X19065000Y-11515000D01*
X19065000Y-11485000D02*
X19035000Y-11515000D01*
X19135000Y-9635000D02*
X19165000Y-9665000D01*
X19165000Y-9635000D02*
X19135000Y-9665000D01*
X19285000Y-8135000D02*
X19315000Y-8165000D01*
X19315000Y-8135000D02*
X19285000Y-8165000D01*
X19285000Y-11035000D02*
X19315000Y-11065000D01*
X19315000Y-11035000D02*
X19285000Y-11065000D01*
X19385000Y-11035000D02*
X19415000Y-11065000D01*
X19415000Y-11035000D02*
X19385000Y-11065000D01*
X19485000Y-9285000D02*
X19515000Y-9315000D01*
X19515000Y-9285000D02*
X19485000Y-9315000D01*
X19535000Y-11935000D02*
X19565000Y-11965000D01*
X19565000Y-11935000D02*
X19535000Y-11965000D01*
X19585000Y-9285000D02*
X19615000Y-9315000D01*
X19615000Y-9285000D02*
X19585000Y-9315000D01*
X19700000Y-10185000D02*
X19730000Y-10215000D01*
X19730000Y-10185000D02*
X19700000Y-10215000D01*
X19785000Y-7585000D02*
X19815000Y-7615000D01*
X19815000Y-7585000D02*
X19785000Y-7615000D01*
X19935000Y-9085000D02*
X19965000Y-9115000D01*
X19965000Y-9085000D02*
X19935000Y-9115000D01*
X20187900Y-10261381D02*
X20217900Y-10291381D01*
X20217900Y-10261381D02*
X20187900Y-10291381D01*
X20235000Y-8335000D02*
X20265000Y-8365000D01*
X20265000Y-8335000D02*
X20235000Y-8365000D01*
X20235000Y-11135000D02*
X20265000Y-11165000D01*
X20265000Y-11135000D02*
X20235000Y-11165000D01*
X20335000Y-11135000D02*
X20365000Y-11165000D01*
X20365000Y-11135000D02*
X20335000Y-11165000D01*
X20435000Y-9385000D02*
X20465000Y-9415000D01*
X20465000Y-9385000D02*
X20435000Y-9415000D01*
X20485000Y-11185000D02*
X20515000Y-11215000D01*
X20515000Y-11185000D02*
X20485000Y-11215000D01*
X20485000Y-11385000D02*
X20515000Y-11415000D01*
X20515000Y-11385000D02*
X20485000Y-11415000D01*
X20535000Y-9385000D02*
X20565000Y-9415000D01*
X20565000Y-9385000D02*
X20535000Y-9415000D01*
X20585000Y-7835000D02*
X20615000Y-7865000D01*
X20615000Y-7835000D02*
X20585000Y-7865000D01*
X20635000Y-7685000D02*
X20665000Y-7715000D01*
X20665000Y-7685000D02*
X20635000Y-7715000D01*
X20685000Y-9435000D02*
X20715000Y-9465000D01*
X20715000Y-9435000D02*
X20685000Y-9465000D01*
X20685000Y-9685000D02*
X20715000Y-9715000D01*
X20715000Y-9685000D02*
X20685000Y-9715000D01*
X20731244Y-7638756D02*
X20761244Y-7668756D01*
X20761244Y-7638756D02*
X20731244Y-7668756D01*
X20885000Y-7685000D02*
X20915000Y-7715000D01*
X20915000Y-7685000D02*
X20885000Y-7715000D01*
X20885000Y-7935000D02*
X20915000Y-7965000D01*
X20915000Y-7935000D02*
X20885000Y-7965000D01*
X7569640Y-6091000D02*
G75*
G02*
X7488360Y-6091000I-40640J0D01*
G01*
X7488360Y-6091000D02*
G75*
G02*
X7569640Y-6091000I40640J0D01*
G01*
X7569640Y-6345000D02*
G75*
G02*
X7488360Y-6345000I-40640J0D01*
G01*
X7488360Y-6345000D02*
G75*
G02*
X7569640Y-6345000I40640J0D01*
G01*
X7569640Y-6599000D02*
G75*
G02*
X7488360Y-6599000I-40640J0D01*
G01*
X7488360Y-6599000D02*
G75*
G02*
X7569640Y-6599000I40640J0D01*
G01*
X7569640Y-6853000D02*
G75*
G02*
X7488360Y-6853000I-40640J0D01*
G01*
X7488360Y-6853000D02*
G75*
G02*
X7569640Y-6853000I40640J0D01*
G01*
X7569640Y-7107000D02*
G75*
G02*
X7488360Y-7107000I-40640J0D01*
G01*
X7488360Y-7107000D02*
G75*
G02*
X7569640Y-7107000I40640J0D01*
G01*
X7569640Y-7361000D02*
G75*
G02*
X7488360Y-7361000I-40640J0D01*
G01*
X7488360Y-7361000D02*
G75*
G02*
X7569640Y-7361000I40640J0D01*
G01*
X7569640Y-7615000D02*
G75*
G02*
X7488360Y-7615000I-40640J0D01*
G01*
X7488360Y-7615000D02*
G75*
G02*
X7569640Y-7615000I40640J0D01*
G01*
X7569640Y-7869000D02*
G75*
G02*
X7488360Y-7869000I-40640J0D01*
G01*
X7488360Y-7869000D02*
G75*
G02*
X7569640Y-7869000I40640J0D01*
G01*
X7569640Y-8123000D02*
G75*
G02*
X7488360Y-8123000I-40640J0D01*
G01*
X7488360Y-8123000D02*
G75*
G02*
X7569640Y-8123000I40640J0D01*
G01*
X7569640Y-8377000D02*
G75*
G02*
X7488360Y-8377000I-40640J0D01*
G01*
X7488360Y-8377000D02*
G75*
G02*
X7569640Y-8377000I40640J0D01*
G01*
X7569640Y-8631000D02*
G75*
G02*
X7488360Y-8631000I-40640J0D01*
G01*
X7488360Y-8631000D02*
G75*
G02*
X7569640Y-8631000I40640J0D01*
G01*
X7569640Y-8885000D02*
G75*
G02*
X7488360Y-8885000I-40640J0D01*
G01*
X7488360Y-8885000D02*
G75*
G02*
X7569640Y-8885000I40640J0D01*
G01*
X7699521Y-6210574D02*
G75*
G02*
X7618241Y-6210574I-40640J0D01*
G01*
X7618241Y-6210574D02*
G75*
G02*
X7699521Y-6210574I40640J0D01*
G01*
X7699521Y-6464574D02*
G75*
G02*
X7618241Y-6464574I-40640J0D01*
G01*
X7618241Y-6464574D02*
G75*
G02*
X7699521Y-6464574I40640J0D01*
G01*
X7699521Y-6718574D02*
G75*
G02*
X7618241Y-6718574I-40640J0D01*
G01*
X7618241Y-6718574D02*
G75*
G02*
X7699521Y-6718574I40640J0D01*
G01*
X7699521Y-6972574D02*
G75*
G02*
X7618241Y-6972574I-40640J0D01*
G01*
X7618241Y-6972574D02*
G75*
G02*
X7699521Y-6972574I40640J0D01*
G01*
X7699521Y-7226574D02*
G75*
G02*
X7618241Y-7226574I-40640J0D01*
G01*
X7618241Y-7226574D02*
G75*
G02*
X7699521Y-7226574I40640J0D01*
G01*
X7699521Y-7480574D02*
G75*
G02*
X7618241Y-7480574I-40640J0D01*
G01*
X7618241Y-7480574D02*
G75*
G02*
X7699521Y-7480574I40640J0D01*
G01*
X7699521Y-7734574D02*
G75*
G02*
X7618241Y-7734574I-40640J0D01*
G01*
X7618241Y-7734574D02*
G75*
G02*
X7699521Y-7734574I40640J0D01*
G01*
X7699521Y-7988574D02*
G75*
G02*
X7618241Y-7988574I-40640J0D01*
G01*
X7618241Y-7988574D02*
G75*
G02*
X7699521Y-7988574I40640J0D01*
G01*
X7699521Y-8242574D02*
G75*
G02*
X7618241Y-8242574I-40640J0D01*
G01*
X7618241Y-8242574D02*
G75*
G02*
X7699521Y-8242574I40640J0D01*
G01*
X7699521Y-8496575D02*
G75*
G02*
X7618241Y-8496575I-40640J0D01*
G01*
X7618241Y-8496575D02*
G75*
G02*
X7699521Y-8496575I40640J0D01*
G01*
X7699521Y-8750575D02*
G75*
G02*
X7618241Y-8750575I-40640J0D01*
G01*
X7618241Y-8750575D02*
G75*
G02*
X7699521Y-8750575I40640J0D01*
G01*
X7699521Y-9004575D02*
G75*
G02*
X7618241Y-9004575I-40640J0D01*
G01*
X7618241Y-9004575D02*
G75*
G02*
X7699521Y-9004575I40640J0D01*
G01*
X9093640Y-6091000D02*
G75*
G02*
X9012360Y-6091000I-40640J0D01*
G01*
X9012360Y-6091000D02*
G75*
G02*
X9093640Y-6091000I40640J0D01*
G01*
X9093640Y-6345000D02*
G75*
G02*
X9012360Y-6345000I-40640J0D01*
G01*
X9012360Y-6345000D02*
G75*
G02*
X9093640Y-6345000I40640J0D01*
G01*
X9093640Y-6599000D02*
G75*
G02*
X9012360Y-6599000I-40640J0D01*
G01*
X9012360Y-6599000D02*
G75*
G02*
X9093640Y-6599000I40640J0D01*
G01*
X9093640Y-6853000D02*
G75*
G02*
X9012360Y-6853000I-40640J0D01*
G01*
X9012360Y-6853000D02*
G75*
G02*
X9093640Y-6853000I40640J0D01*
G01*
X9093640Y-7107000D02*
G75*
G02*
X9012360Y-7107000I-40640J0D01*
G01*
X9012360Y-7107000D02*
G75*
G02*
X9093640Y-7107000I40640J0D01*
G01*
X9093640Y-7361000D02*
G75*
G02*
X9012360Y-7361000I-40640J0D01*
G01*
X9012360Y-7361000D02*
G75*
G02*
X9093640Y-7361000I40640J0D01*
G01*
X9093640Y-7615000D02*
G75*
G02*
X9012360Y-7615000I-40640J0D01*
G01*
X9012360Y-7615000D02*
G75*
G02*
X9093640Y-7615000I40640J0D01*
G01*
X9093640Y-7869000D02*
G75*
G02*
X9012360Y-7869000I-40640J0D01*
G01*
X9012360Y-7869000D02*
G75*
G02*
X9093640Y-7869000I40640J0D01*
G01*
X9093640Y-8123000D02*
G75*
G02*
X9012360Y-8123000I-40640J0D01*
G01*
X9012360Y-8123000D02*
G75*
G02*
X9093640Y-8123000I40640J0D01*
G01*
X9093640Y-8377000D02*
G75*
G02*
X9012360Y-8377000I-40640J0D01*
G01*
X9012360Y-8377000D02*
G75*
G02*
X9093640Y-8377000I40640J0D01*
G01*
X9093640Y-8631000D02*
G75*
G02*
X9012360Y-8631000I-40640J0D01*
G01*
X9012360Y-8631000D02*
G75*
G02*
X9093640Y-8631000I40640J0D01*
G01*
X9093640Y-8885000D02*
G75*
G02*
X9012360Y-8885000I-40640J0D01*
G01*
X9012360Y-8885000D02*
G75*
G02*
X9093640Y-8885000I40640J0D01*
G01*
X9223522Y-6210574D02*
G75*
G02*
X9142242Y-6210574I-40640J0D01*
G01*
X9142242Y-6210574D02*
G75*
G02*
X9223522Y-6210574I40640J0D01*
G01*
X9223522Y-6464574D02*
G75*
G02*
X9142242Y-6464574I-40640J0D01*
G01*
X9142242Y-6464574D02*
G75*
G02*
X9223522Y-6464574I40640J0D01*
G01*
X9223522Y-6718574D02*
G75*
G02*
X9142242Y-6718574I-40640J0D01*
G01*
X9142242Y-6718574D02*
G75*
G02*
X9223522Y-6718574I40640J0D01*
G01*
X9223522Y-6972574D02*
G75*
G02*
X9142242Y-6972574I-40640J0D01*
G01*
X9142242Y-6972574D02*
G75*
G02*
X9223522Y-6972574I40640J0D01*
G01*
X9223522Y-7226574D02*
G75*
G02*
X9142242Y-7226574I-40640J0D01*
G01*
X9142242Y-7226574D02*
G75*
G02*
X9223522Y-7226574I40640J0D01*
G01*
X9223522Y-7480574D02*
G75*
G02*
X9142242Y-7480574I-40640J0D01*
G01*
X9142242Y-7480574D02*
G75*
G02*
X9223522Y-7480574I40640J0D01*
G01*
X9223522Y-7734574D02*
G75*
G02*
X9142242Y-7734574I-40640J0D01*
G01*
X9142242Y-7734574D02*
G75*
G02*
X9223522Y-7734574I40640J0D01*
G01*
X9223522Y-7988574D02*
G75*
G02*
X9142242Y-7988574I-40640J0D01*
G01*
X9142242Y-7988574D02*
G75*
G02*
X9223522Y-7988574I40640J0D01*
G01*
X9223522Y-8242574D02*
G75*
G02*
X9142242Y-8242574I-40640J0D01*
G01*
X9142242Y-8242574D02*
G75*
G02*
X9223522Y-8242574I40640J0D01*
G01*
X9223522Y-8496575D02*
G75*
G02*
X9142242Y-8496575I-40640J0D01*
G01*
X9142242Y-8496575D02*
G75*
G02*
X9223522Y-8496575I40640J0D01*
G01*
X9223522Y-8750575D02*
G75*
G02*
X9142242Y-8750575I-40640J0D01*
G01*
X9142242Y-8750575D02*
G75*
G02*
X9223522Y-8750575I40640J0D01*
G01*
X9223522Y-9004575D02*
G75*
G02*
X9142242Y-9004575I-40640J0D01*
G01*
X9142242Y-9004575D02*
G75*
G02*
X9223522Y-9004575I40640J0D01*
G01*
X7100000Y-8445000D02*
X7100000Y-8545000D01*
X7050000Y-8495000D02*
X7150000Y-8495000D01*
X7100000Y-8695000D02*
X7100000Y-8795000D01*
X7050000Y-8745000D02*
X7150000Y-8745000D01*
X7100000Y-8955000D02*
X7100000Y-9055000D01*
X7050000Y-9005000D02*
X7150000Y-9005000D01*
X7859000Y-9378000D02*
X7859000Y-9478000D01*
X7809000Y-9428000D02*
X7909000Y-9428000D01*
X8113000Y-9378000D02*
X8113000Y-9478000D01*
X8063000Y-9428000D02*
X8163000Y-9428000D01*
X8367000Y-9378000D02*
X8367000Y-9478000D01*
X8317000Y-9428000D02*
X8417000Y-9428000D01*
X8621000Y-9378000D02*
X8621000Y-9478000D01*
X8571000Y-9428000D02*
X8671000Y-9428000D01*
X8875000Y-9378000D02*
X8875000Y-9478000D01*
X8825000Y-9428000D02*
X8925000Y-9428000D01*
X9746000Y-5750000D02*
X9746000Y-5850000D01*
X9696000Y-5800000D02*
X9796000Y-5800000D01*
X10000000Y-5750000D02*
X10000000Y-5850000D01*
X9950000Y-5800000D02*
X10050000Y-5800000D01*
D14*
X6905962Y-6945962D02*
X6905962Y-6854038D01*
X6814038Y-6854038D01*
X6814038Y-6945962D01*
X6905962Y-6945962D01*
X6905962Y-7595962D02*
X6905962Y-7504038D01*
X6814038Y-7504038D01*
X6814038Y-7595962D01*
X6905962Y-7595962D01*
D13*
X6905777Y-14996149D02*
X6905777Y-14796149D01*
X6905777Y-14796149D02*
X6953396Y-14796149D01*
X6953396Y-14796149D02*
X6981967Y-14805673D01*
X6981967Y-14805673D02*
X7001015Y-14824721D01*
X7001015Y-14824721D02*
X7010539Y-14843768D01*
X7010539Y-14843768D02*
X7020062Y-14881864D01*
X7020062Y-14881864D02*
X7020062Y-14910435D01*
X7020062Y-14910435D02*
X7010539Y-14948530D01*
X7010539Y-14948530D02*
X7001015Y-14967578D01*
X7001015Y-14967578D02*
X6981967Y-14986626D01*
X6981967Y-14986626D02*
X6953396Y-14996149D01*
X6953396Y-14996149D02*
X6905777Y-14996149D01*
X7105777Y-14996149D02*
X7105777Y-14862816D01*
X7105777Y-14900911D02*
X7115301Y-14881864D01*
X7115301Y-14881864D02*
X7124824Y-14872340D01*
X7124824Y-14872340D02*
X7143872Y-14862816D01*
X7143872Y-14862816D02*
X7162920Y-14862816D01*
X7229586Y-14996149D02*
X7229586Y-14862816D01*
X7229586Y-14796149D02*
X7220062Y-14805673D01*
X7220062Y-14805673D02*
X7229586Y-14815197D01*
X7229586Y-14815197D02*
X7239110Y-14805673D01*
X7239110Y-14805673D02*
X7229586Y-14796149D01*
X7229586Y-14796149D02*
X7229586Y-14815197D01*
X7353396Y-14996149D02*
X7334348Y-14986626D01*
X7334348Y-14986626D02*
X7324824Y-14967578D01*
X7324824Y-14967578D02*
X7324824Y-14796149D01*
X7458158Y-14996149D02*
X7439110Y-14986626D01*
X7439110Y-14986626D02*
X7429586Y-14967578D01*
X7429586Y-14967578D02*
X7429586Y-14796149D01*
X7686729Y-14996149D02*
X7686729Y-14796149D01*
X7686729Y-14796149D02*
X7753396Y-14939006D01*
X7753396Y-14939006D02*
X7820062Y-14796149D01*
X7820062Y-14796149D02*
X7820062Y-14996149D01*
X8001015Y-14996149D02*
X8001015Y-14891387D01*
X8001015Y-14891387D02*
X7991491Y-14872340D01*
X7991491Y-14872340D02*
X7972443Y-14862816D01*
X7972443Y-14862816D02*
X7934348Y-14862816D01*
X7934348Y-14862816D02*
X7915301Y-14872340D01*
X8001015Y-14986626D02*
X7981967Y-14996149D01*
X7981967Y-14996149D02*
X7934348Y-14996149D01*
X7934348Y-14996149D02*
X7915301Y-14986626D01*
X7915301Y-14986626D02*
X7905777Y-14967578D01*
X7905777Y-14967578D02*
X7905777Y-14948530D01*
X7905777Y-14948530D02*
X7915301Y-14929483D01*
X7915301Y-14929483D02*
X7934348Y-14919959D01*
X7934348Y-14919959D02*
X7981967Y-14919959D01*
X7981967Y-14919959D02*
X8001015Y-14910435D01*
X8096253Y-14862816D02*
X8096253Y-15062816D01*
X8096253Y-14872340D02*
X8115301Y-14862816D01*
X8115301Y-14862816D02*
X8153396Y-14862816D01*
X8153396Y-14862816D02*
X8172443Y-14872340D01*
X8172443Y-14872340D02*
X8181967Y-14881864D01*
X8181967Y-14881864D02*
X8191491Y-14900911D01*
X8191491Y-14900911D02*
X8191491Y-14958054D01*
X8191491Y-14958054D02*
X8181967Y-14977102D01*
X8181967Y-14977102D02*
X8172443Y-14986626D01*
X8172443Y-14986626D02*
X8153396Y-14996149D01*
X8153396Y-14996149D02*
X8115301Y-14996149D01*
X8115301Y-14996149D02*
X8096253Y-14986626D01*
X8277205Y-14977102D02*
X8286729Y-14986626D01*
X8286729Y-14986626D02*
X8277205Y-14996149D01*
X8277205Y-14996149D02*
X8267682Y-14986626D01*
X8267682Y-14986626D02*
X8277205Y-14977102D01*
X8277205Y-14977102D02*
X8277205Y-14996149D01*
X8277205Y-14872340D02*
X8286729Y-14881864D01*
X8286729Y-14881864D02*
X8277205Y-14891387D01*
X8277205Y-14891387D02*
X8267682Y-14881864D01*
X8267682Y-14881864D02*
X8277205Y-14872340D01*
X8277205Y-14872340D02*
X8277205Y-14891387D01*
D10*
X6615000Y-15309666D02*
X6645000Y-15339666D01*
X6645000Y-15309666D02*
X6615000Y-15339666D01*
D13*
X6943872Y-15216149D02*
X6962920Y-15216149D01*
X6962920Y-15216149D02*
X6981967Y-15225673D01*
X6981967Y-15225673D02*
X6991491Y-15235197D01*
X6991491Y-15235197D02*
X7001015Y-15254245D01*
X7001015Y-15254245D02*
X7010539Y-15292340D01*
X7010539Y-15292340D02*
X7010539Y-15339959D01*
X7010539Y-15339959D02*
X7001015Y-15378054D01*
X7001015Y-15378054D02*
X6991491Y-15397102D01*
X6991491Y-15397102D02*
X6981967Y-15406626D01*
X6981967Y-15406626D02*
X6962920Y-15416149D01*
X6962920Y-15416149D02*
X6943872Y-15416149D01*
X6943872Y-15416149D02*
X6924824Y-15406626D01*
X6924824Y-15406626D02*
X6915301Y-15397102D01*
X6915301Y-15397102D02*
X6905777Y-15378054D01*
X6905777Y-15378054D02*
X6896253Y-15339959D01*
X6896253Y-15339959D02*
X6896253Y-15292340D01*
X6896253Y-15292340D02*
X6905777Y-15254245D01*
X6905777Y-15254245D02*
X6915301Y-15235197D01*
X6915301Y-15235197D02*
X6924824Y-15225673D01*
X6924824Y-15225673D02*
X6943872Y-15216149D01*
X7096253Y-15397102D02*
X7105777Y-15406626D01*
X7105777Y-15406626D02*
X7096253Y-15416149D01*
X7096253Y-15416149D02*
X7086729Y-15406626D01*
X7086729Y-15406626D02*
X7096253Y-15397102D01*
X7096253Y-15397102D02*
X7096253Y-15416149D01*
X7172443Y-15216149D02*
X7296253Y-15216149D01*
X7296253Y-15216149D02*
X7229586Y-15292340D01*
X7229586Y-15292340D02*
X7258158Y-15292340D01*
X7258158Y-15292340D02*
X7277205Y-15301864D01*
X7277205Y-15301864D02*
X7286729Y-15311387D01*
X7286729Y-15311387D02*
X7296253Y-15330435D01*
X7296253Y-15330435D02*
X7296253Y-15378054D01*
X7296253Y-15378054D02*
X7286729Y-15397102D01*
X7286729Y-15397102D02*
X7277205Y-15406626D01*
X7277205Y-15406626D02*
X7258158Y-15416149D01*
X7258158Y-15416149D02*
X7201015Y-15416149D01*
X7201015Y-15416149D02*
X7181967Y-15406626D01*
X7181967Y-15406626D02*
X7172443Y-15397102D01*
X7420062Y-15216149D02*
X7439110Y-15216149D01*
X7439110Y-15216149D02*
X7458158Y-15225673D01*
X7458158Y-15225673D02*
X7467682Y-15235197D01*
X7467682Y-15235197D02*
X7477205Y-15254245D01*
X7477205Y-15254245D02*
X7486729Y-15292340D01*
X7486729Y-15292340D02*
X7486729Y-15339959D01*
X7486729Y-15339959D02*
X7477205Y-15378054D01*
X7477205Y-15378054D02*
X7467682Y-15397102D01*
X7467682Y-15397102D02*
X7458158Y-15406626D01*
X7458158Y-15406626D02*
X7439110Y-15416149D01*
X7439110Y-15416149D02*
X7420062Y-15416149D01*
X7420062Y-15416149D02*
X7401015Y-15406626D01*
X7401015Y-15406626D02*
X7391491Y-15397102D01*
X7391491Y-15397102D02*
X7381967Y-15378054D01*
X7381967Y-15378054D02*
X7372443Y-15339959D01*
X7372443Y-15339959D02*
X7372443Y-15292340D01*
X7372443Y-15292340D02*
X7381967Y-15254245D01*
X7381967Y-15254245D02*
X7391491Y-15235197D01*
X7391491Y-15235197D02*
X7401015Y-15225673D01*
X7401015Y-15225673D02*
X7420062Y-15216149D01*
X7610539Y-15216149D02*
X7629586Y-15216149D01*
X7629586Y-15216149D02*
X7648634Y-15225673D01*
X7648634Y-15225673D02*
X7658158Y-15235197D01*
X7658158Y-15235197D02*
X7667682Y-15254245D01*
X7667682Y-15254245D02*
X7677205Y-15292340D01*
X7677205Y-15292340D02*
X7677205Y-15339959D01*
X7677205Y-15339959D02*
X7667682Y-15378054D01*
X7667682Y-15378054D02*
X7658158Y-15397102D01*
X7658158Y-15397102D02*
X7648634Y-15406626D01*
X7648634Y-15406626D02*
X7629586Y-15416149D01*
X7629586Y-15416149D02*
X7610539Y-15416149D01*
X7610539Y-15416149D02*
X7591491Y-15406626D01*
X7591491Y-15406626D02*
X7581967Y-15397102D01*
X7581967Y-15397102D02*
X7572443Y-15378054D01*
X7572443Y-15378054D02*
X7562920Y-15339959D01*
X7562920Y-15339959D02*
X7562920Y-15292340D01*
X7562920Y-15292340D02*
X7572443Y-15254245D01*
X7572443Y-15254245D02*
X7581967Y-15235197D01*
X7581967Y-15235197D02*
X7591491Y-15225673D01*
X7591491Y-15225673D02*
X7610539Y-15216149D01*
X7762920Y-15416149D02*
X7762920Y-15282816D01*
X7762920Y-15301864D02*
X7772443Y-15292340D01*
X7772443Y-15292340D02*
X7791491Y-15282816D01*
X7791491Y-15282816D02*
X7820063Y-15282816D01*
X7820063Y-15282816D02*
X7839110Y-15292340D01*
X7839110Y-15292340D02*
X7848634Y-15311387D01*
X7848634Y-15311387D02*
X7848634Y-15416149D01*
X7848634Y-15311387D02*
X7858158Y-15292340D01*
X7858158Y-15292340D02*
X7877205Y-15282816D01*
X7877205Y-15282816D02*
X7905777Y-15282816D01*
X7905777Y-15282816D02*
X7924824Y-15292340D01*
X7924824Y-15292340D02*
X7934348Y-15311387D01*
X7934348Y-15311387D02*
X7934348Y-15416149D01*
X8029586Y-15416149D02*
X8029586Y-15282816D01*
X8029586Y-15301864D02*
X8039110Y-15292340D01*
X8039110Y-15292340D02*
X8058158Y-15282816D01*
X8058158Y-15282816D02*
X8086729Y-15282816D01*
X8086729Y-15282816D02*
X8105777Y-15292340D01*
X8105777Y-15292340D02*
X8115301Y-15311387D01*
X8115301Y-15311387D02*
X8115301Y-15416149D01*
X8115301Y-15311387D02*
X8124824Y-15292340D01*
X8124824Y-15292340D02*
X8143872Y-15282816D01*
X8143872Y-15282816D02*
X8172443Y-15282816D01*
X8172443Y-15282816D02*
X8191491Y-15292340D01*
X8191491Y-15292340D02*
X8201015Y-15311387D01*
X8201015Y-15311387D02*
X8201015Y-15416149D01*
X8591491Y-15206626D02*
X8420063Y-15463768D01*
X8848634Y-15216149D02*
X8867682Y-15216149D01*
X8867682Y-15216149D02*
X8886729Y-15225673D01*
X8886729Y-15225673D02*
X8896253Y-15235197D01*
X8896253Y-15235197D02*
X8905777Y-15254245D01*
X8905777Y-15254245D02*
X8915301Y-15292340D01*
X8915301Y-15292340D02*
X8915301Y-15339959D01*
X8915301Y-15339959D02*
X8905777Y-15378054D01*
X8905777Y-15378054D02*
X8896253Y-15397102D01*
X8896253Y-15397102D02*
X8886729Y-15406626D01*
X8886729Y-15406626D02*
X8867682Y-15416149D01*
X8867682Y-15416149D02*
X8848634Y-15416149D01*
X8848634Y-15416149D02*
X8829587Y-15406626D01*
X8829587Y-15406626D02*
X8820063Y-15397102D01*
X8820063Y-15397102D02*
X8810539Y-15378054D01*
X8810539Y-15378054D02*
X8801015Y-15339959D01*
X8801015Y-15339959D02*
X8801015Y-15292340D01*
X8801015Y-15292340D02*
X8810539Y-15254245D01*
X8810539Y-15254245D02*
X8820063Y-15235197D01*
X8820063Y-15235197D02*
X8829587Y-15225673D01*
X8829587Y-15225673D02*
X8848634Y-15216149D01*
X9001015Y-15397102D02*
X9010539Y-15406626D01*
X9010539Y-15406626D02*
X9001015Y-15416149D01*
X9001015Y-15416149D02*
X8991491Y-15406626D01*
X8991491Y-15406626D02*
X9001015Y-15397102D01*
X9001015Y-15397102D02*
X9001015Y-15416149D01*
X9134348Y-15216149D02*
X9153396Y-15216149D01*
X9153396Y-15216149D02*
X9172444Y-15225673D01*
X9172444Y-15225673D02*
X9181968Y-15235197D01*
X9181968Y-15235197D02*
X9191491Y-15254245D01*
X9191491Y-15254245D02*
X9201015Y-15292340D01*
X9201015Y-15292340D02*
X9201015Y-15339959D01*
X9201015Y-15339959D02*
X9191491Y-15378054D01*
X9191491Y-15378054D02*
X9181968Y-15397102D01*
X9181968Y-15397102D02*
X9172444Y-15406626D01*
X9172444Y-15406626D02*
X9153396Y-15416149D01*
X9153396Y-15416149D02*
X9134348Y-15416149D01*
X9134348Y-15416149D02*
X9115301Y-15406626D01*
X9115301Y-15406626D02*
X9105777Y-15397102D01*
X9105777Y-15397102D02*
X9096253Y-15378054D01*
X9096253Y-15378054D02*
X9086729Y-15339959D01*
X9086729Y-15339959D02*
X9086729Y-15292340D01*
X9086729Y-15292340D02*
X9096253Y-15254245D01*
X9096253Y-15254245D02*
X9105777Y-15235197D01*
X9105777Y-15235197D02*
X9115301Y-15225673D01*
X9115301Y-15225673D02*
X9134348Y-15216149D01*
X9391491Y-15416149D02*
X9277206Y-15416149D01*
X9334348Y-15416149D02*
X9334348Y-15216149D01*
X9334348Y-15216149D02*
X9315301Y-15244721D01*
X9315301Y-15244721D02*
X9296253Y-15263768D01*
X9296253Y-15263768D02*
X9277206Y-15273292D01*
X9581968Y-15416149D02*
X9467682Y-15416149D01*
X9524825Y-15416149D02*
X9524825Y-15216149D01*
X9524825Y-15216149D02*
X9505777Y-15244721D01*
X9505777Y-15244721D02*
X9486729Y-15263768D01*
X9486729Y-15263768D02*
X9467682Y-15273292D01*
X9696253Y-15301864D02*
X9677206Y-15292340D01*
X9677206Y-15292340D02*
X9667682Y-15282816D01*
X9667682Y-15282816D02*
X9658158Y-15263768D01*
X9658158Y-15263768D02*
X9658158Y-15254245D01*
X9658158Y-15254245D02*
X9667682Y-15235197D01*
X9667682Y-15235197D02*
X9677206Y-15225673D01*
X9677206Y-15225673D02*
X9696253Y-15216149D01*
X9696253Y-15216149D02*
X9734349Y-15216149D01*
X9734349Y-15216149D02*
X9753396Y-15225673D01*
X9753396Y-15225673D02*
X9762920Y-15235197D01*
X9762920Y-15235197D02*
X9772444Y-15254245D01*
X9772444Y-15254245D02*
X9772444Y-15263768D01*
X9772444Y-15263768D02*
X9762920Y-15282816D01*
X9762920Y-15282816D02*
X9753396Y-15292340D01*
X9753396Y-15292340D02*
X9734349Y-15301864D01*
X9734349Y-15301864D02*
X9696253Y-15301864D01*
X9696253Y-15301864D02*
X9677206Y-15311387D01*
X9677206Y-15311387D02*
X9667682Y-15320911D01*
X9667682Y-15320911D02*
X9658158Y-15339959D01*
X9658158Y-15339959D02*
X9658158Y-15378054D01*
X9658158Y-15378054D02*
X9667682Y-15397102D01*
X9667682Y-15397102D02*
X9677206Y-15406626D01*
X9677206Y-15406626D02*
X9696253Y-15416149D01*
X9696253Y-15416149D02*
X9734349Y-15416149D01*
X9734349Y-15416149D02*
X9753396Y-15406626D01*
X9753396Y-15406626D02*
X9762920Y-15397102D01*
X9762920Y-15397102D02*
X9772444Y-15378054D01*
X9772444Y-15378054D02*
X9772444Y-15339959D01*
X9772444Y-15339959D02*
X9762920Y-15320911D01*
X9762920Y-15320911D02*
X9753396Y-15311387D01*
X9753396Y-15311387D02*
X9734349Y-15301864D01*
X9848634Y-15216149D02*
X9848634Y-15254245D01*
X9924825Y-15216149D02*
X9924825Y-15254245D01*
X10220063Y-15492340D02*
X10210539Y-15482816D01*
X10210539Y-15482816D02*
X10191491Y-15454245D01*
X10191491Y-15454245D02*
X10181968Y-15435197D01*
X10181968Y-15435197D02*
X10172444Y-15406626D01*
X10172444Y-15406626D02*
X10162920Y-15359006D01*
X10162920Y-15359006D02*
X10162920Y-15320911D01*
X10162920Y-15320911D02*
X10172444Y-15273292D01*
X10172444Y-15273292D02*
X10181968Y-15244721D01*
X10181968Y-15244721D02*
X10191491Y-15225673D01*
X10191491Y-15225673D02*
X10210539Y-15197102D01*
X10210539Y-15197102D02*
X10220063Y-15187578D01*
X10286730Y-15235197D02*
X10296253Y-15225673D01*
X10296253Y-15225673D02*
X10315301Y-15216149D01*
X10315301Y-15216149D02*
X10362920Y-15216149D01*
X10362920Y-15216149D02*
X10381968Y-15225673D01*
X10381968Y-15225673D02*
X10391491Y-15235197D01*
X10391491Y-15235197D02*
X10401015Y-15254245D01*
X10401015Y-15254245D02*
X10401015Y-15273292D01*
X10401015Y-15273292D02*
X10391491Y-15301864D01*
X10391491Y-15301864D02*
X10277206Y-15416149D01*
X10277206Y-15416149D02*
X10401015Y-15416149D01*
X10515301Y-15301864D02*
X10496253Y-15292340D01*
X10496253Y-15292340D02*
X10486730Y-15282816D01*
X10486730Y-15282816D02*
X10477206Y-15263768D01*
X10477206Y-15263768D02*
X10477206Y-15254245D01*
X10477206Y-15254245D02*
X10486730Y-15235197D01*
X10486730Y-15235197D02*
X10496253Y-15225673D01*
X10496253Y-15225673D02*
X10515301Y-15216149D01*
X10515301Y-15216149D02*
X10553396Y-15216149D01*
X10553396Y-15216149D02*
X10572444Y-15225673D01*
X10572444Y-15225673D02*
X10581968Y-15235197D01*
X10581968Y-15235197D02*
X10591491Y-15254245D01*
X10591491Y-15254245D02*
X10591491Y-15263768D01*
X10591491Y-15263768D02*
X10581968Y-15282816D01*
X10581968Y-15282816D02*
X10572444Y-15292340D01*
X10572444Y-15292340D02*
X10553396Y-15301864D01*
X10553396Y-15301864D02*
X10515301Y-15301864D01*
X10515301Y-15301864D02*
X10496253Y-15311387D01*
X10496253Y-15311387D02*
X10486730Y-15320911D01*
X10486730Y-15320911D02*
X10477206Y-15339959D01*
X10477206Y-15339959D02*
X10477206Y-15378054D01*
X10477206Y-15378054D02*
X10486730Y-15397102D01*
X10486730Y-15397102D02*
X10496253Y-15406626D01*
X10496253Y-15406626D02*
X10515301Y-15416149D01*
X10515301Y-15416149D02*
X10553396Y-15416149D01*
X10553396Y-15416149D02*
X10572444Y-15406626D01*
X10572444Y-15406626D02*
X10581968Y-15397102D01*
X10581968Y-15397102D02*
X10591491Y-15378054D01*
X10591491Y-15378054D02*
X10591491Y-15339959D01*
X10591491Y-15339959D02*
X10581968Y-15320911D01*
X10581968Y-15320911D02*
X10572444Y-15311387D01*
X10572444Y-15311387D02*
X10553396Y-15301864D01*
X10772444Y-15216149D02*
X10677206Y-15216149D01*
X10677206Y-15216149D02*
X10667682Y-15311387D01*
X10667682Y-15311387D02*
X10677206Y-15301864D01*
X10677206Y-15301864D02*
X10696253Y-15292340D01*
X10696253Y-15292340D02*
X10743872Y-15292340D01*
X10743872Y-15292340D02*
X10762920Y-15301864D01*
X10762920Y-15301864D02*
X10772444Y-15311387D01*
X10772444Y-15311387D02*
X10781968Y-15330435D01*
X10781968Y-15330435D02*
X10781968Y-15378054D01*
X10781968Y-15378054D02*
X10772444Y-15397102D01*
X10772444Y-15397102D02*
X10762920Y-15406626D01*
X10762920Y-15406626D02*
X10743872Y-15416149D01*
X10743872Y-15416149D02*
X10696253Y-15416149D01*
X10696253Y-15416149D02*
X10677206Y-15406626D01*
X10677206Y-15406626D02*
X10667682Y-15397102D01*
X11020063Y-15416149D02*
X11020063Y-15216149D01*
X11105777Y-15416149D02*
X11105777Y-15311387D01*
X11105777Y-15311387D02*
X11096253Y-15292340D01*
X11096253Y-15292340D02*
X11077206Y-15282816D01*
X11077206Y-15282816D02*
X11048634Y-15282816D01*
X11048634Y-15282816D02*
X11029587Y-15292340D01*
X11029587Y-15292340D02*
X11020063Y-15301864D01*
X11229587Y-15416149D02*
X11210539Y-15406626D01*
X11210539Y-15406626D02*
X11201015Y-15397102D01*
X11201015Y-15397102D02*
X11191491Y-15378054D01*
X11191491Y-15378054D02*
X11191491Y-15320911D01*
X11191491Y-15320911D02*
X11201015Y-15301864D01*
X11201015Y-15301864D02*
X11210539Y-15292340D01*
X11210539Y-15292340D02*
X11229587Y-15282816D01*
X11229587Y-15282816D02*
X11258158Y-15282816D01*
X11258158Y-15282816D02*
X11277206Y-15292340D01*
X11277206Y-15292340D02*
X11286730Y-15301864D01*
X11286730Y-15301864D02*
X11296253Y-15320911D01*
X11296253Y-15320911D02*
X11296253Y-15378054D01*
X11296253Y-15378054D02*
X11286730Y-15397102D01*
X11286730Y-15397102D02*
X11277206Y-15406626D01*
X11277206Y-15406626D02*
X11258158Y-15416149D01*
X11258158Y-15416149D02*
X11229587Y-15416149D01*
X11410539Y-15416149D02*
X11391491Y-15406626D01*
X11391491Y-15406626D02*
X11381968Y-15387578D01*
X11381968Y-15387578D02*
X11381968Y-15216149D01*
X11562920Y-15406626D02*
X11543872Y-15416149D01*
X11543872Y-15416149D02*
X11505777Y-15416149D01*
X11505777Y-15416149D02*
X11486730Y-15406626D01*
X11486730Y-15406626D02*
X11477206Y-15387578D01*
X11477206Y-15387578D02*
X11477206Y-15311387D01*
X11477206Y-15311387D02*
X11486730Y-15292340D01*
X11486730Y-15292340D02*
X11505777Y-15282816D01*
X11505777Y-15282816D02*
X11543872Y-15282816D01*
X11543872Y-15282816D02*
X11562920Y-15292340D01*
X11562920Y-15292340D02*
X11572444Y-15311387D01*
X11572444Y-15311387D02*
X11572444Y-15330435D01*
X11572444Y-15330435D02*
X11477206Y-15349483D01*
X11648634Y-15406626D02*
X11667682Y-15416149D01*
X11667682Y-15416149D02*
X11705777Y-15416149D01*
X11705777Y-15416149D02*
X11724825Y-15406626D01*
X11724825Y-15406626D02*
X11734349Y-15387578D01*
X11734349Y-15387578D02*
X11734349Y-15378054D01*
X11734349Y-15378054D02*
X11724825Y-15359006D01*
X11724825Y-15359006D02*
X11705777Y-15349483D01*
X11705777Y-15349483D02*
X11677206Y-15349483D01*
X11677206Y-15349483D02*
X11658158Y-15339959D01*
X11658158Y-15339959D02*
X11648634Y-15320911D01*
X11648634Y-15320911D02*
X11648634Y-15311387D01*
X11648634Y-15311387D02*
X11658158Y-15292340D01*
X11658158Y-15292340D02*
X11677206Y-15282816D01*
X11677206Y-15282816D02*
X11705777Y-15282816D01*
X11705777Y-15282816D02*
X11724825Y-15292340D01*
X11801015Y-15492340D02*
X11810539Y-15482816D01*
X11810539Y-15482816D02*
X11829587Y-15454245D01*
X11829587Y-15454245D02*
X11839111Y-15435197D01*
X11839111Y-15435197D02*
X11848634Y-15406626D01*
X11848634Y-15406626D02*
X11858158Y-15359006D01*
X11858158Y-15359006D02*
X11858158Y-15320911D01*
X11858158Y-15320911D02*
X11848634Y-15273292D01*
X11848634Y-15273292D02*
X11839111Y-15244721D01*
X11839111Y-15244721D02*
X11829587Y-15225673D01*
X11829587Y-15225673D02*
X11810539Y-15197102D01*
X11810539Y-15197102D02*
X11801015Y-15187578D01*
D10*
X6645000Y-15588666D02*
G75*
G02*
X6563720Y-15588666I-40640J0D01*
G01*
X6563720Y-15588666D02*
G75*
G02*
X6645000Y-15588666I40640J0D01*
G01*
D13*
X6943872Y-15480149D02*
X6962920Y-15480149D01*
X6962920Y-15480149D02*
X6981967Y-15489673D01*
X6981967Y-15489673D02*
X6991491Y-15499197D01*
X6991491Y-15499197D02*
X7001015Y-15518245D01*
X7001015Y-15518245D02*
X7010539Y-15556340D01*
X7010539Y-15556340D02*
X7010539Y-15603959D01*
X7010539Y-15603959D02*
X7001015Y-15642054D01*
X7001015Y-15642054D02*
X6991491Y-15661102D01*
X6991491Y-15661102D02*
X6981967Y-15670626D01*
X6981967Y-15670626D02*
X6962920Y-15680149D01*
X6962920Y-15680149D02*
X6943872Y-15680149D01*
X6943872Y-15680149D02*
X6924824Y-15670626D01*
X6924824Y-15670626D02*
X6915301Y-15661102D01*
X6915301Y-15661102D02*
X6905777Y-15642054D01*
X6905777Y-15642054D02*
X6896253Y-15603959D01*
X6896253Y-15603959D02*
X6896253Y-15556340D01*
X6896253Y-15556340D02*
X6905777Y-15518245D01*
X6905777Y-15518245D02*
X6915301Y-15499197D01*
X6915301Y-15499197D02*
X6924824Y-15489673D01*
X6924824Y-15489673D02*
X6943872Y-15480149D01*
X7096253Y-15661102D02*
X7105777Y-15670626D01*
X7105777Y-15670626D02*
X7096253Y-15680149D01*
X7096253Y-15680149D02*
X7086729Y-15670626D01*
X7086729Y-15670626D02*
X7096253Y-15661102D01*
X7096253Y-15661102D02*
X7096253Y-15680149D01*
X7220062Y-15565864D02*
X7201015Y-15556340D01*
X7201015Y-15556340D02*
X7191491Y-15546816D01*
X7191491Y-15546816D02*
X7181967Y-15527768D01*
X7181967Y-15527768D02*
X7181967Y-15518245D01*
X7181967Y-15518245D02*
X7191491Y-15499197D01*
X7191491Y-15499197D02*
X7201015Y-15489673D01*
X7201015Y-15489673D02*
X7220062Y-15480149D01*
X7220062Y-15480149D02*
X7258158Y-15480149D01*
X7258158Y-15480149D02*
X7277205Y-15489673D01*
X7277205Y-15489673D02*
X7286729Y-15499197D01*
X7286729Y-15499197D02*
X7296253Y-15518245D01*
X7296253Y-15518245D02*
X7296253Y-15527768D01*
X7296253Y-15527768D02*
X7286729Y-15546816D01*
X7286729Y-15546816D02*
X7277205Y-15556340D01*
X7277205Y-15556340D02*
X7258158Y-15565864D01*
X7258158Y-15565864D02*
X7220062Y-15565864D01*
X7220062Y-15565864D02*
X7201015Y-15575387D01*
X7201015Y-15575387D02*
X7191491Y-15584911D01*
X7191491Y-15584911D02*
X7181967Y-15603959D01*
X7181967Y-15603959D02*
X7181967Y-15642054D01*
X7181967Y-15642054D02*
X7191491Y-15661102D01*
X7191491Y-15661102D02*
X7201015Y-15670626D01*
X7201015Y-15670626D02*
X7220062Y-15680149D01*
X7220062Y-15680149D02*
X7258158Y-15680149D01*
X7258158Y-15680149D02*
X7277205Y-15670626D01*
X7277205Y-15670626D02*
X7286729Y-15661102D01*
X7286729Y-15661102D02*
X7296253Y-15642054D01*
X7296253Y-15642054D02*
X7296253Y-15603959D01*
X7296253Y-15603959D02*
X7286729Y-15584911D01*
X7286729Y-15584911D02*
X7277205Y-15575387D01*
X7277205Y-15575387D02*
X7258158Y-15565864D01*
X7486729Y-15680149D02*
X7372443Y-15680149D01*
X7429586Y-15680149D02*
X7429586Y-15480149D01*
X7429586Y-15480149D02*
X7410539Y-15508721D01*
X7410539Y-15508721D02*
X7391491Y-15527768D01*
X7391491Y-15527768D02*
X7372443Y-15537292D01*
X7553396Y-15480149D02*
X7677205Y-15480149D01*
X7677205Y-15480149D02*
X7610539Y-15556340D01*
X7610539Y-15556340D02*
X7639110Y-15556340D01*
X7639110Y-15556340D02*
X7658158Y-15565864D01*
X7658158Y-15565864D02*
X7667682Y-15575387D01*
X7667682Y-15575387D02*
X7677205Y-15594435D01*
X7677205Y-15594435D02*
X7677205Y-15642054D01*
X7677205Y-15642054D02*
X7667682Y-15661102D01*
X7667682Y-15661102D02*
X7658158Y-15670626D01*
X7658158Y-15670626D02*
X7639110Y-15680149D01*
X7639110Y-15680149D02*
X7581967Y-15680149D01*
X7581967Y-15680149D02*
X7562920Y-15670626D01*
X7562920Y-15670626D02*
X7553396Y-15661102D01*
X7762920Y-15680149D02*
X7762920Y-15546816D01*
X7762920Y-15565864D02*
X7772443Y-15556340D01*
X7772443Y-15556340D02*
X7791491Y-15546816D01*
X7791491Y-15546816D02*
X7820063Y-15546816D01*
X7820063Y-15546816D02*
X7839110Y-15556340D01*
X7839110Y-15556340D02*
X7848634Y-15575387D01*
X7848634Y-15575387D02*
X7848634Y-15680149D01*
X7848634Y-15575387D02*
X7858158Y-15556340D01*
X7858158Y-15556340D02*
X7877205Y-15546816D01*
X7877205Y-15546816D02*
X7905777Y-15546816D01*
X7905777Y-15546816D02*
X7924824Y-15556340D01*
X7924824Y-15556340D02*
X7934348Y-15575387D01*
X7934348Y-15575387D02*
X7934348Y-15680149D01*
X8029586Y-15680149D02*
X8029586Y-15546816D01*
X8029586Y-15565864D02*
X8039110Y-15556340D01*
X8039110Y-15556340D02*
X8058158Y-15546816D01*
X8058158Y-15546816D02*
X8086729Y-15546816D01*
X8086729Y-15546816D02*
X8105777Y-15556340D01*
X8105777Y-15556340D02*
X8115301Y-15575387D01*
X8115301Y-15575387D02*
X8115301Y-15680149D01*
X8115301Y-15575387D02*
X8124824Y-15556340D01*
X8124824Y-15556340D02*
X8143872Y-15546816D01*
X8143872Y-15546816D02*
X8172443Y-15546816D01*
X8172443Y-15546816D02*
X8191491Y-15556340D01*
X8191491Y-15556340D02*
X8201015Y-15575387D01*
X8201015Y-15575387D02*
X8201015Y-15680149D01*
X8591491Y-15470626D02*
X8420063Y-15727768D01*
X8848634Y-15480149D02*
X8867682Y-15480149D01*
X8867682Y-15480149D02*
X8886729Y-15489673D01*
X8886729Y-15489673D02*
X8896253Y-15499197D01*
X8896253Y-15499197D02*
X8905777Y-15518245D01*
X8905777Y-15518245D02*
X8915301Y-15556340D01*
X8915301Y-15556340D02*
X8915301Y-15603959D01*
X8915301Y-15603959D02*
X8905777Y-15642054D01*
X8905777Y-15642054D02*
X8896253Y-15661102D01*
X8896253Y-15661102D02*
X8886729Y-15670626D01*
X8886729Y-15670626D02*
X8867682Y-15680149D01*
X8867682Y-15680149D02*
X8848634Y-15680149D01*
X8848634Y-15680149D02*
X8829587Y-15670626D01*
X8829587Y-15670626D02*
X8820063Y-15661102D01*
X8820063Y-15661102D02*
X8810539Y-15642054D01*
X8810539Y-15642054D02*
X8801015Y-15603959D01*
X8801015Y-15603959D02*
X8801015Y-15556340D01*
X8801015Y-15556340D02*
X8810539Y-15518245D01*
X8810539Y-15518245D02*
X8820063Y-15499197D01*
X8820063Y-15499197D02*
X8829587Y-15489673D01*
X8829587Y-15489673D02*
X8848634Y-15480149D01*
X9001015Y-15661102D02*
X9010539Y-15670626D01*
X9010539Y-15670626D02*
X9001015Y-15680149D01*
X9001015Y-15680149D02*
X8991491Y-15670626D01*
X8991491Y-15670626D02*
X9001015Y-15661102D01*
X9001015Y-15661102D02*
X9001015Y-15680149D01*
X9134348Y-15480149D02*
X9153396Y-15480149D01*
X9153396Y-15480149D02*
X9172444Y-15489673D01*
X9172444Y-15489673D02*
X9181968Y-15499197D01*
X9181968Y-15499197D02*
X9191491Y-15518245D01*
X9191491Y-15518245D02*
X9201015Y-15556340D01*
X9201015Y-15556340D02*
X9201015Y-15603959D01*
X9201015Y-15603959D02*
X9191491Y-15642054D01*
X9191491Y-15642054D02*
X9181968Y-15661102D01*
X9181968Y-15661102D02*
X9172444Y-15670626D01*
X9172444Y-15670626D02*
X9153396Y-15680149D01*
X9153396Y-15680149D02*
X9134348Y-15680149D01*
X9134348Y-15680149D02*
X9115301Y-15670626D01*
X9115301Y-15670626D02*
X9105777Y-15661102D01*
X9105777Y-15661102D02*
X9096253Y-15642054D01*
X9096253Y-15642054D02*
X9086729Y-15603959D01*
X9086729Y-15603959D02*
X9086729Y-15556340D01*
X9086729Y-15556340D02*
X9096253Y-15518245D01*
X9096253Y-15518245D02*
X9105777Y-15499197D01*
X9105777Y-15499197D02*
X9115301Y-15489673D01*
X9115301Y-15489673D02*
X9134348Y-15480149D01*
X9267682Y-15480149D02*
X9391491Y-15480149D01*
X9391491Y-15480149D02*
X9324825Y-15556340D01*
X9324825Y-15556340D02*
X9353396Y-15556340D01*
X9353396Y-15556340D02*
X9372444Y-15565864D01*
X9372444Y-15565864D02*
X9381968Y-15575387D01*
X9381968Y-15575387D02*
X9391491Y-15594435D01*
X9391491Y-15594435D02*
X9391491Y-15642054D01*
X9391491Y-15642054D02*
X9381968Y-15661102D01*
X9381968Y-15661102D02*
X9372444Y-15670626D01*
X9372444Y-15670626D02*
X9353396Y-15680149D01*
X9353396Y-15680149D02*
X9296253Y-15680149D01*
X9296253Y-15680149D02*
X9277206Y-15670626D01*
X9277206Y-15670626D02*
X9267682Y-15661102D01*
X9467682Y-15499197D02*
X9477206Y-15489673D01*
X9477206Y-15489673D02*
X9496253Y-15480149D01*
X9496253Y-15480149D02*
X9543872Y-15480149D01*
X9543872Y-15480149D02*
X9562920Y-15489673D01*
X9562920Y-15489673D02*
X9572444Y-15499197D01*
X9572444Y-15499197D02*
X9581968Y-15518245D01*
X9581968Y-15518245D02*
X9581968Y-15537292D01*
X9581968Y-15537292D02*
X9572444Y-15565864D01*
X9572444Y-15565864D02*
X9458158Y-15680149D01*
X9458158Y-15680149D02*
X9581968Y-15680149D01*
X9705777Y-15480149D02*
X9724825Y-15480149D01*
X9724825Y-15480149D02*
X9743872Y-15489673D01*
X9743872Y-15489673D02*
X9753396Y-15499197D01*
X9753396Y-15499197D02*
X9762920Y-15518245D01*
X9762920Y-15518245D02*
X9772444Y-15556340D01*
X9772444Y-15556340D02*
X9772444Y-15603959D01*
X9772444Y-15603959D02*
X9762920Y-15642054D01*
X9762920Y-15642054D02*
X9753396Y-15661102D01*
X9753396Y-15661102D02*
X9743872Y-15670626D01*
X9743872Y-15670626D02*
X9724825Y-15680149D01*
X9724825Y-15680149D02*
X9705777Y-15680149D01*
X9705777Y-15680149D02*
X9686729Y-15670626D01*
X9686729Y-15670626D02*
X9677206Y-15661102D01*
X9677206Y-15661102D02*
X9667682Y-15642054D01*
X9667682Y-15642054D02*
X9658158Y-15603959D01*
X9658158Y-15603959D02*
X9658158Y-15556340D01*
X9658158Y-15556340D02*
X9667682Y-15518245D01*
X9667682Y-15518245D02*
X9677206Y-15499197D01*
X9677206Y-15499197D02*
X9686729Y-15489673D01*
X9686729Y-15489673D02*
X9705777Y-15480149D01*
X9848634Y-15480149D02*
X9848634Y-15518245D01*
X9924825Y-15480149D02*
X9924825Y-15518245D01*
X10220063Y-15756340D02*
X10210539Y-15746816D01*
X10210539Y-15746816D02*
X10191491Y-15718245D01*
X10191491Y-15718245D02*
X10181968Y-15699197D01*
X10181968Y-15699197D02*
X10172444Y-15670626D01*
X10172444Y-15670626D02*
X10162920Y-15623006D01*
X10162920Y-15623006D02*
X10162920Y-15584911D01*
X10162920Y-15584911D02*
X10172444Y-15537292D01*
X10172444Y-15537292D02*
X10181968Y-15508721D01*
X10181968Y-15508721D02*
X10191491Y-15489673D01*
X10191491Y-15489673D02*
X10210539Y-15461102D01*
X10210539Y-15461102D02*
X10220063Y-15451578D01*
X10381968Y-15546816D02*
X10381968Y-15680149D01*
X10334349Y-15470626D02*
X10286730Y-15613483D01*
X10286730Y-15613483D02*
X10410539Y-15613483D01*
X10515301Y-15565864D02*
X10496253Y-15556340D01*
X10496253Y-15556340D02*
X10486730Y-15546816D01*
X10486730Y-15546816D02*
X10477206Y-15527768D01*
X10477206Y-15527768D02*
X10477206Y-15518245D01*
X10477206Y-15518245D02*
X10486730Y-15499197D01*
X10486730Y-15499197D02*
X10496253Y-15489673D01*
X10496253Y-15489673D02*
X10515301Y-15480149D01*
X10515301Y-15480149D02*
X10553396Y-15480149D01*
X10553396Y-15480149D02*
X10572444Y-15489673D01*
X10572444Y-15489673D02*
X10581968Y-15499197D01*
X10581968Y-15499197D02*
X10591491Y-15518245D01*
X10591491Y-15518245D02*
X10591491Y-15527768D01*
X10591491Y-15527768D02*
X10581968Y-15546816D01*
X10581968Y-15546816D02*
X10572444Y-15556340D01*
X10572444Y-15556340D02*
X10553396Y-15565864D01*
X10553396Y-15565864D02*
X10515301Y-15565864D01*
X10515301Y-15565864D02*
X10496253Y-15575387D01*
X10496253Y-15575387D02*
X10486730Y-15584911D01*
X10486730Y-15584911D02*
X10477206Y-15603959D01*
X10477206Y-15603959D02*
X10477206Y-15642054D01*
X10477206Y-15642054D02*
X10486730Y-15661102D01*
X10486730Y-15661102D02*
X10496253Y-15670626D01*
X10496253Y-15670626D02*
X10515301Y-15680149D01*
X10515301Y-15680149D02*
X10553396Y-15680149D01*
X10553396Y-15680149D02*
X10572444Y-15670626D01*
X10572444Y-15670626D02*
X10581968Y-15661102D01*
X10581968Y-15661102D02*
X10591491Y-15642054D01*
X10591491Y-15642054D02*
X10591491Y-15603959D01*
X10591491Y-15603959D02*
X10581968Y-15584911D01*
X10581968Y-15584911D02*
X10572444Y-15575387D01*
X10572444Y-15575387D02*
X10553396Y-15565864D01*
X10829587Y-15680149D02*
X10829587Y-15480149D01*
X10915301Y-15680149D02*
X10915301Y-15575387D01*
X10915301Y-15575387D02*
X10905777Y-15556340D01*
X10905777Y-15556340D02*
X10886730Y-15546816D01*
X10886730Y-15546816D02*
X10858158Y-15546816D01*
X10858158Y-15546816D02*
X10839111Y-15556340D01*
X10839111Y-15556340D02*
X10829587Y-15565864D01*
X11039111Y-15680149D02*
X11020063Y-15670626D01*
X11020063Y-15670626D02*
X11010539Y-15661102D01*
X11010539Y-15661102D02*
X11001015Y-15642054D01*
X11001015Y-15642054D02*
X11001015Y-15584911D01*
X11001015Y-15584911D02*
X11010539Y-15565864D01*
X11010539Y-15565864D02*
X11020063Y-15556340D01*
X11020063Y-15556340D02*
X11039111Y-15546816D01*
X11039111Y-15546816D02*
X11067682Y-15546816D01*
X11067682Y-15546816D02*
X11086730Y-15556340D01*
X11086730Y-15556340D02*
X11096253Y-15565864D01*
X11096253Y-15565864D02*
X11105777Y-15584911D01*
X11105777Y-15584911D02*
X11105777Y-15642054D01*
X11105777Y-15642054D02*
X11096253Y-15661102D01*
X11096253Y-15661102D02*
X11086730Y-15670626D01*
X11086730Y-15670626D02*
X11067682Y-15680149D01*
X11067682Y-15680149D02*
X11039111Y-15680149D01*
X11220063Y-15680149D02*
X11201015Y-15670626D01*
X11201015Y-15670626D02*
X11191491Y-15651578D01*
X11191491Y-15651578D02*
X11191491Y-15480149D01*
X11372444Y-15670626D02*
X11353396Y-15680149D01*
X11353396Y-15680149D02*
X11315301Y-15680149D01*
X11315301Y-15680149D02*
X11296253Y-15670626D01*
X11296253Y-15670626D02*
X11286730Y-15651578D01*
X11286730Y-15651578D02*
X11286730Y-15575387D01*
X11286730Y-15575387D02*
X11296253Y-15556340D01*
X11296253Y-15556340D02*
X11315301Y-15546816D01*
X11315301Y-15546816D02*
X11353396Y-15546816D01*
X11353396Y-15546816D02*
X11372444Y-15556340D01*
X11372444Y-15556340D02*
X11381968Y-15575387D01*
X11381968Y-15575387D02*
X11381968Y-15594435D01*
X11381968Y-15594435D02*
X11286730Y-15613483D01*
X11458158Y-15670626D02*
X11477206Y-15680149D01*
X11477206Y-15680149D02*
X11515301Y-15680149D01*
X11515301Y-15680149D02*
X11534349Y-15670626D01*
X11534349Y-15670626D02*
X11543872Y-15651578D01*
X11543872Y-15651578D02*
X11543872Y-15642054D01*
X11543872Y-15642054D02*
X11534349Y-15623006D01*
X11534349Y-15623006D02*
X11515301Y-15613483D01*
X11515301Y-15613483D02*
X11486730Y-15613483D01*
X11486730Y-15613483D02*
X11467682Y-15603959D01*
X11467682Y-15603959D02*
X11458158Y-15584911D01*
X11458158Y-15584911D02*
X11458158Y-15575387D01*
X11458158Y-15575387D02*
X11467682Y-15556340D01*
X11467682Y-15556340D02*
X11486730Y-15546816D01*
X11486730Y-15546816D02*
X11515301Y-15546816D01*
X11515301Y-15546816D02*
X11534349Y-15556340D01*
X11610539Y-15756340D02*
X11620063Y-15746816D01*
X11620063Y-15746816D02*
X11639111Y-15718245D01*
X11639111Y-15718245D02*
X11648634Y-15699197D01*
X11648634Y-15699197D02*
X11658158Y-15670626D01*
X11658158Y-15670626D02*
X11667682Y-15623006D01*
X11667682Y-15623006D02*
X11667682Y-15584911D01*
X11667682Y-15584911D02*
X11658158Y-15537292D01*
X11658158Y-15537292D02*
X11648634Y-15508721D01*
X11648634Y-15508721D02*
X11639111Y-15489673D01*
X11639111Y-15489673D02*
X11620063Y-15461102D01*
X11620063Y-15461102D02*
X11610539Y-15451578D01*
D10*
X6595000Y-15802666D02*
X6595000Y-15902666D01*
X6545000Y-15852666D02*
X6645000Y-15852666D01*
D13*
X7010539Y-15944149D02*
X6896253Y-15944149D01*
X6953396Y-15944149D02*
X6953396Y-15744149D01*
X6953396Y-15744149D02*
X6934348Y-15772721D01*
X6934348Y-15772721D02*
X6915301Y-15791768D01*
X6915301Y-15791768D02*
X6896253Y-15801292D01*
X7096253Y-15925102D02*
X7105777Y-15934626D01*
X7105777Y-15934626D02*
X7096253Y-15944149D01*
X7096253Y-15944149D02*
X7086729Y-15934626D01*
X7086729Y-15934626D02*
X7096253Y-15925102D01*
X7096253Y-15925102D02*
X7096253Y-15944149D01*
X7229586Y-15744149D02*
X7248634Y-15744149D01*
X7248634Y-15744149D02*
X7267682Y-15753673D01*
X7267682Y-15753673D02*
X7277205Y-15763197D01*
X7277205Y-15763197D02*
X7286729Y-15782245D01*
X7286729Y-15782245D02*
X7296253Y-15820340D01*
X7296253Y-15820340D02*
X7296253Y-15867959D01*
X7296253Y-15867959D02*
X7286729Y-15906054D01*
X7286729Y-15906054D02*
X7277205Y-15925102D01*
X7277205Y-15925102D02*
X7267682Y-15934626D01*
X7267682Y-15934626D02*
X7248634Y-15944149D01*
X7248634Y-15944149D02*
X7229586Y-15944149D01*
X7229586Y-15944149D02*
X7210539Y-15934626D01*
X7210539Y-15934626D02*
X7201015Y-15925102D01*
X7201015Y-15925102D02*
X7191491Y-15906054D01*
X7191491Y-15906054D02*
X7181967Y-15867959D01*
X7181967Y-15867959D02*
X7181967Y-15820340D01*
X7181967Y-15820340D02*
X7191491Y-15782245D01*
X7191491Y-15782245D02*
X7201015Y-15763197D01*
X7201015Y-15763197D02*
X7210539Y-15753673D01*
X7210539Y-15753673D02*
X7229586Y-15744149D01*
X7420062Y-15744149D02*
X7439110Y-15744149D01*
X7439110Y-15744149D02*
X7458158Y-15753673D01*
X7458158Y-15753673D02*
X7467682Y-15763197D01*
X7467682Y-15763197D02*
X7477205Y-15782245D01*
X7477205Y-15782245D02*
X7486729Y-15820340D01*
X7486729Y-15820340D02*
X7486729Y-15867959D01*
X7486729Y-15867959D02*
X7477205Y-15906054D01*
X7477205Y-15906054D02*
X7467682Y-15925102D01*
X7467682Y-15925102D02*
X7458158Y-15934626D01*
X7458158Y-15934626D02*
X7439110Y-15944149D01*
X7439110Y-15944149D02*
X7420062Y-15944149D01*
X7420062Y-15944149D02*
X7401015Y-15934626D01*
X7401015Y-15934626D02*
X7391491Y-15925102D01*
X7391491Y-15925102D02*
X7381967Y-15906054D01*
X7381967Y-15906054D02*
X7372443Y-15867959D01*
X7372443Y-15867959D02*
X7372443Y-15820340D01*
X7372443Y-15820340D02*
X7381967Y-15782245D01*
X7381967Y-15782245D02*
X7391491Y-15763197D01*
X7391491Y-15763197D02*
X7401015Y-15753673D01*
X7401015Y-15753673D02*
X7420062Y-15744149D01*
X7610539Y-15744149D02*
X7629586Y-15744149D01*
X7629586Y-15744149D02*
X7648634Y-15753673D01*
X7648634Y-15753673D02*
X7658158Y-15763197D01*
X7658158Y-15763197D02*
X7667682Y-15782245D01*
X7667682Y-15782245D02*
X7677205Y-15820340D01*
X7677205Y-15820340D02*
X7677205Y-15867959D01*
X7677205Y-15867959D02*
X7667682Y-15906054D01*
X7667682Y-15906054D02*
X7658158Y-15925102D01*
X7658158Y-15925102D02*
X7648634Y-15934626D01*
X7648634Y-15934626D02*
X7629586Y-15944149D01*
X7629586Y-15944149D02*
X7610539Y-15944149D01*
X7610539Y-15944149D02*
X7591491Y-15934626D01*
X7591491Y-15934626D02*
X7581967Y-15925102D01*
X7581967Y-15925102D02*
X7572443Y-15906054D01*
X7572443Y-15906054D02*
X7562920Y-15867959D01*
X7562920Y-15867959D02*
X7562920Y-15820340D01*
X7562920Y-15820340D02*
X7572443Y-15782245D01*
X7572443Y-15782245D02*
X7581967Y-15763197D01*
X7581967Y-15763197D02*
X7591491Y-15753673D01*
X7591491Y-15753673D02*
X7610539Y-15744149D01*
X7762920Y-15944149D02*
X7762920Y-15810816D01*
X7762920Y-15829864D02*
X7772443Y-15820340D01*
X7772443Y-15820340D02*
X7791491Y-15810816D01*
X7791491Y-15810816D02*
X7820063Y-15810816D01*
X7820063Y-15810816D02*
X7839110Y-15820340D01*
X7839110Y-15820340D02*
X7848634Y-15839387D01*
X7848634Y-15839387D02*
X7848634Y-15944149D01*
X7848634Y-15839387D02*
X7858158Y-15820340D01*
X7858158Y-15820340D02*
X7877205Y-15810816D01*
X7877205Y-15810816D02*
X7905777Y-15810816D01*
X7905777Y-15810816D02*
X7924824Y-15820340D01*
X7924824Y-15820340D02*
X7934348Y-15839387D01*
X7934348Y-15839387D02*
X7934348Y-15944149D01*
X8029586Y-15944149D02*
X8029586Y-15810816D01*
X8029586Y-15829864D02*
X8039110Y-15820340D01*
X8039110Y-15820340D02*
X8058158Y-15810816D01*
X8058158Y-15810816D02*
X8086729Y-15810816D01*
X8086729Y-15810816D02*
X8105777Y-15820340D01*
X8105777Y-15820340D02*
X8115301Y-15839387D01*
X8115301Y-15839387D02*
X8115301Y-15944149D01*
X8115301Y-15839387D02*
X8124824Y-15820340D01*
X8124824Y-15820340D02*
X8143872Y-15810816D01*
X8143872Y-15810816D02*
X8172443Y-15810816D01*
X8172443Y-15810816D02*
X8191491Y-15820340D01*
X8191491Y-15820340D02*
X8201015Y-15839387D01*
X8201015Y-15839387D02*
X8201015Y-15944149D01*
X8591491Y-15734626D02*
X8420063Y-15991768D01*
X8848634Y-15744149D02*
X8867682Y-15744149D01*
X8867682Y-15744149D02*
X8886729Y-15753673D01*
X8886729Y-15753673D02*
X8896253Y-15763197D01*
X8896253Y-15763197D02*
X8905777Y-15782245D01*
X8905777Y-15782245D02*
X8915301Y-15820340D01*
X8915301Y-15820340D02*
X8915301Y-15867959D01*
X8915301Y-15867959D02*
X8905777Y-15906054D01*
X8905777Y-15906054D02*
X8896253Y-15925102D01*
X8896253Y-15925102D02*
X8886729Y-15934626D01*
X8886729Y-15934626D02*
X8867682Y-15944149D01*
X8867682Y-15944149D02*
X8848634Y-15944149D01*
X8848634Y-15944149D02*
X8829587Y-15934626D01*
X8829587Y-15934626D02*
X8820063Y-15925102D01*
X8820063Y-15925102D02*
X8810539Y-15906054D01*
X8810539Y-15906054D02*
X8801015Y-15867959D01*
X8801015Y-15867959D02*
X8801015Y-15820340D01*
X8801015Y-15820340D02*
X8810539Y-15782245D01*
X8810539Y-15782245D02*
X8820063Y-15763197D01*
X8820063Y-15763197D02*
X8829587Y-15753673D01*
X8829587Y-15753673D02*
X8848634Y-15744149D01*
X9001015Y-15925102D02*
X9010539Y-15934626D01*
X9010539Y-15934626D02*
X9001015Y-15944149D01*
X9001015Y-15944149D02*
X8991491Y-15934626D01*
X8991491Y-15934626D02*
X9001015Y-15925102D01*
X9001015Y-15925102D02*
X9001015Y-15944149D01*
X9134348Y-15744149D02*
X9153396Y-15744149D01*
X9153396Y-15744149D02*
X9172444Y-15753673D01*
X9172444Y-15753673D02*
X9181968Y-15763197D01*
X9181968Y-15763197D02*
X9191491Y-15782245D01*
X9191491Y-15782245D02*
X9201015Y-15820340D01*
X9201015Y-15820340D02*
X9201015Y-15867959D01*
X9201015Y-15867959D02*
X9191491Y-15906054D01*
X9191491Y-15906054D02*
X9181968Y-15925102D01*
X9181968Y-15925102D02*
X9172444Y-15934626D01*
X9172444Y-15934626D02*
X9153396Y-15944149D01*
X9153396Y-15944149D02*
X9134348Y-15944149D01*
X9134348Y-15944149D02*
X9115301Y-15934626D01*
X9115301Y-15934626D02*
X9105777Y-15925102D01*
X9105777Y-15925102D02*
X9096253Y-15906054D01*
X9096253Y-15906054D02*
X9086729Y-15867959D01*
X9086729Y-15867959D02*
X9086729Y-15820340D01*
X9086729Y-15820340D02*
X9096253Y-15782245D01*
X9096253Y-15782245D02*
X9105777Y-15763197D01*
X9105777Y-15763197D02*
X9115301Y-15753673D01*
X9115301Y-15753673D02*
X9134348Y-15744149D01*
X9267682Y-15744149D02*
X9391491Y-15744149D01*
X9391491Y-15744149D02*
X9324825Y-15820340D01*
X9324825Y-15820340D02*
X9353396Y-15820340D01*
X9353396Y-15820340D02*
X9372444Y-15829864D01*
X9372444Y-15829864D02*
X9381968Y-15839387D01*
X9381968Y-15839387D02*
X9391491Y-15858435D01*
X9391491Y-15858435D02*
X9391491Y-15906054D01*
X9391491Y-15906054D02*
X9381968Y-15925102D01*
X9381968Y-15925102D02*
X9372444Y-15934626D01*
X9372444Y-15934626D02*
X9353396Y-15944149D01*
X9353396Y-15944149D02*
X9296253Y-15944149D01*
X9296253Y-15944149D02*
X9277206Y-15934626D01*
X9277206Y-15934626D02*
X9267682Y-15925102D01*
X9486729Y-15944149D02*
X9524825Y-15944149D01*
X9524825Y-15944149D02*
X9543872Y-15934626D01*
X9543872Y-15934626D02*
X9553396Y-15925102D01*
X9553396Y-15925102D02*
X9572444Y-15896530D01*
X9572444Y-15896530D02*
X9581968Y-15858435D01*
X9581968Y-15858435D02*
X9581968Y-15782245D01*
X9581968Y-15782245D02*
X9572444Y-15763197D01*
X9572444Y-15763197D02*
X9562920Y-15753673D01*
X9562920Y-15753673D02*
X9543872Y-15744149D01*
X9543872Y-15744149D02*
X9505777Y-15744149D01*
X9505777Y-15744149D02*
X9486729Y-15753673D01*
X9486729Y-15753673D02*
X9477206Y-15763197D01*
X9477206Y-15763197D02*
X9467682Y-15782245D01*
X9467682Y-15782245D02*
X9467682Y-15829864D01*
X9467682Y-15829864D02*
X9477206Y-15848911D01*
X9477206Y-15848911D02*
X9486729Y-15858435D01*
X9486729Y-15858435D02*
X9505777Y-15867959D01*
X9505777Y-15867959D02*
X9543872Y-15867959D01*
X9543872Y-15867959D02*
X9562920Y-15858435D01*
X9562920Y-15858435D02*
X9572444Y-15848911D01*
X9572444Y-15848911D02*
X9581968Y-15829864D01*
X9753396Y-15810816D02*
X9753396Y-15944149D01*
X9705777Y-15734626D02*
X9658158Y-15877483D01*
X9658158Y-15877483D02*
X9781968Y-15877483D01*
X9848634Y-15744149D02*
X9848634Y-15782245D01*
X9924825Y-15744149D02*
X9924825Y-15782245D01*
X10220063Y-16020340D02*
X10210539Y-16010816D01*
X10210539Y-16010816D02*
X10191491Y-15982245D01*
X10191491Y-15982245D02*
X10181968Y-15963197D01*
X10181968Y-15963197D02*
X10172444Y-15934626D01*
X10172444Y-15934626D02*
X10162920Y-15887006D01*
X10162920Y-15887006D02*
X10162920Y-15848911D01*
X10162920Y-15848911D02*
X10172444Y-15801292D01*
X10172444Y-15801292D02*
X10181968Y-15772721D01*
X10181968Y-15772721D02*
X10191491Y-15753673D01*
X10191491Y-15753673D02*
X10210539Y-15725102D01*
X10210539Y-15725102D02*
X10220063Y-15715578D01*
X10401015Y-15944149D02*
X10286730Y-15944149D01*
X10343872Y-15944149D02*
X10343872Y-15744149D01*
X10343872Y-15744149D02*
X10324825Y-15772721D01*
X10324825Y-15772721D02*
X10305777Y-15791768D01*
X10305777Y-15791768D02*
X10286730Y-15801292D01*
X10524825Y-15744149D02*
X10543872Y-15744149D01*
X10543872Y-15744149D02*
X10562920Y-15753673D01*
X10562920Y-15753673D02*
X10572444Y-15763197D01*
X10572444Y-15763197D02*
X10581968Y-15782245D01*
X10581968Y-15782245D02*
X10591491Y-15820340D01*
X10591491Y-15820340D02*
X10591491Y-15867959D01*
X10591491Y-15867959D02*
X10581968Y-15906054D01*
X10581968Y-15906054D02*
X10572444Y-15925102D01*
X10572444Y-15925102D02*
X10562920Y-15934626D01*
X10562920Y-15934626D02*
X10543872Y-15944149D01*
X10543872Y-15944149D02*
X10524825Y-15944149D01*
X10524825Y-15944149D02*
X10505777Y-15934626D01*
X10505777Y-15934626D02*
X10496253Y-15925102D01*
X10496253Y-15925102D02*
X10486730Y-15906054D01*
X10486730Y-15906054D02*
X10477206Y-15867959D01*
X10477206Y-15867959D02*
X10477206Y-15820340D01*
X10477206Y-15820340D02*
X10486730Y-15782245D01*
X10486730Y-15782245D02*
X10496253Y-15763197D01*
X10496253Y-15763197D02*
X10505777Y-15753673D01*
X10505777Y-15753673D02*
X10524825Y-15744149D01*
X10829587Y-15944149D02*
X10829587Y-15744149D01*
X10915301Y-15944149D02*
X10915301Y-15839387D01*
X10915301Y-15839387D02*
X10905777Y-15820340D01*
X10905777Y-15820340D02*
X10886730Y-15810816D01*
X10886730Y-15810816D02*
X10858158Y-15810816D01*
X10858158Y-15810816D02*
X10839111Y-15820340D01*
X10839111Y-15820340D02*
X10829587Y-15829864D01*
X11039111Y-15944149D02*
X11020063Y-15934626D01*
X11020063Y-15934626D02*
X11010539Y-15925102D01*
X11010539Y-15925102D02*
X11001015Y-15906054D01*
X11001015Y-15906054D02*
X11001015Y-15848911D01*
X11001015Y-15848911D02*
X11010539Y-15829864D01*
X11010539Y-15829864D02*
X11020063Y-15820340D01*
X11020063Y-15820340D02*
X11039111Y-15810816D01*
X11039111Y-15810816D02*
X11067682Y-15810816D01*
X11067682Y-15810816D02*
X11086730Y-15820340D01*
X11086730Y-15820340D02*
X11096253Y-15829864D01*
X11096253Y-15829864D02*
X11105777Y-15848911D01*
X11105777Y-15848911D02*
X11105777Y-15906054D01*
X11105777Y-15906054D02*
X11096253Y-15925102D01*
X11096253Y-15925102D02*
X11086730Y-15934626D01*
X11086730Y-15934626D02*
X11067682Y-15944149D01*
X11067682Y-15944149D02*
X11039111Y-15944149D01*
X11220063Y-15944149D02*
X11201015Y-15934626D01*
X11201015Y-15934626D02*
X11191491Y-15915578D01*
X11191491Y-15915578D02*
X11191491Y-15744149D01*
X11372444Y-15934626D02*
X11353396Y-15944149D01*
X11353396Y-15944149D02*
X11315301Y-15944149D01*
X11315301Y-15944149D02*
X11296253Y-15934626D01*
X11296253Y-15934626D02*
X11286730Y-15915578D01*
X11286730Y-15915578D02*
X11286730Y-15839387D01*
X11286730Y-15839387D02*
X11296253Y-15820340D01*
X11296253Y-15820340D02*
X11315301Y-15810816D01*
X11315301Y-15810816D02*
X11353396Y-15810816D01*
X11353396Y-15810816D02*
X11372444Y-15820340D01*
X11372444Y-15820340D02*
X11381968Y-15839387D01*
X11381968Y-15839387D02*
X11381968Y-15858435D01*
X11381968Y-15858435D02*
X11286730Y-15877483D01*
X11458158Y-15934626D02*
X11477206Y-15944149D01*
X11477206Y-15944149D02*
X11515301Y-15944149D01*
X11515301Y-15944149D02*
X11534349Y-15934626D01*
X11534349Y-15934626D02*
X11543872Y-15915578D01*
X11543872Y-15915578D02*
X11543872Y-15906054D01*
X11543872Y-15906054D02*
X11534349Y-15887006D01*
X11534349Y-15887006D02*
X11515301Y-15877483D01*
X11515301Y-15877483D02*
X11486730Y-15877483D01*
X11486730Y-15877483D02*
X11467682Y-15867959D01*
X11467682Y-15867959D02*
X11458158Y-15848911D01*
X11458158Y-15848911D02*
X11458158Y-15839387D01*
X11458158Y-15839387D02*
X11467682Y-15820340D01*
X11467682Y-15820340D02*
X11486730Y-15810816D01*
X11486730Y-15810816D02*
X11515301Y-15810816D01*
X11515301Y-15810816D02*
X11534349Y-15820340D01*
X11610539Y-16020340D02*
X11620063Y-16010816D01*
X11620063Y-16010816D02*
X11639111Y-15982245D01*
X11639111Y-15982245D02*
X11648634Y-15963197D01*
X11648634Y-15963197D02*
X11658158Y-15934626D01*
X11658158Y-15934626D02*
X11667682Y-15887006D01*
X11667682Y-15887006D02*
X11667682Y-15848911D01*
X11667682Y-15848911D02*
X11658158Y-15801292D01*
X11658158Y-15801292D02*
X11648634Y-15772721D01*
X11648634Y-15772721D02*
X11639111Y-15753673D01*
X11639111Y-15753673D02*
X11620063Y-15725102D01*
X11620063Y-15725102D02*
X11610539Y-15715578D01*
D14*
X6625962Y-16162628D02*
X6625962Y-16070703D01*
X6534038Y-16070703D01*
X6534038Y-16162628D01*
X6625962Y-16162628D01*
D13*
X7010539Y-16208149D02*
X6896253Y-16208149D01*
X6953396Y-16208149D02*
X6953396Y-16008149D01*
X6953396Y-16008149D02*
X6934348Y-16036721D01*
X6934348Y-16036721D02*
X6915301Y-16055768D01*
X6915301Y-16055768D02*
X6896253Y-16065292D01*
X7096253Y-16189102D02*
X7105777Y-16198626D01*
X7105777Y-16198626D02*
X7096253Y-16208149D01*
X7096253Y-16208149D02*
X7086729Y-16198626D01*
X7086729Y-16198626D02*
X7096253Y-16189102D01*
X7096253Y-16189102D02*
X7096253Y-16208149D01*
X7172443Y-16008149D02*
X7296253Y-16008149D01*
X7296253Y-16008149D02*
X7229586Y-16084340D01*
X7229586Y-16084340D02*
X7258158Y-16084340D01*
X7258158Y-16084340D02*
X7277205Y-16093864D01*
X7277205Y-16093864D02*
X7286729Y-16103387D01*
X7286729Y-16103387D02*
X7296253Y-16122435D01*
X7296253Y-16122435D02*
X7296253Y-16170054D01*
X7296253Y-16170054D02*
X7286729Y-16189102D01*
X7286729Y-16189102D02*
X7277205Y-16198626D01*
X7277205Y-16198626D02*
X7258158Y-16208149D01*
X7258158Y-16208149D02*
X7201015Y-16208149D01*
X7201015Y-16208149D02*
X7181967Y-16198626D01*
X7181967Y-16198626D02*
X7172443Y-16189102D01*
X7420062Y-16008149D02*
X7439110Y-16008149D01*
X7439110Y-16008149D02*
X7458158Y-16017673D01*
X7458158Y-16017673D02*
X7467682Y-16027197D01*
X7467682Y-16027197D02*
X7477205Y-16046245D01*
X7477205Y-16046245D02*
X7486729Y-16084340D01*
X7486729Y-16084340D02*
X7486729Y-16131959D01*
X7486729Y-16131959D02*
X7477205Y-16170054D01*
X7477205Y-16170054D02*
X7467682Y-16189102D01*
X7467682Y-16189102D02*
X7458158Y-16198626D01*
X7458158Y-16198626D02*
X7439110Y-16208149D01*
X7439110Y-16208149D02*
X7420062Y-16208149D01*
X7420062Y-16208149D02*
X7401015Y-16198626D01*
X7401015Y-16198626D02*
X7391491Y-16189102D01*
X7391491Y-16189102D02*
X7381967Y-16170054D01*
X7381967Y-16170054D02*
X7372443Y-16131959D01*
X7372443Y-16131959D02*
X7372443Y-16084340D01*
X7372443Y-16084340D02*
X7381967Y-16046245D01*
X7381967Y-16046245D02*
X7391491Y-16027197D01*
X7391491Y-16027197D02*
X7401015Y-16017673D01*
X7401015Y-16017673D02*
X7420062Y-16008149D01*
X7610539Y-16008149D02*
X7629586Y-16008149D01*
X7629586Y-16008149D02*
X7648634Y-16017673D01*
X7648634Y-16017673D02*
X7658158Y-16027197D01*
X7658158Y-16027197D02*
X7667682Y-16046245D01*
X7667682Y-16046245D02*
X7677205Y-16084340D01*
X7677205Y-16084340D02*
X7677205Y-16131959D01*
X7677205Y-16131959D02*
X7667682Y-16170054D01*
X7667682Y-16170054D02*
X7658158Y-16189102D01*
X7658158Y-16189102D02*
X7648634Y-16198626D01*
X7648634Y-16198626D02*
X7629586Y-16208149D01*
X7629586Y-16208149D02*
X7610539Y-16208149D01*
X7610539Y-16208149D02*
X7591491Y-16198626D01*
X7591491Y-16198626D02*
X7581967Y-16189102D01*
X7581967Y-16189102D02*
X7572443Y-16170054D01*
X7572443Y-16170054D02*
X7562920Y-16131959D01*
X7562920Y-16131959D02*
X7562920Y-16084340D01*
X7562920Y-16084340D02*
X7572443Y-16046245D01*
X7572443Y-16046245D02*
X7581967Y-16027197D01*
X7581967Y-16027197D02*
X7591491Y-16017673D01*
X7591491Y-16017673D02*
X7610539Y-16008149D01*
X7762920Y-16208149D02*
X7762920Y-16074816D01*
X7762920Y-16093864D02*
X7772443Y-16084340D01*
X7772443Y-16084340D02*
X7791491Y-16074816D01*
X7791491Y-16074816D02*
X7820063Y-16074816D01*
X7820063Y-16074816D02*
X7839110Y-16084340D01*
X7839110Y-16084340D02*
X7848634Y-16103387D01*
X7848634Y-16103387D02*
X7848634Y-16208149D01*
X7848634Y-16103387D02*
X7858158Y-16084340D01*
X7858158Y-16084340D02*
X7877205Y-16074816D01*
X7877205Y-16074816D02*
X7905777Y-16074816D01*
X7905777Y-16074816D02*
X7924824Y-16084340D01*
X7924824Y-16084340D02*
X7934348Y-16103387D01*
X7934348Y-16103387D02*
X7934348Y-16208149D01*
X8029586Y-16208149D02*
X8029586Y-16074816D01*
X8029586Y-16093864D02*
X8039110Y-16084340D01*
X8039110Y-16084340D02*
X8058158Y-16074816D01*
X8058158Y-16074816D02*
X8086729Y-16074816D01*
X8086729Y-16074816D02*
X8105777Y-16084340D01*
X8105777Y-16084340D02*
X8115301Y-16103387D01*
X8115301Y-16103387D02*
X8115301Y-16208149D01*
X8115301Y-16103387D02*
X8124824Y-16084340D01*
X8124824Y-16084340D02*
X8143872Y-16074816D01*
X8143872Y-16074816D02*
X8172443Y-16074816D01*
X8172443Y-16074816D02*
X8191491Y-16084340D01*
X8191491Y-16084340D02*
X8201015Y-16103387D01*
X8201015Y-16103387D02*
X8201015Y-16208149D01*
X8591491Y-15998626D02*
X8420063Y-16255768D01*
X8848634Y-16008149D02*
X8867682Y-16008149D01*
X8867682Y-16008149D02*
X8886729Y-16017673D01*
X8886729Y-16017673D02*
X8896253Y-16027197D01*
X8896253Y-16027197D02*
X8905777Y-16046245D01*
X8905777Y-16046245D02*
X8915301Y-16084340D01*
X8915301Y-16084340D02*
X8915301Y-16131959D01*
X8915301Y-16131959D02*
X8905777Y-16170054D01*
X8905777Y-16170054D02*
X8896253Y-16189102D01*
X8896253Y-16189102D02*
X8886729Y-16198626D01*
X8886729Y-16198626D02*
X8867682Y-16208149D01*
X8867682Y-16208149D02*
X8848634Y-16208149D01*
X8848634Y-16208149D02*
X8829587Y-16198626D01*
X8829587Y-16198626D02*
X8820063Y-16189102D01*
X8820063Y-16189102D02*
X8810539Y-16170054D01*
X8810539Y-16170054D02*
X8801015Y-16131959D01*
X8801015Y-16131959D02*
X8801015Y-16084340D01*
X8801015Y-16084340D02*
X8810539Y-16046245D01*
X8810539Y-16046245D02*
X8820063Y-16027197D01*
X8820063Y-16027197D02*
X8829587Y-16017673D01*
X8829587Y-16017673D02*
X8848634Y-16008149D01*
X9001015Y-16189102D02*
X9010539Y-16198626D01*
X9010539Y-16198626D02*
X9001015Y-16208149D01*
X9001015Y-16208149D02*
X8991491Y-16198626D01*
X8991491Y-16198626D02*
X9001015Y-16189102D01*
X9001015Y-16189102D02*
X9001015Y-16208149D01*
X9134348Y-16008149D02*
X9153396Y-16008149D01*
X9153396Y-16008149D02*
X9172444Y-16017673D01*
X9172444Y-16017673D02*
X9181968Y-16027197D01*
X9181968Y-16027197D02*
X9191491Y-16046245D01*
X9191491Y-16046245D02*
X9201015Y-16084340D01*
X9201015Y-16084340D02*
X9201015Y-16131959D01*
X9201015Y-16131959D02*
X9191491Y-16170054D01*
X9191491Y-16170054D02*
X9181968Y-16189102D01*
X9181968Y-16189102D02*
X9172444Y-16198626D01*
X9172444Y-16198626D02*
X9153396Y-16208149D01*
X9153396Y-16208149D02*
X9134348Y-16208149D01*
X9134348Y-16208149D02*
X9115301Y-16198626D01*
X9115301Y-16198626D02*
X9105777Y-16189102D01*
X9105777Y-16189102D02*
X9096253Y-16170054D01*
X9096253Y-16170054D02*
X9086729Y-16131959D01*
X9086729Y-16131959D02*
X9086729Y-16084340D01*
X9086729Y-16084340D02*
X9096253Y-16046245D01*
X9096253Y-16046245D02*
X9105777Y-16027197D01*
X9105777Y-16027197D02*
X9115301Y-16017673D01*
X9115301Y-16017673D02*
X9134348Y-16008149D01*
X9381968Y-16008149D02*
X9286729Y-16008149D01*
X9286729Y-16008149D02*
X9277206Y-16103387D01*
X9277206Y-16103387D02*
X9286729Y-16093864D01*
X9286729Y-16093864D02*
X9305777Y-16084340D01*
X9305777Y-16084340D02*
X9353396Y-16084340D01*
X9353396Y-16084340D02*
X9372444Y-16093864D01*
X9372444Y-16093864D02*
X9381968Y-16103387D01*
X9381968Y-16103387D02*
X9391491Y-16122435D01*
X9391491Y-16122435D02*
X9391491Y-16170054D01*
X9391491Y-16170054D02*
X9381968Y-16189102D01*
X9381968Y-16189102D02*
X9372444Y-16198626D01*
X9372444Y-16198626D02*
X9353396Y-16208149D01*
X9353396Y-16208149D02*
X9305777Y-16208149D01*
X9305777Y-16208149D02*
X9286729Y-16198626D01*
X9286729Y-16198626D02*
X9277206Y-16189102D01*
X9581968Y-16208149D02*
X9467682Y-16208149D01*
X9524825Y-16208149D02*
X9524825Y-16008149D01*
X9524825Y-16008149D02*
X9505777Y-16036721D01*
X9505777Y-16036721D02*
X9486729Y-16055768D01*
X9486729Y-16055768D02*
X9467682Y-16065292D01*
X9658158Y-16027197D02*
X9667682Y-16017673D01*
X9667682Y-16017673D02*
X9686729Y-16008149D01*
X9686729Y-16008149D02*
X9734349Y-16008149D01*
X9734349Y-16008149D02*
X9753396Y-16017673D01*
X9753396Y-16017673D02*
X9762920Y-16027197D01*
X9762920Y-16027197D02*
X9772444Y-16046245D01*
X9772444Y-16046245D02*
X9772444Y-16065292D01*
X9772444Y-16065292D02*
X9762920Y-16093864D01*
X9762920Y-16093864D02*
X9648634Y-16208149D01*
X9648634Y-16208149D02*
X9772444Y-16208149D01*
X9848634Y-16008149D02*
X9848634Y-16046245D01*
X9924825Y-16008149D02*
X9924825Y-16046245D01*
X10220063Y-16284340D02*
X10210539Y-16274816D01*
X10210539Y-16274816D02*
X10191491Y-16246245D01*
X10191491Y-16246245D02*
X10181968Y-16227197D01*
X10181968Y-16227197D02*
X10172444Y-16198626D01*
X10172444Y-16198626D02*
X10162920Y-16151006D01*
X10162920Y-16151006D02*
X10162920Y-16112911D01*
X10162920Y-16112911D02*
X10172444Y-16065292D01*
X10172444Y-16065292D02*
X10181968Y-16036721D01*
X10181968Y-16036721D02*
X10191491Y-16017673D01*
X10191491Y-16017673D02*
X10210539Y-15989102D01*
X10210539Y-15989102D02*
X10220063Y-15979578D01*
X10286730Y-16027197D02*
X10296253Y-16017673D01*
X10296253Y-16017673D02*
X10315301Y-16008149D01*
X10315301Y-16008149D02*
X10362920Y-16008149D01*
X10362920Y-16008149D02*
X10381968Y-16017673D01*
X10381968Y-16017673D02*
X10391491Y-16027197D01*
X10391491Y-16027197D02*
X10401015Y-16046245D01*
X10401015Y-16046245D02*
X10401015Y-16065292D01*
X10401015Y-16065292D02*
X10391491Y-16093864D01*
X10391491Y-16093864D02*
X10277206Y-16208149D01*
X10277206Y-16208149D02*
X10401015Y-16208149D01*
X10639111Y-16208149D02*
X10639111Y-16008149D01*
X10724825Y-16208149D02*
X10724825Y-16103387D01*
X10724825Y-16103387D02*
X10715301Y-16084340D01*
X10715301Y-16084340D02*
X10696253Y-16074816D01*
X10696253Y-16074816D02*
X10667682Y-16074816D01*
X10667682Y-16074816D02*
X10648634Y-16084340D01*
X10648634Y-16084340D02*
X10639111Y-16093864D01*
X10848634Y-16208149D02*
X10829587Y-16198626D01*
X10829587Y-16198626D02*
X10820063Y-16189102D01*
X10820063Y-16189102D02*
X10810539Y-16170054D01*
X10810539Y-16170054D02*
X10810539Y-16112911D01*
X10810539Y-16112911D02*
X10820063Y-16093864D01*
X10820063Y-16093864D02*
X10829587Y-16084340D01*
X10829587Y-16084340D02*
X10848634Y-16074816D01*
X10848634Y-16074816D02*
X10877206Y-16074816D01*
X10877206Y-16074816D02*
X10896253Y-16084340D01*
X10896253Y-16084340D02*
X10905777Y-16093864D01*
X10905777Y-16093864D02*
X10915301Y-16112911D01*
X10915301Y-16112911D02*
X10915301Y-16170054D01*
X10915301Y-16170054D02*
X10905777Y-16189102D01*
X10905777Y-16189102D02*
X10896253Y-16198626D01*
X10896253Y-16198626D02*
X10877206Y-16208149D01*
X10877206Y-16208149D02*
X10848634Y-16208149D01*
X11029587Y-16208149D02*
X11010539Y-16198626D01*
X11010539Y-16198626D02*
X11001015Y-16179578D01*
X11001015Y-16179578D02*
X11001015Y-16008149D01*
X11181968Y-16198626D02*
X11162920Y-16208149D01*
X11162920Y-16208149D02*
X11124825Y-16208149D01*
X11124825Y-16208149D02*
X11105777Y-16198626D01*
X11105777Y-16198626D02*
X11096253Y-16179578D01*
X11096253Y-16179578D02*
X11096253Y-16103387D01*
X11096253Y-16103387D02*
X11105777Y-16084340D01*
X11105777Y-16084340D02*
X11124825Y-16074816D01*
X11124825Y-16074816D02*
X11162920Y-16074816D01*
X11162920Y-16074816D02*
X11181968Y-16084340D01*
X11181968Y-16084340D02*
X11191491Y-16103387D01*
X11191491Y-16103387D02*
X11191491Y-16122435D01*
X11191491Y-16122435D02*
X11096253Y-16141483D01*
X11267682Y-16198626D02*
X11286730Y-16208149D01*
X11286730Y-16208149D02*
X11324825Y-16208149D01*
X11324825Y-16208149D02*
X11343872Y-16198626D01*
X11343872Y-16198626D02*
X11353396Y-16179578D01*
X11353396Y-16179578D02*
X11353396Y-16170054D01*
X11353396Y-16170054D02*
X11343872Y-16151006D01*
X11343872Y-16151006D02*
X11324825Y-16141483D01*
X11324825Y-16141483D02*
X11296253Y-16141483D01*
X11296253Y-16141483D02*
X11277206Y-16131959D01*
X11277206Y-16131959D02*
X11267682Y-16112911D01*
X11267682Y-16112911D02*
X11267682Y-16103387D01*
X11267682Y-16103387D02*
X11277206Y-16084340D01*
X11277206Y-16084340D02*
X11296253Y-16074816D01*
X11296253Y-16074816D02*
X11324825Y-16074816D01*
X11324825Y-16074816D02*
X11343872Y-16084340D01*
X11420063Y-16284340D02*
X11429587Y-16274816D01*
X11429587Y-16274816D02*
X11448634Y-16246245D01*
X11448634Y-16246245D02*
X11458158Y-16227197D01*
X11458158Y-16227197D02*
X11467682Y-16198626D01*
X11467682Y-16198626D02*
X11477206Y-16151006D01*
X11477206Y-16151006D02*
X11477206Y-16112911D01*
X11477206Y-16112911D02*
X11467682Y-16065292D01*
X11467682Y-16065292D02*
X11458158Y-16036721D01*
X11458158Y-16036721D02*
X11448634Y-16017673D01*
X11448634Y-16017673D02*
X11429587Y-15989102D01*
X11429587Y-15989102D02*
X11420063Y-15979578D01*
M02*
