M48
; DRILL file KiCad 10.0.3 date 2026-05-28T18:30:17
; FORMAT={-:-/ absolute / metric / decimal}
; #@! TF.CreationDate,2026-05-28T18:30:17-05:00
; #@! TF.GenerationSoftware,Kicad,Pcbnew,10.0.3
; #@! TF.FileFunction,Plated,1,2,PTH
FMAT,2
METRIC
; #@! TA.AperFunction,Plated,PTH,ViaDrill
T1C0.300
; #@! TA.AperFunction,Plated,PTH,ComponentDrill
T2C0.813
; #@! TA.AperFunction,Plated,PTH,ComponentDrill
T3C1.000
; #@! TA.AperFunction,Plated,PTH,ComponentDrill
T4C1.300
%
G90
G05
T1
X67.0Y-86.0
X68.025Y-93.0
X68.25Y-91.25
X69.0Y-88.5
X69.5Y-79.5
X69.5Y-82.0
X69.5Y-92.5
X71.5Y-63.0
X71.657Y-68.657
X72.0Y-99.0
X72.1Y-63.0
X72.146Y-104.357
X72.146Y-102.357
X72.5Y-113.0
X72.501Y-105.499
X73.21Y-72.5
X73.5Y-87.0
X73.5Y-90.0
X73.5Y-114.0
X73.71Y-73.5
X74.0Y-113.5
X74.18Y-67.18
X76.5Y-106.0
X76.5Y-109.0
X78.0Y-130.0
X78.21Y-72.266
X78.5Y-133.0
X78.814Y-88.905
X79.0Y-103.5
X79.0Y-132.5
X79.07Y-71.07
X79.5Y-105.5
X79.551Y-88.899
X79.83Y-64.646
X79.83Y-68.514
X80.0Y-104.5
X80.0Y-106.025
X80.421Y-88.85
X81.434Y-111.014
X82.0Y-110.5
X82.22Y-89.565
X82.23Y-87.525
X83.0Y-119.0
X83.5Y-115.5
X83.65Y-69.726
X84.31Y-87.525
X84.64Y-89.88
X84.89Y-73.61
X85.5Y-128.5
X85.95Y-76.15
X85.95Y-87.025
X86.0Y-112.5
X86.15Y-128.231
X87.5Y-119.5
X87.5Y-136.5
X87.51Y-96.49
X87.54Y-74.806
X87.81Y-88.58
X88.136Y-102.5
X88.136Y-104.5
X88.5Y-133.5
X88.899Y-87.076
X89.07Y-73.98
X89.17Y-61.37
X89.19Y-71.49
X89.2Y-63.76
X89.21Y-79.04
X89.21Y-84.15
X89.22Y-81.58
X89.23Y-85.491
X89.24Y-76.51
X90.86Y-90.88
X91.5Y-118.5
X92.5Y-127.5
X93.41Y-74.52
X94.0Y-131.0
X94.5Y-132.5
X95.0Y-109.5
X95.12Y-92.16
X95.235Y-74.99
X95.5Y-130.0
X95.69Y-91.16
X95.74Y-85.04
X96.225Y-71.35
X96.225Y-106.825
X96.29Y-89.15
X96.5Y-114.0
X97.291Y-122.5
X97.5Y-111.5
X97.734Y-94.476
X97.941Y-122.5
X99.97Y-62.42
X100.39Y-100.53
X100.4Y-82.875
X100.58Y-65.48
X101.0Y-116.0
X101.425Y-82.875
X101.44Y-65.37
X101.443Y-100.397
X103.5Y-128.0
X105.0Y-120.0
X105.5Y-119.5
X105.75Y-128.75
X106.193Y-120.627
X106.85Y-108.65
X106.94Y-91.15
X107.07Y-73.65
X108.0Y-119.0
X108.5Y-121.5
X108.875Y-82.825
X108.95Y-100.45
X108.98Y-65.47
X109.8Y-82.825
X109.85Y-100.47
X109.99Y-65.45
X110.3Y-68.25
X110.5Y-112.5
X112.0Y-99.925
X112.0Y-122.0
X112.01Y-64.76
X112.01Y-68.05
X112.025Y-103.225
X112.04Y-82.29
X112.05Y-85.58
X112.5Y-124.0
X113.5Y-112.5
X114.0Y-114.0
X114.67Y-69.68
X114.67Y-87.2
X114.68Y-104.7
X115.0Y-122.0
X116.0Y-83.5
X118.5Y-63.5
X118.5Y-80.5
X118.5Y-98.5
X119.0Y-116.0
X119.26Y-108.93
X119.5Y-63.464
X119.5Y-81.0
X119.5Y-98.5
X119.75Y-115.75
X124.5Y-71.525
X125.41Y-124.15
X125.5Y-89.0
X126.0Y-84.0
X126.0Y-106.5
X126.5Y-66.5
X127.0Y-112.5
X127.0Y-120.5
X127.5Y-114.0
X128.0Y-63.5
X128.0Y-81.0
X128.0Y-98.5
X128.0Y-116.0
X128.65Y-63.5
X129.0Y-81.0
X129.0Y-98.5
X129.0Y-116.0
X130.0Y-65.0
X130.0Y-112.5
X130.5Y-63.0
X130.5Y-66.0
X130.5Y-80.5
X130.5Y-83.5
X130.5Y-98.0
X130.5Y-101.0
X130.5Y-115.5
X130.5Y-118.5
X132.5Y-110.5
X133.0Y-67.0
X133.0Y-75.0
X133.16Y-103.21
X133.16Y-109.34
X133.5Y-85.0
X135.5Y-108.5
X137.0Y-61.0
X137.0Y-78.5
X137.0Y-96.0
X138.0Y-61.0
X138.0Y-78.5
X138.0Y-96.0
X139.0Y-63.5
X139.0Y-81.0
X141.0Y-69.025
X144.0Y-104.0
X144.5Y-86.5
X146.5Y-61.0
X146.5Y-78.5
X146.5Y-96.0
X147.5Y-61.0
X147.5Y-78.5
X147.5Y-96.0
X148.5Y-75.941
X149.0Y-60.5
X149.0Y-63.0
X149.0Y-78.0
X149.0Y-80.5
X149.0Y-95.5
X149.0Y-98.5
X151.5Y-109.5
X152.5Y-102.5
X153.5Y-105.995
X154.5Y-88.5
X155.0Y-71.0
X155.0Y-102.5
X156.0Y-100.5
X156.5Y-66.0
X157.0Y-100.5
X158.0Y-83.0
X158.5Y-63.0
X159.0Y-83.0
X159.5Y-65.5
X160.5Y-65.5
X162.0Y-79.0
X162.5Y-74.025
X162.5Y-109.025
X163.5Y-91.5
X166.0Y-101.5
X167.0Y-70.0
X167.0Y-84.0
X167.0Y-101.0
X168.0Y-84.0
X168.5Y-66.5
X168.5Y-101.5
X168.5Y-103.5
X169.5Y-66.5
X169.5Y-85.0
X169.5Y-86.5
X170.0Y-83.5
X170.5Y-65.401
X170.5Y-67.901
X170.5Y-113.5
X172.5Y-96.5
X174.5Y-78.5
X174.5Y-108.5
X175.5Y-108.5
X177.0Y-90.5
X177.0Y-117.025
X178.0Y-91.0
X179.0Y-73.0
X179.5Y-99.525
X180.0Y-73.5
X181.0Y-75.5
X181.5Y-82.5
X184.0Y-109.5
X185.0Y-109.5
X185.501Y-114.975
X186.0Y-92.0
X186.5Y-110.377
X186.5Y-112.877
X187.0Y-92.0
X188.0Y-74.5
X188.388Y-92.353
X188.388Y-94.853
X188.5Y-116.0
X189.0Y-74.5
X190.5Y-75.0
X190.5Y-77.5
X190.5Y-99.0
X190.5Y-115.0
X191.5Y-96.5
X193.0Y-81.5
X193.0Y-110.5
X194.0Y-110.5
X195.0Y-93.0
X195.5Y-119.5
X196.0Y-93.0
X197.15Y-102.0
X198.0Y-76.0
X199.5Y-91.0
X202.029Y-102.764
X202.5Y-83.5
X202.5Y-111.5
X203.5Y-111.5
X204.5Y-94.0
X205.0Y-112.0
X205.0Y-114.0
X205.5Y-94.0
X206.0Y-78.5
X206.5Y-77.0
X207.0Y-94.5
X207.0Y-97.0
X207.462Y-76.538
X209.0Y-77.0
X209.0Y-79.5
T2
X75.29Y-60.91
X75.29Y-63.45
X75.29Y-65.99
X75.29Y-68.53
X75.29Y-71.07
X75.29Y-73.61
X75.29Y-76.15
X75.29Y-78.69
X75.29Y-81.23
X75.29Y-83.77
X75.29Y-86.31
X75.29Y-88.85
X76.589Y-62.106
X76.589Y-64.646
X76.589Y-67.186
X76.589Y-69.726
X76.589Y-72.266
X76.589Y-74.806
X76.589Y-77.346
X76.589Y-79.886
X76.589Y-82.426
X76.589Y-84.966
X76.589Y-87.506
X76.589Y-90.046
X90.53Y-60.91
X90.53Y-63.45
X90.53Y-65.99
X90.53Y-68.53
X90.53Y-71.07
X90.53Y-73.61
X90.53Y-76.15
X90.53Y-78.69
X90.53Y-81.23
X90.53Y-83.77
X90.53Y-86.31
X90.53Y-88.85
X91.829Y-62.106
X91.829Y-64.646
X91.829Y-67.186
X91.829Y-69.726
X91.829Y-72.266
X91.829Y-74.806
X91.829Y-77.346
X91.829Y-79.886
X91.829Y-82.426
X91.829Y-84.966
X91.829Y-87.506
X91.829Y-90.046
T3
X71.0Y-84.95
X71.0Y-87.45
X71.0Y-90.05
X78.59Y-94.28
X81.13Y-94.28
X83.67Y-94.28
X86.21Y-94.28
X88.75Y-94.28
X97.46Y-58.0
X100.0Y-58.0
T4
X68.6Y-69.0
X68.6Y-75.5
M30
