G04 #@! TF.GenerationSoftware,KiCad,Pcbnew,10.0.3*
G04 #@! TF.CreationDate,2026-05-28T18:30:17-05:00*
G04 #@! TF.ProjectId,michele42_trackpad-splayed,6d696368-656c-4653-9432-5f747261636b,rev?*
G04 #@! TF.SameCoordinates,Original*
G04 #@! TF.FileFunction,Profile,NP*
%FSLAX46Y46*%
G04 Gerber Fmt 4.6, Leading zero omitted, Abs format (unit mm)*
G04 Created by KiCad (PCBNEW 10.0.3) date 2026-05-28 18:30:17*
%MOMM*%
%LPD*%
G01*
G04 APERTURE LIST*
G04 #@! TA.AperFunction,Profile*
%ADD10C,0.100000*%
G04 #@! TD*
G04 #@! TA.AperFunction,Profile*
%ADD11C,0.177193*%
G04 #@! TD*
G04 #@! TA.AperFunction,Profile*
%ADD12C,0.120000*%
G04 #@! TD*
G04 APERTURE END LIST*
D10*
X66500000Y-58500000D02*
X66500000Y-122000000D01*
X66500000Y-58500000D02*
G75*
G02*
X69028016Y-56000157I2500000J0D01*
G01*
X66500000Y-122000000D02*
X80500000Y-146500000D01*
D11*
X74499999Y-100271932D02*
G75*
G02*
X74500000Y-98500068I1J885932D01*
G01*
D10*
X81227900Y-146735968D02*
G75*
G02*
X80500000Y-146500000I-247900J475968D01*
G01*
X81227900Y-146735968D02*
X116610000Y-130000000D01*
D11*
X85131569Y-98500001D02*
X74500000Y-98499998D01*
X85131569Y-98500001D02*
G75*
G02*
X85131568Y-100271999I31J-885999D01*
G01*
X85131568Y-100271935D02*
X74499999Y-100271932D01*
D10*
X116610000Y-130000000D02*
X133272938Y-130000000D01*
X133272938Y-130000000D02*
X133884112Y-126866774D01*
X133884112Y-126866774D02*
G75*
G02*
X135000008Y-125728489I1425888J-281726D01*
G01*
X135000000Y-125728452D02*
X205500000Y-125728990D01*
X152000000Y-56001517D02*
X69028016Y-56000157D01*
X152000000Y-56001517D02*
X152000000Y-60000000D01*
X152000000Y-60000000D02*
X174500000Y-62000000D01*
X174000000Y-68000000D02*
X212439515Y-72992093D01*
X174500000Y-62000000D02*
X174000000Y-68000000D01*
X206046446Y-125004778D02*
G75*
G02*
X205500016Y-125729029I-872046J89678D01*
G01*
X206046446Y-125004778D02*
X212439515Y-72992093D01*
G04 #@! TO.C,D18*
D12*
X180087712Y-92866065D02*
X180453320Y-89888426D01*
X180453320Y-89888426D02*
X183827976Y-90302783D01*
X183462368Y-93280422D02*
X180087712Y-92866065D01*
X183827976Y-90302783D02*
X183462368Y-93280422D01*
G04 #@! TO.C,D10*
X140531753Y-76865542D02*
X143931753Y-76865542D01*
X140531753Y-79865542D02*
X140531753Y-76865542D01*
X143931753Y-76865542D02*
X143931753Y-79865542D01*
X143931753Y-79865542D02*
X140531753Y-79865542D01*
G04 #@! TO.C,D12*
X99279492Y-120416094D02*
X102474447Y-119253226D01*
X100305553Y-123235172D02*
X99279492Y-120416094D01*
X102474447Y-119253226D02*
X103500508Y-122072304D01*
X103500508Y-122072304D02*
X100305553Y-123235172D01*
G04 #@! TO.C,D22*
X196317102Y-112490205D02*
X196682710Y-109512566D01*
X196682710Y-109512566D02*
X200057366Y-109926923D01*
X199691758Y-112904562D02*
X196317102Y-112490205D01*
X200057366Y-109926923D02*
X199691758Y-112904562D01*
G04 #@! TO.C,D4*
X75529595Y-111507474D02*
X78611044Y-110070573D01*
X76797450Y-114226401D02*
X75529595Y-111507474D01*
X78611044Y-110070573D02*
X79878899Y-112789500D01*
X79878899Y-112789500D02*
X76797450Y-114226401D01*
G04 #@! TO.C,D15*
X159771335Y-102311883D02*
X160032806Y-99323295D01*
X160032806Y-99323295D02*
X163419863Y-99619621D01*
X163158392Y-102608209D02*
X159771335Y-102311883D01*
X163419863Y-99619621D02*
X163158392Y-102608209D01*
G04 #@! TO.C,D2*
X103531753Y-81365542D02*
X106931753Y-81365542D01*
X103531753Y-84365542D02*
X103531753Y-81365542D01*
X106931753Y-81365542D02*
X106931753Y-84365542D01*
X106931753Y-84365542D02*
X103531753Y-84365542D01*
G04 #@! TO.C,D8*
X80042215Y-129887230D02*
X82986701Y-128187230D01*
X81542215Y-132485306D02*
X80042215Y-129887230D01*
X82986701Y-128187230D02*
X84486701Y-130785306D01*
X84486701Y-130785306D02*
X81542215Y-132485306D01*
G04 #@! TO.C,D11*
X140531753Y-94365542D02*
X143931753Y-94365542D01*
X140531753Y-97365542D02*
X140531753Y-94365542D01*
X143931753Y-94365542D02*
X143931753Y-97365542D01*
X143931753Y-97365542D02*
X140531753Y-97365542D01*
G04 #@! TO.C,D19*
X177954998Y-110235623D02*
X178320606Y-107257984D01*
X178320606Y-107257984D02*
X181695262Y-107672341D01*
X181329654Y-110649980D02*
X177954998Y-110235623D01*
X181695262Y-107672341D02*
X181329654Y-110649980D01*
G04 #@! TO.C,D5*
X122031753Y-61865542D02*
X125431753Y-61865542D01*
X122031753Y-64865542D02*
X122031753Y-61865542D01*
X125431753Y-61865542D02*
X125431753Y-64865542D01*
X125431753Y-64865542D02*
X122031753Y-64865542D01*
G04 #@! TO.C,D20*
X200582530Y-77751089D02*
X200948138Y-74773450D01*
X200948138Y-74773450D02*
X204322794Y-75187807D01*
X203957186Y-78165446D02*
X200582530Y-77751089D01*
X204322794Y-75187807D02*
X203957186Y-78165446D01*
G04 #@! TO.C,D13*
X162821786Y-67445070D02*
X163083257Y-64456482D01*
X163083257Y-64456482D02*
X166470314Y-64752808D01*
X166208843Y-67741396D02*
X162821786Y-67445070D01*
X166470314Y-64752808D02*
X166208843Y-67741396D01*
G04 #@! TO.C,D6*
X122031753Y-79365542D02*
X125431753Y-79365542D01*
X122031753Y-82365542D02*
X122031753Y-79365542D01*
X125431753Y-79365542D02*
X125431753Y-82365542D01*
X125431753Y-82365542D02*
X122031753Y-82365542D01*
G04 #@! TO.C,D3*
X103531753Y-98915542D02*
X106931753Y-98915542D01*
X103531753Y-101915542D02*
X103531753Y-98915542D01*
X106931753Y-98915542D02*
X106931753Y-101915542D01*
X106931753Y-101915542D02*
X103531753Y-101915542D01*
G04 #@! TO.C,D17*
X182220426Y-75496506D02*
X182586034Y-72518867D01*
X182586034Y-72518867D02*
X185960690Y-72933224D01*
X185595082Y-75910863D02*
X182220426Y-75496506D01*
X185960690Y-72933224D02*
X185595082Y-75910863D01*
G04 #@! TO.C,D21*
X198449815Y-95120647D02*
X198815423Y-92143008D01*
X198815423Y-92143008D02*
X202190079Y-92557365D01*
X201824471Y-95535004D02*
X198449815Y-95120647D01*
X202190079Y-92557365D02*
X201824471Y-95535004D01*
G04 #@! TO.C,D1*
X103531753Y-63865542D02*
X106931753Y-63865542D01*
X103531753Y-66865542D02*
X103531753Y-63865542D01*
X106931753Y-63865542D02*
X106931753Y-66865542D01*
X106931753Y-66865542D02*
X103531753Y-66865542D01*
G04 #@! TO.C,D9*
X140531753Y-59365542D02*
X143931753Y-59365542D01*
X140531753Y-62365542D02*
X140531753Y-59365542D01*
X143931753Y-59365542D02*
X143931753Y-62365542D01*
X143931753Y-62365542D02*
X140531753Y-62365542D01*
G04 #@! TO.C,D16*
X122031751Y-114365542D02*
X125431751Y-114365542D01*
X122031751Y-117365542D02*
X122031751Y-114365542D01*
X125431751Y-114365542D02*
X125431751Y-117365542D01*
X125431751Y-117365542D02*
X122031751Y-117365542D01*
G04 #@! TO.C,D14*
X161296569Y-84878467D02*
X161558040Y-81889879D01*
X161558040Y-81889879D02*
X164945097Y-82186205D01*
X164683626Y-85174793D02*
X161296569Y-84878467D01*
X164945097Y-82186205D02*
X164683626Y-85174793D01*
G04 #@! TO.C,D7*
X122031753Y-96865542D02*
X125431753Y-96865542D01*
X122031753Y-99865542D02*
X122031753Y-96865542D01*
X125431753Y-96865542D02*
X125431753Y-99865542D01*
X125431753Y-99865542D02*
X122031753Y-99865542D01*
G04 #@! TD*
M02*
