G04 #@! TF.GenerationSoftware,KiCad,Pcbnew,10.0.3*
G04 #@! TF.CreationDate,2026-05-28T18:30:17-05:00*
G04 #@! TF.ProjectId,michele42_trackpad-splayed,6d696368-656c-4653-9432-5f747261636b,rev?*
G04 #@! TF.SameCoordinates,Original*
G04 #@! TF.FileFunction,Paste,Top*
G04 #@! TF.FilePolarity,Positive*
%FSLAX46Y46*%
G04 Gerber Fmt 4.6, Leading zero omitted, Abs format (unit mm)*
G04 Created by KiCad (PCBNEW 10.0.3) date 2026-05-28 18:30:17*
%MOMM*%
%LPD*%
G01*
G04 APERTURE LIST*
G04 Aperture macros list*
%AMRoundRect*
0 Rectangle with rounded corners*
0 $1 Rounding radius*
0 $2 $3 $4 $5 $6 $7 $8 $9 X,Y pos of 4 corners*
0 Add a 4 corners polygon primitive as box body*
4,1,4,$2,$3,$4,$5,$6,$7,$8,$9,$2,$3,0*
0 Add four circle primitives for the rounded corners*
1,1,$1+$1,$2,$3*
1,1,$1+$1,$4,$5*
1,1,$1+$1,$6,$7*
1,1,$1+$1,$8,$9*
0 Add four rect primitives between the rounded corners*
20,1,$1+$1,$2,$3,$4,$5,0*
20,1,$1+$1,$4,$5,$6,$7,0*
20,1,$1+$1,$6,$7,$8,$9,0*
20,1,$1+$1,$8,$9,$2,$3,0*%
%AMRotRect*
0 Rectangle, with rotation*
0 The origin of the aperture is its center*
0 $1 length*
0 $2 width*
0 $3 Rotation angle, in degrees counterclockwise*
0 Add horizontal line*
21,1,$1,$2,0,0,$3*%
G04 Aperture macros list end*
%ADD10RotRect,1.700000X0.820000X353.000000*%
%ADD11RoundRect,0.205000X-0.665175X-0.124866X0.615209X-0.282078X0.665175X0.124866X-0.615209X0.282078X0*%
%ADD12R,1.700000X0.820000*%
%ADD13RoundRect,0.205000X-0.645000X-0.205000X0.645000X-0.205000X0.645000X0.205000X-0.645000X0.205000X0*%
%ADD14RotRect,1.700000X0.820000X20.000000*%
%ADD15RoundRect,0.205000X-0.535988X-0.413240X0.676216X0.027966X0.535988X0.413240X-0.676216X-0.027966X0*%
%ADD16R,1.143000X0.635000*%
%ADD17RotRect,1.700000X0.820000X25.000000*%
%ADD18RoundRect,0.205000X-0.497932X-0.458382X0.671205X0.086796X0.497932X0.458382X-0.671205X-0.086796X0*%
%ADD19RotRect,1.700000X0.820000X355.000000*%
%ADD20RoundRect,0.205000X-0.660413X-0.148004X0.624679X-0.260435X0.660413X0.148004X-0.624679X0.260435X0*%
%ADD21RotRect,1.600000X2.200000X173.000000*%
%ADD22R,1.600000X2.200000*%
%ADD23RotRect,1.600000X2.200000X200.000000*%
%ADD24RotRect,1.700000X0.820000X30.000000*%
%ADD25RoundRect,0.205000X-0.456086X-0.500035X0.661086X0.144965X0.456086X0.500035X-0.661086X-0.144965X0*%
%ADD26RoundRect,0.135000X-0.135000X-0.185000X0.135000X-0.185000X0.135000X0.185000X-0.135000X0.185000X0*%
%ADD27RotRect,1.600000X2.200000X175.000000*%
%ADD28R,0.280000X1.250000*%
%ADD29R,1.800000X2.000000*%
%ADD30RoundRect,0.225000X0.045437X0.434955X-0.362401X0.244776X-0.045437X-0.434955X0.362401X-0.244776X0*%
%ADD31R,0.800000X1.000000*%
%ADD32R,1.500000X0.700000*%
%ADD33RotRect,1.600000X2.200000X205.000000*%
%ADD34RotRect,1.600000X2.200000X210.000000*%
%ADD35RoundRect,0.225000X-0.344784X0.269024X-0.399625X-0.177622X0.344784X-0.269024X0.399625X0.177622X0*%
%ADD36RoundRect,0.225000X-0.353963X0.256827X-0.393183X-0.191460X0.353963X-0.256827X0.393183X0.191460X0*%
%ADD37RoundRect,0.225000X-0.375000X0.225000X-0.375000X-0.225000X0.375000X-0.225000X0.375000X0.225000X0*%
%ADD38RoundRect,0.225000X-0.437260X0.007356X-0.212260X-0.382356X0.437260X-0.007356X0.212260X0.382356X0*%
%ADD39RoundRect,0.225000X-0.429339X0.083173X-0.275430X-0.339688X0.429339X-0.083173X0.275430X0.339688X0*%
G04 APERTURE END LIST*
D10*
G04 #@! TO.C,D18*
X179275898Y-92010755D03*
X179458700Y-90521936D03*
D11*
X184639790Y-91158093D03*
D10*
X184456988Y-92646912D03*
G04 #@! TD*
D12*
G04 #@! TO.C,D10*
X139621753Y-79115542D03*
X139621753Y-77615542D03*
D13*
X144841753Y-77615542D03*
D12*
X144841753Y-79115542D03*
G04 #@! TD*
D14*
G04 #@! TO.C,D12*
X99193917Y-122841641D03*
X98680887Y-121432102D03*
D15*
X103586083Y-119646757D03*
D14*
X104099113Y-121056296D03*
G04 #@! TD*
D10*
G04 #@! TO.C,D22*
X195505288Y-111634895D03*
X195688090Y-110146076D03*
D11*
X200869180Y-110782233D03*
D10*
X200686378Y-112271052D03*
G04 #@! TD*
D16*
G04 #@! TO.C,JP3*
X83389753Y-90880760D03*
X83389753Y-89880000D03*
G04 #@! TD*
D17*
G04 #@! TO.C,D4*
X75655747Y-113931253D03*
X75021820Y-112571791D03*
D18*
X79752747Y-110365721D03*
D17*
X80386674Y-111725183D03*
G04 #@! TD*
D19*
G04 #@! TO.C,D15*
X158930164Y-101485411D03*
X159060902Y-99991127D03*
D20*
X164261034Y-100446093D03*
D19*
X164130296Y-101940377D03*
G04 #@! TD*
D21*
G04 #@! TO.C,S18*
X177941740Y-101317533D03*
X188830099Y-100437933D03*
G04 #@! TD*
D22*
G04 #@! TO.C,S9*
X139431753Y-71015542D03*
X150131753Y-68815542D03*
G04 #@! TD*
D23*
G04 #@! TO.C,S12*
X102254739Y-131808496D03*
X111557005Y-126081557D03*
G04 #@! TD*
D21*
G04 #@! TO.C,S20*
X198436556Y-86202560D03*
X209324915Y-85322960D03*
G04 #@! TD*
D12*
G04 #@! TO.C,D2*
X102621753Y-83615542D03*
X102621753Y-82115542D03*
D13*
X107841753Y-82115542D03*
D12*
X107841753Y-83615542D03*
G04 #@! TD*
D24*
G04 #@! TO.C,D8*
X80379132Y-132290787D03*
X79629132Y-130991749D03*
D25*
X84149784Y-128381749D03*
D24*
X84899784Y-129680787D03*
G04 #@! TD*
D12*
G04 #@! TO.C,D11*
X139621753Y-96615542D03*
X139621753Y-95115542D03*
D13*
X144841753Y-95115542D03*
D12*
X144841753Y-96615542D03*
G04 #@! TD*
D26*
G04 #@! TO.C,R1*
X71626473Y-103357359D03*
X72646471Y-103357363D03*
G04 #@! TD*
D10*
G04 #@! TO.C,D19*
X177143184Y-109380313D03*
X177325986Y-107891494D03*
D11*
X182507076Y-108527651D03*
D10*
X182324274Y-110016470D03*
G04 #@! TD*
D12*
G04 #@! TO.C,D5*
X121121753Y-64115542D03*
X121121753Y-62615542D03*
D13*
X126341753Y-62615542D03*
D12*
X126341753Y-64115542D03*
G04 #@! TD*
D22*
G04 #@! TO.C,S10*
X139431753Y-88515542D03*
X150131753Y-86315542D03*
G04 #@! TD*
D27*
G04 #@! TO.C,S14*
X159446840Y-93399680D03*
X170297877Y-92140615D03*
G04 #@! TD*
D16*
G04 #@! TO.C,JP4*
X85929753Y-90880760D03*
X85929753Y-89880000D03*
G04 #@! TD*
D21*
G04 #@! TO.C,S17*
X180074453Y-83947975D03*
X190962812Y-83068375D03*
G04 #@! TD*
G04 #@! TO.C,S21*
X196303842Y-103572117D03*
X207192201Y-102692517D03*
G04 #@! TD*
D22*
G04 #@! TO.C,S5*
X120931753Y-73515542D03*
X131631753Y-71315542D03*
G04 #@! TD*
G04 #@! TO.C,S3*
X102431753Y-110515542D03*
X113131753Y-108315542D03*
G04 #@! TD*
G04 #@! TO.C,S2*
X102431753Y-93015542D03*
X113131753Y-90815542D03*
G04 #@! TD*
D10*
G04 #@! TO.C,D20*
X199770716Y-76895779D03*
X199953518Y-75406960D03*
D11*
X205134608Y-76043117D03*
D10*
X204951806Y-77531936D03*
G04 #@! TD*
D16*
G04 #@! TO.C,JP5*
X88350000Y-90880760D03*
X88350000Y-89880000D03*
G04 #@! TD*
D21*
G04 #@! TO.C,S22*
X194171129Y-120941675D03*
X205059488Y-120062075D03*
G04 #@! TD*
D19*
G04 #@! TO.C,D13*
X161980615Y-66618598D03*
X162111353Y-65124314D03*
D20*
X167311485Y-65579280D03*
D19*
X167180747Y-67073564D03*
G04 #@! TD*
D28*
G04 #@! TO.C,J2*
X82500000Y-107499999D03*
X82000003Y-107499995D03*
X81500004Y-107500005D03*
X81000005Y-107500002D03*
X80500004Y-107499993D03*
X80000006Y-107500004D03*
X79500007Y-107499996D03*
X79000007Y-107500003D03*
X78500005Y-107499997D03*
X78000000Y-107499992D03*
X77500003Y-107500004D03*
X77000003Y-107499994D03*
D29*
X75200005Y-104775996D03*
X84300009Y-104776002D03*
G04 #@! TD*
D12*
G04 #@! TO.C,D6*
X121121753Y-81615542D03*
X121121753Y-80115542D03*
D13*
X126341753Y-80115542D03*
D12*
X126341753Y-81615542D03*
G04 #@! TD*
G04 #@! TO.C,D3*
X102621753Y-101165542D03*
X102621753Y-99665542D03*
D13*
X107841753Y-99665542D03*
D12*
X107841753Y-101165542D03*
G04 #@! TD*
D27*
G04 #@! TO.C,S15*
X157921611Y-110833087D03*
X168772648Y-109574022D03*
G04 #@! TD*
D10*
G04 #@! TO.C,D17*
X181408612Y-74641196D03*
X181591414Y-73152377D03*
D11*
X186772504Y-73788534D03*
D10*
X186589702Y-75277353D03*
G04 #@! TD*
D30*
G04 #@! TO.C,D26*
X90495406Y-119302682D03*
X87504594Y-120697318D03*
G04 #@! TD*
D31*
G04 #@! TO.C,SW1*
X69780000Y-59220000D03*
X67570000Y-59220000D03*
X69780000Y-66520000D03*
X67570000Y-66520000D03*
D32*
X70430000Y-60620000D03*
X70430000Y-63620000D03*
X70430000Y-65120000D03*
G04 #@! TD*
D26*
G04 #@! TO.C,R2*
X87626472Y-103499998D03*
X88646470Y-103500002D03*
G04 #@! TD*
D10*
G04 #@! TO.C,D21*
X197638001Y-94265337D03*
X197820803Y-92776518D03*
D11*
X203001893Y-93412675D03*
D10*
X202819091Y-94901494D03*
G04 #@! TD*
D27*
G04 #@! TO.C,S13*
X160972069Y-75966273D03*
X171823106Y-74707208D03*
G04 #@! TD*
D33*
G04 #@! TO.C,S4*
X79455787Y-122530547D03*
X88223520Y-116014656D03*
G04 #@! TD*
D12*
G04 #@! TO.C,D1*
X102621753Y-66115542D03*
X102621753Y-64615542D03*
D13*
X107841753Y-64615542D03*
D12*
X107841753Y-66115542D03*
G04 #@! TD*
D22*
G04 #@! TO.C,S16*
X120931753Y-126015542D03*
X131631753Y-123815542D03*
G04 #@! TD*
G04 #@! TO.C,S7*
X120931753Y-108515542D03*
X131631753Y-106315542D03*
G04 #@! TD*
D12*
G04 #@! TO.C,D9*
X139621753Y-61615542D03*
X139621753Y-60115542D03*
D13*
X144841753Y-60115542D03*
D12*
X144841753Y-61615542D03*
G04 #@! TD*
D22*
G04 #@! TO.C,S6*
X120931753Y-91015542D03*
X131631753Y-88815542D03*
G04 #@! TD*
D34*
G04 #@! TO.C,S8*
X85025129Y-140509550D03*
X93191601Y-133254294D03*
G04 #@! TD*
D22*
G04 #@! TO.C,S1*
X102431753Y-75515542D03*
X113131753Y-73315542D03*
G04 #@! TD*
D12*
G04 #@! TO.C,D16*
X121121751Y-116615542D03*
X121121751Y-115115542D03*
D13*
X126341751Y-115115542D03*
D12*
X126341751Y-116615542D03*
G04 #@! TD*
D16*
G04 #@! TO.C,JP2*
X81049753Y-90880760D03*
X81049753Y-89880000D03*
G04 #@! TD*
D22*
G04 #@! TO.C,S11*
X139431753Y-106015542D03*
X150131753Y-103815542D03*
G04 #@! TD*
D19*
G04 #@! TO.C,D14*
X160455398Y-84051995D03*
X160586136Y-82557711D03*
D20*
X165786268Y-83012677D03*
D19*
X165655530Y-84506961D03*
G04 #@! TD*
D12*
G04 #@! TO.C,D7*
X121121753Y-99115542D03*
X121121753Y-97615542D03*
D13*
X126341753Y-97615542D03*
D12*
X126341753Y-99115542D03*
G04 #@! TD*
D16*
G04 #@! TO.C,JP1*
X78809753Y-90880760D03*
X78809753Y-89880000D03*
G04 #@! TD*
D21*
G04 #@! TO.C,S19*
X175809026Y-118687090D03*
X186697385Y-117807490D03*
G04 #@! TD*
D35*
G04 #@! TO.C,D44*
X206042072Y-111552851D03*
X205639904Y-114828255D03*
G04 #@! TD*
D36*
G04 #@! TO.C,D36*
X170963838Y-83590593D03*
X170676228Y-86878037D03*
G04 #@! TD*
D37*
G04 #@! TO.C,D29*
X131570000Y-97840000D03*
X131570000Y-101140000D03*
G04 #@! TD*
G04 #@! TO.C,D38*
X131570000Y-115250000D03*
X131570000Y-118550000D03*
G04 #@! TD*
D35*
G04 #@! TO.C,D43*
X208156504Y-94332175D03*
X207754336Y-97607579D03*
G04 #@! TD*
D37*
G04 #@! TO.C,D33*
X150030000Y-95330000D03*
X150030000Y-98630000D03*
G04 #@! TD*
G04 #@! TO.C,D32*
X150070000Y-77680000D03*
X150070000Y-80980000D03*
G04 #@! TD*
D38*
G04 #@! TO.C,D30*
X91175000Y-128071059D03*
X92825000Y-130928941D03*
G04 #@! TD*
D36*
G04 #@! TO.C,D35*
X171500000Y-65500000D03*
X171212390Y-68787444D03*
G04 #@! TD*
D37*
G04 #@! TO.C,D31*
X150060000Y-60320000D03*
X150060000Y-63620000D03*
G04 #@! TD*
D35*
G04 #@! TO.C,D41*
X187673874Y-110224596D03*
X187271706Y-113500000D03*
G04 #@! TD*
G04 #@! TO.C,D42*
X210332399Y-76857095D03*
X209930231Y-80132499D03*
G04 #@! TD*
D37*
G04 #@! TO.C,D27*
X131580000Y-62660000D03*
X131580000Y-65960000D03*
G04 #@! TD*
G04 #@! TO.C,D24*
X113060000Y-82290000D03*
X113060000Y-85590000D03*
G04 #@! TD*
G04 #@! TO.C,D25*
X113070000Y-99920000D03*
X113070000Y-103220000D03*
G04 #@! TD*
D35*
G04 #@! TO.C,D40*
X189701084Y-92362298D03*
X189298916Y-95637702D03*
G04 #@! TD*
D37*
G04 #@! TO.C,D23*
X113040000Y-64760000D03*
X113040000Y-68060000D03*
G04 #@! TD*
D39*
G04 #@! TO.C,D34*
X108555667Y-118019507D03*
X109684333Y-121120493D03*
G04 #@! TD*
D37*
G04 #@! TO.C,D28*
X131570000Y-80250000D03*
X131570000Y-83550000D03*
G04 #@! TD*
D36*
G04 #@! TO.C,D37*
X169438988Y-101134448D03*
X169151378Y-104421892D03*
G04 #@! TD*
D35*
G04 #@! TO.C,D39*
X191908482Y-74695671D03*
X191506314Y-77971075D03*
G04 #@! TD*
M02*
