G04 #@! TF.GenerationSoftware,KiCad,Pcbnew,10.0.3*
G04 #@! TF.CreationDate,2026-05-28T18:30:17-05:00*
G04 #@! TF.ProjectId,michele42_trackpad-splayed,6d696368-656c-4653-9432-5f747261636b,rev?*
G04 #@! TF.SameCoordinates,Original*
G04 #@! TF.FileFunction,Legend,Top*
G04 #@! TF.FilePolarity,Positive*
%FSLAX46Y46*%
G04 Gerber Fmt 4.6, Leading zero omitted, Abs format (unit mm)*
G04 Created by KiCad (PCBNEW 10.0.3) date 2026-05-28 18:30:17*
%MOMM*%
%LPD*%
G01*
G04 APERTURE LIST*
G04 Aperture macros list*
%AMRoundRect*
0 Rectangle with rounded corners*
0 $1 Rounding radius*
0 $2 $3 $4 $5 $6 $7 $8 $9 X,Y pos of 4 corners*
0 Add a 4 corners polygon primitive as box body*
4,1,4,$2,$3,$4,$5,$6,$7,$8,$9,$2,$3,0*
0 Add four circle primitives for the rounded corners*
1,1,$1+$1,$2,$3*
1,1,$1+$1,$4,$5*
1,1,$1+$1,$6,$7*
1,1,$1+$1,$8,$9*
0 Add four rect primitives between the rounded corners*
20,1,$1+$1,$2,$3,$4,$5,0*
20,1,$1+$1,$4,$5,$6,$7,0*
20,1,$1+$1,$6,$7,$8,$9,0*
20,1,$1+$1,$8,$9,$2,$3,0*%
%AMRotRect*
0 Rectangle, with rotation*
0 The origin of the aperture is its center*
0 $1 length*
0 $2 width*
0 $3 Rotation angle, in degrees counterclockwise*
0 Add horizontal line*
21,1,$1,$2,0,0,$3*%
G04 Aperture macros list end*
%ADD10C,0.150000*%
%ADD11C,0.060000*%
%ADD12C,0.152400*%
%ADD13C,0.100000*%
%ADD14C,0.120000*%
%ADD15C,0.254000*%
%ADD16C,1.524000*%
%ADD17RotRect,1.700000X0.820000X353.000000*%
%ADD18RoundRect,0.205000X-0.665175X-0.124866X0.615209X-0.282078X0.665175X0.124866X-0.615209X0.282078X0*%
%ADD19C,3.500000*%
%ADD20R,1.700000X0.820000*%
%ADD21RoundRect,0.205000X-0.645000X-0.205000X0.645000X-0.205000X0.645000X0.205000X-0.645000X0.205000X0*%
%ADD22RotRect,1.700000X0.820000X20.000000*%
%ADD23RoundRect,0.205000X-0.535988X-0.413240X0.676216X0.027966X0.535988X0.413240X-0.676216X-0.027966X0*%
%ADD24C,1.000000*%
%ADD25R,1.143000X0.635000*%
%ADD26RotRect,1.700000X0.820000X25.000000*%
%ADD27RoundRect,0.205000X-0.497932X-0.458382X0.671205X0.086796X0.497932X0.458382X-0.671205X-0.086796X0*%
%ADD28RotRect,1.700000X0.820000X355.000000*%
%ADD29RoundRect,0.205000X-0.660413X-0.148004X0.624679X-0.260435X0.660413X0.148004X-0.624679X0.260435X0*%
%ADD30C,1.800000*%
%ADD31C,3.000000*%
%ADD32C,3.400000*%
%ADD33RotRect,1.600000X2.200000X173.000000*%
%ADD34R,1.600000X2.200000*%
%ADD35RotRect,1.600000X2.200000X200.000000*%
%ADD36RotRect,1.700000X0.820000X30.000000*%
%ADD37RoundRect,0.205000X-0.456086X-0.500035X0.661086X0.144965X0.456086X0.500035X-0.661086X-0.144965X0*%
%ADD38RoundRect,0.135000X-0.135000X-0.185000X0.135000X-0.185000X0.135000X0.185000X-0.135000X0.185000X0*%
%ADD39RotRect,1.600000X2.200000X175.000000*%
%ADD40R,0.280000X1.250000*%
%ADD41R,1.800000X2.000000*%
%ADD42C,2.000000*%
%ADD43R,1.700000X1.700000*%
%ADD44O,1.700000X1.700000*%
%ADD45RoundRect,0.225000X0.045437X0.434955X-0.362401X0.244776X-0.045437X-0.434955X0.362401X-0.244776X0*%
%ADD46R,0.800000X1.000000*%
%ADD47C,0.900000*%
%ADD48R,1.500000X0.700000*%
%ADD49RotRect,1.600000X2.200000X205.000000*%
%ADD50RotRect,1.600000X2.200000X210.000000*%
%ADD51R,1.524000X1.524000*%
%ADD52RoundRect,0.225000X-0.344784X0.269024X-0.399625X-0.177622X0.344784X-0.269024X0.399625X0.177622X0*%
%ADD53RoundRect,0.225000X-0.353963X0.256827X-0.393183X-0.191460X0.353963X-0.256827X0.393183X0.191460X0*%
%ADD54RoundRect,0.225000X-0.375000X0.225000X-0.375000X-0.225000X0.375000X-0.225000X0.375000X0.225000X0*%
%ADD55RoundRect,0.225000X-0.437260X0.007356X-0.212260X-0.382356X0.437260X-0.007356X0.212260X0.382356X0*%
%ADD56RoundRect,0.225000X-0.429339X0.083173X-0.275430X-0.339688X0.429339X-0.083173X0.275430X0.339688X0*%
G04 APERTURE END LIST*
D10*
X67288152Y-122344762D02*
X67954819Y-122106667D01*
X67954819Y-122106667D02*
X67288152Y-121868572D01*
X67288152Y-121059048D02*
X67954819Y-121059048D01*
X66907200Y-121297143D02*
X67621485Y-121535238D01*
X67621485Y-121535238D02*
X67621485Y-120916191D01*
X67859580Y-120535238D02*
X67907200Y-120487619D01*
X67907200Y-120487619D02*
X67954819Y-120535238D01*
X67954819Y-120535238D02*
X67907200Y-120582857D01*
X67907200Y-120582857D02*
X67859580Y-120535238D01*
X67859580Y-120535238D02*
X67954819Y-120535238D01*
X67954819Y-119535239D02*
X67954819Y-120106667D01*
X67954819Y-119820953D02*
X66954819Y-119820953D01*
X66954819Y-119820953D02*
X67097676Y-119916191D01*
X67097676Y-119916191D02*
X67192914Y-120011429D01*
X67192914Y-120011429D02*
X67240533Y-120106667D01*
X67859580Y-119106667D02*
X67907200Y-119059048D01*
X67907200Y-119059048D02*
X67954819Y-119106667D01*
X67954819Y-119106667D02*
X67907200Y-119154286D01*
X67907200Y-119154286D02*
X67859580Y-119106667D01*
X67859580Y-119106667D02*
X67954819Y-119106667D01*
X66954819Y-118440001D02*
X66954819Y-118344763D01*
X66954819Y-118344763D02*
X67002438Y-118249525D01*
X67002438Y-118249525D02*
X67050057Y-118201906D01*
X67050057Y-118201906D02*
X67145295Y-118154287D01*
X67145295Y-118154287D02*
X67335771Y-118106668D01*
X67335771Y-118106668D02*
X67573866Y-118106668D01*
X67573866Y-118106668D02*
X67764342Y-118154287D01*
X67764342Y-118154287D02*
X67859580Y-118201906D01*
X67859580Y-118201906D02*
X67907200Y-118249525D01*
X67907200Y-118249525D02*
X67954819Y-118344763D01*
X67954819Y-118344763D02*
X67954819Y-118440001D01*
X67954819Y-118440001D02*
X67907200Y-118535239D01*
X67907200Y-118535239D02*
X67859580Y-118582858D01*
X67859580Y-118582858D02*
X67764342Y-118630477D01*
X67764342Y-118630477D02*
X67573866Y-118678096D01*
X67573866Y-118678096D02*
X67335771Y-118678096D01*
X67335771Y-118678096D02*
X67145295Y-118630477D01*
X67145295Y-118630477D02*
X67050057Y-118582858D01*
X67050057Y-118582858D02*
X67002438Y-118535239D01*
X67002438Y-118535239D02*
X66954819Y-118440001D01*
X67954819Y-116916191D02*
X66954819Y-116916191D01*
X67335771Y-116916191D02*
X67288152Y-116820953D01*
X67288152Y-116820953D02*
X67288152Y-116630477D01*
X67288152Y-116630477D02*
X67335771Y-116535239D01*
X67335771Y-116535239D02*
X67383390Y-116487620D01*
X67383390Y-116487620D02*
X67478628Y-116440001D01*
X67478628Y-116440001D02*
X67764342Y-116440001D01*
X67764342Y-116440001D02*
X67859580Y-116487620D01*
X67859580Y-116487620D02*
X67907200Y-116535239D01*
X67907200Y-116535239D02*
X67954819Y-116630477D01*
X67954819Y-116630477D02*
X67954819Y-116820953D01*
X67954819Y-116820953D02*
X67907200Y-116916191D01*
X67288152Y-116106667D02*
X67954819Y-115868572D01*
X67288152Y-115630477D02*
X67954819Y-115868572D01*
X67954819Y-115868572D02*
X68192914Y-115963810D01*
X68192914Y-115963810D02*
X68240533Y-116011429D01*
X68240533Y-116011429D02*
X68288152Y-116106667D01*
X67954819Y-113916191D02*
X67478628Y-114249524D01*
X67954819Y-114487619D02*
X66954819Y-114487619D01*
X66954819Y-114487619D02*
X66954819Y-114106667D01*
X66954819Y-114106667D02*
X67002438Y-114011429D01*
X67002438Y-114011429D02*
X67050057Y-113963810D01*
X67050057Y-113963810D02*
X67145295Y-113916191D01*
X67145295Y-113916191D02*
X67288152Y-113916191D01*
X67288152Y-113916191D02*
X67383390Y-113963810D01*
X67383390Y-113963810D02*
X67431009Y-114011429D01*
X67431009Y-114011429D02*
X67478628Y-114106667D01*
X67478628Y-114106667D02*
X67478628Y-114487619D01*
X67954819Y-113487619D02*
X67288152Y-113487619D01*
X66954819Y-113487619D02*
X67002438Y-113535238D01*
X67002438Y-113535238D02*
X67050057Y-113487619D01*
X67050057Y-113487619D02*
X67002438Y-113440000D01*
X67002438Y-113440000D02*
X66954819Y-113487619D01*
X66954819Y-113487619D02*
X67050057Y-113487619D01*
X67907200Y-112582858D02*
X67954819Y-112678096D01*
X67954819Y-112678096D02*
X67954819Y-112868572D01*
X67954819Y-112868572D02*
X67907200Y-112963810D01*
X67907200Y-112963810D02*
X67859580Y-113011429D01*
X67859580Y-113011429D02*
X67764342Y-113059048D01*
X67764342Y-113059048D02*
X67478628Y-113059048D01*
X67478628Y-113059048D02*
X67383390Y-113011429D01*
X67383390Y-113011429D02*
X67335771Y-112963810D01*
X67335771Y-112963810D02*
X67288152Y-112868572D01*
X67288152Y-112868572D02*
X67288152Y-112678096D01*
X67288152Y-112678096D02*
X67335771Y-112582858D01*
X67954819Y-112154286D02*
X66954819Y-112154286D01*
X67954819Y-111725715D02*
X67431009Y-111725715D01*
X67431009Y-111725715D02*
X67335771Y-111773334D01*
X67335771Y-111773334D02*
X67288152Y-111868572D01*
X67288152Y-111868572D02*
X67288152Y-112011429D01*
X67288152Y-112011429D02*
X67335771Y-112106667D01*
X67335771Y-112106667D02*
X67383390Y-112154286D01*
X67954819Y-110820953D02*
X67431009Y-110820953D01*
X67431009Y-110820953D02*
X67335771Y-110868572D01*
X67335771Y-110868572D02*
X67288152Y-110963810D01*
X67288152Y-110963810D02*
X67288152Y-111154286D01*
X67288152Y-111154286D02*
X67335771Y-111249524D01*
X67907200Y-110820953D02*
X67954819Y-110916191D01*
X67954819Y-110916191D02*
X67954819Y-111154286D01*
X67954819Y-111154286D02*
X67907200Y-111249524D01*
X67907200Y-111249524D02*
X67811961Y-111297143D01*
X67811961Y-111297143D02*
X67716723Y-111297143D01*
X67716723Y-111297143D02*
X67621485Y-111249524D01*
X67621485Y-111249524D02*
X67573866Y-111154286D01*
X67573866Y-111154286D02*
X67573866Y-110916191D01*
X67573866Y-110916191D02*
X67526247Y-110820953D01*
X67954819Y-110344762D02*
X67288152Y-110344762D01*
X67478628Y-110344762D02*
X67383390Y-110297143D01*
X67383390Y-110297143D02*
X67335771Y-110249524D01*
X67335771Y-110249524D02*
X67288152Y-110154286D01*
X67288152Y-110154286D02*
X67288152Y-110059048D01*
X67954819Y-109297143D02*
X66954819Y-109297143D01*
X67907200Y-109297143D02*
X67954819Y-109392381D01*
X67954819Y-109392381D02*
X67954819Y-109582857D01*
X67954819Y-109582857D02*
X67907200Y-109678095D01*
X67907200Y-109678095D02*
X67859580Y-109725714D01*
X67859580Y-109725714D02*
X67764342Y-109773333D01*
X67764342Y-109773333D02*
X67478628Y-109773333D01*
X67478628Y-109773333D02*
X67383390Y-109725714D01*
X67383390Y-109725714D02*
X67335771Y-109678095D01*
X67335771Y-109678095D02*
X67288152Y-109582857D01*
X67288152Y-109582857D02*
X67288152Y-109392381D01*
X67288152Y-109392381D02*
X67335771Y-109297143D01*
X67954819Y-108059047D02*
X66954819Y-108059047D01*
X66954819Y-108059047D02*
X67954819Y-107487619D01*
X67954819Y-107487619D02*
X66954819Y-107487619D01*
X67288152Y-106582857D02*
X67954819Y-106582857D01*
X67288152Y-107011428D02*
X67811961Y-107011428D01*
X67811961Y-107011428D02*
X67907200Y-106963809D01*
X67907200Y-106963809D02*
X67954819Y-106868571D01*
X67954819Y-106868571D02*
X67954819Y-106725714D01*
X67954819Y-106725714D02*
X67907200Y-106630476D01*
X67907200Y-106630476D02*
X67859580Y-106582857D01*
X67288152Y-106106666D02*
X67954819Y-106106666D01*
X67383390Y-106106666D02*
X67335771Y-106059047D01*
X67335771Y-106059047D02*
X67288152Y-105963809D01*
X67288152Y-105963809D02*
X67288152Y-105820952D01*
X67288152Y-105820952D02*
X67335771Y-105725714D01*
X67335771Y-105725714D02*
X67431009Y-105678095D01*
X67431009Y-105678095D02*
X67954819Y-105678095D01*
X67907200Y-104820952D02*
X67954819Y-104916190D01*
X67954819Y-104916190D02*
X67954819Y-105106666D01*
X67954819Y-105106666D02*
X67907200Y-105201904D01*
X67907200Y-105201904D02*
X67811961Y-105249523D01*
X67811961Y-105249523D02*
X67431009Y-105249523D01*
X67431009Y-105249523D02*
X67335771Y-105201904D01*
X67335771Y-105201904D02*
X67288152Y-105106666D01*
X67288152Y-105106666D02*
X67288152Y-104916190D01*
X67288152Y-104916190D02*
X67335771Y-104820952D01*
X67335771Y-104820952D02*
X67431009Y-104773333D01*
X67431009Y-104773333D02*
X67526247Y-104773333D01*
X67526247Y-104773333D02*
X67621485Y-105249523D01*
X67288152Y-104439999D02*
X67288152Y-103916190D01*
X67288152Y-103916190D02*
X67954819Y-104439999D01*
X67954819Y-104439999D02*
X67954819Y-103916190D01*
X68335771Y-102487618D02*
X68288152Y-102535237D01*
X68288152Y-102535237D02*
X68145295Y-102630475D01*
X68145295Y-102630475D02*
X68050057Y-102678094D01*
X68050057Y-102678094D02*
X67907200Y-102725713D01*
X67907200Y-102725713D02*
X67669104Y-102773332D01*
X67669104Y-102773332D02*
X67478628Y-102773332D01*
X67478628Y-102773332D02*
X67240533Y-102725713D01*
X67240533Y-102725713D02*
X67097676Y-102678094D01*
X67097676Y-102678094D02*
X67002438Y-102630475D01*
X67002438Y-102630475D02*
X66859580Y-102535237D01*
X66859580Y-102535237D02*
X66811961Y-102487618D01*
X67669104Y-102154284D02*
X67669104Y-101678094D01*
X67954819Y-102249522D02*
X66954819Y-101916189D01*
X66954819Y-101916189D02*
X67954819Y-101582856D01*
X67288152Y-101249522D02*
X67954819Y-101249522D01*
X67383390Y-101249522D02*
X67335771Y-101201903D01*
X67335771Y-101201903D02*
X67288152Y-101106665D01*
X67288152Y-101106665D02*
X67288152Y-100963808D01*
X67288152Y-100963808D02*
X67335771Y-100868570D01*
X67335771Y-100868570D02*
X67431009Y-100820951D01*
X67431009Y-100820951D02*
X67954819Y-100820951D01*
X67288152Y-100487617D02*
X67288152Y-100106665D01*
X66954819Y-100344760D02*
X67811961Y-100344760D01*
X67811961Y-100344760D02*
X67907200Y-100297141D01*
X67907200Y-100297141D02*
X67954819Y-100201903D01*
X67954819Y-100201903D02*
X67954819Y-100106665D01*
X67907200Y-99392379D02*
X67954819Y-99487617D01*
X67954819Y-99487617D02*
X67954819Y-99678093D01*
X67954819Y-99678093D02*
X67907200Y-99773331D01*
X67907200Y-99773331D02*
X67811961Y-99820950D01*
X67811961Y-99820950D02*
X67431009Y-99820950D01*
X67431009Y-99820950D02*
X67335771Y-99773331D01*
X67335771Y-99773331D02*
X67288152Y-99678093D01*
X67288152Y-99678093D02*
X67288152Y-99487617D01*
X67288152Y-99487617D02*
X67335771Y-99392379D01*
X67335771Y-99392379D02*
X67431009Y-99344760D01*
X67431009Y-99344760D02*
X67526247Y-99344760D01*
X67526247Y-99344760D02*
X67621485Y-99820950D01*
X67954819Y-98916188D02*
X66954819Y-98916188D01*
X67335771Y-98916188D02*
X67288152Y-98820950D01*
X67288152Y-98820950D02*
X67288152Y-98630474D01*
X67288152Y-98630474D02*
X67335771Y-98535236D01*
X67335771Y-98535236D02*
X67383390Y-98487617D01*
X67383390Y-98487617D02*
X67478628Y-98439998D01*
X67478628Y-98439998D02*
X67764342Y-98439998D01*
X67764342Y-98439998D02*
X67859580Y-98487617D01*
X67859580Y-98487617D02*
X67907200Y-98535236D01*
X67907200Y-98535236D02*
X67954819Y-98630474D01*
X67954819Y-98630474D02*
X67954819Y-98820950D01*
X67954819Y-98820950D02*
X67907200Y-98916188D01*
X67954819Y-98011426D02*
X67288152Y-98011426D01*
X66954819Y-98011426D02*
X67002438Y-98059045D01*
X67002438Y-98059045D02*
X67050057Y-98011426D01*
X67050057Y-98011426D02*
X67002438Y-97963807D01*
X67002438Y-97963807D02*
X66954819Y-98011426D01*
X66954819Y-98011426D02*
X67050057Y-98011426D01*
X67954819Y-97392379D02*
X67907200Y-97487617D01*
X67907200Y-97487617D02*
X67859580Y-97535236D01*
X67859580Y-97535236D02*
X67764342Y-97582855D01*
X67764342Y-97582855D02*
X67478628Y-97582855D01*
X67478628Y-97582855D02*
X67383390Y-97535236D01*
X67383390Y-97535236D02*
X67335771Y-97487617D01*
X67335771Y-97487617D02*
X67288152Y-97392379D01*
X67288152Y-97392379D02*
X67288152Y-97249522D01*
X67288152Y-97249522D02*
X67335771Y-97154284D01*
X67335771Y-97154284D02*
X67383390Y-97106665D01*
X67383390Y-97106665D02*
X67478628Y-97059046D01*
X67478628Y-97059046D02*
X67764342Y-97059046D01*
X67764342Y-97059046D02*
X67859580Y-97106665D01*
X67859580Y-97106665D02*
X67907200Y-97154284D01*
X67907200Y-97154284D02*
X67954819Y-97249522D01*
X67954819Y-97249522D02*
X67954819Y-97392379D01*
X67907200Y-96678093D02*
X67954819Y-96582855D01*
X67954819Y-96582855D02*
X67954819Y-96392379D01*
X67954819Y-96392379D02*
X67907200Y-96297141D01*
X67907200Y-96297141D02*
X67811961Y-96249522D01*
X67811961Y-96249522D02*
X67764342Y-96249522D01*
X67764342Y-96249522D02*
X67669104Y-96297141D01*
X67669104Y-96297141D02*
X67621485Y-96392379D01*
X67621485Y-96392379D02*
X67621485Y-96535236D01*
X67621485Y-96535236D02*
X67573866Y-96630474D01*
X67573866Y-96630474D02*
X67478628Y-96678093D01*
X67478628Y-96678093D02*
X67431009Y-96678093D01*
X67431009Y-96678093D02*
X67335771Y-96630474D01*
X67335771Y-96630474D02*
X67288152Y-96535236D01*
X67288152Y-96535236D02*
X67288152Y-96392379D01*
X67288152Y-96392379D02*
X67335771Y-96297141D01*
X68335771Y-95916188D02*
X68288152Y-95868569D01*
X68288152Y-95868569D02*
X68145295Y-95773331D01*
X68145295Y-95773331D02*
X68050057Y-95725712D01*
X68050057Y-95725712D02*
X67907200Y-95678093D01*
X67907200Y-95678093D02*
X67669104Y-95630474D01*
X67669104Y-95630474D02*
X67478628Y-95630474D01*
X67478628Y-95630474D02*
X67240533Y-95678093D01*
X67240533Y-95678093D02*
X67097676Y-95725712D01*
X67097676Y-95725712D02*
X67002438Y-95773331D01*
X67002438Y-95773331D02*
X66859580Y-95868569D01*
X66859580Y-95868569D02*
X66811961Y-95916188D01*
D11*
X69176189Y-80630951D02*
X69176189Y-80345237D01*
X69676189Y-80488094D02*
X69176189Y-80488094D01*
X69676189Y-80178571D02*
X69176189Y-80178571D01*
X69176189Y-80178571D02*
X69176189Y-79988095D01*
X69176189Y-79988095D02*
X69199999Y-79940476D01*
X69199999Y-79940476D02*
X69223808Y-79916666D01*
X69223808Y-79916666D02*
X69271427Y-79892857D01*
X69271427Y-79892857D02*
X69342856Y-79892857D01*
X69342856Y-79892857D02*
X69390475Y-79916666D01*
X69390475Y-79916666D02*
X69414284Y-79940476D01*
X69414284Y-79940476D02*
X69438094Y-79988095D01*
X69438094Y-79988095D02*
X69438094Y-80178571D01*
X69676189Y-79416666D02*
X69676189Y-79702380D01*
X69676189Y-79559523D02*
X69176189Y-79559523D01*
X69176189Y-79559523D02*
X69247618Y-79607142D01*
X69247618Y-79607142D02*
X69295237Y-79654761D01*
X69295237Y-79654761D02*
X69319046Y-79702380D01*
D12*
X82712420Y-91685291D02*
X82712420Y-92265863D01*
X82712420Y-92265863D02*
X82673715Y-92381977D01*
X82673715Y-92381977D02*
X82596306Y-92459387D01*
X82596306Y-92459387D02*
X82480191Y-92498091D01*
X82480191Y-92498091D02*
X82402782Y-92498091D01*
X83099467Y-92498091D02*
X83099467Y-91685291D01*
X83099467Y-91685291D02*
X83409105Y-91685291D01*
X83409105Y-91685291D02*
X83486515Y-91723996D01*
X83486515Y-91723996D02*
X83525220Y-91762701D01*
X83525220Y-91762701D02*
X83563924Y-91840110D01*
X83563924Y-91840110D02*
X83563924Y-91956225D01*
X83563924Y-91956225D02*
X83525220Y-92033634D01*
X83525220Y-92033634D02*
X83486515Y-92072339D01*
X83486515Y-92072339D02*
X83409105Y-92111044D01*
X83409105Y-92111044D02*
X83099467Y-92111044D01*
X83834858Y-91685291D02*
X84338020Y-91685291D01*
X84338020Y-91685291D02*
X84067086Y-91994929D01*
X84067086Y-91994929D02*
X84183201Y-91994929D01*
X84183201Y-91994929D02*
X84260610Y-92033634D01*
X84260610Y-92033634D02*
X84299315Y-92072339D01*
X84299315Y-92072339D02*
X84338020Y-92149748D01*
X84338020Y-92149748D02*
X84338020Y-92343272D01*
X84338020Y-92343272D02*
X84299315Y-92420682D01*
X84299315Y-92420682D02*
X84260610Y-92459387D01*
X84260610Y-92459387D02*
X84183201Y-92498091D01*
X84183201Y-92498091D02*
X83950972Y-92498091D01*
X83950972Y-92498091D02*
X83873563Y-92459387D01*
X83873563Y-92459387D02*
X83834858Y-92420682D01*
D11*
X69176189Y-90630951D02*
X69176189Y-90345237D01*
X69676189Y-90488094D02*
X69176189Y-90488094D01*
X69676189Y-90178571D02*
X69176189Y-90178571D01*
X69176189Y-90178571D02*
X69176189Y-89988095D01*
X69176189Y-89988095D02*
X69199999Y-89940476D01*
X69199999Y-89940476D02*
X69223808Y-89916666D01*
X69223808Y-89916666D02*
X69271427Y-89892857D01*
X69271427Y-89892857D02*
X69342856Y-89892857D01*
X69342856Y-89892857D02*
X69390475Y-89916666D01*
X69390475Y-89916666D02*
X69414284Y-89940476D01*
X69414284Y-89940476D02*
X69438094Y-89988095D01*
X69438094Y-89988095D02*
X69438094Y-90178571D01*
X69176189Y-89440476D02*
X69176189Y-89678571D01*
X69176189Y-89678571D02*
X69414284Y-89702380D01*
X69414284Y-89702380D02*
X69390475Y-89678571D01*
X69390475Y-89678571D02*
X69366665Y-89630952D01*
X69366665Y-89630952D02*
X69366665Y-89511904D01*
X69366665Y-89511904D02*
X69390475Y-89464285D01*
X69390475Y-89464285D02*
X69414284Y-89440476D01*
X69414284Y-89440476D02*
X69461903Y-89416666D01*
X69461903Y-89416666D02*
X69580951Y-89416666D01*
X69580951Y-89416666D02*
X69628570Y-89440476D01*
X69628570Y-89440476D02*
X69652380Y-89464285D01*
X69652380Y-89464285D02*
X69676189Y-89511904D01*
X69676189Y-89511904D02*
X69676189Y-89630952D01*
X69676189Y-89630952D02*
X69652380Y-89678571D01*
X69652380Y-89678571D02*
X69628570Y-89702380D01*
X72053138Y-102585550D02*
X71886472Y-102347455D01*
X71767424Y-102585550D02*
X71767424Y-102085550D01*
X71767424Y-102085550D02*
X71957900Y-102085550D01*
X71957900Y-102085550D02*
X72005519Y-102109360D01*
X72005519Y-102109360D02*
X72029329Y-102133169D01*
X72029329Y-102133169D02*
X72053138Y-102180788D01*
X72053138Y-102180788D02*
X72053138Y-102252217D01*
X72053138Y-102252217D02*
X72029329Y-102299836D01*
X72029329Y-102299836D02*
X72005519Y-102323645D01*
X72005519Y-102323645D02*
X71957900Y-102347455D01*
X71957900Y-102347455D02*
X71767424Y-102347455D01*
X72529329Y-102585550D02*
X72243615Y-102585550D01*
X72386472Y-102585550D02*
X72386472Y-102085550D01*
X72386472Y-102085550D02*
X72338853Y-102156979D01*
X72338853Y-102156979D02*
X72291234Y-102204598D01*
X72291234Y-102204598D02*
X72243615Y-102228407D01*
X69176189Y-88130951D02*
X69176189Y-87845237D01*
X69676189Y-87988094D02*
X69176189Y-87988094D01*
X69676189Y-87678571D02*
X69176189Y-87678571D01*
X69176189Y-87678571D02*
X69176189Y-87488095D01*
X69176189Y-87488095D02*
X69199999Y-87440476D01*
X69199999Y-87440476D02*
X69223808Y-87416666D01*
X69223808Y-87416666D02*
X69271427Y-87392857D01*
X69271427Y-87392857D02*
X69342856Y-87392857D01*
X69342856Y-87392857D02*
X69390475Y-87416666D01*
X69390475Y-87416666D02*
X69414284Y-87440476D01*
X69414284Y-87440476D02*
X69438094Y-87488095D01*
X69438094Y-87488095D02*
X69438094Y-87678571D01*
X69342856Y-86964285D02*
X69676189Y-86964285D01*
X69152380Y-87083333D02*
X69509522Y-87202380D01*
X69509522Y-87202380D02*
X69509522Y-86892857D01*
D12*
X85252420Y-91715291D02*
X85252420Y-92295863D01*
X85252420Y-92295863D02*
X85213715Y-92411977D01*
X85213715Y-92411977D02*
X85136306Y-92489387D01*
X85136306Y-92489387D02*
X85020191Y-92528091D01*
X85020191Y-92528091D02*
X84942782Y-92528091D01*
X85639467Y-92528091D02*
X85639467Y-91715291D01*
X85639467Y-91715291D02*
X85949105Y-91715291D01*
X85949105Y-91715291D02*
X86026515Y-91753996D01*
X86026515Y-91753996D02*
X86065220Y-91792701D01*
X86065220Y-91792701D02*
X86103924Y-91870110D01*
X86103924Y-91870110D02*
X86103924Y-91986225D01*
X86103924Y-91986225D02*
X86065220Y-92063634D01*
X86065220Y-92063634D02*
X86026515Y-92102339D01*
X86026515Y-92102339D02*
X85949105Y-92141044D01*
X85949105Y-92141044D02*
X85639467Y-92141044D01*
X86800610Y-91986225D02*
X86800610Y-92528091D01*
X86607086Y-91676587D02*
X86413563Y-92257158D01*
X86413563Y-92257158D02*
X86916724Y-92257158D01*
X87672667Y-91675291D02*
X87672667Y-92255863D01*
X87672667Y-92255863D02*
X87633962Y-92371977D01*
X87633962Y-92371977D02*
X87556553Y-92449387D01*
X87556553Y-92449387D02*
X87440438Y-92488091D01*
X87440438Y-92488091D02*
X87363029Y-92488091D01*
X88059714Y-92488091D02*
X88059714Y-91675291D01*
X88059714Y-91675291D02*
X88369352Y-91675291D01*
X88369352Y-91675291D02*
X88446762Y-91713996D01*
X88446762Y-91713996D02*
X88485467Y-91752701D01*
X88485467Y-91752701D02*
X88524171Y-91830110D01*
X88524171Y-91830110D02*
X88524171Y-91946225D01*
X88524171Y-91946225D02*
X88485467Y-92023634D01*
X88485467Y-92023634D02*
X88446762Y-92062339D01*
X88446762Y-92062339D02*
X88369352Y-92101044D01*
X88369352Y-92101044D02*
X88059714Y-92101044D01*
X89259562Y-91675291D02*
X88872514Y-91675291D01*
X88872514Y-91675291D02*
X88833810Y-92062339D01*
X88833810Y-92062339D02*
X88872514Y-92023634D01*
X88872514Y-92023634D02*
X88949924Y-91984929D01*
X88949924Y-91984929D02*
X89143448Y-91984929D01*
X89143448Y-91984929D02*
X89220857Y-92023634D01*
X89220857Y-92023634D02*
X89259562Y-92062339D01*
X89259562Y-92062339D02*
X89298267Y-92139748D01*
X89298267Y-92139748D02*
X89298267Y-92333272D01*
X89298267Y-92333272D02*
X89259562Y-92410682D01*
X89259562Y-92410682D02*
X89220857Y-92449387D01*
X89220857Y-92449387D02*
X89143448Y-92488091D01*
X89143448Y-92488091D02*
X88949924Y-92488091D01*
X88949924Y-92488091D02*
X88872514Y-92449387D01*
X88872514Y-92449387D02*
X88833810Y-92410682D01*
D10*
X85444181Y-109011582D02*
X84979895Y-109011582D01*
X84979895Y-109011582D02*
X85229895Y-108725868D01*
X85229895Y-108725868D02*
X85122752Y-108725868D01*
X85122752Y-108725868D02*
X85051324Y-108690154D01*
X85051324Y-108690154D02*
X85015609Y-108654439D01*
X85015609Y-108654439D02*
X84979895Y-108583011D01*
X84979895Y-108583011D02*
X84979895Y-108404439D01*
X84979895Y-108404439D02*
X85015609Y-108333011D01*
X85015609Y-108333011D02*
X85051324Y-108297297D01*
X85051324Y-108297297D02*
X85122752Y-108261582D01*
X85122752Y-108261582D02*
X85337038Y-108261582D01*
X85337038Y-108261582D02*
X85408466Y-108297297D01*
X85408466Y-108297297D02*
X85444181Y-108333011D01*
X84729895Y-108761582D02*
X84551323Y-108261582D01*
X84551323Y-108261582D02*
X84372752Y-108761582D01*
X84158466Y-109011582D02*
X83694180Y-109011582D01*
X83694180Y-109011582D02*
X83944180Y-108725868D01*
X83944180Y-108725868D02*
X83837037Y-108725868D01*
X83837037Y-108725868D02*
X83765609Y-108690154D01*
X83765609Y-108690154D02*
X83729894Y-108654439D01*
X83729894Y-108654439D02*
X83694180Y-108583011D01*
X83694180Y-108583011D02*
X83694180Y-108404439D01*
X83694180Y-108404439D02*
X83729894Y-108333011D01*
X83729894Y-108333011D02*
X83765609Y-108297297D01*
X83765609Y-108297297D02*
X83837037Y-108261582D01*
X83837037Y-108261582D02*
X84051323Y-108261582D01*
X84051323Y-108261582D02*
X84122751Y-108297297D01*
X84122751Y-108297297D02*
X84158466Y-108333011D01*
X68962295Y-73411904D02*
X68581342Y-73678571D01*
X68962295Y-73869047D02*
X68162295Y-73869047D01*
X68162295Y-73869047D02*
X68162295Y-73564285D01*
X68162295Y-73564285D02*
X68200390Y-73488095D01*
X68200390Y-73488095D02*
X68238485Y-73450000D01*
X68238485Y-73450000D02*
X68314676Y-73411904D01*
X68314676Y-73411904D02*
X68428961Y-73411904D01*
X68428961Y-73411904D02*
X68505152Y-73450000D01*
X68505152Y-73450000D02*
X68543247Y-73488095D01*
X68543247Y-73488095D02*
X68581342Y-73564285D01*
X68581342Y-73564285D02*
X68581342Y-73869047D01*
X68543247Y-73069047D02*
X68543247Y-72802381D01*
X68962295Y-72688095D02*
X68962295Y-73069047D01*
X68962295Y-73069047D02*
X68162295Y-73069047D01*
X68162295Y-73069047D02*
X68162295Y-72688095D01*
X68924200Y-72383333D02*
X68962295Y-72269047D01*
X68962295Y-72269047D02*
X68962295Y-72078571D01*
X68962295Y-72078571D02*
X68924200Y-72002380D01*
X68924200Y-72002380D02*
X68886104Y-71964285D01*
X68886104Y-71964285D02*
X68809914Y-71926190D01*
X68809914Y-71926190D02*
X68733723Y-71926190D01*
X68733723Y-71926190D02*
X68657533Y-71964285D01*
X68657533Y-71964285D02*
X68619438Y-72002380D01*
X68619438Y-72002380D02*
X68581342Y-72078571D01*
X68581342Y-72078571D02*
X68543247Y-72230952D01*
X68543247Y-72230952D02*
X68505152Y-72307142D01*
X68505152Y-72307142D02*
X68467057Y-72345237D01*
X68467057Y-72345237D02*
X68390866Y-72383333D01*
X68390866Y-72383333D02*
X68314676Y-72383333D01*
X68314676Y-72383333D02*
X68238485Y-72345237D01*
X68238485Y-72345237D02*
X68200390Y-72307142D01*
X68200390Y-72307142D02*
X68162295Y-72230952D01*
X68162295Y-72230952D02*
X68162295Y-72040475D01*
X68162295Y-72040475D02*
X68200390Y-71926190D01*
X68543247Y-71583332D02*
X68543247Y-71316666D01*
X68962295Y-71202380D02*
X68962295Y-71583332D01*
X68962295Y-71583332D02*
X68162295Y-71583332D01*
X68162295Y-71583332D02*
X68162295Y-71202380D01*
X68162295Y-70973808D02*
X68162295Y-70516665D01*
X68962295Y-70745237D02*
X68162295Y-70745237D01*
D11*
X69176189Y-83130951D02*
X69176189Y-82845237D01*
X69676189Y-82988094D02*
X69176189Y-82988094D01*
X69676189Y-82678571D02*
X69176189Y-82678571D01*
X69176189Y-82678571D02*
X69176189Y-82488095D01*
X69176189Y-82488095D02*
X69199999Y-82440476D01*
X69199999Y-82440476D02*
X69223808Y-82416666D01*
X69223808Y-82416666D02*
X69271427Y-82392857D01*
X69271427Y-82392857D02*
X69342856Y-82392857D01*
X69342856Y-82392857D02*
X69390475Y-82416666D01*
X69390475Y-82416666D02*
X69414284Y-82440476D01*
X69414284Y-82440476D02*
X69438094Y-82488095D01*
X69438094Y-82488095D02*
X69438094Y-82678571D01*
X69223808Y-82202380D02*
X69199999Y-82178571D01*
X69199999Y-82178571D02*
X69176189Y-82130952D01*
X69176189Y-82130952D02*
X69176189Y-82011904D01*
X69176189Y-82011904D02*
X69199999Y-81964285D01*
X69199999Y-81964285D02*
X69223808Y-81940476D01*
X69223808Y-81940476D02*
X69271427Y-81916666D01*
X69271427Y-81916666D02*
X69319046Y-81916666D01*
X69319046Y-81916666D02*
X69390475Y-81940476D01*
X69390475Y-81940476D02*
X69676189Y-82226190D01*
X69676189Y-82226190D02*
X69676189Y-81916666D01*
D10*
X102466666Y-58294819D02*
X102466666Y-59009104D01*
X102466666Y-59009104D02*
X102419047Y-59151961D01*
X102419047Y-59151961D02*
X102323809Y-59247200D01*
X102323809Y-59247200D02*
X102180952Y-59294819D01*
X102180952Y-59294819D02*
X102085714Y-59294819D01*
X103466666Y-59294819D02*
X102895238Y-59294819D01*
X103180952Y-59294819D02*
X103180952Y-58294819D01*
X103180952Y-58294819D02*
X103085714Y-58437676D01*
X103085714Y-58437676D02*
X102990476Y-58532914D01*
X102990476Y-58532914D02*
X102895238Y-58580533D01*
X102463570Y-56761009D02*
X102606427Y-56808628D01*
X102606427Y-56808628D02*
X102654046Y-56856247D01*
X102654046Y-56856247D02*
X102701665Y-56951485D01*
X102701665Y-56951485D02*
X102701665Y-57094342D01*
X102701665Y-57094342D02*
X102654046Y-57189580D01*
X102654046Y-57189580D02*
X102606427Y-57237200D01*
X102606427Y-57237200D02*
X102511189Y-57284819D01*
X102511189Y-57284819D02*
X102130237Y-57284819D01*
X102130237Y-57284819D02*
X102130237Y-56284819D01*
X102130237Y-56284819D02*
X102463570Y-56284819D01*
X102463570Y-56284819D02*
X102558808Y-56332438D01*
X102558808Y-56332438D02*
X102606427Y-56380057D01*
X102606427Y-56380057D02*
X102654046Y-56475295D01*
X102654046Y-56475295D02*
X102654046Y-56570533D01*
X102654046Y-56570533D02*
X102606427Y-56665771D01*
X102606427Y-56665771D02*
X102558808Y-56713390D01*
X102558808Y-56713390D02*
X102463570Y-56761009D01*
X102463570Y-56761009D02*
X102130237Y-56761009D01*
X103558808Y-57284819D02*
X103558808Y-56761009D01*
X103558808Y-56761009D02*
X103511189Y-56665771D01*
X103511189Y-56665771D02*
X103415951Y-56618152D01*
X103415951Y-56618152D02*
X103225475Y-56618152D01*
X103225475Y-56618152D02*
X103130237Y-56665771D01*
X103558808Y-57237200D02*
X103463570Y-57284819D01*
X103463570Y-57284819D02*
X103225475Y-57284819D01*
X103225475Y-57284819D02*
X103130237Y-57237200D01*
X103130237Y-57237200D02*
X103082618Y-57141961D01*
X103082618Y-57141961D02*
X103082618Y-57046723D01*
X103082618Y-57046723D02*
X103130237Y-56951485D01*
X103130237Y-56951485D02*
X103225475Y-56903866D01*
X103225475Y-56903866D02*
X103463570Y-56903866D01*
X103463570Y-56903866D02*
X103558808Y-56856247D01*
X103892142Y-56618152D02*
X104273094Y-56618152D01*
X104034999Y-56284819D02*
X104034999Y-57141961D01*
X104034999Y-57141961D02*
X104082618Y-57237200D01*
X104082618Y-57237200D02*
X104177856Y-57284819D01*
X104177856Y-57284819D02*
X104273094Y-57284819D01*
X104463571Y-56618152D02*
X104844523Y-56618152D01*
X104606428Y-56284819D02*
X104606428Y-57141961D01*
X104606428Y-57141961D02*
X104654047Y-57237200D01*
X104654047Y-57237200D02*
X104749285Y-57284819D01*
X104749285Y-57284819D02*
X104844523Y-57284819D01*
X105558809Y-57237200D02*
X105463571Y-57284819D01*
X105463571Y-57284819D02*
X105273095Y-57284819D01*
X105273095Y-57284819D02*
X105177857Y-57237200D01*
X105177857Y-57237200D02*
X105130238Y-57141961D01*
X105130238Y-57141961D02*
X105130238Y-56761009D01*
X105130238Y-56761009D02*
X105177857Y-56665771D01*
X105177857Y-56665771D02*
X105273095Y-56618152D01*
X105273095Y-56618152D02*
X105463571Y-56618152D01*
X105463571Y-56618152D02*
X105558809Y-56665771D01*
X105558809Y-56665771D02*
X105606428Y-56761009D01*
X105606428Y-56761009D02*
X105606428Y-56856247D01*
X105606428Y-56856247D02*
X105130238Y-56951485D01*
X106035000Y-57284819D02*
X106035000Y-56618152D01*
X106035000Y-56808628D02*
X106082619Y-56713390D01*
X106082619Y-56713390D02*
X106130238Y-56665771D01*
X106130238Y-56665771D02*
X106225476Y-56618152D01*
X106225476Y-56618152D02*
X106320714Y-56618152D01*
X106558810Y-56618152D02*
X106796905Y-57284819D01*
X107035000Y-56618152D02*
X106796905Y-57284819D01*
X106796905Y-57284819D02*
X106701667Y-57522914D01*
X106701667Y-57522914D02*
X106654048Y-57570533D01*
X106654048Y-57570533D02*
X106558810Y-57618152D01*
X72607200Y-64203332D02*
X72654819Y-64060475D01*
X72654819Y-64060475D02*
X72654819Y-63822380D01*
X72654819Y-63822380D02*
X72607200Y-63727142D01*
X72607200Y-63727142D02*
X72559580Y-63679523D01*
X72559580Y-63679523D02*
X72464342Y-63631904D01*
X72464342Y-63631904D02*
X72369104Y-63631904D01*
X72369104Y-63631904D02*
X72273866Y-63679523D01*
X72273866Y-63679523D02*
X72226247Y-63727142D01*
X72226247Y-63727142D02*
X72178628Y-63822380D01*
X72178628Y-63822380D02*
X72131009Y-64012856D01*
X72131009Y-64012856D02*
X72083390Y-64108094D01*
X72083390Y-64108094D02*
X72035771Y-64155713D01*
X72035771Y-64155713D02*
X71940533Y-64203332D01*
X71940533Y-64203332D02*
X71845295Y-64203332D01*
X71845295Y-64203332D02*
X71750057Y-64155713D01*
X71750057Y-64155713D02*
X71702438Y-64108094D01*
X71702438Y-64108094D02*
X71654819Y-64012856D01*
X71654819Y-64012856D02*
X71654819Y-63774761D01*
X71654819Y-63774761D02*
X71702438Y-63631904D01*
X71654819Y-63298570D02*
X72654819Y-63060475D01*
X72654819Y-63060475D02*
X71940533Y-62869999D01*
X71940533Y-62869999D02*
X72654819Y-62679523D01*
X72654819Y-62679523D02*
X71654819Y-62441428D01*
X72654819Y-61536666D02*
X72654819Y-62108094D01*
X72654819Y-61822380D02*
X71654819Y-61822380D01*
X71654819Y-61822380D02*
X71797676Y-61917618D01*
X71797676Y-61917618D02*
X71892914Y-62012856D01*
X71892914Y-62012856D02*
X71940533Y-62108094D01*
D11*
X88043137Y-102728189D02*
X87876471Y-102490094D01*
X87757423Y-102728189D02*
X87757423Y-102228189D01*
X87757423Y-102228189D02*
X87947899Y-102228189D01*
X87947899Y-102228189D02*
X87995518Y-102251999D01*
X87995518Y-102251999D02*
X88019328Y-102275808D01*
X88019328Y-102275808D02*
X88043137Y-102323427D01*
X88043137Y-102323427D02*
X88043137Y-102394856D01*
X88043137Y-102394856D02*
X88019328Y-102442475D01*
X88019328Y-102442475D02*
X87995518Y-102466284D01*
X87995518Y-102466284D02*
X87947899Y-102490094D01*
X87947899Y-102490094D02*
X87757423Y-102490094D01*
X88233614Y-102275808D02*
X88257423Y-102251999D01*
X88257423Y-102251999D02*
X88305042Y-102228189D01*
X88305042Y-102228189D02*
X88424090Y-102228189D01*
X88424090Y-102228189D02*
X88471709Y-102251999D01*
X88471709Y-102251999D02*
X88495518Y-102275808D01*
X88495518Y-102275808D02*
X88519328Y-102323427D01*
X88519328Y-102323427D02*
X88519328Y-102371046D01*
X88519328Y-102371046D02*
X88495518Y-102442475D01*
X88495518Y-102442475D02*
X88209804Y-102728189D01*
X88209804Y-102728189D02*
X88519328Y-102728189D01*
X69176189Y-85630951D02*
X69176189Y-85345237D01*
X69676189Y-85488094D02*
X69176189Y-85488094D01*
X69676189Y-85178571D02*
X69176189Y-85178571D01*
X69176189Y-85178571D02*
X69176189Y-84988095D01*
X69176189Y-84988095D02*
X69199999Y-84940476D01*
X69199999Y-84940476D02*
X69223808Y-84916666D01*
X69223808Y-84916666D02*
X69271427Y-84892857D01*
X69271427Y-84892857D02*
X69342856Y-84892857D01*
X69342856Y-84892857D02*
X69390475Y-84916666D01*
X69390475Y-84916666D02*
X69414284Y-84940476D01*
X69414284Y-84940476D02*
X69438094Y-84988095D01*
X69438094Y-84988095D02*
X69438094Y-85178571D01*
X69176189Y-84726190D02*
X69176189Y-84416666D01*
X69176189Y-84416666D02*
X69366665Y-84583333D01*
X69366665Y-84583333D02*
X69366665Y-84511904D01*
X69366665Y-84511904D02*
X69390475Y-84464285D01*
X69390475Y-84464285D02*
X69414284Y-84440476D01*
X69414284Y-84440476D02*
X69461903Y-84416666D01*
X69461903Y-84416666D02*
X69580951Y-84416666D01*
X69580951Y-84416666D02*
X69628570Y-84440476D01*
X69628570Y-84440476D02*
X69652380Y-84464285D01*
X69652380Y-84464285D02*
X69676189Y-84511904D01*
X69676189Y-84511904D02*
X69676189Y-84654761D01*
X69676189Y-84654761D02*
X69652380Y-84702380D01*
X69652380Y-84702380D02*
X69628570Y-84726190D01*
X71088189Y-85716665D02*
X71588189Y-85549999D01*
X71588189Y-85549999D02*
X71088189Y-85383332D01*
X71540570Y-84930952D02*
X71564380Y-84954761D01*
X71564380Y-84954761D02*
X71588189Y-85026190D01*
X71588189Y-85026190D02*
X71588189Y-85073809D01*
X71588189Y-85073809D02*
X71564380Y-85145237D01*
X71564380Y-85145237D02*
X71516760Y-85192856D01*
X71516760Y-85192856D02*
X71469141Y-85216666D01*
X71469141Y-85216666D02*
X71373903Y-85240475D01*
X71373903Y-85240475D02*
X71302475Y-85240475D01*
X71302475Y-85240475D02*
X71207237Y-85216666D01*
X71207237Y-85216666D02*
X71159618Y-85192856D01*
X71159618Y-85192856D02*
X71111999Y-85145237D01*
X71111999Y-85145237D02*
X71088189Y-85073809D01*
X71088189Y-85073809D02*
X71088189Y-85026190D01*
X71088189Y-85026190D02*
X71111999Y-84954761D01*
X71111999Y-84954761D02*
X71135808Y-84930952D01*
X71540570Y-84430952D02*
X71564380Y-84454761D01*
X71564380Y-84454761D02*
X71588189Y-84526190D01*
X71588189Y-84526190D02*
X71588189Y-84573809D01*
X71588189Y-84573809D02*
X71564380Y-84645237D01*
X71564380Y-84645237D02*
X71516760Y-84692856D01*
X71516760Y-84692856D02*
X71469141Y-84716666D01*
X71469141Y-84716666D02*
X71373903Y-84740475D01*
X71373903Y-84740475D02*
X71302475Y-84740475D01*
X71302475Y-84740475D02*
X71207237Y-84716666D01*
X71207237Y-84716666D02*
X71159618Y-84692856D01*
X71159618Y-84692856D02*
X71111999Y-84645237D01*
X71111999Y-84645237D02*
X71088189Y-84573809D01*
X71088189Y-84573809D02*
X71088189Y-84526190D01*
X71088189Y-84526190D02*
X71111999Y-84454761D01*
X71111999Y-84454761D02*
X71135808Y-84430952D01*
X71588189Y-87871428D02*
X71588189Y-88109523D01*
X71588189Y-88109523D02*
X71088189Y-88109523D01*
X71326284Y-87704761D02*
X71326284Y-87538094D01*
X71588189Y-87466666D02*
X71588189Y-87704761D01*
X71588189Y-87704761D02*
X71088189Y-87704761D01*
X71088189Y-87704761D02*
X71088189Y-87466666D01*
X71588189Y-87252380D02*
X71088189Y-87252380D01*
X71088189Y-87252380D02*
X71088189Y-87133332D01*
X71088189Y-87133332D02*
X71111999Y-87061904D01*
X71111999Y-87061904D02*
X71159618Y-87014285D01*
X71159618Y-87014285D02*
X71207237Y-86990475D01*
X71207237Y-86990475D02*
X71302475Y-86966666D01*
X71302475Y-86966666D02*
X71373903Y-86966666D01*
X71373903Y-86966666D02*
X71469141Y-86990475D01*
X71469141Y-86990475D02*
X71516760Y-87014285D01*
X71516760Y-87014285D02*
X71564380Y-87061904D01*
X71564380Y-87061904D02*
X71588189Y-87133332D01*
X71588189Y-87133332D02*
X71588189Y-87252380D01*
X71111999Y-90430952D02*
X71088189Y-90478571D01*
X71088189Y-90478571D02*
X71088189Y-90550000D01*
X71088189Y-90550000D02*
X71111999Y-90621428D01*
X71111999Y-90621428D02*
X71159618Y-90669047D01*
X71159618Y-90669047D02*
X71207237Y-90692857D01*
X71207237Y-90692857D02*
X71302475Y-90716666D01*
X71302475Y-90716666D02*
X71373903Y-90716666D01*
X71373903Y-90716666D02*
X71469141Y-90692857D01*
X71469141Y-90692857D02*
X71516760Y-90669047D01*
X71516760Y-90669047D02*
X71564380Y-90621428D01*
X71564380Y-90621428D02*
X71588189Y-90550000D01*
X71588189Y-90550000D02*
X71588189Y-90502381D01*
X71588189Y-90502381D02*
X71564380Y-90430952D01*
X71564380Y-90430952D02*
X71540570Y-90407143D01*
X71540570Y-90407143D02*
X71373903Y-90407143D01*
X71373903Y-90407143D02*
X71373903Y-90502381D01*
X71588189Y-90192857D02*
X71088189Y-90192857D01*
X71088189Y-90192857D02*
X71588189Y-89907143D01*
X71588189Y-89907143D02*
X71088189Y-89907143D01*
X71588189Y-89669047D02*
X71088189Y-89669047D01*
X71088189Y-89669047D02*
X71088189Y-89549999D01*
X71088189Y-89549999D02*
X71111999Y-89478571D01*
X71111999Y-89478571D02*
X71159618Y-89430952D01*
X71159618Y-89430952D02*
X71207237Y-89407142D01*
X71207237Y-89407142D02*
X71302475Y-89383333D01*
X71302475Y-89383333D02*
X71373903Y-89383333D01*
X71373903Y-89383333D02*
X71469141Y-89407142D01*
X71469141Y-89407142D02*
X71516760Y-89430952D01*
X71516760Y-89430952D02*
X71564380Y-89478571D01*
X71564380Y-89478571D02*
X71588189Y-89549999D01*
X71588189Y-89549999D02*
X71588189Y-89669047D01*
D10*
X79696666Y-96234819D02*
X79696666Y-96949104D01*
X79696666Y-96949104D02*
X79649047Y-97091961D01*
X79649047Y-97091961D02*
X79553809Y-97187200D01*
X79553809Y-97187200D02*
X79410952Y-97234819D01*
X79410952Y-97234819D02*
X79315714Y-97234819D01*
X80077619Y-96234819D02*
X80696666Y-96234819D01*
X80696666Y-96234819D02*
X80363333Y-96615771D01*
X80363333Y-96615771D02*
X80506190Y-96615771D01*
X80506190Y-96615771D02*
X80601428Y-96663390D01*
X80601428Y-96663390D02*
X80649047Y-96711009D01*
X80649047Y-96711009D02*
X80696666Y-96806247D01*
X80696666Y-96806247D02*
X80696666Y-97044342D01*
X80696666Y-97044342D02*
X80649047Y-97139580D01*
X80649047Y-97139580D02*
X80601428Y-97187200D01*
X80601428Y-97187200D02*
X80506190Y-97234819D01*
X80506190Y-97234819D02*
X80220476Y-97234819D01*
X80220476Y-97234819D02*
X80125238Y-97187200D01*
X80125238Y-97187200D02*
X80077619Y-97139580D01*
D12*
X80402667Y-91685291D02*
X80402667Y-92265863D01*
X80402667Y-92265863D02*
X80363962Y-92381977D01*
X80363962Y-92381977D02*
X80286553Y-92459387D01*
X80286553Y-92459387D02*
X80170438Y-92498091D01*
X80170438Y-92498091D02*
X80093029Y-92498091D01*
X80789714Y-92498091D02*
X80789714Y-91685291D01*
X80789714Y-91685291D02*
X81099352Y-91685291D01*
X81099352Y-91685291D02*
X81176762Y-91723996D01*
X81176762Y-91723996D02*
X81215467Y-91762701D01*
X81215467Y-91762701D02*
X81254171Y-91840110D01*
X81254171Y-91840110D02*
X81254171Y-91956225D01*
X81254171Y-91956225D02*
X81215467Y-92033634D01*
X81215467Y-92033634D02*
X81176762Y-92072339D01*
X81176762Y-92072339D02*
X81099352Y-92111044D01*
X81099352Y-92111044D02*
X80789714Y-92111044D01*
X81563810Y-91762701D02*
X81602514Y-91723996D01*
X81602514Y-91723996D02*
X81679924Y-91685291D01*
X81679924Y-91685291D02*
X81873448Y-91685291D01*
X81873448Y-91685291D02*
X81950857Y-91723996D01*
X81950857Y-91723996D02*
X81989562Y-91762701D01*
X81989562Y-91762701D02*
X82028267Y-91840110D01*
X82028267Y-91840110D02*
X82028267Y-91917520D01*
X82028267Y-91917520D02*
X81989562Y-92033634D01*
X81989562Y-92033634D02*
X81525105Y-92498091D01*
X81525105Y-92498091D02*
X82028267Y-92498091D01*
X78172667Y-91685291D02*
X78172667Y-92265863D01*
X78172667Y-92265863D02*
X78133962Y-92381977D01*
X78133962Y-92381977D02*
X78056553Y-92459387D01*
X78056553Y-92459387D02*
X77940438Y-92498091D01*
X77940438Y-92498091D02*
X77863029Y-92498091D01*
X78559714Y-92498091D02*
X78559714Y-91685291D01*
X78559714Y-91685291D02*
X78869352Y-91685291D01*
X78869352Y-91685291D02*
X78946762Y-91723996D01*
X78946762Y-91723996D02*
X78985467Y-91762701D01*
X78985467Y-91762701D02*
X79024171Y-91840110D01*
X79024171Y-91840110D02*
X79024171Y-91956225D01*
X79024171Y-91956225D02*
X78985467Y-92033634D01*
X78985467Y-92033634D02*
X78946762Y-92072339D01*
X78946762Y-92072339D02*
X78869352Y-92111044D01*
X78869352Y-92111044D02*
X78559714Y-92111044D01*
X79798267Y-92498091D02*
X79333810Y-92498091D01*
X79566038Y-92498091D02*
X79566038Y-91685291D01*
X79566038Y-91685291D02*
X79488629Y-91801406D01*
X79488629Y-91801406D02*
X79411219Y-91878815D01*
X79411219Y-91878815D02*
X79333810Y-91917520D01*
D13*
G04 #@! TO.C,D18*
X184907590Y-90536094D02*
X184312063Y-90462972D01*
X184385184Y-89867444D01*
X184907590Y-90536094D01*
G36*
X184907590Y-90536094D02*
G01*
X184312063Y-90462972D01*
X184385184Y-89867444D01*
X184907590Y-90536094D01*
G37*
G04 #@! TO.C,D10*
X145031753Y-76965542D02*
X144431753Y-76965542D01*
X144431753Y-76365542D01*
X145031753Y-76965542D01*
G36*
X145031753Y-76965542D02*
G01*
X144431753Y-76965542D01*
X144431753Y-76365542D01*
X145031753Y-76965542D01*
G37*
G04 #@! TO.C,D12*
X103542311Y-118970973D02*
X102978496Y-119176185D01*
X102773283Y-118612369D01*
X103542311Y-118970973D01*
G36*
X103542311Y-118970973D02*
G01*
X102978496Y-119176185D01*
X102773283Y-118612369D01*
X103542311Y-118970973D01*
G37*
G04 #@! TO.C,TP1*
D14*
X68700000Y-80000000D02*
G75*
G02*
X67300000Y-80000000I-700000J0D01*
G01*
X67300000Y-80000000D02*
G75*
G02*
X68700000Y-80000000I700000J0D01*
G01*
D13*
G04 #@! TO.C,D22*
X201136980Y-110160234D02*
X200541453Y-110087112D01*
X200614574Y-109491584D01*
X201136980Y-110160234D01*
G36*
X201136980Y-110160234D02*
G01*
X200541453Y-110087112D01*
X200614574Y-109491584D01*
X201136980Y-110160234D01*
G37*
G04 #@! TO.C,JP3*
D10*
X82500753Y-89237380D02*
X84278753Y-89237380D01*
X82500753Y-91523380D02*
X82500753Y-89237380D01*
X84278753Y-89237380D02*
X84278753Y-91523380D01*
X84278753Y-91523380D02*
X82500753Y-91523380D01*
D13*
G04 #@! TO.C,D4*
X79650242Y-109696325D02*
X79106457Y-109949895D01*
X78852887Y-109406112D01*
X79650242Y-109696325D01*
G36*
X79650242Y-109696325D02*
G01*
X79106457Y-109949895D01*
X78852887Y-109406112D01*
X79650242Y-109696325D01*
G37*
G04 #@! TO.C,D15*
X164506961Y-99815124D02*
X163909239Y-99762822D01*
X163961548Y-99165095D01*
X164506961Y-99815124D01*
G36*
X164506961Y-99815124D02*
G01*
X163909239Y-99762822D01*
X163961548Y-99165095D01*
X164506961Y-99815124D01*
G37*
G04 #@! TO.C,S18*
D10*
X173638993Y-101897482D02*
X173760861Y-100904934D01*
X174631538Y-102019351D02*
X173638993Y-101897482D01*
X175223293Y-88994382D02*
X175345162Y-88001837D01*
X175345162Y-88001837D02*
X176337710Y-88123705D01*
X178279585Y-102668777D02*
X178596444Y-100088158D01*
X178279585Y-102668777D02*
X179172028Y-103811052D01*
X178596444Y-100088158D02*
X179738720Y-99195714D01*
X178763607Y-99957556D02*
X178410185Y-102835940D01*
X178924677Y-99876581D02*
X178540788Y-103003101D01*
X179097931Y-99696352D02*
X178671388Y-103170265D01*
X179265093Y-99565751D02*
X178801991Y-103337426D01*
X179432256Y-99435149D02*
X178932591Y-103504588D01*
X179593326Y-99354175D02*
X179063194Y-103671749D01*
X179760488Y-99223572D02*
X179199890Y-103789286D01*
X179909369Y-99241853D02*
X179348770Y-103807565D01*
X180058250Y-99260135D02*
X179497655Y-103825847D01*
X180207133Y-99278416D02*
X179646533Y-103844127D01*
X180356018Y-99296697D02*
X179795416Y-103862408D01*
X180504897Y-99314976D02*
X179944301Y-103880689D01*
X180653779Y-99333256D02*
X180093180Y-103898970D01*
X180802662Y-99351535D02*
X180242062Y-103917248D01*
X180951543Y-99369816D02*
X180390944Y-103935528D01*
X181100426Y-99388096D02*
X180539825Y-103953808D01*
X181249306Y-99406377D02*
X180688706Y-103972089D01*
X181398189Y-99424658D02*
X180837590Y-103990370D01*
X181547070Y-99442939D02*
X180986472Y-104008650D01*
X181695953Y-99461219D02*
X181135354Y-104026932D01*
X181699000Y-99436405D02*
X179738720Y-99195714D01*
X181703021Y-104121819D02*
X179172028Y-103811052D01*
X181703021Y-104121819D02*
X183093433Y-103259844D01*
X181844834Y-99479499D02*
X181290328Y-103995583D01*
X181999810Y-99448152D02*
X181433118Y-104063494D01*
X182148692Y-99466432D02*
X181581999Y-104081772D01*
X182297573Y-99484712D02*
X181736975Y-104050426D01*
X182452550Y-99453366D02*
X181898043Y-103969451D01*
X182613618Y-99372392D02*
X182059113Y-103888476D01*
X182768595Y-99341044D02*
X182226274Y-103757876D01*
X182929662Y-99260074D02*
X182387344Y-103676902D01*
X183090734Y-99179097D02*
X182554506Y-103546300D01*
X183251800Y-99098122D02*
X182715578Y-103465327D01*
X183418962Y-98967520D02*
X182876643Y-103384352D01*
X183586125Y-98836919D02*
X183043806Y-103253750D01*
X183709753Y-98650595D02*
X183203995Y-102769665D01*
X183827290Y-98513903D02*
X183321532Y-102632969D01*
X183950913Y-98327579D02*
X183445158Y-102446647D01*
X184068453Y-98190885D02*
X183556599Y-102359578D01*
X184198174Y-97954935D02*
X183661947Y-102322139D01*
X184315708Y-97818240D02*
X183767298Y-102284698D01*
X184476775Y-97737264D02*
X183922271Y-102253351D01*
X184637846Y-97656292D02*
X184083341Y-102172376D01*
X184792822Y-97624945D02*
X184232223Y-102190657D01*
X184941704Y-97643225D02*
X184381104Y-102208937D01*
X185090585Y-97661504D02*
X184536080Y-102177592D01*
X185239468Y-97679785D02*
X184678868Y-102245498D01*
X185388350Y-97698068D02*
X184827750Y-102263779D01*
X185537232Y-97716348D02*
X184976633Y-102282059D01*
X185686113Y-97734628D02*
X185125516Y-102300338D01*
X185834994Y-97752909D02*
X185274396Y-102318620D01*
X185983877Y-97771190D02*
X185423278Y-102336900D01*
X186132758Y-97789468D02*
X185572161Y-102355182D01*
X186281641Y-97807747D02*
X185721041Y-102373461D01*
X186430523Y-97826029D02*
X185869925Y-102391742D01*
X186542090Y-103481783D02*
X187534638Y-103603651D01*
X186579406Y-97844309D02*
X186018805Y-102410022D01*
X186728287Y-97862590D02*
X186167688Y-102428302D01*
X186877169Y-97880870D02*
X186316570Y-102446583D01*
X186958678Y-102550610D02*
X184402872Y-102236799D01*
X187026049Y-97899154D02*
X186465451Y-102464864D01*
X187174932Y-97917432D02*
X186614333Y-102483144D01*
X187323815Y-97935711D02*
X186763218Y-102501424D01*
X187472697Y-97953992D02*
X186912098Y-102519704D01*
X187525370Y-97935272D02*
X184944750Y-97618415D01*
X187534638Y-103603651D02*
X187656507Y-102611106D01*
X187621578Y-97972273D02*
X187067072Y-102488358D01*
X187764367Y-98040180D02*
X187215955Y-102506638D01*
X187907154Y-98108087D02*
X187370929Y-102475292D01*
X188043851Y-98225624D02*
X187531999Y-102394318D01*
X188073093Y-101679935D02*
X188396046Y-99049687D01*
X188130917Y-98337064D02*
X187649534Y-102257622D01*
X188217984Y-98448507D02*
X187760975Y-102170554D01*
X188298962Y-98609576D02*
X187866323Y-102133115D01*
X189118939Y-90700554D02*
X189240807Y-89708006D01*
X189240807Y-89708006D02*
X188248262Y-89586137D01*
X183093433Y-103259844D02*
G75*
G02*
X184402872Y-102236799I1166240J-143194D01*
G01*
X184003293Y-98211191D02*
G75*
G02*
X181699000Y-99436405I-2027047J1032842D01*
G01*
X184003293Y-98211191D02*
G75*
G02*
X184943614Y-97619491I865871J-333007D01*
G01*
X187525370Y-97935272D02*
G75*
G02*
X188396046Y-99049687I-121868J-992544D01*
G01*
X188073093Y-101679935D02*
G75*
G02*
X186958678Y-102550611I-992544J121868D01*
G01*
G04 #@! TO.C,U1*
X75318815Y-58295745D02*
X75318815Y-91315745D01*
X75318815Y-60835745D02*
X75318815Y-91315745D01*
X75318815Y-91315745D02*
X77858815Y-91315745D01*
X77858815Y-60835745D02*
X75318815Y-60835745D01*
X77858815Y-91315745D02*
X77858815Y-60835745D01*
X90558815Y-60835745D02*
X90558815Y-91315745D01*
X90558815Y-91315745D02*
X93098815Y-91315745D01*
X93098815Y-58295745D02*
X75318815Y-58295745D01*
X93098815Y-60835745D02*
X90558815Y-60835745D01*
X93098815Y-91315745D02*
X93098815Y-58295745D01*
X93098815Y-91315745D02*
X93098815Y-60835745D01*
G04 #@! TO.C,TP5*
D14*
X68700000Y-90000000D02*
G75*
G02*
X67300000Y-90000000I-700000J0D01*
G01*
X67300000Y-90000000D02*
G75*
G02*
X68700000Y-90000000I700000J0D01*
G01*
G04 #@! TO.C,S9*
D10*
X135231753Y-58115542D02*
X136231753Y-58115542D01*
X135231753Y-59115542D02*
X135231753Y-58115542D01*
X135231753Y-72115542D02*
X135231753Y-71115542D01*
X136231753Y-72115542D02*
X135231753Y-72115542D01*
X139931753Y-69715542D02*
X140956753Y-68690542D01*
X139931753Y-72315542D02*
X139931753Y-69715542D01*
X139931753Y-72315542D02*
X140956753Y-73340542D01*
X140081753Y-69565542D02*
X140081753Y-72465542D01*
X140231753Y-69465542D02*
X140231753Y-72615542D01*
X140381753Y-69265542D02*
X140381753Y-72765542D01*
X140531753Y-69115542D02*
X140531753Y-72915542D01*
X140681753Y-68965542D02*
X140681753Y-73065542D01*
X140831753Y-68865542D02*
X140831753Y-73215542D01*
X140981753Y-68715542D02*
X140981753Y-73315542D01*
X141131753Y-68715542D02*
X141131753Y-73315542D01*
X141281753Y-68715542D02*
X141281753Y-73315542D01*
X141431753Y-68715542D02*
X141431753Y-73315542D01*
X141581753Y-68715542D02*
X141581753Y-73315542D01*
X141731753Y-68715542D02*
X141731753Y-73315542D01*
X141881753Y-68715542D02*
X141881753Y-73315542D01*
X142031753Y-68715542D02*
X142031753Y-73315542D01*
X142181753Y-68715542D02*
X142181753Y-73315542D01*
X142331753Y-68715542D02*
X142331753Y-73315542D01*
X142481753Y-68715542D02*
X142481753Y-73315542D01*
X142631753Y-68715542D02*
X142631753Y-73315542D01*
X142781753Y-68715542D02*
X142781753Y-73315542D01*
X142931753Y-68690542D02*
X140956753Y-68690542D01*
X142931753Y-68715542D02*
X142931753Y-73315542D01*
X143081753Y-68715542D02*
X143081753Y-73265542D01*
X143231753Y-68665542D02*
X143231753Y-73315542D01*
X143381753Y-68665542D02*
X143381753Y-73315542D01*
X143506753Y-73340542D02*
X140956753Y-73340542D01*
X143506753Y-73340542D02*
X144781753Y-72315542D01*
X143531753Y-68665542D02*
X143531753Y-73265542D01*
X143681753Y-68615542D02*
X143681753Y-73165542D01*
X143831753Y-68515542D02*
X143831753Y-73065542D01*
X143981753Y-68465542D02*
X143981753Y-72915542D01*
X144131753Y-68365542D02*
X144131753Y-72815542D01*
X144281753Y-68265542D02*
X144281753Y-72665542D01*
X144431753Y-68165542D02*
X144431753Y-72565542D01*
X144581753Y-68015542D02*
X144581753Y-72465542D01*
X144731753Y-67865542D02*
X144731753Y-72315542D01*
X144831753Y-67665542D02*
X144831753Y-71815542D01*
X144931753Y-67515542D02*
X144931753Y-71665542D01*
X145031753Y-67315542D02*
X145031753Y-71465542D01*
X145131753Y-67165542D02*
X145131753Y-71365542D01*
X145231753Y-66915542D02*
X145231753Y-71315542D01*
X145331753Y-66765542D02*
X145331753Y-71265542D01*
X145481753Y-66665542D02*
X145481753Y-71215542D01*
X145631753Y-66565542D02*
X145631753Y-71115542D01*
X145781753Y-66515542D02*
X145781753Y-71115542D01*
X145931753Y-66515542D02*
X145931753Y-71115542D01*
X146081753Y-66515542D02*
X146081753Y-71065542D01*
X146231753Y-66515542D02*
X146231753Y-71115542D01*
X146381753Y-66515542D02*
X146381753Y-71115542D01*
X146531753Y-66515542D02*
X146531753Y-71115542D01*
X146681753Y-66515542D02*
X146681753Y-71115542D01*
X146831753Y-66515542D02*
X146831753Y-71115542D01*
X146981753Y-66515542D02*
X146981753Y-71115542D01*
X147131753Y-66515542D02*
X147131753Y-71115542D01*
X147281753Y-66515542D02*
X147281753Y-71115542D01*
X147431753Y-66515542D02*
X147431753Y-71115542D01*
X147581753Y-66515542D02*
X147581753Y-71115542D01*
X147731753Y-66515542D02*
X147731753Y-71115542D01*
X147881753Y-66515542D02*
X147881753Y-71115542D01*
X148031753Y-66515542D02*
X148031753Y-71115542D01*
X148181753Y-66515542D02*
X148181753Y-71115542D01*
X148231753Y-72115542D02*
X149231753Y-72115542D01*
X148331753Y-66515542D02*
X148331753Y-71115542D01*
X148481753Y-66515542D02*
X148481753Y-71115542D01*
X148531753Y-66490542D02*
X145931753Y-66490542D01*
X148531753Y-71140542D02*
X145956753Y-71140542D01*
X148631753Y-66515542D02*
X148631753Y-71065542D01*
X148781753Y-66565542D02*
X148781753Y-71065542D01*
X148931753Y-66615542D02*
X148931753Y-71015542D01*
X149081753Y-66715542D02*
X149081753Y-70915542D01*
X149181753Y-66815542D02*
X149181753Y-70765542D01*
X149231753Y-58115542D02*
X148231753Y-58115542D01*
X149231753Y-59115542D02*
X149231753Y-58115542D01*
X149231753Y-72115542D02*
X149231753Y-71115542D01*
X149281753Y-66915542D02*
X149281753Y-70665542D01*
X149381753Y-67065542D02*
X149381753Y-70615542D01*
X149531753Y-70140542D02*
X149531753Y-67490542D01*
X144781753Y-72315542D02*
G75*
G02*
X145956753Y-71140542I1175002J-2D01*
G01*
X145069554Y-67193638D02*
G75*
G02*
X142931753Y-68690542I-2137800J778095D01*
G01*
X145069554Y-67193638D02*
G75*
G02*
X145930758Y-66491751I900000J-225000D01*
G01*
X148531753Y-66490542D02*
G75*
G02*
X149531753Y-67490542I1J-999999D01*
G01*
X149531753Y-70140542D02*
G75*
G02*
X148531753Y-71140542I-999999J-1D01*
G01*
G04 #@! TO.C,S12*
X93895970Y-121122946D02*
X94835662Y-120780926D01*
X94237990Y-122062638D02*
X93895970Y-121122946D01*
X98684252Y-134278642D02*
X98342232Y-133338950D01*
X99623944Y-133936622D02*
X98684252Y-134278642D01*
X102279959Y-130415885D02*
X102892573Y-129102130D01*
X102369610Y-130223628D02*
X103361468Y-132948737D01*
X102476361Y-130078356D02*
X103553725Y-133038388D01*
X102548911Y-129839115D02*
X103745982Y-133128039D01*
X102638562Y-129646858D02*
X103938239Y-133217690D01*
X102728213Y-129454601D02*
X104130496Y-133307341D01*
X102834965Y-129309329D02*
X104322752Y-133396990D01*
X102924616Y-129117072D02*
X104497908Y-133439658D01*
X103065570Y-129065770D02*
X104638862Y-133388355D01*
X103169211Y-132859086D02*
X102279959Y-130415885D01*
X103169211Y-132859086D02*
X104482968Y-133471700D01*
X103206524Y-129014467D02*
X104779816Y-133337052D01*
X103347476Y-128963163D02*
X104920770Y-133285749D01*
X103488431Y-128911860D02*
X105061724Y-133234446D01*
X103629385Y-128860557D02*
X105202678Y-133183143D01*
X103770339Y-128809253D02*
X105343632Y-133131840D01*
X103911293Y-128757950D02*
X105484586Y-133080537D01*
X104052247Y-128706647D02*
X105625540Y-133029233D01*
X104193201Y-128655344D02*
X105766493Y-132977930D01*
X104334155Y-128604041D02*
X105907447Y-132926627D01*
X104475110Y-128552738D02*
X106048401Y-132875324D01*
X104616062Y-128501435D02*
X106189355Y-132824021D01*
X104748466Y-128426640D02*
X102892573Y-129102130D01*
X104757016Y-128450132D02*
X106330309Y-132772718D01*
X104897970Y-128398829D02*
X106454162Y-132674431D01*
X105021823Y-128300542D02*
X106612217Y-132670112D01*
X105162777Y-128249239D02*
X106753171Y-132618809D01*
X105303731Y-128197936D02*
X106877024Y-132520522D01*
X105427584Y-128099648D02*
X106983775Y-132375248D01*
X105534336Y-127954376D02*
X107090527Y-132229977D01*
X105658189Y-127856088D02*
X107180178Y-132037720D01*
X105764940Y-127710816D02*
X107286930Y-131892448D01*
X105871692Y-127565543D02*
X107376581Y-131700191D01*
X105978444Y-127420271D02*
X107483333Y-131554919D01*
X106068095Y-127228014D02*
X107590085Y-131409646D01*
X106157746Y-127035757D02*
X107679736Y-131217390D01*
X106183311Y-126813617D02*
X107602695Y-130713341D01*
X106225977Y-126638461D02*
X107645361Y-130538185D01*
X106251543Y-126416320D02*
X107670926Y-130316045D01*
X106294209Y-126241164D02*
X107730693Y-130187873D01*
X106302673Y-125972039D02*
X107807562Y-130106687D01*
X106345339Y-125796883D02*
X107884430Y-130025500D01*
X106452091Y-125651611D02*
X108008283Y-129927213D01*
X106558843Y-125506339D02*
X108115035Y-129781940D01*
X106682696Y-125408051D02*
X108255989Y-129730637D01*
X106823650Y-125356748D02*
X108396943Y-129679334D01*
X106879183Y-132599549D02*
X104482968Y-133471700D01*
X106879183Y-132599549D02*
X107726720Y-131200289D01*
X106964604Y-125305445D02*
X108520795Y-129581047D01*
X107051666Y-116334664D02*
X106111974Y-116676684D01*
X107105558Y-125254142D02*
X108678850Y-129576728D01*
X107246512Y-125202839D02*
X108819804Y-129525425D01*
X107387465Y-125151536D02*
X108960758Y-129474122D01*
X107393686Y-117274356D02*
X107051666Y-116334664D01*
X107528419Y-125100233D02*
X109101712Y-129422819D01*
X107669373Y-125048930D02*
X109242666Y-129371516D01*
X107810327Y-124997627D02*
X109383620Y-129320213D01*
X107951281Y-124946324D02*
X109524574Y-129268910D01*
X108092235Y-124895021D02*
X109665528Y-129217607D01*
X108233189Y-124843718D02*
X109806481Y-129166304D01*
X108374143Y-124792415D02*
X109947435Y-129115001D01*
X108515097Y-124741112D02*
X110088389Y-129063698D01*
X108656051Y-124689809D02*
X110229343Y-129012395D01*
X108797004Y-124638506D02*
X110370297Y-128961092D01*
X108937958Y-124587203D02*
X110511251Y-128909789D01*
X109078912Y-124535900D02*
X110652205Y-128858486D01*
X109219866Y-124484597D02*
X110793159Y-128807183D01*
X109258300Y-124444003D02*
X106815099Y-125333256D01*
X109360820Y-124433294D02*
X110917012Y-128708895D01*
X109518875Y-124428975D02*
X111057966Y-128657592D01*
X109676930Y-124424657D02*
X111181817Y-128559305D01*
X109852086Y-124467323D02*
X111288570Y-128414032D01*
X109980257Y-124527090D02*
X111331237Y-128238876D01*
X110108428Y-124586858D02*
X111391004Y-128110705D01*
X110253701Y-124693611D02*
X111467872Y-128029518D01*
X110848694Y-128813574D02*
X108428985Y-129694276D01*
X110900256Y-129832380D02*
X111839948Y-129490360D01*
X111446366Y-127531861D02*
X110540013Y-125041676D01*
X111839948Y-129490360D02*
X111497928Y-128550668D01*
X106245370Y-126288839D02*
G75*
G02*
X104748466Y-128426640I-2274995J-4D01*
G01*
X106245370Y-126288839D02*
G75*
G02*
X106814578Y-125334732I922678J96387D01*
G01*
X107726720Y-131200289D02*
G75*
G02*
X108428985Y-129694276I1104142J401873D01*
G01*
X109258300Y-124444003D02*
G75*
G02*
X110540014Y-125041676I342021J-939692D01*
G01*
X111446366Y-127531861D02*
G75*
G02*
X110848694Y-128813574I-939691J-342021D01*
G01*
G04 #@! TO.C,S20*
X194133809Y-86782509D02*
X194255677Y-85789961D01*
X195126354Y-86904378D02*
X194133809Y-86782509D01*
X195718109Y-73879409D02*
X195839978Y-72886864D01*
X195839978Y-72886864D02*
X196832526Y-73008732D01*
X198774401Y-87553804D02*
X199091260Y-84973185D01*
X198774401Y-87553804D02*
X199666844Y-88696079D01*
X199091260Y-84973185D02*
X200233536Y-84080741D01*
X199258423Y-84842583D02*
X198905001Y-87720967D01*
X199419493Y-84761608D02*
X199035604Y-87888128D01*
X199592747Y-84581379D02*
X199166204Y-88055292D01*
X199759909Y-84450778D02*
X199296807Y-88222453D01*
X199927072Y-84320176D02*
X199427407Y-88389615D01*
X200088142Y-84239202D02*
X199558010Y-88556776D01*
X200255304Y-84108599D02*
X199694706Y-88674313D01*
X200404185Y-84126880D02*
X199843586Y-88692592D01*
X200553066Y-84145162D02*
X199992471Y-88710874D01*
X200701949Y-84163443D02*
X200141349Y-88729154D01*
X200850834Y-84181724D02*
X200290232Y-88747435D01*
X200999713Y-84200003D02*
X200439117Y-88765716D01*
X201148595Y-84218283D02*
X200587996Y-88783997D01*
X201297478Y-84236562D02*
X200736878Y-88802275D01*
X201446359Y-84254843D02*
X200885760Y-88820555D01*
X201595242Y-84273123D02*
X201034641Y-88838835D01*
X201744122Y-84291404D02*
X201183522Y-88857116D01*
X201893005Y-84309685D02*
X201332406Y-88875397D01*
X202041886Y-84327966D02*
X201481288Y-88893677D01*
X202190769Y-84346246D02*
X201630170Y-88911959D01*
X202193816Y-84321432D02*
X200233536Y-84080741D01*
X202197837Y-89006846D02*
X199666844Y-88696079D01*
X202197837Y-89006846D02*
X203588249Y-88144871D01*
X202339650Y-84364526D02*
X201785144Y-88880610D01*
X202494626Y-84333179D02*
X201927934Y-88948521D01*
X202643508Y-84351459D02*
X202076815Y-88966799D01*
X202792389Y-84369739D02*
X202231791Y-88935453D01*
X202947366Y-84338393D02*
X202392859Y-88854478D01*
X203108434Y-84257419D02*
X202553929Y-88773503D01*
X203263411Y-84226071D02*
X202721090Y-88642903D01*
X203424478Y-84145101D02*
X202882160Y-88561929D01*
X203585550Y-84064124D02*
X203049322Y-88431327D01*
X203746616Y-83983149D02*
X203210394Y-88350354D01*
X203913778Y-83852547D02*
X203371459Y-88269379D01*
X204080941Y-83721946D02*
X203538622Y-88138777D01*
X204204569Y-83535622D02*
X203698811Y-87654692D01*
X204322106Y-83398930D02*
X203816348Y-87517996D01*
X204445729Y-83212606D02*
X203939974Y-87331674D01*
X204563269Y-83075912D02*
X204051415Y-87244605D01*
X204692990Y-82839962D02*
X204156763Y-87207166D01*
X204810524Y-82703267D02*
X204262114Y-87169725D01*
X204971591Y-82622291D02*
X204417087Y-87138378D01*
X205132662Y-82541319D02*
X204578157Y-87057403D01*
X205287638Y-82509972D02*
X204727039Y-87075684D01*
X205436520Y-82528252D02*
X204875920Y-87093964D01*
X205585401Y-82546531D02*
X205030896Y-87062619D01*
X205734284Y-82564812D02*
X205173684Y-87130525D01*
X205883166Y-82583095D02*
X205322566Y-87148806D01*
X206032048Y-82601375D02*
X205471449Y-87167086D01*
X206180929Y-82619655D02*
X205620332Y-87185365D01*
X206329810Y-82637936D02*
X205769212Y-87203647D01*
X206478693Y-82656217D02*
X205918094Y-87221927D01*
X206627574Y-82674495D02*
X206066977Y-87240209D01*
X206776457Y-82692774D02*
X206215857Y-87258488D01*
X206925339Y-82711056D02*
X206364741Y-87276769D01*
X207036906Y-88366810D02*
X208029454Y-88488678D01*
X207074222Y-82729336D02*
X206513621Y-87295049D01*
X207223103Y-82747617D02*
X206662504Y-87313329D01*
X207371985Y-82765897D02*
X206811386Y-87331610D01*
X207453494Y-87435637D02*
X204897688Y-87121826D01*
X207520865Y-82784181D02*
X206960267Y-87349891D01*
X207669748Y-82802459D02*
X207109149Y-87368171D01*
X207818631Y-82820738D02*
X207258034Y-87386451D01*
X207967513Y-82839019D02*
X207406914Y-87404731D01*
X208020186Y-82820299D02*
X205439566Y-82503442D01*
X208029454Y-88488678D02*
X208151323Y-87496133D01*
X208116394Y-82857300D02*
X207561888Y-87373385D01*
X208259183Y-82925207D02*
X207710771Y-87391665D01*
X208401970Y-82993114D02*
X207865745Y-87360319D01*
X208538667Y-83110651D02*
X208026815Y-87279345D01*
X208567909Y-86564962D02*
X208890862Y-83934714D01*
X208625733Y-83222091D02*
X208144350Y-87142649D01*
X208712800Y-83333534D02*
X208255791Y-87055581D01*
X208793778Y-83494603D02*
X208361139Y-87018142D01*
X209613755Y-75585581D02*
X209735623Y-74593033D01*
X209735623Y-74593033D02*
X208743078Y-74471164D01*
X203588249Y-88144871D02*
G75*
G02*
X204897688Y-87121826I1166240J-143194D01*
G01*
X204498109Y-83096218D02*
G75*
G02*
X202193816Y-84321432I-2027047J1032842D01*
G01*
X204498109Y-83096218D02*
G75*
G02*
X205438430Y-82504518I865871J-333007D01*
G01*
X208020186Y-82820299D02*
G75*
G02*
X208890862Y-83934714I-121868J-992544D01*
G01*
X208567909Y-86564962D02*
G75*
G02*
X207453494Y-87435638I-992544J121868D01*
G01*
D13*
G04 #@! TO.C,D2*
X108031753Y-81465542D02*
X107431753Y-81465542D01*
X107431753Y-80865542D01*
X108031753Y-81465542D01*
G36*
X108031753Y-81465542D02*
G01*
X107431753Y-81465542D01*
X107431753Y-80865542D01*
X108031753Y-81465542D01*
G37*
G04 #@! TO.C,D8*
X83989329Y-127723832D02*
X83469714Y-128023832D01*
X83169714Y-127504217D01*
X83989329Y-127723832D01*
G36*
X83989329Y-127723832D02*
G01*
X83469714Y-128023832D01*
X83169714Y-127504217D01*
X83989329Y-127723832D01*
G37*
G04 #@! TO.C,D11*
X145031753Y-94465542D02*
X144431753Y-94465542D01*
X144431753Y-93865542D01*
X145031753Y-94465542D01*
G36*
X145031753Y-94465542D02*
G01*
X144431753Y-94465542D01*
X144431753Y-93865542D01*
X145031753Y-94465542D01*
G37*
G04 #@! TO.C,R1*
D14*
X71982831Y-102977361D02*
X72290113Y-102977361D01*
X71982831Y-103737361D02*
X72290113Y-103737361D01*
D13*
G04 #@! TO.C,D19*
X182774876Y-107905652D02*
X182179349Y-107832530D01*
X182252470Y-107237002D01*
X182774876Y-107905652D01*
G36*
X182774876Y-107905652D02*
G01*
X182179349Y-107832530D01*
X182252470Y-107237002D01*
X182774876Y-107905652D01*
G37*
G04 #@! TO.C,D5*
X126531753Y-61965542D02*
X125931753Y-61965542D01*
X125931753Y-61365542D01*
X126531753Y-61965542D01*
G36*
X126531753Y-61965542D02*
G01*
X125931753Y-61965542D01*
X125931753Y-61365542D01*
X126531753Y-61965542D01*
G37*
G04 #@! TO.C,TP4*
D14*
X68700000Y-87500000D02*
G75*
G02*
X67300000Y-87500000I-700000J0D01*
G01*
X67300000Y-87500000D02*
G75*
G02*
X68700000Y-87500000I700000J0D01*
G01*
G04 #@! TO.C,S10*
D10*
X135231753Y-75615542D02*
X136231753Y-75615542D01*
X135231753Y-76615542D02*
X135231753Y-75615542D01*
X135231753Y-89615542D02*
X135231753Y-88615542D01*
X136231753Y-89615542D02*
X135231753Y-89615542D01*
X139931753Y-87215542D02*
X140956753Y-86190542D01*
X139931753Y-89815542D02*
X139931753Y-87215542D01*
X139931753Y-89815542D02*
X140956753Y-90840542D01*
X140081753Y-87065542D02*
X140081753Y-89965542D01*
X140231753Y-86965542D02*
X140231753Y-90115542D01*
X140381753Y-86765542D02*
X140381753Y-90265542D01*
X140531753Y-86615542D02*
X140531753Y-90415542D01*
X140681753Y-86465542D02*
X140681753Y-90565542D01*
X140831753Y-86365542D02*
X140831753Y-90715542D01*
X140981753Y-86215542D02*
X140981753Y-90815542D01*
X141131753Y-86215542D02*
X141131753Y-90815542D01*
X141281753Y-86215542D02*
X141281753Y-90815542D01*
X141431753Y-86215542D02*
X141431753Y-90815542D01*
X141581753Y-86215542D02*
X141581753Y-90815542D01*
X141731753Y-86215542D02*
X141731753Y-90815542D01*
X141881753Y-86215542D02*
X141881753Y-90815542D01*
X142031753Y-86215542D02*
X142031753Y-90815542D01*
X142181753Y-86215542D02*
X142181753Y-90815542D01*
X142331753Y-86215542D02*
X142331753Y-90815542D01*
X142481753Y-86215542D02*
X142481753Y-90815542D01*
X142631753Y-86215542D02*
X142631753Y-90815542D01*
X142781753Y-86215542D02*
X142781753Y-90815542D01*
X142931753Y-86190542D02*
X140956753Y-86190542D01*
X142931753Y-86215542D02*
X142931753Y-90815542D01*
X143081753Y-86215542D02*
X143081753Y-90765542D01*
X143231753Y-86165542D02*
X143231753Y-90815542D01*
X143381753Y-86165542D02*
X143381753Y-90815542D01*
X143506753Y-90840542D02*
X140956753Y-90840542D01*
X143506753Y-90840542D02*
X144781753Y-89815542D01*
X143531753Y-86165542D02*
X143531753Y-90765542D01*
X143681753Y-86115542D02*
X143681753Y-90665542D01*
X143831753Y-86015542D02*
X143831753Y-90565542D01*
X143981753Y-85965542D02*
X143981753Y-90415542D01*
X144131753Y-85865542D02*
X144131753Y-90315542D01*
X144281753Y-85765542D02*
X144281753Y-90165542D01*
X144431753Y-85665542D02*
X144431753Y-90065542D01*
X144581753Y-85515542D02*
X144581753Y-89965542D01*
X144731753Y-85365542D02*
X144731753Y-89815542D01*
X144831753Y-85165542D02*
X144831753Y-89315542D01*
X144931753Y-85015542D02*
X144931753Y-89165542D01*
X145031753Y-84815542D02*
X145031753Y-88965542D01*
X145131753Y-84665542D02*
X145131753Y-88865542D01*
X145231753Y-84415542D02*
X145231753Y-88815542D01*
X145331753Y-84265542D02*
X145331753Y-88765542D01*
X145481753Y-84165542D02*
X145481753Y-88715542D01*
X145631753Y-84065542D02*
X145631753Y-88615542D01*
X145781753Y-84015542D02*
X145781753Y-88615542D01*
X145931753Y-84015542D02*
X145931753Y-88615542D01*
X146081753Y-84015542D02*
X146081753Y-88565542D01*
X146231753Y-84015542D02*
X146231753Y-88615542D01*
X146381753Y-84015542D02*
X146381753Y-88615542D01*
X146531753Y-84015542D02*
X146531753Y-88615542D01*
X146681753Y-84015542D02*
X146681753Y-88615542D01*
X146831753Y-84015542D02*
X146831753Y-88615542D01*
X146981753Y-84015542D02*
X146981753Y-88615542D01*
X147131753Y-84015542D02*
X147131753Y-88615542D01*
X147281753Y-84015542D02*
X147281753Y-88615542D01*
X147431753Y-84015542D02*
X147431753Y-88615542D01*
X147581753Y-84015542D02*
X147581753Y-88615542D01*
X147731753Y-84015542D02*
X147731753Y-88615542D01*
X147881753Y-84015542D02*
X147881753Y-88615542D01*
X148031753Y-84015542D02*
X148031753Y-88615542D01*
X148181753Y-84015542D02*
X148181753Y-88615542D01*
X148231753Y-89615542D02*
X149231753Y-89615542D01*
X148331753Y-84015542D02*
X148331753Y-88615542D01*
X148481753Y-84015542D02*
X148481753Y-88615542D01*
X148531753Y-83990542D02*
X145931753Y-83990542D01*
X148531753Y-88640542D02*
X145956753Y-88640542D01*
X148631753Y-84015542D02*
X148631753Y-88565542D01*
X148781753Y-84065542D02*
X148781753Y-88565542D01*
X148931753Y-84115542D02*
X148931753Y-88515542D01*
X149081753Y-84215542D02*
X149081753Y-88415542D01*
X149181753Y-84315542D02*
X149181753Y-88265542D01*
X149231753Y-75615542D02*
X148231753Y-75615542D01*
X149231753Y-76615542D02*
X149231753Y-75615542D01*
X149231753Y-89615542D02*
X149231753Y-88615542D01*
X149281753Y-84415542D02*
X149281753Y-88165542D01*
X149381753Y-84565542D02*
X149381753Y-88115542D01*
X149531753Y-87640542D02*
X149531753Y-84990542D01*
X144781753Y-89815542D02*
G75*
G02*
X145956753Y-88640542I1175002J-2D01*
G01*
X145069554Y-84693638D02*
G75*
G02*
X142931753Y-86190542I-2137800J778095D01*
G01*
X145069554Y-84693638D02*
G75*
G02*
X145930758Y-83991751I900000J-225000D01*
G01*
X148531753Y-83990542D02*
G75*
G02*
X149531753Y-84990542I1J-999999D01*
G01*
X149531753Y-87640542D02*
G75*
G02*
X148531753Y-88640542I-999999J-1D01*
G01*
G04 #@! TO.C,S14*
X155166957Y-94129440D02*
X155254113Y-93133255D01*
X156163160Y-94216595D02*
X155166957Y-94129440D01*
X156299989Y-81178920D02*
X156387144Y-80182717D01*
X156387144Y-80182717D02*
X157383329Y-80269873D01*
X159831633Y-94738314D02*
X160058257Y-92148213D01*
X159831633Y-94738314D02*
X160763403Y-95848749D01*
X160058257Y-92148213D02*
X161168687Y-91216436D01*
X160220750Y-92011857D02*
X159968007Y-94900819D01*
X160378888Y-91925297D02*
X160104351Y-95063322D01*
X160545759Y-91739153D02*
X160240712Y-95225824D01*
X160708256Y-91602793D02*
X160377064Y-95388325D01*
X160870762Y-91466433D02*
X160513434Y-95550829D01*
X161028911Y-91379881D02*
X160649767Y-95713327D01*
X161191411Y-91243535D02*
X160790488Y-95826019D01*
X161340832Y-91256602D02*
X160939923Y-95839095D01*
X161490257Y-91269673D02*
X161089356Y-95852173D01*
X161639697Y-91282750D02*
X161238780Y-95865239D01*
X161789120Y-91295821D02*
X161388210Y-95878310D01*
X161938550Y-91308905D02*
X161537639Y-95891389D01*
X162087988Y-91321963D02*
X161687066Y-95904461D01*
X162237411Y-91335047D02*
X161836495Y-95917541D01*
X162386836Y-91348115D02*
X161985925Y-95930610D01*
X162536269Y-91361184D02*
X162135352Y-95943681D01*
X162685703Y-91374267D02*
X162284781Y-95956764D01*
X162835137Y-91387335D02*
X162434215Y-95969824D01*
X162984560Y-91400401D02*
X162583641Y-95982907D01*
X163133988Y-91413477D02*
X162733073Y-95995981D01*
X163136168Y-91388585D02*
X161168687Y-91216436D01*
X163283403Y-91426552D02*
X162886854Y-95959233D01*
X163303704Y-96071001D02*
X160763403Y-95848749D01*
X163303704Y-96071001D02*
X164663181Y-95161020D01*
X163437194Y-91389814D02*
X163031930Y-96022122D01*
X163586627Y-91402885D02*
X163181356Y-96035199D01*
X163736069Y-91415969D02*
X163335147Y-95998459D01*
X163889840Y-91379235D02*
X163493290Y-95911910D01*
X164048003Y-91292684D02*
X163651434Y-95825372D01*
X164201778Y-91255951D02*
X163813942Y-95689010D01*
X164359933Y-91169400D02*
X163972091Y-95602470D01*
X164518072Y-91082864D02*
X164134587Y-95466114D01*
X164676219Y-90996307D02*
X164292734Y-95379558D01*
X164838713Y-90859947D02*
X164450866Y-95293021D01*
X165001227Y-90723589D02*
X164613371Y-95156657D01*
X165118273Y-90533073D02*
X164756572Y-94667279D01*
X165230966Y-90392357D02*
X164869269Y-94526564D01*
X165348024Y-90201828D02*
X164986320Y-94336054D01*
X165460709Y-90061120D02*
X165094645Y-94245144D01*
X165582112Y-89820789D02*
X165198624Y-94204048D01*
X165694797Y-89680077D02*
X165302604Y-94162953D01*
X165852950Y-89593538D02*
X165456400Y-94126215D01*
X166011098Y-89506978D02*
X165614541Y-94039679D01*
X166164878Y-89470250D02*
X165763967Y-94052743D01*
X166314311Y-89483327D02*
X165913392Y-94065824D01*
X166463753Y-89496393D02*
X166067182Y-94029078D01*
X166613173Y-89509465D02*
X166212251Y-94091964D01*
X166762599Y-89522534D02*
X166361681Y-94105034D01*
X166912032Y-89535603D02*
X166511105Y-94118114D01*
X167061463Y-89548690D02*
X166660540Y-94131191D01*
X167210886Y-89561759D02*
X166809973Y-94144254D01*
X167360320Y-89574842D02*
X166959399Y-94157331D01*
X167509754Y-89587915D02*
X167108819Y-94170402D01*
X167659182Y-89600985D02*
X167258261Y-94183471D01*
X167808595Y-89614056D02*
X167407688Y-94196548D01*
X167958036Y-89627127D02*
X167557123Y-94209630D01*
X168107468Y-89640204D02*
X167706562Y-94222699D01*
X168117495Y-95262471D02*
X169113680Y-95349627D01*
X168256887Y-89653270D02*
X167855988Y-94235764D01*
X168406322Y-89666347D02*
X168005406Y-94248848D01*
X168501327Y-94317323D02*
X165936121Y-94092896D01*
X168555753Y-89679416D02*
X168154828Y-94261915D01*
X168705183Y-89692484D02*
X168304268Y-94274989D01*
X168854608Y-89705556D02*
X168453694Y-94288064D01*
X168906607Y-89685017D02*
X166316484Y-89458416D01*
X169004047Y-89718647D02*
X168607482Y-94251327D01*
X169113680Y-95349627D02*
X169200835Y-94353424D01*
X169149117Y-89781526D02*
X168756905Y-94264407D01*
X169294186Y-89844412D02*
X168910701Y-94227664D01*
X169434893Y-89957092D02*
X169068851Y-94141122D01*
X169525812Y-90065440D02*
X169181535Y-94000405D01*
X169584670Y-93408285D02*
X169815646Y-90768365D01*
X169616705Y-90173764D02*
X169289858Y-93909503D01*
X169703253Y-90331909D02*
X169393844Y-93868401D01*
X170246711Y-82399089D02*
X170333867Y-81402904D01*
X170333867Y-81402904D02*
X169337664Y-81315749D01*
X164663181Y-95161020D02*
G75*
G02*
X165936121Y-94092895I1170551J-102430D01*
G01*
X165396299Y-90083692D02*
G75*
G02*
X163136168Y-91388585I-2061877J961491D01*
G01*
X165396299Y-90083692D02*
G75*
G02*
X166315397Y-89459536I876946J-302558D01*
G01*
X168906607Y-89685017D02*
G75*
G02*
X169815645Y-90768365I-87165J-996201D01*
G01*
X169584670Y-93408285D02*
G75*
G02*
X168501327Y-94317324I-996174J87132D01*
G01*
G04 #@! TO.C,JP4*
X85040753Y-89237380D02*
X86818753Y-89237380D01*
X85040753Y-91523380D02*
X85040753Y-89237380D01*
X86818753Y-89237380D02*
X86818753Y-91523380D01*
X86818753Y-91523380D02*
X85040753Y-91523380D01*
G04 #@! TO.C,S17*
X175771706Y-84527924D02*
X175893574Y-83535376D01*
X176764251Y-84649793D02*
X175771706Y-84527924D01*
X177356006Y-71624824D02*
X177477875Y-70632279D01*
X177477875Y-70632279D02*
X178470423Y-70754147D01*
X180412298Y-85299219D02*
X180729157Y-82718600D01*
X180412298Y-85299219D02*
X181304741Y-86441494D01*
X180729157Y-82718600D02*
X181871433Y-81826156D01*
X180896320Y-82587998D02*
X180542898Y-85466382D01*
X181057390Y-82507023D02*
X180673501Y-85633543D01*
X181230644Y-82326794D02*
X180804101Y-85800707D01*
X181397806Y-82196193D02*
X180934704Y-85967868D01*
X181564969Y-82065591D02*
X181065304Y-86135030D01*
X181726039Y-81984617D02*
X181195907Y-86302191D01*
X181893201Y-81854014D02*
X181332603Y-86419728D01*
X182042082Y-81872295D02*
X181481483Y-86438007D01*
X182190963Y-81890577D02*
X181630368Y-86456289D01*
X182339846Y-81908858D02*
X181779246Y-86474569D01*
X182488731Y-81927139D02*
X181928129Y-86492850D01*
X182637610Y-81945418D02*
X182077014Y-86511131D01*
X182786492Y-81963698D02*
X182225893Y-86529412D01*
X182935375Y-81981977D02*
X182374775Y-86547690D01*
X183084256Y-82000258D02*
X182523657Y-86565970D01*
X183233139Y-82018538D02*
X182672538Y-86584250D01*
X183382019Y-82036819D02*
X182821419Y-86602531D01*
X183530902Y-82055100D02*
X182970303Y-86620812D01*
X183679783Y-82073381D02*
X183119185Y-86639092D01*
X183828666Y-82091661D02*
X183268067Y-86657374D01*
X183831713Y-82066847D02*
X181871433Y-81826156D01*
X183835734Y-86752261D02*
X181304741Y-86441494D01*
X183835734Y-86752261D02*
X185226146Y-85890286D01*
X183977547Y-82109941D02*
X183423041Y-86626025D01*
X184132523Y-82078594D02*
X183565831Y-86693936D01*
X184281405Y-82096874D02*
X183714712Y-86712214D01*
X184430286Y-82115154D02*
X183869688Y-86680868D01*
X184585263Y-82083808D02*
X184030756Y-86599893D01*
X184746331Y-82002834D02*
X184191826Y-86518918D01*
X184901308Y-81971486D02*
X184358987Y-86388318D01*
X185062375Y-81890516D02*
X184520057Y-86307344D01*
X185223447Y-81809539D02*
X184687219Y-86176742D01*
X185384513Y-81728564D02*
X184848291Y-86095769D01*
X185551675Y-81597962D02*
X185009356Y-86014794D01*
X185718838Y-81467361D02*
X185176519Y-85884192D01*
X185842466Y-81281037D02*
X185336708Y-85400107D01*
X185960003Y-81144345D02*
X185454245Y-85263411D01*
X186083626Y-80958021D02*
X185577871Y-85077089D01*
X186201166Y-80821327D02*
X185689312Y-84990020D01*
X186330887Y-80585377D02*
X185794660Y-84952581D01*
X186448421Y-80448682D02*
X185900011Y-84915140D01*
X186609488Y-80367706D02*
X186054984Y-84883793D01*
X186770559Y-80286734D02*
X186216054Y-84802818D01*
X186925535Y-80255387D02*
X186364936Y-84821099D01*
X187074417Y-80273667D02*
X186513817Y-84839379D01*
X187223298Y-80291946D02*
X186668793Y-84808034D01*
X187372181Y-80310227D02*
X186811581Y-84875940D01*
X187521063Y-80328510D02*
X186960463Y-84894221D01*
X187669945Y-80346790D02*
X187109346Y-84912501D01*
X187818826Y-80365070D02*
X187258229Y-84930780D01*
X187967707Y-80383351D02*
X187407109Y-84949062D01*
X188116590Y-80401632D02*
X187555991Y-84967342D01*
X188265471Y-80419910D02*
X187704874Y-84985624D01*
X188414354Y-80438189D02*
X187853754Y-85003903D01*
X188563236Y-80456471D02*
X188002638Y-85022184D01*
X188674803Y-86112225D02*
X189667351Y-86234093D01*
X188712119Y-80474751D02*
X188151518Y-85040464D01*
X188861000Y-80493032D02*
X188300401Y-85058744D01*
X189009882Y-80511312D02*
X188449283Y-85077025D01*
X189091391Y-85181052D02*
X186535585Y-84867241D01*
X189158762Y-80529596D02*
X188598164Y-85095306D01*
X189307645Y-80547874D02*
X188747046Y-85113586D01*
X189456528Y-80566153D02*
X188895931Y-85131866D01*
X189605410Y-80584434D02*
X189044811Y-85150146D01*
X189658083Y-80565714D02*
X187077463Y-80248857D01*
X189667351Y-86234093D02*
X189789220Y-85241548D01*
X189754291Y-80602715D02*
X189199785Y-85118800D01*
X189897080Y-80670622D02*
X189348668Y-85137080D01*
X190039867Y-80738529D02*
X189503642Y-85105734D01*
X190176564Y-80856066D02*
X189664712Y-85024760D01*
X190205806Y-84310377D02*
X190528759Y-81680129D01*
X190263630Y-80967506D02*
X189782247Y-84888064D01*
X190350697Y-81078949D02*
X189893688Y-84800996D01*
X190431675Y-81240018D02*
X189999036Y-84763557D01*
X191251652Y-73330996D02*
X191373520Y-72338448D01*
X191373520Y-72338448D02*
X190380975Y-72216579D01*
X185226146Y-85890286D02*
G75*
G02*
X186535585Y-84867241I1166240J-143194D01*
G01*
X186136006Y-80841633D02*
G75*
G02*
X183831713Y-82066847I-2027047J1032842D01*
G01*
X186136006Y-80841633D02*
G75*
G02*
X187076327Y-80249933I865871J-333007D01*
G01*
X189658083Y-80565714D02*
G75*
G02*
X190528759Y-81680129I-121868J-992544D01*
G01*
X190205806Y-84310377D02*
G75*
G02*
X189091391Y-85181053I-992544J121868D01*
G01*
G04 #@! TO.C,S21*
X192001095Y-104152066D02*
X192122963Y-103159518D01*
X192993640Y-104273935D02*
X192001095Y-104152066D01*
X193585395Y-91248966D02*
X193707264Y-90256421D01*
X193707264Y-90256421D02*
X194699812Y-90378289D01*
X196641687Y-104923361D02*
X196958546Y-102342742D01*
X196641687Y-104923361D02*
X197534130Y-106065636D01*
X196958546Y-102342742D02*
X198100822Y-101450298D01*
X197125709Y-102212140D02*
X196772287Y-105090524D01*
X197286779Y-102131165D02*
X196902890Y-105257685D01*
X197460033Y-101950936D02*
X197033490Y-105424849D01*
X197627195Y-101820335D02*
X197164093Y-105592010D01*
X197794358Y-101689733D02*
X197294693Y-105759172D01*
X197955428Y-101608759D02*
X197425296Y-105926333D01*
X198122590Y-101478156D02*
X197561992Y-106043870D01*
X198271471Y-101496437D02*
X197710872Y-106062149D01*
X198420352Y-101514719D02*
X197859757Y-106080431D01*
X198569235Y-101533000D02*
X198008635Y-106098711D01*
X198718120Y-101551281D02*
X198157518Y-106116992D01*
X198866999Y-101569560D02*
X198306403Y-106135273D01*
X199015881Y-101587840D02*
X198455282Y-106153554D01*
X199164764Y-101606119D02*
X198604164Y-106171832D01*
X199313645Y-101624400D02*
X198753046Y-106190112D01*
X199462528Y-101642680D02*
X198901927Y-106208392D01*
X199611408Y-101660961D02*
X199050808Y-106226673D01*
X199760291Y-101679242D02*
X199199692Y-106244954D01*
X199909172Y-101697523D02*
X199348574Y-106263234D01*
X200058055Y-101715803D02*
X199497456Y-106281516D01*
X200061102Y-101690989D02*
X198100822Y-101450298D01*
X200065123Y-106376403D02*
X197534130Y-106065636D01*
X200065123Y-106376403D02*
X201455535Y-105514428D01*
X200206936Y-101734083D02*
X199652430Y-106250167D01*
X200361912Y-101702736D02*
X199795220Y-106318078D01*
X200510794Y-101721016D02*
X199944101Y-106336356D01*
X200659675Y-101739296D02*
X200099077Y-106305010D01*
X200814652Y-101707950D02*
X200260145Y-106224035D01*
X200975720Y-101626976D02*
X200421215Y-106143060D01*
X201130697Y-101595628D02*
X200588376Y-106012460D01*
X201291764Y-101514658D02*
X200749446Y-105931486D01*
X201452836Y-101433681D02*
X200916608Y-105800884D01*
X201613902Y-101352706D02*
X201077680Y-105719911D01*
X201781064Y-101222104D02*
X201238745Y-105638936D01*
X201948227Y-101091503D02*
X201405908Y-105508334D01*
X202071855Y-100905179D02*
X201566097Y-105024249D01*
X202189392Y-100768487D02*
X201683634Y-104887553D01*
X202313015Y-100582163D02*
X201807260Y-104701231D01*
X202430555Y-100445469D02*
X201918701Y-104614162D01*
X202560276Y-100209519D02*
X202024049Y-104576723D01*
X202677810Y-100072824D02*
X202129400Y-104539282D01*
X202838877Y-99991848D02*
X202284373Y-104507935D01*
X202999948Y-99910876D02*
X202445443Y-104426960D01*
X203154924Y-99879529D02*
X202594325Y-104445241D01*
X203303806Y-99897809D02*
X202743206Y-104463521D01*
X203452687Y-99916088D02*
X202898182Y-104432176D01*
X203601570Y-99934369D02*
X203040970Y-104500082D01*
X203750452Y-99952652D02*
X203189852Y-104518363D01*
X203899334Y-99970932D02*
X203338735Y-104536643D01*
X204048215Y-99989212D02*
X203487618Y-104554922D01*
X204197096Y-100007493D02*
X203636498Y-104573204D01*
X204345979Y-100025774D02*
X203785380Y-104591484D01*
X204494860Y-100044052D02*
X203934263Y-104609766D01*
X204643743Y-100062331D02*
X204083143Y-104628045D01*
X204792625Y-100080613D02*
X204232027Y-104646326D01*
X204904192Y-105736367D02*
X205896740Y-105858235D01*
X204941508Y-100098893D02*
X204380907Y-104664606D01*
X205090389Y-100117174D02*
X204529790Y-104682886D01*
X205239271Y-100135454D02*
X204678672Y-104701167D01*
X205320780Y-104805194D02*
X202764974Y-104491383D01*
X205388151Y-100153738D02*
X204827553Y-104719448D01*
X205537034Y-100172016D02*
X204976435Y-104737728D01*
X205685917Y-100190295D02*
X205125320Y-104756008D01*
X205834799Y-100208576D02*
X205274200Y-104774288D01*
X205887472Y-100189856D02*
X203306852Y-99872999D01*
X205896740Y-105858235D02*
X206018609Y-104865690D01*
X205983680Y-100226857D02*
X205429174Y-104742942D01*
X206126469Y-100294764D02*
X205578057Y-104761222D01*
X206269256Y-100362671D02*
X205733031Y-104729876D01*
X206405953Y-100480208D02*
X205894101Y-104648902D01*
X206435195Y-103934519D02*
X206758148Y-101304271D01*
X206493019Y-100591648D02*
X206011636Y-104512206D01*
X206580086Y-100703091D02*
X206123077Y-104425138D01*
X206661064Y-100864160D02*
X206228425Y-104387699D01*
X207481041Y-92955138D02*
X207602909Y-91962590D01*
X207602909Y-91962590D02*
X206610364Y-91840721D01*
X201455535Y-105514428D02*
G75*
G02*
X202764974Y-104491383I1166240J-143194D01*
G01*
X202365395Y-100465775D02*
G75*
G02*
X200061102Y-101690989I-2027047J1032842D01*
G01*
X202365395Y-100465775D02*
G75*
G02*
X203305716Y-99874075I865871J-333007D01*
G01*
X205887472Y-100189856D02*
G75*
G02*
X206758148Y-101304271I-121868J-992544D01*
G01*
X206435195Y-103934519D02*
G75*
G02*
X205320780Y-104805195I-992544J121868D01*
G01*
G04 #@! TO.C,S5*
X116731753Y-60615542D02*
X117731753Y-60615542D01*
X116731753Y-61615542D02*
X116731753Y-60615542D01*
X116731753Y-74615542D02*
X116731753Y-73615542D01*
X117731753Y-74615542D02*
X116731753Y-74615542D01*
X121431753Y-72215542D02*
X122456753Y-71190542D01*
X121431753Y-74815542D02*
X121431753Y-72215542D01*
X121431753Y-74815542D02*
X122456753Y-75840542D01*
X121581753Y-72065542D02*
X121581753Y-74965542D01*
X121731753Y-71965542D02*
X121731753Y-75115542D01*
X121881753Y-71765542D02*
X121881753Y-75265542D01*
X122031753Y-71615542D02*
X122031753Y-75415542D01*
X122181753Y-71465542D02*
X122181753Y-75565542D01*
X122331753Y-71365542D02*
X122331753Y-75715542D01*
X122481753Y-71215542D02*
X122481753Y-75815542D01*
X122631753Y-71215542D02*
X122631753Y-75815542D01*
X122781753Y-71215542D02*
X122781753Y-75815542D01*
X122931753Y-71215542D02*
X122931753Y-75815542D01*
X123081753Y-71215542D02*
X123081753Y-75815542D01*
X123231753Y-71215542D02*
X123231753Y-75815542D01*
X123381753Y-71215542D02*
X123381753Y-75815542D01*
X123531753Y-71215542D02*
X123531753Y-75815542D01*
X123681753Y-71215542D02*
X123681753Y-75815542D01*
X123831753Y-71215542D02*
X123831753Y-75815542D01*
X123981753Y-71215542D02*
X123981753Y-75815542D01*
X124131753Y-71215542D02*
X124131753Y-75815542D01*
X124281753Y-71215542D02*
X124281753Y-75815542D01*
X124431753Y-71190542D02*
X122456753Y-71190542D01*
X124431753Y-71215542D02*
X124431753Y-75815542D01*
X124581753Y-71215542D02*
X124581753Y-75765542D01*
X124731753Y-71165542D02*
X124731753Y-75815542D01*
X124881753Y-71165542D02*
X124881753Y-75815542D01*
X125006753Y-75840542D02*
X122456753Y-75840542D01*
X125006753Y-75840542D02*
X126281753Y-74815542D01*
X125031753Y-71165542D02*
X125031753Y-75765542D01*
X125181753Y-71115542D02*
X125181753Y-75665542D01*
X125331753Y-71015542D02*
X125331753Y-75565542D01*
X125481753Y-70965542D02*
X125481753Y-75415542D01*
X125631753Y-70865542D02*
X125631753Y-75315542D01*
X125781753Y-70765542D02*
X125781753Y-75165542D01*
X125931753Y-70665542D02*
X125931753Y-75065542D01*
X126081753Y-70515542D02*
X126081753Y-74965542D01*
X126231753Y-70365542D02*
X126231753Y-74815542D01*
X126331753Y-70165542D02*
X126331753Y-74315542D01*
X126431753Y-70015542D02*
X126431753Y-74165542D01*
X126531753Y-69815542D02*
X126531753Y-73965542D01*
X126631753Y-69665542D02*
X126631753Y-73865542D01*
X126731753Y-69415542D02*
X126731753Y-73815542D01*
X126831753Y-69265542D02*
X126831753Y-73765542D01*
X126981753Y-69165542D02*
X126981753Y-73715542D01*
X127131753Y-69065542D02*
X127131753Y-73615542D01*
X127281753Y-69015542D02*
X127281753Y-73615542D01*
X127431753Y-69015542D02*
X127431753Y-73615542D01*
X127581753Y-69015542D02*
X127581753Y-73565542D01*
X127731753Y-69015542D02*
X127731753Y-73615542D01*
X127881753Y-69015542D02*
X127881753Y-73615542D01*
X128031753Y-69015542D02*
X128031753Y-73615542D01*
X128181753Y-69015542D02*
X128181753Y-73615542D01*
X128331753Y-69015542D02*
X128331753Y-73615542D01*
X128481753Y-69015542D02*
X128481753Y-73615542D01*
X128631753Y-69015542D02*
X128631753Y-73615542D01*
X128781753Y-69015542D02*
X128781753Y-73615542D01*
X128931753Y-69015542D02*
X128931753Y-73615542D01*
X129081753Y-69015542D02*
X129081753Y-73615542D01*
X129231753Y-69015542D02*
X129231753Y-73615542D01*
X129381753Y-69015542D02*
X129381753Y-73615542D01*
X129531753Y-69015542D02*
X129531753Y-73615542D01*
X129681753Y-69015542D02*
X129681753Y-73615542D01*
X129731753Y-74615542D02*
X130731753Y-74615542D01*
X129831753Y-69015542D02*
X129831753Y-73615542D01*
X129981753Y-69015542D02*
X129981753Y-73615542D01*
X130031753Y-68990542D02*
X127431753Y-68990542D01*
X130031753Y-73640542D02*
X127456753Y-73640542D01*
X130131753Y-69015542D02*
X130131753Y-73565542D01*
X130281753Y-69065542D02*
X130281753Y-73565542D01*
X130431753Y-69115542D02*
X130431753Y-73515542D01*
X130581753Y-69215542D02*
X130581753Y-73415542D01*
X130681753Y-69315542D02*
X130681753Y-73265542D01*
X130731753Y-60615542D02*
X129731753Y-60615542D01*
X130731753Y-61615542D02*
X130731753Y-60615542D01*
X130731753Y-74615542D02*
X130731753Y-73615542D01*
X130781753Y-69415542D02*
X130781753Y-73165542D01*
X130881753Y-69565542D02*
X130881753Y-73115542D01*
X131031753Y-72640542D02*
X131031753Y-69990542D01*
X126281753Y-74815542D02*
G75*
G02*
X127456753Y-73640542I1175002J-2D01*
G01*
X126569554Y-69693638D02*
G75*
G02*
X124431753Y-71190542I-2137800J778095D01*
G01*
X126569554Y-69693638D02*
G75*
G02*
X127430758Y-68991751I900000J-225000D01*
G01*
X130031753Y-68990542D02*
G75*
G02*
X131031753Y-69990542I1J-999999D01*
G01*
X131031753Y-72640542D02*
G75*
G02*
X130031753Y-73640542I-999999J-1D01*
G01*
G04 #@! TO.C,S3*
X98231753Y-97615542D02*
X99231753Y-97615542D01*
X98231753Y-98615542D02*
X98231753Y-97615542D01*
X98231753Y-111615542D02*
X98231753Y-110615542D01*
X99231753Y-111615542D02*
X98231753Y-111615542D01*
X102931753Y-109215542D02*
X103956753Y-108190542D01*
X102931753Y-111815542D02*
X102931753Y-109215542D01*
X102931753Y-111815542D02*
X103956753Y-112840542D01*
X103081753Y-109065542D02*
X103081753Y-111965542D01*
X103231753Y-108965542D02*
X103231753Y-112115542D01*
X103381753Y-108765542D02*
X103381753Y-112265542D01*
X103531753Y-108615542D02*
X103531753Y-112415542D01*
X103681753Y-108465542D02*
X103681753Y-112565542D01*
X103831753Y-108365542D02*
X103831753Y-112715542D01*
X103981753Y-108215542D02*
X103981753Y-112815542D01*
X104131753Y-108215542D02*
X104131753Y-112815542D01*
X104281753Y-108215542D02*
X104281753Y-112815542D01*
X104431753Y-108215542D02*
X104431753Y-112815542D01*
X104581753Y-108215542D02*
X104581753Y-112815542D01*
X104731753Y-108215542D02*
X104731753Y-112815542D01*
X104881753Y-108215542D02*
X104881753Y-112815542D01*
X105031753Y-108215542D02*
X105031753Y-112815542D01*
X105181753Y-108215542D02*
X105181753Y-112815542D01*
X105331753Y-108215542D02*
X105331753Y-112815542D01*
X105481753Y-108215542D02*
X105481753Y-112815542D01*
X105631753Y-108215542D02*
X105631753Y-112815542D01*
X105781753Y-108215542D02*
X105781753Y-112815542D01*
X105931753Y-108190542D02*
X103956753Y-108190542D01*
X105931753Y-108215542D02*
X105931753Y-112815542D01*
X106081753Y-108215542D02*
X106081753Y-112765542D01*
X106231753Y-108165542D02*
X106231753Y-112815542D01*
X106381753Y-108165542D02*
X106381753Y-112815542D01*
X106506753Y-112840542D02*
X103956753Y-112840542D01*
X106506753Y-112840542D02*
X107781753Y-111815542D01*
X106531753Y-108165542D02*
X106531753Y-112765542D01*
X106681753Y-108115542D02*
X106681753Y-112665542D01*
X106831753Y-108015542D02*
X106831753Y-112565542D01*
X106981753Y-107965542D02*
X106981753Y-112415542D01*
X107131753Y-107865542D02*
X107131753Y-112315542D01*
X107281753Y-107765542D02*
X107281753Y-112165542D01*
X107431753Y-107665542D02*
X107431753Y-112065542D01*
X107581753Y-107515542D02*
X107581753Y-111965542D01*
X107731753Y-107365542D02*
X107731753Y-111815542D01*
X107831753Y-107165542D02*
X107831753Y-111315542D01*
X107931753Y-107015542D02*
X107931753Y-111165542D01*
X108031753Y-106815542D02*
X108031753Y-110965542D01*
X108131753Y-106665542D02*
X108131753Y-110865542D01*
X108231753Y-106415542D02*
X108231753Y-110815542D01*
X108331753Y-106265542D02*
X108331753Y-110765542D01*
X108481753Y-106165542D02*
X108481753Y-110715542D01*
X108631753Y-106065542D02*
X108631753Y-110615542D01*
X108781753Y-106015542D02*
X108781753Y-110615542D01*
X108931753Y-106015542D02*
X108931753Y-110615542D01*
X109081753Y-106015542D02*
X109081753Y-110565542D01*
X109231753Y-106015542D02*
X109231753Y-110615542D01*
X109381753Y-106015542D02*
X109381753Y-110615542D01*
X109531753Y-106015542D02*
X109531753Y-110615542D01*
X109681753Y-106015542D02*
X109681753Y-110615542D01*
X109831753Y-106015542D02*
X109831753Y-110615542D01*
X109981753Y-106015542D02*
X109981753Y-110615542D01*
X110131753Y-106015542D02*
X110131753Y-110615542D01*
X110281753Y-106015542D02*
X110281753Y-110615542D01*
X110431753Y-106015542D02*
X110431753Y-110615542D01*
X110581753Y-106015542D02*
X110581753Y-110615542D01*
X110731753Y-106015542D02*
X110731753Y-110615542D01*
X110881753Y-106015542D02*
X110881753Y-110615542D01*
X111031753Y-106015542D02*
X111031753Y-110615542D01*
X111181753Y-106015542D02*
X111181753Y-110615542D01*
X111231753Y-111615542D02*
X112231753Y-111615542D01*
X111331753Y-106015542D02*
X111331753Y-110615542D01*
X111481753Y-106015542D02*
X111481753Y-110615542D01*
X111531753Y-105990542D02*
X108931753Y-105990542D01*
X111531753Y-110640542D02*
X108956753Y-110640542D01*
X111631753Y-106015542D02*
X111631753Y-110565542D01*
X111781753Y-106065542D02*
X111781753Y-110565542D01*
X111931753Y-106115542D02*
X111931753Y-110515542D01*
X112081753Y-106215542D02*
X112081753Y-110415542D01*
X112181753Y-106315542D02*
X112181753Y-110265542D01*
X112231753Y-97615542D02*
X111231753Y-97615542D01*
X112231753Y-98615542D02*
X112231753Y-97615542D01*
X112231753Y-111615542D02*
X112231753Y-110615542D01*
X112281753Y-106415542D02*
X112281753Y-110165542D01*
X112381753Y-106565542D02*
X112381753Y-110115542D01*
X112531753Y-109640542D02*
X112531753Y-106990542D01*
X107781753Y-111815542D02*
G75*
G02*
X108956753Y-110640542I1175002J-2D01*
G01*
X108069554Y-106693638D02*
G75*
G02*
X105931753Y-108190542I-2137800J778095D01*
G01*
X108069554Y-106693638D02*
G75*
G02*
X108930758Y-105991751I900000J-225000D01*
G01*
X111531753Y-105990542D02*
G75*
G02*
X112531753Y-106990542I1J-999999D01*
G01*
X112531753Y-109640542D02*
G75*
G02*
X111531753Y-110640542I-999999J-1D01*
G01*
G04 #@! TO.C,S2*
X98231753Y-80115542D02*
X99231753Y-80115542D01*
X98231753Y-81115542D02*
X98231753Y-80115542D01*
X98231753Y-94115542D02*
X98231753Y-93115542D01*
X99231753Y-94115542D02*
X98231753Y-94115542D01*
X102931753Y-91715542D02*
X103956753Y-90690542D01*
X102931753Y-94315542D02*
X102931753Y-91715542D01*
X102931753Y-94315542D02*
X103956753Y-95340542D01*
X103081753Y-91565542D02*
X103081753Y-94465542D01*
X103231753Y-91465542D02*
X103231753Y-94615542D01*
X103381753Y-91265542D02*
X103381753Y-94765542D01*
X103531753Y-91115542D02*
X103531753Y-94915542D01*
X103681753Y-90965542D02*
X103681753Y-95065542D01*
X103831753Y-90865542D02*
X103831753Y-95215542D01*
X103981753Y-90715542D02*
X103981753Y-95315542D01*
X104131753Y-90715542D02*
X104131753Y-95315542D01*
X104281753Y-90715542D02*
X104281753Y-95315542D01*
X104431753Y-90715542D02*
X104431753Y-95315542D01*
X104581753Y-90715542D02*
X104581753Y-95315542D01*
X104731753Y-90715542D02*
X104731753Y-95315542D01*
X104881753Y-90715542D02*
X104881753Y-95315542D01*
X105031753Y-90715542D02*
X105031753Y-95315542D01*
X105181753Y-90715542D02*
X105181753Y-95315542D01*
X105331753Y-90715542D02*
X105331753Y-95315542D01*
X105481753Y-90715542D02*
X105481753Y-95315542D01*
X105631753Y-90715542D02*
X105631753Y-95315542D01*
X105781753Y-90715542D02*
X105781753Y-95315542D01*
X105931753Y-90690542D02*
X103956753Y-90690542D01*
X105931753Y-90715542D02*
X105931753Y-95315542D01*
X106081753Y-90715542D02*
X106081753Y-95265542D01*
X106231753Y-90665542D02*
X106231753Y-95315542D01*
X106381753Y-90665542D02*
X106381753Y-95315542D01*
X106506753Y-95340542D02*
X103956753Y-95340542D01*
X106506753Y-95340542D02*
X107781753Y-94315542D01*
X106531753Y-90665542D02*
X106531753Y-95265542D01*
X106681753Y-90615542D02*
X106681753Y-95165542D01*
X106831753Y-90515542D02*
X106831753Y-95065542D01*
X106981753Y-90465542D02*
X106981753Y-94915542D01*
X107131753Y-90365542D02*
X107131753Y-94815542D01*
X107281753Y-90265542D02*
X107281753Y-94665542D01*
X107431753Y-90165542D02*
X107431753Y-94565542D01*
X107581753Y-90015542D02*
X107581753Y-94465542D01*
X107731753Y-89865542D02*
X107731753Y-94315542D01*
X107831753Y-89665542D02*
X107831753Y-93815542D01*
X107931753Y-89515542D02*
X107931753Y-93665542D01*
X108031753Y-89315542D02*
X108031753Y-93465542D01*
X108131753Y-89165542D02*
X108131753Y-93365542D01*
X108231753Y-88915542D02*
X108231753Y-93315542D01*
X108331753Y-88765542D02*
X108331753Y-93265542D01*
X108481753Y-88665542D02*
X108481753Y-93215542D01*
X108631753Y-88565542D02*
X108631753Y-93115542D01*
X108781753Y-88515542D02*
X108781753Y-93115542D01*
X108931753Y-88515542D02*
X108931753Y-93115542D01*
X109081753Y-88515542D02*
X109081753Y-93065542D01*
X109231753Y-88515542D02*
X109231753Y-93115542D01*
X109381753Y-88515542D02*
X109381753Y-93115542D01*
X109531753Y-88515542D02*
X109531753Y-93115542D01*
X109681753Y-88515542D02*
X109681753Y-93115542D01*
X109831753Y-88515542D02*
X109831753Y-93115542D01*
X109981753Y-88515542D02*
X109981753Y-93115542D01*
X110131753Y-88515542D02*
X110131753Y-93115542D01*
X110281753Y-88515542D02*
X110281753Y-93115542D01*
X110431753Y-88515542D02*
X110431753Y-93115542D01*
X110581753Y-88515542D02*
X110581753Y-93115542D01*
X110731753Y-88515542D02*
X110731753Y-93115542D01*
X110881753Y-88515542D02*
X110881753Y-93115542D01*
X111031753Y-88515542D02*
X111031753Y-93115542D01*
X111181753Y-88515542D02*
X111181753Y-93115542D01*
X111231753Y-94115542D02*
X112231753Y-94115542D01*
X111331753Y-88515542D02*
X111331753Y-93115542D01*
X111481753Y-88515542D02*
X111481753Y-93115542D01*
X111531753Y-88490542D02*
X108931753Y-88490542D01*
X111531753Y-93140542D02*
X108956753Y-93140542D01*
X111631753Y-88515542D02*
X111631753Y-93065542D01*
X111781753Y-88565542D02*
X111781753Y-93065542D01*
X111931753Y-88615542D02*
X111931753Y-93015542D01*
X112081753Y-88715542D02*
X112081753Y-92915542D01*
X112181753Y-88815542D02*
X112181753Y-92765542D01*
X112231753Y-80115542D02*
X111231753Y-80115542D01*
X112231753Y-81115542D02*
X112231753Y-80115542D01*
X112231753Y-94115542D02*
X112231753Y-93115542D01*
X112281753Y-88915542D02*
X112281753Y-92665542D01*
X112381753Y-89065542D02*
X112381753Y-92615542D01*
X112531753Y-92140542D02*
X112531753Y-89490542D01*
X107781753Y-94315542D02*
G75*
G02*
X108956753Y-93140542I1175002J-2D01*
G01*
X108069554Y-89193638D02*
G75*
G02*
X105931753Y-90690542I-2137800J778095D01*
G01*
X108069554Y-89193638D02*
G75*
G02*
X108930758Y-88491751I900000J-225000D01*
G01*
X111531753Y-88490542D02*
G75*
G02*
X112531753Y-89490542I1J-999999D01*
G01*
X112531753Y-92140542D02*
G75*
G02*
X111531753Y-93140542I-999999J-1D01*
G01*
D13*
G04 #@! TO.C,D20*
X205402408Y-75421118D02*
X204806881Y-75347996D01*
X204880002Y-74752468D01*
X205402408Y-75421118D01*
G36*
X205402408Y-75421118D02*
G01*
X204806881Y-75347996D01*
X204880002Y-74752468D01*
X205402408Y-75421118D01*
G37*
G04 #@! TO.C,JP5*
D10*
X87461000Y-89237380D02*
X89239000Y-89237380D01*
X87461000Y-91523380D02*
X87461000Y-89237380D01*
X89239000Y-89237380D02*
X89239000Y-91523380D01*
X89239000Y-91523380D02*
X87461000Y-91523380D01*
G04 #@! TO.C,S22*
X189868382Y-121521624D02*
X189990250Y-120529076D01*
X190860927Y-121643493D02*
X189868382Y-121521624D01*
X191452682Y-108618524D02*
X191574551Y-107625979D01*
X191574551Y-107625979D02*
X192567099Y-107747847D01*
X194508974Y-122292919D02*
X194825833Y-119712300D01*
X194508974Y-122292919D02*
X195401417Y-123435194D01*
X194825833Y-119712300D02*
X195968109Y-118819856D01*
X194992996Y-119581698D02*
X194639574Y-122460082D01*
X195154066Y-119500723D02*
X194770177Y-122627243D01*
X195327320Y-119320494D02*
X194900777Y-122794407D01*
X195494482Y-119189893D02*
X195031380Y-122961568D01*
X195661645Y-119059291D02*
X195161980Y-123128730D01*
X195822715Y-118978317D02*
X195292583Y-123295891D01*
X195989877Y-118847714D02*
X195429279Y-123413428D01*
X196138758Y-118865995D02*
X195578159Y-123431707D01*
X196287639Y-118884277D02*
X195727044Y-123449989D01*
X196436522Y-118902558D02*
X195875922Y-123468269D01*
X196585407Y-118920839D02*
X196024805Y-123486550D01*
X196734286Y-118939118D02*
X196173690Y-123504831D01*
X196883168Y-118957398D02*
X196322569Y-123523112D01*
X197032051Y-118975677D02*
X196471451Y-123541390D01*
X197180932Y-118993958D02*
X196620333Y-123559670D01*
X197329815Y-119012238D02*
X196769214Y-123577950D01*
X197478695Y-119030519D02*
X196918095Y-123596231D01*
X197627578Y-119048800D02*
X197066979Y-123614512D01*
X197776459Y-119067081D02*
X197215861Y-123632792D01*
X197925342Y-119085361D02*
X197364743Y-123651074D01*
X197928389Y-119060547D02*
X195968109Y-118819856D01*
X197932410Y-123745961D02*
X195401417Y-123435194D01*
X197932410Y-123745961D02*
X199322822Y-122883986D01*
X198074223Y-119103641D02*
X197519717Y-123619725D01*
X198229199Y-119072294D02*
X197662507Y-123687636D01*
X198378081Y-119090574D02*
X197811388Y-123705914D01*
X198526962Y-119108854D02*
X197966364Y-123674568D01*
X198681939Y-119077508D02*
X198127432Y-123593593D01*
X198843007Y-118996534D02*
X198288502Y-123512618D01*
X198997984Y-118965186D02*
X198455663Y-123382018D01*
X199159051Y-118884216D02*
X198616733Y-123301044D01*
X199320123Y-118803239D02*
X198783895Y-123170442D01*
X199481189Y-118722264D02*
X198944967Y-123089469D01*
X199648351Y-118591662D02*
X199106032Y-123008494D01*
X199815514Y-118461061D02*
X199273195Y-122877892D01*
X199939142Y-118274737D02*
X199433384Y-122393807D01*
X200056679Y-118138045D02*
X199550921Y-122257111D01*
X200180302Y-117951721D02*
X199674547Y-122070789D01*
X200297842Y-117815027D02*
X199785988Y-121983720D01*
X200427563Y-117579077D02*
X199891336Y-121946281D01*
X200545097Y-117442382D02*
X199996687Y-121908840D01*
X200706164Y-117361406D02*
X200151660Y-121877493D01*
X200867235Y-117280434D02*
X200312730Y-121796518D01*
X201022211Y-117249087D02*
X200461612Y-121814799D01*
X201171093Y-117267367D02*
X200610493Y-121833079D01*
X201319974Y-117285646D02*
X200765469Y-121801734D01*
X201468857Y-117303927D02*
X200908257Y-121869640D01*
X201617739Y-117322210D02*
X201057139Y-121887921D01*
X201766621Y-117340490D02*
X201206022Y-121906201D01*
X201915502Y-117358770D02*
X201354905Y-121924480D01*
X202064383Y-117377051D02*
X201503785Y-121942762D01*
X202213266Y-117395332D02*
X201652667Y-121961042D01*
X202362147Y-117413610D02*
X201801550Y-121979324D01*
X202511030Y-117431889D02*
X201950430Y-121997603D01*
X202659912Y-117450171D02*
X202099314Y-122015884D01*
X202771479Y-123105925D02*
X203764027Y-123227793D01*
X202808795Y-117468451D02*
X202248194Y-122034164D01*
X202957676Y-117486732D02*
X202397077Y-122052444D01*
X203106558Y-117505012D02*
X202545959Y-122070725D01*
X203188067Y-122174752D02*
X200632261Y-121860941D01*
X203255438Y-117523296D02*
X202694840Y-122089006D01*
X203404321Y-117541574D02*
X202843722Y-122107286D01*
X203553204Y-117559853D02*
X202992607Y-122125566D01*
X203702086Y-117578134D02*
X203141487Y-122143846D01*
X203754759Y-117559414D02*
X201174139Y-117242557D01*
X203764027Y-123227793D02*
X203885896Y-122235248D01*
X203850967Y-117596415D02*
X203296461Y-122112500D01*
X203993756Y-117664322D02*
X203445344Y-122130780D01*
X204136543Y-117732229D02*
X203600318Y-122099434D01*
X204273240Y-117849766D02*
X203761388Y-122018460D01*
X204302482Y-121304077D02*
X204625435Y-118673829D01*
X204360306Y-117961206D02*
X203878923Y-121881764D01*
X204447373Y-118072649D02*
X203990364Y-121794696D01*
X204528351Y-118233718D02*
X204095712Y-121757257D01*
X205348328Y-110324696D02*
X205470196Y-109332148D01*
X205470196Y-109332148D02*
X204477651Y-109210279D01*
X199322822Y-122883986D02*
G75*
G02*
X200632261Y-121860941I1166240J-143194D01*
G01*
X200232682Y-117835333D02*
G75*
G02*
X197928389Y-119060547I-2027047J1032842D01*
G01*
X200232682Y-117835333D02*
G75*
G02*
X201173003Y-117243633I865871J-333007D01*
G01*
X203754759Y-117559414D02*
G75*
G02*
X204625435Y-118673829I-121868J-992544D01*
G01*
X204302482Y-121304077D02*
G75*
G02*
X203188067Y-122174753I-992544J121868D01*
G01*
D13*
G04 #@! TO.C,D13*
X167557412Y-64948311D02*
X166959690Y-64896009D01*
X167011999Y-64298282D01*
X167557412Y-64948311D01*
G36*
X167557412Y-64948311D02*
G01*
X166959690Y-64896009D01*
X167011999Y-64298282D01*
X167557412Y-64948311D01*
G37*
G04 #@! TO.C,J2*
D15*
X74249999Y-106000997D02*
X74250002Y-107662000D01*
X74250002Y-107662000D02*
X76619003Y-107662006D01*
X74250004Y-101167001D02*
X74250006Y-103549998D01*
X74250004Y-101167001D02*
X85250004Y-101166997D01*
X85249998Y-106000998D02*
X85250002Y-107661999D01*
X85250002Y-107661999D02*
X82881003Y-107661995D01*
X85250004Y-101166997D02*
X85250006Y-103549996D01*
X83305993Y-108170003D02*
G75*
G02*
X83052005Y-108170003I-126994J0D01*
G01*
X83052005Y-108170003D02*
G75*
G02*
X83305993Y-108170003I126994J0D01*
G01*
D13*
G04 #@! TO.C,D6*
X126531753Y-79465542D02*
X125931753Y-79465542D01*
X125931753Y-78865542D01*
X126531753Y-79465542D01*
G36*
X126531753Y-79465542D02*
G01*
X125931753Y-79465542D01*
X125931753Y-78865542D01*
X126531753Y-79465542D01*
G37*
G04 #@! TO.C,D3*
X108031753Y-99015542D02*
X107431753Y-99015542D01*
X107431753Y-98415542D01*
X108031753Y-99015542D01*
G36*
X108031753Y-99015542D02*
G01*
X107431753Y-99015542D01*
X107431753Y-98415542D01*
X108031753Y-99015542D01*
G37*
G04 #@! TO.C,S15*
D10*
X153641728Y-111562847D02*
X153728884Y-110566662D01*
X154637931Y-111650002D02*
X153641728Y-111562847D01*
X154774760Y-98612327D02*
X154861915Y-97616124D01*
X154861915Y-97616124D02*
X155858100Y-97703280D01*
X158306404Y-112171721D02*
X158533028Y-109581620D01*
X158306404Y-112171721D02*
X159238174Y-113282156D01*
X158533028Y-109581620D02*
X159643458Y-108649843D01*
X158695521Y-109445264D02*
X158442778Y-112334226D01*
X158853659Y-109358704D02*
X158579122Y-112496729D01*
X159020530Y-109172560D02*
X158715483Y-112659231D01*
X159183027Y-109036200D02*
X158851835Y-112821732D01*
X159345533Y-108899840D02*
X158988205Y-112984236D01*
X159503682Y-108813288D02*
X159124538Y-113146734D01*
X159666182Y-108676942D02*
X159265259Y-113259426D01*
X159815603Y-108690009D02*
X159414694Y-113272502D01*
X159965028Y-108703080D02*
X159564127Y-113285580D01*
X160114468Y-108716157D02*
X159713551Y-113298646D01*
X160263891Y-108729228D02*
X159862981Y-113311717D01*
X160413321Y-108742312D02*
X160012410Y-113324796D01*
X160562759Y-108755370D02*
X160161837Y-113337868D01*
X160712182Y-108768454D02*
X160311266Y-113350948D01*
X160861607Y-108781522D02*
X160460696Y-113364017D01*
X161011040Y-108794591D02*
X160610123Y-113377088D01*
X161160474Y-108807674D02*
X160759552Y-113390171D01*
X161309908Y-108820742D02*
X160908986Y-113403231D01*
X161459331Y-108833808D02*
X161058412Y-113416314D01*
X161608759Y-108846884D02*
X161207844Y-113429388D01*
X161610939Y-108821992D02*
X159643458Y-108649843D01*
X161758174Y-108859959D02*
X161361625Y-113392640D01*
X161778475Y-113504408D02*
X159238174Y-113282156D01*
X161778475Y-113504408D02*
X163137952Y-112594427D01*
X161911965Y-108823221D02*
X161506701Y-113455529D01*
X162061398Y-108836292D02*
X161656127Y-113468606D01*
X162210840Y-108849376D02*
X161809918Y-113431866D01*
X162364611Y-108812642D02*
X161968061Y-113345317D01*
X162522774Y-108726091D02*
X162126205Y-113258779D01*
X162676549Y-108689358D02*
X162288713Y-113122417D01*
X162834704Y-108602807D02*
X162446862Y-113035877D01*
X162992843Y-108516271D02*
X162609358Y-112899521D01*
X163150990Y-108429714D02*
X162767505Y-112812965D01*
X163313484Y-108293354D02*
X162925637Y-112726428D01*
X163475998Y-108156996D02*
X163088142Y-112590064D01*
X163593044Y-107966480D02*
X163231343Y-112100686D01*
X163705737Y-107825764D02*
X163344040Y-111959971D01*
X163822795Y-107635235D02*
X163461091Y-111769461D01*
X163935480Y-107494527D02*
X163569416Y-111678551D01*
X164056883Y-107254196D02*
X163673395Y-111637455D01*
X164169568Y-107113484D02*
X163777375Y-111596360D01*
X164327721Y-107026945D02*
X163931171Y-111559622D01*
X164485869Y-106940385D02*
X164089312Y-111473086D01*
X164639649Y-106903657D02*
X164238738Y-111486150D01*
X164789082Y-106916734D02*
X164388163Y-111499231D01*
X164938524Y-106929800D02*
X164541953Y-111462485D01*
X165087944Y-106942872D02*
X164687022Y-111525371D01*
X165237370Y-106955941D02*
X164836452Y-111538441D01*
X165386803Y-106969010D02*
X164985876Y-111551521D01*
X165536234Y-106982097D02*
X165135311Y-111564598D01*
X165685657Y-106995166D02*
X165284744Y-111577661D01*
X165835091Y-107008249D02*
X165434170Y-111590738D01*
X165984525Y-107021322D02*
X165583590Y-111603809D01*
X166133953Y-107034392D02*
X165733032Y-111616878D01*
X166283366Y-107047463D02*
X165882459Y-111629955D01*
X166432807Y-107060534D02*
X166031894Y-111643037D01*
X166582239Y-107073611D02*
X166181333Y-111656106D01*
X166592266Y-112695878D02*
X167588451Y-112783034D01*
X166731658Y-107086677D02*
X166330759Y-111669171D01*
X166881093Y-107099754D02*
X166480177Y-111682255D01*
X166976098Y-111750730D02*
X164410892Y-111526303D01*
X167030524Y-107112823D02*
X166629599Y-111695322D01*
X167179954Y-107125891D02*
X166779039Y-111708396D01*
X167329379Y-107138963D02*
X166928465Y-111721471D01*
X167381378Y-107118424D02*
X164791255Y-106891823D01*
X167478818Y-107152054D02*
X167082253Y-111684734D01*
X167588451Y-112783034D02*
X167675606Y-111786831D01*
X167623888Y-107214933D02*
X167231676Y-111697814D01*
X167768957Y-107277819D02*
X167385472Y-111661071D01*
X167909664Y-107390499D02*
X167543622Y-111574529D01*
X168000583Y-107498847D02*
X167656306Y-111433812D01*
X168059441Y-110841692D02*
X168290417Y-108201772D01*
X168091476Y-107607171D02*
X167764629Y-111342910D01*
X168178024Y-107765316D02*
X167868615Y-111301808D01*
X168721482Y-99832496D02*
X168808638Y-98836311D01*
X168808638Y-98836311D02*
X167812435Y-98749156D01*
X163137952Y-112594427D02*
G75*
G02*
X164410892Y-111526302I1170551J-102430D01*
G01*
X163871070Y-107517099D02*
G75*
G02*
X161610939Y-108821992I-2061877J961491D01*
G01*
X163871070Y-107517099D02*
G75*
G02*
X164790168Y-106892943I876946J-302558D01*
G01*
X167381378Y-107118424D02*
G75*
G02*
X168290416Y-108201772I-87165J-996201D01*
G01*
X168059441Y-110841692D02*
G75*
G02*
X166976098Y-111750731I-996174J87132D01*
G01*
G04 #@! TO.C,RSW1*
X66800000Y-69250000D02*
X66800000Y-75250000D01*
X66800000Y-69250000D02*
X67500000Y-69250000D01*
X66800000Y-75250000D02*
X67500000Y-75250000D01*
X70300000Y-69250000D02*
X69700000Y-69250000D01*
X70300000Y-75250000D02*
X69700000Y-75250000D01*
X70300000Y-75250000D02*
X70300000Y-69250000D01*
D13*
G04 #@! TO.C,D17*
X187040304Y-73166535D02*
X186444777Y-73093413D01*
X186517898Y-72497885D01*
X187040304Y-73166535D01*
G36*
X187040304Y-73166535D02*
G01*
X186444777Y-73093413D01*
X186517898Y-72497885D01*
X187040304Y-73166535D01*
G37*
G04 #@! TO.C,TP2*
D14*
X68700000Y-82500000D02*
G75*
G02*
X67300000Y-82500000I-700000J0D01*
G01*
X67300000Y-82500000D02*
G75*
G02*
X68700000Y-82500000I700000J0D01*
G01*
G04 #@! TO.C,J1*
X96130000Y-59330000D02*
X96130000Y-58000000D01*
X97460000Y-59330000D02*
X96130000Y-59330000D01*
X98730000Y-56670000D02*
X101330000Y-56670000D01*
X98730000Y-59330000D02*
X98730000Y-56670000D01*
X98730000Y-59330000D02*
X101330000Y-59330000D01*
X101330000Y-59330000D02*
X101330000Y-56670000D01*
G04 #@! TO.C,D26*
D13*
X87456470Y-120002564D02*
X87352925Y-119780521D01*
X88109412Y-121402810D02*
X88003758Y-121176232D01*
D10*
X88604377Y-119743130D02*
X89317210Y-119852084D01*
X88773425Y-120105655D02*
X88320269Y-120316961D01*
X88942470Y-120468177D02*
X88604377Y-119743130D01*
X89317210Y-119852084D02*
X88942470Y-120468177D01*
X89317210Y-119852084D02*
X89084766Y-119353616D01*
X89317210Y-119852084D02*
X89549648Y-120350552D01*
X89679731Y-119683039D02*
X89317210Y-119852084D01*
D13*
X89888474Y-118592658D02*
X87350809Y-119775990D01*
X89994130Y-118819233D02*
X89890588Y-118597190D01*
X90647075Y-120219479D02*
X90541419Y-119992904D01*
X90649191Y-120224010D02*
X88111526Y-121407342D01*
G04 #@! TO.C,SW1*
D14*
X65770000Y-61670000D02*
X65770000Y-62570000D01*
X65980000Y-61470000D02*
X65770000Y-61670000D01*
X65980000Y-62770000D02*
X65770000Y-62570000D01*
X65980000Y-62770000D02*
X67270000Y-62770000D01*
X67270000Y-60020000D02*
X67270000Y-65720000D01*
X67270000Y-61470000D02*
X65980000Y-61470000D01*
X68280000Y-66320000D02*
X69070000Y-66320000D01*
X69070000Y-59420000D02*
X68280000Y-59420000D01*
X70120000Y-61270000D02*
X70120000Y-62970000D01*
X70120000Y-64270000D02*
X70120000Y-64470000D01*
G04 #@! TO.C,R2*
X87982830Y-103120000D02*
X88290112Y-103120000D01*
X87982830Y-103880000D02*
X88290112Y-103880000D01*
D13*
G04 #@! TO.C,D21*
X203269693Y-92790676D02*
X202674166Y-92717554D01*
X202747287Y-92122026D01*
X203269693Y-92790676D01*
G36*
X203269693Y-92790676D02*
G01*
X202674166Y-92717554D01*
X202747287Y-92122026D01*
X203269693Y-92790676D01*
G37*
G04 #@! TO.C,S13*
D10*
X156692186Y-76696033D02*
X156779342Y-75699848D01*
X157688389Y-76783188D02*
X156692186Y-76696033D01*
X157825218Y-63745513D02*
X157912373Y-62749310D01*
X157912373Y-62749310D02*
X158908558Y-62836466D01*
X161356862Y-77304907D02*
X161583486Y-74714806D01*
X161356862Y-77304907D02*
X162288632Y-78415342D01*
X161583486Y-74714806D02*
X162693916Y-73783029D01*
X161745979Y-74578450D02*
X161493236Y-77467412D01*
X161904117Y-74491890D02*
X161629580Y-77629915D01*
X162070988Y-74305746D02*
X161765941Y-77792417D01*
X162233485Y-74169386D02*
X161902293Y-77954918D01*
X162395991Y-74033026D02*
X162038663Y-78117422D01*
X162554140Y-73946474D02*
X162174996Y-78279920D01*
X162716640Y-73810128D02*
X162315717Y-78392612D01*
X162866061Y-73823195D02*
X162465152Y-78405688D01*
X163015486Y-73836266D02*
X162614585Y-78418766D01*
X163164926Y-73849343D02*
X162764009Y-78431832D01*
X163314349Y-73862414D02*
X162913439Y-78444903D01*
X163463779Y-73875498D02*
X163062868Y-78457982D01*
X163613217Y-73888556D02*
X163212295Y-78471054D01*
X163762640Y-73901640D02*
X163361724Y-78484134D01*
X163912065Y-73914708D02*
X163511154Y-78497203D01*
X164061498Y-73927777D02*
X163660581Y-78510274D01*
X164210932Y-73940860D02*
X163810010Y-78523357D01*
X164360366Y-73953928D02*
X163959444Y-78536417D01*
X164509789Y-73966994D02*
X164108870Y-78549500D01*
X164659217Y-73980070D02*
X164258302Y-78562574D01*
X164661397Y-73955178D02*
X162693916Y-73783029D01*
X164808632Y-73993145D02*
X164412083Y-78525826D01*
X164828933Y-78637594D02*
X162288632Y-78415342D01*
X164828933Y-78637594D02*
X166188410Y-77727613D01*
X164962423Y-73956407D02*
X164557159Y-78588715D01*
X165111856Y-73969478D02*
X164706585Y-78601792D01*
X165261298Y-73982562D02*
X164860376Y-78565052D01*
X165415069Y-73945828D02*
X165018519Y-78478503D01*
X165573232Y-73859277D02*
X165176663Y-78391965D01*
X165727007Y-73822544D02*
X165339171Y-78255603D01*
X165885162Y-73735993D02*
X165497320Y-78169063D01*
X166043301Y-73649457D02*
X165659816Y-78032707D01*
X166201448Y-73562900D02*
X165817963Y-77946151D01*
X166363942Y-73426540D02*
X165976095Y-77859614D01*
X166526456Y-73290182D02*
X166138600Y-77723250D01*
X166643502Y-73099666D02*
X166281801Y-77233872D01*
X166756195Y-72958950D02*
X166394498Y-77093157D01*
X166873253Y-72768421D02*
X166511549Y-76902647D01*
X166985938Y-72627713D02*
X166619874Y-76811737D01*
X167107341Y-72387382D02*
X166723853Y-76770641D01*
X167220026Y-72246670D02*
X166827833Y-76729546D01*
X167378179Y-72160131D02*
X166981629Y-76692808D01*
X167536327Y-72073571D02*
X167139770Y-76606272D01*
X167690107Y-72036843D02*
X167289196Y-76619336D01*
X167839540Y-72049920D02*
X167438621Y-76632417D01*
X167988982Y-72062986D02*
X167592411Y-76595671D01*
X168138402Y-72076058D02*
X167737480Y-76658557D01*
X168287828Y-72089127D02*
X167886910Y-76671627D01*
X168437261Y-72102196D02*
X168036334Y-76684707D01*
X168586692Y-72115283D02*
X168185769Y-76697784D01*
X168736115Y-72128352D02*
X168335202Y-76710847D01*
X168885549Y-72141435D02*
X168484628Y-76723924D01*
X169034983Y-72154508D02*
X168634048Y-76736995D01*
X169184411Y-72167578D02*
X168783490Y-76750064D01*
X169333824Y-72180649D02*
X168932917Y-76763141D01*
X169483265Y-72193720D02*
X169082352Y-76776223D01*
X169632697Y-72206797D02*
X169231791Y-76789292D01*
X169642724Y-77829064D02*
X170638909Y-77916220D01*
X169782116Y-72219863D02*
X169381217Y-76802357D01*
X169931551Y-72232940D02*
X169530635Y-76815441D01*
X170026556Y-76883916D02*
X167461350Y-76659489D01*
X170080982Y-72246009D02*
X169680057Y-76828508D01*
X170230412Y-72259077D02*
X169829497Y-76841582D01*
X170379837Y-72272149D02*
X169978923Y-76854657D01*
X170431836Y-72251610D02*
X167841713Y-72025009D01*
X170529276Y-72285240D02*
X170132711Y-76817920D01*
X170638909Y-77916220D02*
X170726064Y-76920017D01*
X170674346Y-72348119D02*
X170282134Y-76831000D01*
X170819415Y-72411005D02*
X170435930Y-76794257D01*
X170960122Y-72523685D02*
X170594080Y-76707715D01*
X171051041Y-72632033D02*
X170706764Y-76566998D01*
X171109899Y-75974878D02*
X171340875Y-73334958D01*
X171141934Y-72740357D02*
X170815087Y-76476096D01*
X171228482Y-72898502D02*
X170919073Y-76434994D01*
X171771940Y-64965682D02*
X171859096Y-63969497D01*
X171859096Y-63969497D02*
X170862893Y-63882342D01*
X166188410Y-77727613D02*
G75*
G02*
X167461350Y-76659488I1170551J-102430D01*
G01*
X166921528Y-72650285D02*
G75*
G02*
X164661397Y-73955178I-2061877J961491D01*
G01*
X166921528Y-72650285D02*
G75*
G02*
X167840626Y-72026129I876946J-302558D01*
G01*
X170431836Y-72251610D02*
G75*
G02*
X171340874Y-73334958I-87165J-996201D01*
G01*
X171109899Y-75974878D02*
G75*
G02*
X170026556Y-76883917I-996174J87132D01*
G01*
G04 #@! TO.C,S4*
X70197519Y-112614175D02*
X71103827Y-112191556D01*
X70620135Y-113520480D02*
X70197519Y-112614175D01*
X76114175Y-125302481D02*
X75691556Y-124396173D01*
X77020480Y-124879865D02*
X76114175Y-125302481D01*
X79359536Y-121141039D02*
X79855318Y-119778890D01*
X79432090Y-120941699D02*
X80657682Y-123569993D01*
X79525774Y-120787676D02*
X80857024Y-123642547D01*
X79577197Y-120543020D02*
X81056359Y-123715099D01*
X79649748Y-120343682D02*
X81255700Y-123787651D01*
X79722304Y-120144345D02*
X81455036Y-123860205D01*
X79815986Y-119990319D02*
X81654378Y-123932757D01*
X79888540Y-119790979D02*
X81832586Y-123959998D01*
X80024488Y-119727589D02*
X81968531Y-123896604D01*
X80160433Y-119664197D02*
X82104476Y-123833210D01*
X80296380Y-119600804D02*
X82240424Y-123769818D01*
X80432325Y-119537409D02*
X82376370Y-123706427D01*
X80458345Y-123497439D02*
X79359536Y-121141039D01*
X80458345Y-123497439D02*
X81820493Y-123993219D01*
X80568273Y-119474017D02*
X82512317Y-123643033D01*
X80704219Y-119410626D02*
X82648261Y-123579641D01*
X80840164Y-119347229D02*
X82784205Y-123516249D01*
X80976112Y-119283840D02*
X82920156Y-123452855D01*
X81112057Y-119220446D02*
X83056102Y-123389463D01*
X81248002Y-119157053D02*
X83192043Y-123326070D01*
X81383948Y-119093662D02*
X83327991Y-123262677D01*
X81519895Y-119030268D02*
X83463942Y-123199283D01*
X81645275Y-118944219D02*
X79855318Y-119778890D01*
X81655842Y-118966876D02*
X83599884Y-123135893D01*
X81791789Y-118903485D02*
X83714703Y-123027184D01*
X81906604Y-118794772D02*
X83871777Y-123009107D01*
X82042551Y-118731383D02*
X84007723Y-122945710D01*
X82178495Y-118667990D02*
X84122538Y-122837006D01*
X82293310Y-118559281D02*
X84216223Y-122682983D01*
X82386995Y-118405256D02*
X84309908Y-122528959D01*
X82501810Y-118296549D02*
X84382461Y-122329618D01*
X82595493Y-118142526D02*
X84476143Y-122175595D01*
X82689176Y-117988502D02*
X84548698Y-121976257D01*
X82782863Y-117834479D02*
X84642382Y-121822235D01*
X82855418Y-117635137D02*
X84736070Y-121668209D01*
X82885825Y-106697519D02*
X81979520Y-107120135D01*
X82927969Y-117435800D02*
X84808621Y-121468871D01*
X82934077Y-117212277D02*
X84687943Y-120973456D01*
X82961316Y-117034070D02*
X84715182Y-120795246D01*
X82967422Y-116810548D02*
X84721286Y-120571722D01*
X82979636Y-116363499D02*
X84839157Y-120351254D01*
X82994660Y-116632339D02*
X84769656Y-120438830D01*
X83006873Y-116185292D02*
X84908657Y-120263676D01*
X83100559Y-116031268D02*
X85023470Y-120154969D01*
X83194245Y-115877244D02*
X85117154Y-120000943D01*
X83308444Y-107603827D02*
X82885825Y-106697519D01*
X83309062Y-115768535D02*
X85253103Y-119937551D01*
X83445005Y-115705143D02*
X85389050Y-119874157D01*
X83580950Y-115641753D02*
X85503864Y-119765447D01*
X83716897Y-115578360D02*
X85660942Y-119747374D01*
X83852843Y-115514966D02*
X85796889Y-119683981D01*
X83988789Y-115451573D02*
X85932834Y-119620586D01*
X84124737Y-115388180D02*
X86068778Y-119557196D01*
X84131580Y-122915542D02*
X81820493Y-123993219D01*
X84131580Y-122915542D02*
X84853937Y-121447741D01*
X84260682Y-115324786D02*
X86204726Y-119493802D01*
X84396627Y-115261393D02*
X86340673Y-119430409D01*
X84532572Y-115198001D02*
X86476618Y-119367016D01*
X84668521Y-115134608D02*
X86612564Y-119303625D01*
X84804466Y-115071215D02*
X86748510Y-119240232D01*
X84940412Y-115007823D02*
X86884455Y-119176836D01*
X85076357Y-114944429D02*
X87020401Y-119113446D01*
X85212305Y-114881039D02*
X87156346Y-119050053D01*
X85348252Y-114817645D02*
X87292295Y-118986659D01*
X85484198Y-114754254D02*
X87428243Y-118923267D01*
X85620144Y-114690860D02*
X87564188Y-118859874D01*
X85756091Y-114627467D02*
X87700133Y-118796483D01*
X85790838Y-114583679D02*
X83434441Y-115682486D01*
X85892036Y-114564074D02*
X87814949Y-118687775D01*
X86049112Y-114545997D02*
X87950895Y-118624382D01*
X86206189Y-114527922D02*
X88065711Y-118515674D01*
X86384399Y-114555156D02*
X88159393Y-118361650D01*
X86517291Y-114603527D02*
X88186635Y-118183442D01*
X86650184Y-114651897D02*
X88235000Y-118050551D01*
X86804205Y-114745581D02*
X88304499Y-117962975D01*
X87756015Y-118798010D02*
X85422272Y-119886252D01*
X87896173Y-119808444D02*
X88802481Y-119385825D01*
X88239705Y-117469084D02*
X87119763Y-115067370D01*
X88802481Y-119385825D02*
X88379865Y-118479520D01*
X82950163Y-116684084D02*
G75*
G02*
X81645275Y-118944219I-2266342J-198284D01*
G01*
X82950163Y-116684084D02*
G75*
G02*
X83434047Y-115683999I910770J176435D01*
G01*
X84853937Y-121447741D02*
G75*
G02*
X85422272Y-119886252I1064914J496576D01*
G01*
X85790838Y-114583679D02*
G75*
G02*
X87119763Y-115067370I422618J-906306D01*
G01*
X88239705Y-117469084D02*
G75*
G02*
X87756015Y-118798010I-906320J-422614D01*
G01*
D13*
G04 #@! TO.C,D1*
X108031753Y-63965542D02*
X107431753Y-63965542D01*
X107431753Y-63365542D01*
X108031753Y-63965542D01*
G36*
X108031753Y-63965542D02*
G01*
X107431753Y-63965542D01*
X107431753Y-63365542D01*
X108031753Y-63965542D01*
G37*
G04 #@! TO.C,S16*
D10*
X116731753Y-113115542D02*
X117731753Y-113115542D01*
X116731753Y-114115542D02*
X116731753Y-113115542D01*
X116731753Y-127115542D02*
X116731753Y-126115542D01*
X117731753Y-127115542D02*
X116731753Y-127115542D01*
X121431753Y-124715542D02*
X122456753Y-123690542D01*
X121431753Y-127315542D02*
X121431753Y-124715542D01*
X121431753Y-127315542D02*
X122456753Y-128340542D01*
X121581753Y-124565542D02*
X121581753Y-127465542D01*
X121731753Y-124465542D02*
X121731753Y-127615542D01*
X121881753Y-124265542D02*
X121881753Y-127765542D01*
X122031753Y-124115542D02*
X122031753Y-127915542D01*
X122181753Y-123965542D02*
X122181753Y-128065542D01*
X122331753Y-123865542D02*
X122331753Y-128215542D01*
X122481753Y-123715542D02*
X122481753Y-128315542D01*
X122631753Y-123715542D02*
X122631753Y-128315542D01*
X122781753Y-123715542D02*
X122781753Y-128315542D01*
X122931753Y-123715542D02*
X122931753Y-128315542D01*
X123081753Y-123715542D02*
X123081753Y-128315542D01*
X123231753Y-123715542D02*
X123231753Y-128315542D01*
X123381753Y-123715542D02*
X123381753Y-128315542D01*
X123531753Y-123715542D02*
X123531753Y-128315542D01*
X123681753Y-123715542D02*
X123681753Y-128315542D01*
X123831753Y-123715542D02*
X123831753Y-128315542D01*
X123981753Y-123715542D02*
X123981753Y-128315542D01*
X124131753Y-123715542D02*
X124131753Y-128315542D01*
X124281753Y-123715542D02*
X124281753Y-128315542D01*
X124431753Y-123690542D02*
X122456753Y-123690542D01*
X124431753Y-123715542D02*
X124431753Y-128315542D01*
X124581753Y-123715542D02*
X124581753Y-128265542D01*
X124731753Y-123665542D02*
X124731753Y-128315542D01*
X124881753Y-123665542D02*
X124881753Y-128315542D01*
X125006753Y-128340542D02*
X122456753Y-128340542D01*
X125006753Y-128340542D02*
X126281753Y-127315542D01*
X125031753Y-123665542D02*
X125031753Y-128265542D01*
X125181753Y-123615542D02*
X125181753Y-128165542D01*
X125331753Y-123515542D02*
X125331753Y-128065542D01*
X125481753Y-123465542D02*
X125481753Y-127915542D01*
X125631753Y-123365542D02*
X125631753Y-127815542D01*
X125781753Y-123265542D02*
X125781753Y-127665542D01*
X125931753Y-123165542D02*
X125931753Y-127565542D01*
X126081753Y-123015542D02*
X126081753Y-127465542D01*
X126231753Y-122865542D02*
X126231753Y-127315542D01*
X126331753Y-122665542D02*
X126331753Y-126815542D01*
X126431753Y-122515542D02*
X126431753Y-126665542D01*
X126531753Y-122315542D02*
X126531753Y-126465542D01*
X126631753Y-122165542D02*
X126631753Y-126365542D01*
X126731753Y-121915542D02*
X126731753Y-126315542D01*
X126831753Y-121765542D02*
X126831753Y-126265542D01*
X126981753Y-121665542D02*
X126981753Y-126215542D01*
X127131753Y-121565542D02*
X127131753Y-126115542D01*
X127281753Y-121515542D02*
X127281753Y-126115542D01*
X127431753Y-121515542D02*
X127431753Y-126115542D01*
X127581753Y-121515542D02*
X127581753Y-126065542D01*
X127731753Y-121515542D02*
X127731753Y-126115542D01*
X127881753Y-121515542D02*
X127881753Y-126115542D01*
X128031753Y-121515542D02*
X128031753Y-126115542D01*
X128181753Y-121515542D02*
X128181753Y-126115542D01*
X128331753Y-121515542D02*
X128331753Y-126115542D01*
X128481753Y-121515542D02*
X128481753Y-126115542D01*
X128631753Y-121515542D02*
X128631753Y-126115542D01*
X128781753Y-121515542D02*
X128781753Y-126115542D01*
X128931753Y-121515542D02*
X128931753Y-126115542D01*
X129081753Y-121515542D02*
X129081753Y-126115542D01*
X129231753Y-121515542D02*
X129231753Y-126115542D01*
X129381753Y-121515542D02*
X129381753Y-126115542D01*
X129531753Y-121515542D02*
X129531753Y-126115542D01*
X129681753Y-121515542D02*
X129681753Y-126115542D01*
X129731753Y-127115542D02*
X130731753Y-127115542D01*
X129831753Y-121515542D02*
X129831753Y-126115542D01*
X129981753Y-121515542D02*
X129981753Y-126115542D01*
X130031753Y-121490542D02*
X127431753Y-121490542D01*
X130031753Y-126140542D02*
X127456753Y-126140542D01*
X130131753Y-121515542D02*
X130131753Y-126065542D01*
X130281753Y-121565542D02*
X130281753Y-126065542D01*
X130431753Y-121615542D02*
X130431753Y-126015542D01*
X130581753Y-121715542D02*
X130581753Y-125915542D01*
X130681753Y-121815542D02*
X130681753Y-125765542D01*
X130731753Y-113115542D02*
X129731753Y-113115542D01*
X130731753Y-114115542D02*
X130731753Y-113115542D01*
X130731753Y-127115542D02*
X130731753Y-126115542D01*
X130781753Y-121915542D02*
X130781753Y-125665542D01*
X130881753Y-122065542D02*
X130881753Y-125615542D01*
X131031753Y-125140542D02*
X131031753Y-122490542D01*
X126281753Y-127315542D02*
G75*
G02*
X127456753Y-126140542I1175002J-2D01*
G01*
X126569554Y-122193638D02*
G75*
G02*
X124431753Y-123690542I-2137800J778095D01*
G01*
X126569554Y-122193638D02*
G75*
G02*
X127430758Y-121491751I900000J-225000D01*
G01*
X130031753Y-121490542D02*
G75*
G02*
X131031753Y-122490542I1J-999999D01*
G01*
X131031753Y-125140542D02*
G75*
G02*
X130031753Y-126140542I-999999J-1D01*
G01*
G04 #@! TO.C,S7*
X116731753Y-95615542D02*
X117731753Y-95615542D01*
X116731753Y-96615542D02*
X116731753Y-95615542D01*
X116731753Y-109615542D02*
X116731753Y-108615542D01*
X117731753Y-109615542D02*
X116731753Y-109615542D01*
X121431753Y-107215542D02*
X122456753Y-106190542D01*
X121431753Y-109815542D02*
X121431753Y-107215542D01*
X121431753Y-109815542D02*
X122456753Y-110840542D01*
X121581753Y-107065542D02*
X121581753Y-109965542D01*
X121731753Y-106965542D02*
X121731753Y-110115542D01*
X121881753Y-106765542D02*
X121881753Y-110265542D01*
X122031753Y-106615542D02*
X122031753Y-110415542D01*
X122181753Y-106465542D02*
X122181753Y-110565542D01*
X122331753Y-106365542D02*
X122331753Y-110715542D01*
X122481753Y-106215542D02*
X122481753Y-110815542D01*
X122631753Y-106215542D02*
X122631753Y-110815542D01*
X122781753Y-106215542D02*
X122781753Y-110815542D01*
X122931753Y-106215542D02*
X122931753Y-110815542D01*
X123081753Y-106215542D02*
X123081753Y-110815542D01*
X123231753Y-106215542D02*
X123231753Y-110815542D01*
X123381753Y-106215542D02*
X123381753Y-110815542D01*
X123531753Y-106215542D02*
X123531753Y-110815542D01*
X123681753Y-106215542D02*
X123681753Y-110815542D01*
X123831753Y-106215542D02*
X123831753Y-110815542D01*
X123981753Y-106215542D02*
X123981753Y-110815542D01*
X124131753Y-106215542D02*
X124131753Y-110815542D01*
X124281753Y-106215542D02*
X124281753Y-110815542D01*
X124431753Y-106190542D02*
X122456753Y-106190542D01*
X124431753Y-106215542D02*
X124431753Y-110815542D01*
X124581753Y-106215542D02*
X124581753Y-110765542D01*
X124731753Y-106165542D02*
X124731753Y-110815542D01*
X124881753Y-106165542D02*
X124881753Y-110815542D01*
X125006753Y-110840542D02*
X122456753Y-110840542D01*
X125006753Y-110840542D02*
X126281753Y-109815542D01*
X125031753Y-106165542D02*
X125031753Y-110765542D01*
X125181753Y-106115542D02*
X125181753Y-110665542D01*
X125331753Y-106015542D02*
X125331753Y-110565542D01*
X125481753Y-105965542D02*
X125481753Y-110415542D01*
X125631753Y-105865542D02*
X125631753Y-110315542D01*
X125781753Y-105765542D02*
X125781753Y-110165542D01*
X125931753Y-105665542D02*
X125931753Y-110065542D01*
X126081753Y-105515542D02*
X126081753Y-109965542D01*
X126231753Y-105365542D02*
X126231753Y-109815542D01*
X126331753Y-105165542D02*
X126331753Y-109315542D01*
X126431753Y-105015542D02*
X126431753Y-109165542D01*
X126531753Y-104815542D02*
X126531753Y-108965542D01*
X126631753Y-104665542D02*
X126631753Y-108865542D01*
X126731753Y-104415542D02*
X126731753Y-108815542D01*
X126831753Y-104265542D02*
X126831753Y-108765542D01*
X126981753Y-104165542D02*
X126981753Y-108715542D01*
X127131753Y-104065542D02*
X127131753Y-108615542D01*
X127281753Y-104015542D02*
X127281753Y-108615542D01*
X127431753Y-104015542D02*
X127431753Y-108615542D01*
X127581753Y-104015542D02*
X127581753Y-108565542D01*
X127731753Y-104015542D02*
X127731753Y-108615542D01*
X127881753Y-104015542D02*
X127881753Y-108615542D01*
X128031753Y-104015542D02*
X128031753Y-108615542D01*
X128181753Y-104015542D02*
X128181753Y-108615542D01*
X128331753Y-104015542D02*
X128331753Y-108615542D01*
X128481753Y-104015542D02*
X128481753Y-108615542D01*
X128631753Y-104015542D02*
X128631753Y-108615542D01*
X128781753Y-104015542D02*
X128781753Y-108615542D01*
X128931753Y-104015542D02*
X128931753Y-108615542D01*
X129081753Y-104015542D02*
X129081753Y-108615542D01*
X129231753Y-104015542D02*
X129231753Y-108615542D01*
X129381753Y-104015542D02*
X129381753Y-108615542D01*
X129531753Y-104015542D02*
X129531753Y-108615542D01*
X129681753Y-104015542D02*
X129681753Y-108615542D01*
X129731753Y-109615542D02*
X130731753Y-109615542D01*
X129831753Y-104015542D02*
X129831753Y-108615542D01*
X129981753Y-104015542D02*
X129981753Y-108615542D01*
X130031753Y-103990542D02*
X127431753Y-103990542D01*
X130031753Y-108640542D02*
X127456753Y-108640542D01*
X130131753Y-104015542D02*
X130131753Y-108565542D01*
X130281753Y-104065542D02*
X130281753Y-108565542D01*
X130431753Y-104115542D02*
X130431753Y-108515542D01*
X130581753Y-104215542D02*
X130581753Y-108415542D01*
X130681753Y-104315542D02*
X130681753Y-108265542D01*
X130731753Y-95615542D02*
X129731753Y-95615542D01*
X130731753Y-96615542D02*
X130731753Y-95615542D01*
X130731753Y-109615542D02*
X130731753Y-108615542D01*
X130781753Y-104415542D02*
X130781753Y-108165542D01*
X130881753Y-104565542D02*
X130881753Y-108115542D01*
X131031753Y-107640542D02*
X131031753Y-104990542D01*
X126281753Y-109815542D02*
G75*
G02*
X127456753Y-108640542I1175002J-2D01*
G01*
X126569554Y-104693638D02*
G75*
G02*
X124431753Y-106190542I-2137800J778095D01*
G01*
X126569554Y-104693638D02*
G75*
G02*
X127430758Y-103991751I900000J-225000D01*
G01*
X130031753Y-103990542D02*
G75*
G02*
X131031753Y-104990542I1J-999999D01*
G01*
X131031753Y-107640542D02*
G75*
G02*
X130031753Y-108640542I-999999J-1D01*
G01*
G04 #@! TO.C,TP3*
D14*
X68700000Y-85000000D02*
G75*
G02*
X67300000Y-85000000I-700000J0D01*
G01*
X67300000Y-85000000D02*
G75*
G02*
X68700000Y-85000000I700000J0D01*
G01*
D13*
G04 #@! TO.C,D9*
X145031753Y-59465542D02*
X144431753Y-59465542D01*
X144431753Y-58865542D01*
X145031753Y-59465542D01*
G36*
X145031753Y-59465542D02*
G01*
X144431753Y-59465542D01*
X144431753Y-58865542D01*
X145031753Y-59465542D01*
G37*
G04 #@! TO.C,S6*
D10*
X116731753Y-78115542D02*
X117731753Y-78115542D01*
X116731753Y-79115542D02*
X116731753Y-78115542D01*
X116731753Y-92115542D02*
X116731753Y-91115542D01*
X117731753Y-92115542D02*
X116731753Y-92115542D01*
X121431753Y-89715542D02*
X122456753Y-88690542D01*
X121431753Y-92315542D02*
X121431753Y-89715542D01*
X121431753Y-92315542D02*
X122456753Y-93340542D01*
X121581753Y-89565542D02*
X121581753Y-92465542D01*
X121731753Y-89465542D02*
X121731753Y-92615542D01*
X121881753Y-89265542D02*
X121881753Y-92765542D01*
X122031753Y-89115542D02*
X122031753Y-92915542D01*
X122181753Y-88965542D02*
X122181753Y-93065542D01*
X122331753Y-88865542D02*
X122331753Y-93215542D01*
X122481753Y-88715542D02*
X122481753Y-93315542D01*
X122631753Y-88715542D02*
X122631753Y-93315542D01*
X122781753Y-88715542D02*
X122781753Y-93315542D01*
X122931753Y-88715542D02*
X122931753Y-93315542D01*
X123081753Y-88715542D02*
X123081753Y-93315542D01*
X123231753Y-88715542D02*
X123231753Y-93315542D01*
X123381753Y-88715542D02*
X123381753Y-93315542D01*
X123531753Y-88715542D02*
X123531753Y-93315542D01*
X123681753Y-88715542D02*
X123681753Y-93315542D01*
X123831753Y-88715542D02*
X123831753Y-93315542D01*
X123981753Y-88715542D02*
X123981753Y-93315542D01*
X124131753Y-88715542D02*
X124131753Y-93315542D01*
X124281753Y-88715542D02*
X124281753Y-93315542D01*
X124431753Y-88690542D02*
X122456753Y-88690542D01*
X124431753Y-88715542D02*
X124431753Y-93315542D01*
X124581753Y-88715542D02*
X124581753Y-93265542D01*
X124731753Y-88665542D02*
X124731753Y-93315542D01*
X124881753Y-88665542D02*
X124881753Y-93315542D01*
X125006753Y-93340542D02*
X122456753Y-93340542D01*
X125006753Y-93340542D02*
X126281753Y-92315542D01*
X125031753Y-88665542D02*
X125031753Y-93265542D01*
X125181753Y-88615542D02*
X125181753Y-93165542D01*
X125331753Y-88515542D02*
X125331753Y-93065542D01*
X125481753Y-88465542D02*
X125481753Y-92915542D01*
X125631753Y-88365542D02*
X125631753Y-92815542D01*
X125781753Y-88265542D02*
X125781753Y-92665542D01*
X125931753Y-88165542D02*
X125931753Y-92565542D01*
X126081753Y-88015542D02*
X126081753Y-92465542D01*
X126231753Y-87865542D02*
X126231753Y-92315542D01*
X126331753Y-87665542D02*
X126331753Y-91815542D01*
X126431753Y-87515542D02*
X126431753Y-91665542D01*
X126531753Y-87315542D02*
X126531753Y-91465542D01*
X126631753Y-87165542D02*
X126631753Y-91365542D01*
X126731753Y-86915542D02*
X126731753Y-91315542D01*
X126831753Y-86765542D02*
X126831753Y-91265542D01*
X126981753Y-86665542D02*
X126981753Y-91215542D01*
X127131753Y-86565542D02*
X127131753Y-91115542D01*
X127281753Y-86515542D02*
X127281753Y-91115542D01*
X127431753Y-86515542D02*
X127431753Y-91115542D01*
X127581753Y-86515542D02*
X127581753Y-91065542D01*
X127731753Y-86515542D02*
X127731753Y-91115542D01*
X127881753Y-86515542D02*
X127881753Y-91115542D01*
X128031753Y-86515542D02*
X128031753Y-91115542D01*
X128181753Y-86515542D02*
X128181753Y-91115542D01*
X128331753Y-86515542D02*
X128331753Y-91115542D01*
X128481753Y-86515542D02*
X128481753Y-91115542D01*
X128631753Y-86515542D02*
X128631753Y-91115542D01*
X128781753Y-86515542D02*
X128781753Y-91115542D01*
X128931753Y-86515542D02*
X128931753Y-91115542D01*
X129081753Y-86515542D02*
X129081753Y-91115542D01*
X129231753Y-86515542D02*
X129231753Y-91115542D01*
X129381753Y-86515542D02*
X129381753Y-91115542D01*
X129531753Y-86515542D02*
X129531753Y-91115542D01*
X129681753Y-86515542D02*
X129681753Y-91115542D01*
X129731753Y-92115542D02*
X130731753Y-92115542D01*
X129831753Y-86515542D02*
X129831753Y-91115542D01*
X129981753Y-86515542D02*
X129981753Y-91115542D01*
X130031753Y-86490542D02*
X127431753Y-86490542D01*
X130031753Y-91140542D02*
X127456753Y-91140542D01*
X130131753Y-86515542D02*
X130131753Y-91065542D01*
X130281753Y-86565542D02*
X130281753Y-91065542D01*
X130431753Y-86615542D02*
X130431753Y-91015542D01*
X130581753Y-86715542D02*
X130581753Y-90915542D01*
X130681753Y-86815542D02*
X130681753Y-90765542D01*
X130731753Y-78115542D02*
X129731753Y-78115542D01*
X130731753Y-79115542D02*
X130731753Y-78115542D01*
X130731753Y-92115542D02*
X130731753Y-91115542D01*
X130781753Y-86915542D02*
X130781753Y-90665542D01*
X130881753Y-87065542D02*
X130881753Y-90615542D01*
X131031753Y-90140542D02*
X131031753Y-87490542D01*
X126281753Y-92315542D02*
G75*
G02*
X127456753Y-91140542I1175002J-2D01*
G01*
X126569554Y-87193638D02*
G75*
G02*
X124431753Y-88690542I-2137800J778095D01*
G01*
X126569554Y-87193638D02*
G75*
G02*
X127430758Y-86491751I900000J-225000D01*
G01*
X130031753Y-86490542D02*
G75*
G02*
X131031753Y-87490542I1J-999999D01*
G01*
X131031753Y-90140542D02*
G75*
G02*
X130031753Y-91140542I-999999J-1D01*
G01*
G04 #@! TO.C,S8*
X74937822Y-131437822D02*
X75803848Y-130937822D01*
X75437822Y-132303848D02*
X74937822Y-131437822D01*
X81937822Y-143562178D02*
X81437822Y-142696152D01*
X82803848Y-143062178D02*
X81937822Y-143562178D01*
X84808142Y-139133717D02*
X85183318Y-137733541D01*
X84863045Y-138928813D02*
X86313045Y-141440287D01*
X84942949Y-138767211D02*
X86517949Y-141495191D01*
X84972853Y-138519005D02*
X86722853Y-141550094D01*
X85027757Y-138314102D02*
X86927757Y-141604998D01*
X85082661Y-138109198D02*
X87132661Y-141659902D01*
X85162564Y-137947595D02*
X87337564Y-141714806D01*
X85217468Y-137742691D02*
X87517468Y-141726408D01*
X85347372Y-137667691D02*
X87647372Y-141651408D01*
X85477276Y-137592691D02*
X87777276Y-141576408D01*
X85607181Y-137517691D02*
X87907180Y-141501408D01*
X85737083Y-137442691D02*
X88037083Y-141426407D01*
X85866987Y-137367691D02*
X88166987Y-141351408D01*
X85996891Y-137292691D02*
X88296891Y-141276408D01*
X86108142Y-141385383D02*
X84808142Y-139133717D01*
X86108142Y-141385383D02*
X87508318Y-141760559D01*
X86126795Y-137217691D02*
X88426795Y-141201408D01*
X86256699Y-137142691D02*
X88556699Y-141126408D01*
X86386603Y-137067691D02*
X88686603Y-141051408D01*
X86516506Y-136992691D02*
X88816506Y-140976408D01*
X86646410Y-136917691D02*
X88946410Y-140901408D01*
X86776314Y-136842691D02*
X89076314Y-140826408D01*
X86893718Y-136746041D02*
X85183318Y-137733541D01*
X86906218Y-136767691D02*
X89206218Y-140751408D01*
X87036122Y-136692691D02*
X89311122Y-140633107D01*
X87062178Y-124437822D02*
X86196152Y-124937822D01*
X87141025Y-136574390D02*
X89466025Y-140601408D01*
X87270929Y-136499390D02*
X89595929Y-140526408D01*
X87400833Y-136424390D02*
X89700833Y-140408107D01*
X87505737Y-136306089D02*
X89780737Y-140246505D01*
X87562178Y-125303848D02*
X87062178Y-124437822D01*
X87585641Y-136144486D02*
X89860641Y-140084902D01*
X87690544Y-136026185D02*
X89915544Y-139879998D01*
X87770448Y-135864583D02*
X89995448Y-139718396D01*
X87850352Y-135702980D02*
X90050352Y-139513492D01*
X87930256Y-135541377D02*
X90130256Y-139351889D01*
X87985160Y-135336474D02*
X90210160Y-139190287D01*
X87998076Y-134058846D02*
X90198076Y-137869358D01*
X88009679Y-133878942D02*
X90259679Y-137776056D01*
X88024871Y-134505256D02*
X90099871Y-138099261D01*
X88026666Y-134908365D02*
X90101666Y-138502370D01*
X88036474Y-134325352D02*
X90136474Y-137962659D01*
X88038269Y-134728461D02*
X90113269Y-138322466D01*
X88040064Y-135131570D02*
X90265064Y-138985383D01*
X88089583Y-133717339D02*
X90364583Y-137657755D01*
X88169486Y-133555737D02*
X90444486Y-137496152D01*
X88274390Y-133437436D02*
X90574390Y-137421152D01*
X88404294Y-133362436D02*
X90704294Y-137346152D01*
X88534198Y-133287436D02*
X90809198Y-137227851D01*
X88664102Y-133212436D02*
X90964102Y-137196152D01*
X88794005Y-133137436D02*
X91094005Y-137121152D01*
X88923909Y-133062436D02*
X91223909Y-137046152D01*
X89053813Y-132987436D02*
X91353813Y-136971152D01*
X89183717Y-132912436D02*
X91483717Y-136896152D01*
X89313621Y-132837436D02*
X91613621Y-136821152D01*
X89443524Y-132762436D02*
X91743524Y-136746152D01*
X89573428Y-132687436D02*
X91873428Y-136671152D01*
X89703332Y-132612436D02*
X92003332Y-136596152D01*
X89716682Y-140485559D02*
X87508318Y-141760559D01*
X89716682Y-140485559D02*
X90308365Y-138960383D01*
X89833236Y-132537436D02*
X92133236Y-136521152D01*
X89963140Y-132462436D02*
X92263140Y-136446152D01*
X90093044Y-132387436D02*
X92393044Y-136371152D01*
X90222946Y-132312436D02*
X92522947Y-136296152D01*
X90352851Y-132237436D02*
X92652851Y-136221152D01*
X90482755Y-132162436D02*
X92782755Y-136146152D01*
X90612659Y-132087436D02*
X92912659Y-136071152D01*
X90643460Y-132040785D02*
X88391794Y-133340785D01*
X90742563Y-132012436D02*
X93017563Y-135952851D01*
X90897466Y-131980737D02*
X93147466Y-135877851D01*
X91052370Y-131949038D02*
X93252370Y-135759550D01*
X91232274Y-131960641D02*
X93332274Y-135597947D01*
X91368877Y-131997243D02*
X93343877Y-135418044D01*
X91505479Y-132033846D02*
X93380479Y-135281441D01*
X91667082Y-132113750D02*
X93442082Y-135188140D01*
X92968460Y-136067803D02*
X90738445Y-137355303D01*
X93196152Y-137062178D02*
X94062178Y-136562178D01*
X93334485Y-134701778D02*
X92009485Y-132406809D01*
X94062178Y-136562178D02*
X93562178Y-135696152D01*
X87996656Y-134380783D02*
G75*
G02*
X86893718Y-136746041I-2240434J-395052D01*
G01*
X87996656Y-134380783D02*
G75*
G02*
X88391537Y-133342329I891923J255144D01*
G01*
X90308365Y-138960383D02*
G75*
G02*
X90738445Y-137355303I1017580J587500D01*
G01*
X90643460Y-132040785D02*
G75*
G02*
X92009484Y-132406809I500000J-866024D01*
G01*
X93334485Y-134701778D02*
G75*
G02*
X92968460Y-136067804I-866023J-500001D01*
G01*
G04 #@! TO.C,J4*
X70100000Y-84050000D02*
X71900000Y-84050000D01*
X70100000Y-85850000D02*
X70100000Y-84050000D01*
X70100000Y-86550000D02*
X70100000Y-88350000D01*
X70100000Y-86550000D02*
X71900000Y-86550000D01*
X70100000Y-89150000D02*
X70100000Y-90950000D01*
X70100000Y-89150000D02*
X71900000Y-89150000D01*
X71900000Y-84050000D02*
X71900000Y-85850000D01*
X71900000Y-85850000D02*
X70100000Y-85850000D01*
X71900000Y-86550000D02*
X71900000Y-88350000D01*
X71900000Y-88350000D02*
X70100000Y-88350000D01*
X71900000Y-89150000D02*
X71900000Y-90950000D01*
X71900000Y-90950000D02*
X70100000Y-90950000D01*
G04 #@! TO.C,J3*
D14*
X77260000Y-95610000D02*
X77260000Y-94280000D01*
X78590000Y-95610000D02*
X77260000Y-95610000D01*
X79860000Y-92950000D02*
X90080000Y-92950000D01*
X79860000Y-95610000D02*
X79860000Y-92950000D01*
X79860000Y-95610000D02*
X90080000Y-95610000D01*
X90080000Y-95610000D02*
X90080000Y-92950000D01*
G04 #@! TO.C,S1*
D10*
X98231753Y-62615542D02*
X99231753Y-62615542D01*
X98231753Y-63615542D02*
X98231753Y-62615542D01*
X98231753Y-76615542D02*
X98231753Y-75615542D01*
X99231753Y-76615542D02*
X98231753Y-76615542D01*
X102931753Y-74215542D02*
X103956753Y-73190542D01*
X102931753Y-76815542D02*
X102931753Y-74215542D01*
X102931753Y-76815542D02*
X103956753Y-77840542D01*
X103081753Y-74065542D02*
X103081753Y-76965542D01*
X103231753Y-73965542D02*
X103231753Y-77115542D01*
X103381753Y-73765542D02*
X103381753Y-77265542D01*
X103531753Y-73615542D02*
X103531753Y-77415542D01*
X103681753Y-73465542D02*
X103681753Y-77565542D01*
X103831753Y-73365542D02*
X103831753Y-77715542D01*
X103981753Y-73215542D02*
X103981753Y-77815542D01*
X104131753Y-73215542D02*
X104131753Y-77815542D01*
X104281753Y-73215542D02*
X104281753Y-77815542D01*
X104431753Y-73215542D02*
X104431753Y-77815542D01*
X104581753Y-73215542D02*
X104581753Y-77815542D01*
X104731753Y-73215542D02*
X104731753Y-77815542D01*
X104881753Y-73215542D02*
X104881753Y-77815542D01*
X105031753Y-73215542D02*
X105031753Y-77815542D01*
X105181753Y-73215542D02*
X105181753Y-77815542D01*
X105331753Y-73215542D02*
X105331753Y-77815542D01*
X105481753Y-73215542D02*
X105481753Y-77815542D01*
X105631753Y-73215542D02*
X105631753Y-77815542D01*
X105781753Y-73215542D02*
X105781753Y-77815542D01*
X105931753Y-73190542D02*
X103956753Y-73190542D01*
X105931753Y-73215542D02*
X105931753Y-77815542D01*
X106081753Y-73215542D02*
X106081753Y-77765542D01*
X106231753Y-73165542D02*
X106231753Y-77815542D01*
X106381753Y-73165542D02*
X106381753Y-77815542D01*
X106506753Y-77840542D02*
X103956753Y-77840542D01*
X106506753Y-77840542D02*
X107781753Y-76815542D01*
X106531753Y-73165542D02*
X106531753Y-77765542D01*
X106681753Y-73115542D02*
X106681753Y-77665542D01*
X106831753Y-73015542D02*
X106831753Y-77565542D01*
X106981753Y-72965542D02*
X106981753Y-77415542D01*
X107131753Y-72865542D02*
X107131753Y-77315542D01*
X107281753Y-72765542D02*
X107281753Y-77165542D01*
X107431753Y-72665542D02*
X107431753Y-77065542D01*
X107581753Y-72515542D02*
X107581753Y-76965542D01*
X107731753Y-72365542D02*
X107731753Y-76815542D01*
X107831753Y-72165542D02*
X107831753Y-76315542D01*
X107931753Y-72015542D02*
X107931753Y-76165542D01*
X108031753Y-71815542D02*
X108031753Y-75965542D01*
X108131753Y-71665542D02*
X108131753Y-75865542D01*
X108231753Y-71415542D02*
X108231753Y-75815542D01*
X108331753Y-71265542D02*
X108331753Y-75765542D01*
X108481753Y-71165542D02*
X108481753Y-75715542D01*
X108631753Y-71065542D02*
X108631753Y-75615542D01*
X108781753Y-71015542D02*
X108781753Y-75615542D01*
X108931753Y-71015542D02*
X108931753Y-75615542D01*
X109081753Y-71015542D02*
X109081753Y-75565542D01*
X109231753Y-71015542D02*
X109231753Y-75615542D01*
X109381753Y-71015542D02*
X109381753Y-75615542D01*
X109531753Y-71015542D02*
X109531753Y-75615542D01*
X109681753Y-71015542D02*
X109681753Y-75615542D01*
X109831753Y-71015542D02*
X109831753Y-75615542D01*
X109981753Y-71015542D02*
X109981753Y-75615542D01*
X110131753Y-71015542D02*
X110131753Y-75615542D01*
X110281753Y-71015542D02*
X110281753Y-75615542D01*
X110431753Y-71015542D02*
X110431753Y-75615542D01*
X110581753Y-71015542D02*
X110581753Y-75615542D01*
X110731753Y-71015542D02*
X110731753Y-75615542D01*
X110881753Y-71015542D02*
X110881753Y-75615542D01*
X111031753Y-71015542D02*
X111031753Y-75615542D01*
X111181753Y-71015542D02*
X111181753Y-75615542D01*
X111231753Y-76615542D02*
X112231753Y-76615542D01*
X111331753Y-71015542D02*
X111331753Y-75615542D01*
X111481753Y-71015542D02*
X111481753Y-75615542D01*
X111531753Y-70990542D02*
X108931753Y-70990542D01*
X111531753Y-75640542D02*
X108956753Y-75640542D01*
X111631753Y-71015542D02*
X111631753Y-75565542D01*
X111781753Y-71065542D02*
X111781753Y-75565542D01*
X111931753Y-71115542D02*
X111931753Y-75515542D01*
X112081753Y-71215542D02*
X112081753Y-75415542D01*
X112181753Y-71315542D02*
X112181753Y-75265542D01*
X112231753Y-62615542D02*
X111231753Y-62615542D01*
X112231753Y-63615542D02*
X112231753Y-62615542D01*
X112231753Y-76615542D02*
X112231753Y-75615542D01*
X112281753Y-71415542D02*
X112281753Y-75165542D01*
X112381753Y-71565542D02*
X112381753Y-75115542D01*
X112531753Y-74640542D02*
X112531753Y-71990542D01*
X107781753Y-76815542D02*
G75*
G02*
X108956753Y-75640542I1175002J-2D01*
G01*
X108069554Y-71693638D02*
G75*
G02*
X105931753Y-73190542I-2137800J778095D01*
G01*
X108069554Y-71693638D02*
G75*
G02*
X108930758Y-70991751I900000J-225000D01*
G01*
X111531753Y-70990542D02*
G75*
G02*
X112531753Y-71990542I1J-999999D01*
G01*
X112531753Y-74640542D02*
G75*
G02*
X111531753Y-75640542I-999999J-1D01*
G01*
D13*
G04 #@! TO.C,D16*
X126531751Y-114465542D02*
X125931751Y-114465542D01*
X125931751Y-113865542D01*
X126531751Y-114465542D01*
G36*
X126531751Y-114465542D02*
G01*
X125931751Y-114465542D01*
X125931751Y-113865542D01*
X126531751Y-114465542D01*
G37*
G04 #@! TO.C,JP2*
D10*
X80160753Y-89237380D02*
X81938753Y-89237380D01*
X80160753Y-91523380D02*
X80160753Y-89237380D01*
X81938753Y-89237380D02*
X81938753Y-91523380D01*
X81938753Y-91523380D02*
X80160753Y-91523380D01*
G04 #@! TO.C,S11*
X135231753Y-93115542D02*
X136231753Y-93115542D01*
X135231753Y-94115542D02*
X135231753Y-93115542D01*
X135231753Y-107115542D02*
X135231753Y-106115542D01*
X136231753Y-107115542D02*
X135231753Y-107115542D01*
X139931753Y-104715542D02*
X140956753Y-103690542D01*
X139931753Y-107315542D02*
X139931753Y-104715542D01*
X139931753Y-107315542D02*
X140956753Y-108340542D01*
X140081753Y-104565542D02*
X140081753Y-107465542D01*
X140231753Y-104465542D02*
X140231753Y-107615542D01*
X140381753Y-104265542D02*
X140381753Y-107765542D01*
X140531753Y-104115542D02*
X140531753Y-107915542D01*
X140681753Y-103965542D02*
X140681753Y-108065542D01*
X140831753Y-103865542D02*
X140831753Y-108215542D01*
X140981753Y-103715542D02*
X140981753Y-108315542D01*
X141131753Y-103715542D02*
X141131753Y-108315542D01*
X141281753Y-103715542D02*
X141281753Y-108315542D01*
X141431753Y-103715542D02*
X141431753Y-108315542D01*
X141581753Y-103715542D02*
X141581753Y-108315542D01*
X141731753Y-103715542D02*
X141731753Y-108315542D01*
X141881753Y-103715542D02*
X141881753Y-108315542D01*
X142031753Y-103715542D02*
X142031753Y-108315542D01*
X142181753Y-103715542D02*
X142181753Y-108315542D01*
X142331753Y-103715542D02*
X142331753Y-108315542D01*
X142481753Y-103715542D02*
X142481753Y-108315542D01*
X142631753Y-103715542D02*
X142631753Y-108315542D01*
X142781753Y-103715542D02*
X142781753Y-108315542D01*
X142931753Y-103690542D02*
X140956753Y-103690542D01*
X142931753Y-103715542D02*
X142931753Y-108315542D01*
X143081753Y-103715542D02*
X143081753Y-108265542D01*
X143231753Y-103665542D02*
X143231753Y-108315542D01*
X143381753Y-103665542D02*
X143381753Y-108315542D01*
X143506753Y-108340542D02*
X140956753Y-108340542D01*
X143506753Y-108340542D02*
X144781753Y-107315542D01*
X143531753Y-103665542D02*
X143531753Y-108265542D01*
X143681753Y-103615542D02*
X143681753Y-108165542D01*
X143831753Y-103515542D02*
X143831753Y-108065542D01*
X143981753Y-103465542D02*
X143981753Y-107915542D01*
X144131753Y-103365542D02*
X144131753Y-107815542D01*
X144281753Y-103265542D02*
X144281753Y-107665542D01*
X144431753Y-103165542D02*
X144431753Y-107565542D01*
X144581753Y-103015542D02*
X144581753Y-107465542D01*
X144731753Y-102865542D02*
X144731753Y-107315542D01*
X144831753Y-102665542D02*
X144831753Y-106815542D01*
X144931753Y-102515542D02*
X144931753Y-106665542D01*
X145031753Y-102315542D02*
X145031753Y-106465542D01*
X145131753Y-102165542D02*
X145131753Y-106365542D01*
X145231753Y-101915542D02*
X145231753Y-106315542D01*
X145331753Y-101765542D02*
X145331753Y-106265542D01*
X145481753Y-101665542D02*
X145481753Y-106215542D01*
X145631753Y-101565542D02*
X145631753Y-106115542D01*
X145781753Y-101515542D02*
X145781753Y-106115542D01*
X145931753Y-101515542D02*
X145931753Y-106115542D01*
X146081753Y-101515542D02*
X146081753Y-106065542D01*
X146231753Y-101515542D02*
X146231753Y-106115542D01*
X146381753Y-101515542D02*
X146381753Y-106115542D01*
X146531753Y-101515542D02*
X146531753Y-106115542D01*
X146681753Y-101515542D02*
X146681753Y-106115542D01*
X146831753Y-101515542D02*
X146831753Y-106115542D01*
X146981753Y-101515542D02*
X146981753Y-106115542D01*
X147131753Y-101515542D02*
X147131753Y-106115542D01*
X147281753Y-101515542D02*
X147281753Y-106115542D01*
X147431753Y-101515542D02*
X147431753Y-106115542D01*
X147581753Y-101515542D02*
X147581753Y-106115542D01*
X147731753Y-101515542D02*
X147731753Y-106115542D01*
X147881753Y-101515542D02*
X147881753Y-106115542D01*
X148031753Y-101515542D02*
X148031753Y-106115542D01*
X148181753Y-101515542D02*
X148181753Y-106115542D01*
X148231753Y-107115542D02*
X149231753Y-107115542D01*
X148331753Y-101515542D02*
X148331753Y-106115542D01*
X148481753Y-101515542D02*
X148481753Y-106115542D01*
X148531753Y-101490542D02*
X145931753Y-101490542D01*
X148531753Y-106140542D02*
X145956753Y-106140542D01*
X148631753Y-101515542D02*
X148631753Y-106065542D01*
X148781753Y-101565542D02*
X148781753Y-106065542D01*
X148931753Y-101615542D02*
X148931753Y-106015542D01*
X149081753Y-101715542D02*
X149081753Y-105915542D01*
X149181753Y-101815542D02*
X149181753Y-105765542D01*
X149231753Y-93115542D02*
X148231753Y-93115542D01*
X149231753Y-94115542D02*
X149231753Y-93115542D01*
X149231753Y-107115542D02*
X149231753Y-106115542D01*
X149281753Y-101915542D02*
X149281753Y-105665542D01*
X149381753Y-102065542D02*
X149381753Y-105615542D01*
X149531753Y-105140542D02*
X149531753Y-102490542D01*
X144781753Y-107315542D02*
G75*
G02*
X145956753Y-106140542I1175002J-2D01*
G01*
X145069554Y-102193638D02*
G75*
G02*
X142931753Y-103690542I-2137800J778095D01*
G01*
X145069554Y-102193638D02*
G75*
G02*
X145930758Y-101491751I900000J-225000D01*
G01*
X148531753Y-101490542D02*
G75*
G02*
X149531753Y-102490542I1J-999999D01*
G01*
X149531753Y-105140542D02*
G75*
G02*
X148531753Y-106140542I-999999J-1D01*
G01*
D13*
G04 #@! TO.C,D14*
X166032195Y-82381708D02*
X165434473Y-82329406D01*
X165486782Y-81731679D01*
X166032195Y-82381708D01*
G36*
X166032195Y-82381708D02*
G01*
X165434473Y-82329406D01*
X165486782Y-81731679D01*
X166032195Y-82381708D01*
G37*
G04 #@! TO.C,D7*
X126531753Y-96965542D02*
X125931753Y-96965542D01*
X125931753Y-96365542D01*
X126531753Y-96965542D01*
G36*
X126531753Y-96965542D02*
G01*
X125931753Y-96965542D01*
X125931753Y-96365542D01*
X126531753Y-96965542D01*
G37*
G04 #@! TO.C,JP1*
D10*
X77920753Y-89237380D02*
X79698753Y-89237380D01*
X77920753Y-91523380D02*
X77920753Y-89237380D01*
X79698753Y-89237380D02*
X79698753Y-91523380D01*
X79698753Y-91523380D02*
X77920753Y-91523380D01*
G04 #@! TO.C,S19*
X171506279Y-119267039D02*
X171628147Y-118274491D01*
X172498824Y-119388908D02*
X171506279Y-119267039D01*
X173090579Y-106363939D02*
X173212448Y-105371394D01*
X173212448Y-105371394D02*
X174204996Y-105493262D01*
X176146871Y-120038334D02*
X176463730Y-117457715D01*
X176146871Y-120038334D02*
X177039314Y-121180609D01*
X176463730Y-117457715D02*
X177606006Y-116565271D01*
X176630893Y-117327113D02*
X176277471Y-120205497D01*
X176791963Y-117246138D02*
X176408074Y-120372658D01*
X176965217Y-117065909D02*
X176538674Y-120539822D01*
X177132379Y-116935308D02*
X176669277Y-120706983D01*
X177299542Y-116804706D02*
X176799877Y-120874145D01*
X177460612Y-116723732D02*
X176930480Y-121041306D01*
X177627774Y-116593129D02*
X177067176Y-121158843D01*
X177776655Y-116611410D02*
X177216056Y-121177122D01*
X177925536Y-116629692D02*
X177364941Y-121195404D01*
X178074419Y-116647973D02*
X177513819Y-121213684D01*
X178223304Y-116666254D02*
X177662702Y-121231965D01*
X178372183Y-116684533D02*
X177811587Y-121250246D01*
X178521065Y-116702813D02*
X177960466Y-121268527D01*
X178669948Y-116721092D02*
X178109348Y-121286805D01*
X178818829Y-116739373D02*
X178258230Y-121305085D01*
X178967712Y-116757653D02*
X178407111Y-121323365D01*
X179116592Y-116775934D02*
X178555992Y-121341646D01*
X179265475Y-116794215D02*
X178704876Y-121359927D01*
X179414356Y-116812496D02*
X178853758Y-121378207D01*
X179563239Y-116830776D02*
X179002640Y-121396489D01*
X179566286Y-116805962D02*
X177606006Y-116565271D01*
X179570307Y-121491376D02*
X177039314Y-121180609D01*
X179570307Y-121491376D02*
X180960719Y-120629401D01*
X179712120Y-116849056D02*
X179157614Y-121365140D01*
X179867096Y-116817709D02*
X179300404Y-121433051D01*
X180015978Y-116835989D02*
X179449285Y-121451329D01*
X180164859Y-116854269D02*
X179604261Y-121419983D01*
X180319836Y-116822923D02*
X179765329Y-121339008D01*
X180480904Y-116741949D02*
X179926399Y-121258033D01*
X180635881Y-116710601D02*
X180093560Y-121127433D01*
X180796948Y-116629631D02*
X180254630Y-121046459D01*
X180958020Y-116548654D02*
X180421792Y-120915857D01*
X181119086Y-116467679D02*
X180582864Y-120834884D01*
X181286248Y-116337077D02*
X180743929Y-120753909D01*
X181453411Y-116206476D02*
X180911092Y-120623307D01*
X181577039Y-116020152D02*
X181071281Y-120139222D01*
X181694576Y-115883460D02*
X181188818Y-120002526D01*
X181818199Y-115697136D02*
X181312444Y-119816204D01*
X181935739Y-115560442D02*
X181423885Y-119729135D01*
X182065460Y-115324492D02*
X181529233Y-119691696D01*
X182182994Y-115187797D02*
X181634584Y-119654255D01*
X182344061Y-115106821D02*
X181789557Y-119622908D01*
X182505132Y-115025849D02*
X181950627Y-119541933D01*
X182660108Y-114994502D02*
X182099509Y-119560214D01*
X182808990Y-115012782D02*
X182248390Y-119578494D01*
X182957871Y-115031061D02*
X182403366Y-119547149D01*
X183106754Y-115049342D02*
X182546154Y-119615055D01*
X183255636Y-115067625D02*
X182695036Y-119633336D01*
X183404518Y-115085905D02*
X182843919Y-119651616D01*
X183553399Y-115104185D02*
X182992802Y-119669895D01*
X183702280Y-115122466D02*
X183141682Y-119688177D01*
X183851163Y-115140747D02*
X183290564Y-119706457D01*
X184000044Y-115159025D02*
X183439447Y-119724739D01*
X184148927Y-115177304D02*
X183588327Y-119743018D01*
X184297809Y-115195586D02*
X183737211Y-119761299D01*
X184409376Y-120851340D02*
X185401924Y-120973208D01*
X184446692Y-115213866D02*
X183886091Y-119779579D01*
X184595573Y-115232147D02*
X184034974Y-119797859D01*
X184744455Y-115250427D02*
X184183856Y-119816140D01*
X184825964Y-119920167D02*
X182270158Y-119606356D01*
X184893335Y-115268711D02*
X184332737Y-119834421D01*
X185042218Y-115286989D02*
X184481619Y-119852701D01*
X185191101Y-115305268D02*
X184630504Y-119870981D01*
X185339983Y-115323549D02*
X184779384Y-119889261D01*
X185392656Y-115304829D02*
X182812036Y-114987972D01*
X185401924Y-120973208D02*
X185523793Y-119980663D01*
X185488864Y-115341830D02*
X184934358Y-119857915D01*
X185631653Y-115409737D02*
X185083241Y-119876195D01*
X185774440Y-115477644D02*
X185238215Y-119844849D01*
X185911137Y-115595181D02*
X185399285Y-119763875D01*
X185940379Y-119049492D02*
X186263332Y-116419244D01*
X185998203Y-115706621D02*
X185516820Y-119627179D01*
X186085270Y-115818064D02*
X185628261Y-119540111D01*
X186166248Y-115979133D02*
X185733609Y-119502672D01*
X186986225Y-108070111D02*
X187108093Y-107077563D01*
X187108093Y-107077563D02*
X186115548Y-106955694D01*
X180960719Y-120629401D02*
G75*
G02*
X182270158Y-119606356I1166240J-143194D01*
G01*
X181870579Y-115580748D02*
G75*
G02*
X179566286Y-116805962I-2027047J1032842D01*
G01*
X181870579Y-115580748D02*
G75*
G02*
X182810900Y-114989048I865871J-333007D01*
G01*
X185392656Y-115304829D02*
G75*
G02*
X186263332Y-116419244I-121868J-992544D01*
G01*
X185940379Y-119049492D02*
G75*
G02*
X184825964Y-119920168I-992544J121868D01*
G01*
G04 #@! TO.C,D44*
D13*
X204777079Y-114470436D02*
X205118312Y-111691305D01*
X204782042Y-114471045D02*
X205030179Y-114501512D01*
X205123277Y-111691914D02*
X205371414Y-111722382D01*
D10*
X205413502Y-113389942D02*
X205883643Y-112843160D01*
X205810523Y-113438691D02*
X205749587Y-113934962D01*
X205883643Y-112843160D02*
X205337739Y-112776133D01*
X205883643Y-112843160D02*
X206207538Y-113487437D01*
X205883643Y-112843160D02*
X206429543Y-112910190D01*
X205932389Y-112446144D02*
X205883643Y-112843160D01*
X206207538Y-113487437D02*
X205413502Y-113389942D01*
D13*
X206315527Y-114659333D02*
X206558699Y-114689192D01*
X206563664Y-114689801D02*
X206904897Y-111910670D01*
X206656759Y-111880206D02*
X206899934Y-111910061D01*
G04 #@! TO.C,D36*
X169801436Y-86550544D02*
X170045484Y-83761198D01*
X169806419Y-86550987D02*
X170055475Y-86572779D01*
X170050457Y-83761643D02*
X170299494Y-83783429D01*
D10*
X170399771Y-85448499D02*
X170850535Y-84885646D01*
X170798238Y-85483369D02*
X170754668Y-85981463D01*
X170850535Y-84885646D02*
X170302628Y-84837714D01*
X170850535Y-84885646D02*
X171196724Y-85518232D01*
X170850535Y-84885646D02*
X171398448Y-84933579D01*
X170885398Y-84487167D02*
X170850535Y-84885646D01*
X171196724Y-85518232D02*
X170399771Y-85448499D01*
D13*
X171345538Y-86685636D02*
X171589609Y-86706987D01*
X171589585Y-83896299D02*
X171833647Y-83917643D01*
X171594582Y-86707432D02*
X171838630Y-83918086D01*
G04 #@! TO.C,D29*
X130670000Y-100890000D02*
X130670000Y-98090000D01*
X130675000Y-98090000D02*
X130925000Y-98090000D01*
X130675000Y-100890000D02*
X130925000Y-100890000D01*
D10*
X131170000Y-99740000D02*
X131570000Y-99140000D01*
X131570000Y-98740000D02*
X131570000Y-99140000D01*
X131570000Y-99140000D02*
X131020000Y-99140000D01*
X131570000Y-99140000D02*
X131970000Y-99740000D01*
X131570000Y-99140000D02*
X132120000Y-99140000D01*
X131570000Y-99740000D02*
X131570000Y-100240000D01*
X131970000Y-99740000D02*
X131170000Y-99740000D01*
D13*
X132220000Y-98090000D02*
X132465000Y-98090000D01*
X132220000Y-100890000D02*
X132465000Y-100890000D01*
X132470000Y-100890000D02*
X132470000Y-98090000D01*
G04 #@! TO.C,D38*
X130670000Y-118300000D02*
X130670000Y-115500000D01*
X130675000Y-115500000D02*
X130925000Y-115500000D01*
X130675000Y-118300000D02*
X130925000Y-118300000D01*
D10*
X131170000Y-117150000D02*
X131570000Y-116550000D01*
X131570000Y-116150000D02*
X131570000Y-116550000D01*
X131570000Y-116550000D02*
X131020000Y-116550000D01*
X131570000Y-116550000D02*
X131970000Y-117150000D01*
X131570000Y-116550000D02*
X132120000Y-116550000D01*
X131570000Y-117150000D02*
X131570000Y-117650000D01*
X131970000Y-117150000D02*
X131170000Y-117150000D01*
D13*
X132220000Y-115500000D02*
X132465000Y-115500000D01*
X132220000Y-118300000D02*
X132465000Y-118300000D01*
X132470000Y-118300000D02*
X132470000Y-115500000D01*
G04 #@! TO.C,D43*
X206891511Y-97249760D02*
X207232744Y-94470629D01*
X206896474Y-97250369D02*
X207144611Y-97280836D01*
X207237709Y-94471238D02*
X207485846Y-94501706D01*
D10*
X207527934Y-96169266D02*
X207998075Y-95622484D01*
X207924955Y-96218015D02*
X207864019Y-96714286D01*
X207998075Y-95622484D02*
X207452171Y-95555457D01*
X207998075Y-95622484D02*
X208321970Y-96266761D01*
X207998075Y-95622484D02*
X208543975Y-95689514D01*
X208046821Y-95225468D02*
X207998075Y-95622484D01*
X208321970Y-96266761D02*
X207527934Y-96169266D01*
D13*
X208429959Y-97438657D02*
X208673131Y-97468516D01*
X208678096Y-97469125D02*
X209019329Y-94689994D01*
X208771191Y-94659530D02*
X209014366Y-94689385D01*
G04 #@! TO.C,D33*
X149130000Y-98380000D02*
X149130000Y-95580000D01*
X149135000Y-95580000D02*
X149385000Y-95580000D01*
X149135000Y-98380000D02*
X149385000Y-98380000D01*
D10*
X149630000Y-97230000D02*
X150030000Y-96630000D01*
X150030000Y-96230000D02*
X150030000Y-96630000D01*
X150030000Y-96630000D02*
X149480000Y-96630000D01*
X150030000Y-96630000D02*
X150430000Y-97230000D01*
X150030000Y-96630000D02*
X150580000Y-96630000D01*
X150030000Y-97230000D02*
X150030000Y-97730000D01*
X150430000Y-97230000D02*
X149630000Y-97230000D01*
D13*
X150680000Y-95580000D02*
X150925000Y-95580000D01*
X150680000Y-98380000D02*
X150925000Y-98380000D01*
X150930000Y-98380000D02*
X150930000Y-95580000D01*
G04 #@! TO.C,D32*
X149170000Y-80730000D02*
X149170000Y-77930000D01*
X149175000Y-77930000D02*
X149425000Y-77930000D01*
X149175000Y-80730000D02*
X149425000Y-80730000D01*
D10*
X149670000Y-79580000D02*
X150070000Y-78980000D01*
X150070000Y-78580000D02*
X150070000Y-78980000D01*
X150070000Y-78980000D02*
X149520000Y-78980000D01*
X150070000Y-78980000D02*
X150470000Y-79580000D01*
X150070000Y-78980000D02*
X150620000Y-78980000D01*
X150070000Y-79580000D02*
X150070000Y-80080000D01*
X150470000Y-79580000D02*
X149670000Y-79580000D01*
D13*
X150720000Y-77930000D02*
X150965000Y-77930000D01*
X150720000Y-80730000D02*
X150965000Y-80730000D01*
X150970000Y-80730000D02*
X150970000Y-77930000D01*
G04 #@! TO.C,D30*
X90524906Y-128735064D02*
X90741414Y-128610064D01*
D10*
X91625000Y-128850481D02*
X91825002Y-129196892D01*
X91778589Y-129916505D02*
X91825002Y-129196892D01*
X91825002Y-129196892D02*
X91348685Y-129471892D01*
X91825002Y-129196892D02*
X92301314Y-128921891D01*
X91825002Y-129196892D02*
X92471409Y-129516507D01*
D13*
X91862916Y-127962564D02*
X92075093Y-127840064D01*
X91920577Y-131162435D02*
X90520577Y-128737564D01*
X91924907Y-131159936D02*
X92141414Y-131034935D01*
D10*
X92125000Y-129716505D02*
X92375000Y-130149519D01*
X92471409Y-129516507D02*
X91778589Y-129916505D01*
D13*
X93262917Y-130387436D02*
X93475094Y-130264936D01*
X93479423Y-130262436D02*
X92079423Y-127837565D01*
G04 #@! TO.C,D35*
X170337598Y-68459951D02*
X170581646Y-65670605D01*
X170342581Y-68460394D02*
X170591637Y-68482186D01*
X170586619Y-65671050D02*
X170835656Y-65692836D01*
D10*
X170935933Y-67357906D02*
X171386697Y-66795053D01*
X171334400Y-67392776D02*
X171290830Y-67890870D01*
X171386697Y-66795053D02*
X170838790Y-66747121D01*
X171386697Y-66795053D02*
X171732886Y-67427639D01*
X171386697Y-66795053D02*
X171934610Y-66842986D01*
X171421560Y-66396574D02*
X171386697Y-66795053D01*
X171732886Y-67427639D02*
X170935933Y-67357906D01*
D13*
X171881700Y-68595043D02*
X172125771Y-68616394D01*
X172125747Y-65805706D02*
X172369809Y-65827050D01*
X172130744Y-68616839D02*
X172374792Y-65827493D01*
G04 #@! TO.C,D31*
X149160000Y-63370000D02*
X149160000Y-60570000D01*
X149165000Y-60570000D02*
X149415000Y-60570000D01*
X149165000Y-63370000D02*
X149415000Y-63370000D01*
D10*
X149660000Y-62220000D02*
X150060000Y-61620000D01*
X150060000Y-61220000D02*
X150060000Y-61620000D01*
X150060000Y-61620000D02*
X149510000Y-61620000D01*
X150060000Y-61620000D02*
X150460000Y-62220000D01*
X150060000Y-61620000D02*
X150610000Y-61620000D01*
X150060000Y-62220000D02*
X150060000Y-62720000D01*
X150460000Y-62220000D02*
X149660000Y-62220000D01*
D13*
X150710000Y-60570000D02*
X150955000Y-60570000D01*
X150710000Y-63370000D02*
X150955000Y-63370000D01*
X150960000Y-63370000D02*
X150960000Y-60570000D01*
G04 #@! TO.C,D41*
X186408881Y-113142181D02*
X186750114Y-110363050D01*
X186413844Y-113142790D02*
X186661981Y-113173257D01*
X186755079Y-110363659D02*
X187003216Y-110394127D01*
D10*
X187045304Y-112061687D02*
X187515445Y-111514905D01*
X187442325Y-112110436D02*
X187381389Y-112606707D01*
X187515445Y-111514905D02*
X186969541Y-111447878D01*
X187515445Y-111514905D02*
X187839340Y-112159182D01*
X187515445Y-111514905D02*
X188061345Y-111581935D01*
X187564191Y-111117889D02*
X187515445Y-111514905D01*
X187839340Y-112159182D02*
X187045304Y-112061687D01*
D13*
X187947329Y-113331078D02*
X188190501Y-113360937D01*
X188195466Y-113361546D02*
X188536699Y-110582415D01*
X188288561Y-110551951D02*
X188531736Y-110581806D01*
G04 #@! TO.C,D42*
X209067406Y-79774680D02*
X209408639Y-76995549D01*
X209072369Y-79775289D02*
X209320506Y-79805756D01*
X209413604Y-76996158D02*
X209661741Y-77026626D01*
D10*
X209703829Y-78694186D02*
X210173970Y-78147404D01*
X210100850Y-78742935D02*
X210039914Y-79239206D01*
X210173970Y-78147404D02*
X209628066Y-78080377D01*
X210173970Y-78147404D02*
X210497865Y-78791681D01*
X210173970Y-78147404D02*
X210719870Y-78214434D01*
X210222716Y-77750388D02*
X210173970Y-78147404D01*
X210497865Y-78791681D02*
X209703829Y-78694186D01*
D13*
X210605854Y-79963577D02*
X210849026Y-79993436D01*
X210853991Y-79994045D02*
X211195224Y-77214914D01*
X210947086Y-77184450D02*
X211190261Y-77214305D01*
G04 #@! TO.C,D27*
X130680000Y-65710000D02*
X130680000Y-62910000D01*
X130685000Y-62910000D02*
X130935000Y-62910000D01*
X130685000Y-65710000D02*
X130935000Y-65710000D01*
D10*
X131180000Y-64560000D02*
X131580000Y-63960000D01*
X131580000Y-63560000D02*
X131580000Y-63960000D01*
X131580000Y-63960000D02*
X131030000Y-63960000D01*
X131580000Y-63960000D02*
X131980000Y-64560000D01*
X131580000Y-63960000D02*
X132130000Y-63960000D01*
X131580000Y-64560000D02*
X131580000Y-65060000D01*
X131980000Y-64560000D02*
X131180000Y-64560000D01*
D13*
X132230000Y-62910000D02*
X132475000Y-62910000D01*
X132230000Y-65710000D02*
X132475000Y-65710000D01*
X132480000Y-65710000D02*
X132480000Y-62910000D01*
G04 #@! TO.C,D24*
X112160000Y-85340000D02*
X112160000Y-82540000D01*
X112165000Y-82540000D02*
X112415000Y-82540000D01*
X112165000Y-85340000D02*
X112415000Y-85340000D01*
D10*
X112660000Y-84190000D02*
X113060000Y-83590000D01*
X113060000Y-83190000D02*
X113060000Y-83590000D01*
X113060000Y-83590000D02*
X112510000Y-83590000D01*
X113060000Y-83590000D02*
X113460000Y-84190000D01*
X113060000Y-83590000D02*
X113610000Y-83590000D01*
X113060000Y-84190000D02*
X113060000Y-84690000D01*
X113460000Y-84190000D02*
X112660000Y-84190000D01*
D13*
X113710000Y-82540000D02*
X113955000Y-82540000D01*
X113710000Y-85340000D02*
X113955000Y-85340000D01*
X113960000Y-85340000D02*
X113960000Y-82540000D01*
G04 #@! TO.C,D25*
X112170000Y-102970000D02*
X112170000Y-100170000D01*
X112175000Y-100170000D02*
X112425000Y-100170000D01*
X112175000Y-102970000D02*
X112425000Y-102970000D01*
D10*
X112670000Y-101820000D02*
X113070000Y-101220000D01*
X113070000Y-100820000D02*
X113070000Y-101220000D01*
X113070000Y-101220000D02*
X112520000Y-101220000D01*
X113070000Y-101220000D02*
X113470000Y-101820000D01*
X113070000Y-101220000D02*
X113620000Y-101220000D01*
X113070000Y-101820000D02*
X113070000Y-102320000D01*
X113470000Y-101820000D02*
X112670000Y-101820000D01*
D13*
X113720000Y-100170000D02*
X113965000Y-100170000D01*
X113720000Y-102970000D02*
X113965000Y-102970000D01*
X113970000Y-102970000D02*
X113970000Y-100170000D01*
G04 #@! TO.C,D40*
X188436091Y-95279883D02*
X188777324Y-92500752D01*
X188441054Y-95280492D02*
X188689191Y-95310959D01*
X188782289Y-92501361D02*
X189030426Y-92531829D01*
D10*
X189072514Y-94199389D02*
X189542655Y-93652607D01*
X189469535Y-94248138D02*
X189408599Y-94744409D01*
X189542655Y-93652607D02*
X188996751Y-93585580D01*
X189542655Y-93652607D02*
X189866550Y-94296884D01*
X189542655Y-93652607D02*
X190088555Y-93719637D01*
X189591401Y-93255591D02*
X189542655Y-93652607D01*
X189866550Y-94296884D02*
X189072514Y-94199389D01*
D13*
X189974539Y-95468780D02*
X190217711Y-95498639D01*
X190222676Y-95499248D02*
X190563909Y-92720117D01*
X190315771Y-92689653D02*
X190558946Y-92719508D01*
G04 #@! TO.C,D23*
X112140000Y-67810000D02*
X112140000Y-65010000D01*
X112145000Y-65010000D02*
X112395000Y-65010000D01*
X112145000Y-67810000D02*
X112395000Y-67810000D01*
D10*
X112640000Y-66660000D02*
X113040000Y-66060000D01*
X113040000Y-65660000D02*
X113040000Y-66060000D01*
X113040000Y-66060000D02*
X112490000Y-66060000D01*
X113040000Y-66060000D02*
X113440000Y-66660000D01*
X113040000Y-66060000D02*
X113590000Y-66060000D01*
X113040000Y-66660000D02*
X113040000Y-67160000D01*
X113440000Y-66660000D02*
X112640000Y-66660000D01*
D13*
X113690000Y-65010000D02*
X113935000Y-65010000D01*
X113690000Y-67810000D02*
X113935000Y-67810000D01*
X113940000Y-67810000D02*
X113940000Y-65010000D01*
G04 #@! TO.C,D34*
X107800147Y-118560538D02*
X108035070Y-118475033D01*
X108753105Y-121193388D02*
X107795448Y-118562248D01*
X108757803Y-121191678D02*
X108992726Y-121106173D01*
D10*
X108829628Y-119941731D02*
X109000293Y-119241108D01*
X108863485Y-118865231D02*
X109000293Y-119241108D01*
X109000293Y-119241108D02*
X108483462Y-119429219D01*
X109000293Y-119241108D02*
X109517124Y-119052997D01*
X109000293Y-119241108D02*
X109581382Y-119668115D01*
X109205505Y-119804923D02*
X109376515Y-120274769D01*
D13*
X109251972Y-118032117D02*
X109482197Y-117948322D01*
D10*
X109581382Y-119668115D02*
X108829628Y-119941731D01*
D13*
X110209627Y-120663257D02*
X110439853Y-120579462D01*
X110444552Y-120577752D02*
X109486895Y-117946612D01*
G04 #@! TO.C,D28*
X130670000Y-83300000D02*
X130670000Y-80500000D01*
X130675000Y-80500000D02*
X130925000Y-80500000D01*
X130675000Y-83300000D02*
X130925000Y-83300000D01*
D10*
X131170000Y-82150000D02*
X131570000Y-81550000D01*
X131570000Y-81150000D02*
X131570000Y-81550000D01*
X131570000Y-81550000D02*
X131020000Y-81550000D01*
X131570000Y-81550000D02*
X131970000Y-82150000D01*
X131570000Y-81550000D02*
X132120000Y-81550000D01*
X131570000Y-82150000D02*
X131570000Y-82650000D01*
X131970000Y-82150000D02*
X131170000Y-82150000D01*
D13*
X132220000Y-80500000D02*
X132465000Y-80500000D01*
X132220000Y-83300000D02*
X132465000Y-83300000D01*
X132470000Y-83300000D02*
X132470000Y-80500000D01*
G04 #@! TO.C,D37*
X168276586Y-104094399D02*
X168520634Y-101305053D01*
X168281569Y-104094842D02*
X168530625Y-104116634D01*
X168525607Y-101305498D02*
X168774644Y-101327284D01*
D10*
X168874921Y-102992354D02*
X169325685Y-102429501D01*
X169273388Y-103027224D02*
X169229818Y-103525318D01*
X169325685Y-102429501D02*
X168777778Y-102381569D01*
X169325685Y-102429501D02*
X169671874Y-103062087D01*
X169325685Y-102429501D02*
X169873598Y-102477434D01*
X169360548Y-102031022D02*
X169325685Y-102429501D01*
X169671874Y-103062087D02*
X168874921Y-102992354D01*
D13*
X169820688Y-104229491D02*
X170064759Y-104250842D01*
X170064735Y-101440154D02*
X170308797Y-101461498D01*
X170069732Y-104251287D02*
X170313780Y-101461941D01*
G04 #@! TO.C,D39*
X190643489Y-77613256D02*
X190984722Y-74834125D01*
X190648452Y-77613865D02*
X190896589Y-77644332D01*
X190989687Y-74834734D02*
X191237824Y-74865202D01*
D10*
X191279912Y-76532762D02*
X191750053Y-75985980D01*
X191676933Y-76581511D02*
X191615997Y-77077782D01*
X191750053Y-75985980D02*
X191204149Y-75918953D01*
X191750053Y-75985980D02*
X192073948Y-76630257D01*
X191750053Y-75985980D02*
X192295953Y-76053010D01*
X191798799Y-75588964D02*
X191750053Y-75985980D01*
X192073948Y-76630257D02*
X191279912Y-76532762D01*
D13*
X192181937Y-77802153D02*
X192425109Y-77832012D01*
X192430074Y-77832621D02*
X192771307Y-75053490D01*
X192523169Y-75023026D02*
X192766344Y-75052881D01*
G04 #@! TD*
D16*
G04 #@! TO.C,U1*
X75290000Y-60910000D03*
X75290000Y-63450000D03*
X75290000Y-65990000D03*
X75290000Y-68530000D03*
X75290000Y-71070000D03*
X75290000Y-73610000D03*
X75290000Y-76150000D03*
X75290000Y-78690000D03*
X75290000Y-81230000D03*
X75290000Y-83770000D03*
X75290000Y-86310000D03*
X75290000Y-88850000D03*
X90530000Y-88850000D03*
X90530000Y-86310000D03*
X90530000Y-83770000D03*
X90530000Y-81230000D03*
X90530000Y-78690000D03*
X90530000Y-76150000D03*
X90530000Y-73610000D03*
X90530000Y-71070000D03*
X90530000Y-68530000D03*
X90530000Y-65990000D03*
X90530000Y-63450000D03*
X90530000Y-60910000D03*
G04 #@! TD*
%LPC*%
D17*
G04 #@! TO.C,D18*
X179275898Y-92010755D03*
X179458700Y-90521936D03*
D18*
X184639790Y-91158093D03*
D17*
X184456988Y-92646912D03*
G04 #@! TD*
D19*
G04 #@! TO.C,H2*
X135500000Y-123000000D03*
G04 #@! TD*
D20*
G04 #@! TO.C,D10*
X139621753Y-79115542D03*
X139621753Y-77615542D03*
D21*
X144841753Y-77615542D03*
D20*
X144841753Y-79115542D03*
G04 #@! TD*
D22*
G04 #@! TO.C,D12*
X99193917Y-122841641D03*
X98680887Y-121432102D03*
D23*
X103586083Y-119646757D03*
D22*
X104099113Y-121056296D03*
G04 #@! TD*
D24*
G04 #@! TO.C,TP1*
X68000000Y-80000000D03*
G04 #@! TD*
D17*
G04 #@! TO.C,D22*
X195505288Y-111634895D03*
X195688090Y-110146076D03*
D18*
X200869180Y-110782233D03*
D17*
X200686378Y-112271052D03*
G04 #@! TD*
D25*
G04 #@! TO.C,JP3*
X83389753Y-90880760D03*
X83389753Y-89880000D03*
G04 #@! TD*
D26*
G04 #@! TO.C,D4*
X75655747Y-113931253D03*
X75021820Y-112571791D03*
D27*
X79752747Y-110365721D03*
D26*
X80386674Y-111725183D03*
G04 #@! TD*
D28*
G04 #@! TO.C,D15*
X158930164Y-101485411D03*
X159060902Y-99991127D03*
D29*
X164261034Y-100446093D03*
D28*
X164130296Y-101940377D03*
G04 #@! TD*
D30*
G04 #@! TO.C,S18*
X186898904Y-96473026D03*
D31*
X185951715Y-100084512D03*
X180720871Y-101658765D03*
D32*
X181439900Y-95802744D03*
D31*
X176026253Y-98865817D03*
D30*
X175980896Y-95132462D03*
D33*
X177941740Y-101317533D03*
X188830099Y-100437933D03*
G04 #@! TD*
D16*
G04 #@! TO.C,U1*
X75290000Y-60910000D03*
X91828815Y-62105745D03*
X75290000Y-63450000D03*
X91828815Y-64645745D03*
X75290000Y-65990000D03*
X91828815Y-67185745D03*
X75290000Y-68530000D03*
X91828815Y-69725745D03*
X75290000Y-71070000D03*
X91828815Y-72265745D03*
X75290000Y-73610000D03*
X91828815Y-74805745D03*
X75290000Y-76150000D03*
X91828815Y-77345745D03*
X75290000Y-78690000D03*
X91828815Y-79885745D03*
X75290000Y-81230000D03*
X91828815Y-82425745D03*
X75290000Y-83770000D03*
X91828815Y-84965745D03*
X75290000Y-86310000D03*
X91828815Y-87505745D03*
X75290000Y-88850000D03*
X91828815Y-90045745D03*
X76588815Y-90045745D03*
X90530000Y-88850000D03*
X76588815Y-87505745D03*
X90530000Y-86310000D03*
X76588815Y-84965745D03*
X90530000Y-83770000D03*
X76588815Y-82425745D03*
X90530000Y-81230000D03*
X76588815Y-79885745D03*
X90530000Y-78690000D03*
X76588815Y-77345745D03*
X90530000Y-76150000D03*
X76588815Y-74805745D03*
X90530000Y-73610000D03*
X76588815Y-72265745D03*
X90530000Y-71070000D03*
X76588815Y-69725745D03*
X90530000Y-68530000D03*
X76588815Y-67185745D03*
X90530000Y-65990000D03*
X76588815Y-64645745D03*
X90530000Y-63450000D03*
X76588815Y-62105745D03*
X90530000Y-60910000D03*
G04 #@! TD*
D24*
G04 #@! TO.C,TP5*
X68000000Y-90000000D03*
G04 #@! TD*
D30*
G04 #@! TO.C,S9*
X147731753Y-65115542D03*
D31*
X147231753Y-68815542D03*
X142231753Y-71015542D03*
D32*
X142231753Y-65115542D03*
D31*
X137231753Y-68815542D03*
D30*
X136731753Y-65115542D03*
D34*
X139431753Y-71015542D03*
X150131753Y-68815542D03*
G04 #@! TD*
D30*
G04 #@! TO.C,S12*
X108036268Y-123425542D03*
D31*
X108831897Y-127073415D03*
X104885878Y-130850839D03*
D32*
X102867959Y-125306653D03*
D31*
X99434970Y-130493615D03*
D30*
X97699650Y-127187764D03*
D35*
X102254739Y-131808496D03*
X111557005Y-126081557D03*
G04 #@! TD*
D30*
G04 #@! TO.C,S20*
X207393720Y-81358053D03*
D31*
X206446531Y-84969539D03*
X201215687Y-86543792D03*
D32*
X201934716Y-80687771D03*
D31*
X196521069Y-83750844D03*
D30*
X196475712Y-80017489D03*
D33*
X198436556Y-86202560D03*
X209324915Y-85322960D03*
G04 #@! TD*
D20*
G04 #@! TO.C,D2*
X102621753Y-83615542D03*
X102621753Y-82115542D03*
D21*
X107841753Y-82115542D03*
D20*
X107841753Y-83615542D03*
G04 #@! TD*
D36*
G04 #@! TO.C,D8*
X80379132Y-132290787D03*
X79629132Y-130991749D03*
D37*
X84149784Y-128381749D03*
D36*
X84899784Y-129680787D03*
G04 #@! TD*
D20*
G04 #@! TO.C,D11*
X139621753Y-96615542D03*
X139621753Y-95115542D03*
D21*
X144841753Y-95115542D03*
D20*
X144841753Y-96615542D03*
G04 #@! TD*
D38*
G04 #@! TO.C,R1*
X71626473Y-103357359D03*
X72646471Y-103357363D03*
G04 #@! TD*
D17*
G04 #@! TO.C,D19*
X177143184Y-109380313D03*
X177325986Y-107891494D03*
D18*
X182507076Y-108527651D03*
D17*
X182324274Y-110016470D03*
G04 #@! TD*
D20*
G04 #@! TO.C,D5*
X121121753Y-64115542D03*
X121121753Y-62615542D03*
D21*
X126341753Y-62615542D03*
D20*
X126341753Y-64115542D03*
G04 #@! TD*
D24*
G04 #@! TO.C,TP4*
X68000000Y-87500000D03*
G04 #@! TD*
D30*
G04 #@! TO.C,S10*
X147731753Y-82615542D03*
D31*
X147231753Y-86315542D03*
X142231753Y-88515542D03*
D32*
X142231753Y-82615542D03*
D31*
X137231753Y-86315542D03*
D30*
X136731753Y-82615542D03*
D34*
X139431753Y-88515542D03*
X150131753Y-86315542D03*
G04 #@! TD*
D30*
G04 #@! TO.C,S14*
X168229482Y-88245528D03*
D31*
X167408907Y-91887868D03*
X162236200Y-93643720D03*
D32*
X162750412Y-87766172D03*
D31*
X157446957Y-91016309D03*
D30*
X157271342Y-87286816D03*
D39*
X159446840Y-93399680D03*
X170297877Y-92140615D03*
G04 #@! TD*
D25*
G04 #@! TO.C,JP4*
X85929753Y-90880760D03*
X85929753Y-89880000D03*
G04 #@! TD*
D30*
G04 #@! TO.C,S17*
X189031617Y-79103468D03*
D31*
X188084428Y-82714954D03*
X182853584Y-84289207D03*
D32*
X183572613Y-78433186D03*
D31*
X178158966Y-81496259D03*
D30*
X178113609Y-77762904D03*
D33*
X180074453Y-83947975D03*
X190962812Y-83068375D03*
G04 #@! TD*
D30*
G04 #@! TO.C,S21*
X205261006Y-98727610D03*
D31*
X204313817Y-102339096D03*
X199082973Y-103913349D03*
D32*
X199802002Y-98057328D03*
D31*
X194388355Y-101120401D03*
D30*
X194342998Y-97387046D03*
D33*
X196303842Y-103572117D03*
X207192201Y-102692517D03*
G04 #@! TD*
D30*
G04 #@! TO.C,S5*
X129231753Y-67615542D03*
D31*
X128731753Y-71315542D03*
X123731753Y-73515542D03*
D32*
X123731753Y-67615542D03*
D31*
X118731753Y-71315542D03*
D30*
X118231753Y-67615542D03*
D34*
X120931753Y-73515542D03*
X131631753Y-71315542D03*
G04 #@! TD*
D30*
G04 #@! TO.C,S3*
X110731753Y-104615542D03*
D31*
X110231753Y-108315542D03*
X105231753Y-110515542D03*
D32*
X105231753Y-104615542D03*
D31*
X100231753Y-108315542D03*
D30*
X99731753Y-104615542D03*
D34*
X102431753Y-110515542D03*
X113131753Y-108315542D03*
G04 #@! TD*
D30*
G04 #@! TO.C,S2*
X110731753Y-87115542D03*
D31*
X110231753Y-90815542D03*
X105231753Y-93015542D03*
D32*
X105231753Y-87115542D03*
D31*
X100231753Y-90815542D03*
D30*
X99731753Y-87115542D03*
D34*
X102431753Y-93015542D03*
X113131753Y-90815542D03*
G04 #@! TD*
D17*
G04 #@! TO.C,D20*
X199770716Y-76895779D03*
X199953518Y-75406960D03*
D18*
X205134608Y-76043117D03*
D17*
X204951806Y-77531936D03*
G04 #@! TD*
D25*
G04 #@! TO.C,JP5*
X88350000Y-90880760D03*
X88350000Y-89880000D03*
G04 #@! TD*
D30*
G04 #@! TO.C,S22*
X203128293Y-116097168D03*
D31*
X202181104Y-119708654D03*
X196950260Y-121282907D03*
D32*
X197669289Y-115426886D03*
D31*
X192255642Y-118489959D03*
D30*
X192210285Y-114756604D03*
D33*
X194171129Y-120941675D03*
X205059488Y-120062075D03*
G04 #@! TD*
D19*
G04 #@! TO.C,H1*
X112500000Y-59000000D03*
G04 #@! TD*
D28*
G04 #@! TO.C,D13*
X161980615Y-66618598D03*
X162111353Y-65124314D03*
D29*
X167311485Y-65579280D03*
D28*
X167180747Y-67073564D03*
G04 #@! TD*
D40*
G04 #@! TO.C,J2*
X82500000Y-107499999D03*
X82000003Y-107499995D03*
X81500004Y-107500005D03*
X81000005Y-107500002D03*
X80500004Y-107499993D03*
X80000006Y-107500004D03*
X79500007Y-107499996D03*
X79000007Y-107500003D03*
X78500005Y-107499997D03*
X78000000Y-107499992D03*
X77500003Y-107500004D03*
X77000003Y-107499994D03*
D41*
X75200005Y-104775996D03*
X84300009Y-104776002D03*
G04 #@! TD*
D20*
G04 #@! TO.C,D6*
X121121753Y-81615542D03*
X121121753Y-80115542D03*
D21*
X126341753Y-80115542D03*
D20*
X126341753Y-81615542D03*
G04 #@! TD*
G04 #@! TO.C,D3*
X102621753Y-101165542D03*
X102621753Y-99665542D03*
D21*
X107841753Y-99665542D03*
D20*
X107841753Y-101165542D03*
G04 #@! TD*
D30*
G04 #@! TO.C,S15*
X166704253Y-105678935D03*
D31*
X165883678Y-109321275D03*
X160710971Y-111077127D03*
D32*
X161225183Y-105199579D03*
D31*
X155921728Y-108449716D03*
D30*
X155746113Y-104720223D03*
D39*
X157921611Y-110833087D03*
X168772648Y-109574022D03*
G04 #@! TD*
D42*
G04 #@! TO.C,RSW1*
X68600000Y-75500000D03*
X68600000Y-69000000D03*
G04 #@! TD*
D17*
G04 #@! TO.C,D17*
X181408612Y-74641196D03*
X181591414Y-73152377D03*
D18*
X186772504Y-73788534D03*
D17*
X186589702Y-75277353D03*
G04 #@! TD*
D24*
G04 #@! TO.C,TP2*
X68000000Y-82500000D03*
G04 #@! TD*
D19*
G04 #@! TO.C,H5*
X90890000Y-123490000D03*
G04 #@! TD*
D43*
G04 #@! TO.C,J1*
X97460000Y-58000000D03*
D44*
X100000000Y-58000000D03*
G04 #@! TD*
D19*
G04 #@! TO.C,H6*
X71000000Y-107500000D03*
G04 #@! TD*
D45*
G04 #@! TO.C,D26*
X90495406Y-119302682D03*
X87504594Y-120697318D03*
G04 #@! TD*
D46*
G04 #@! TO.C,SW1*
X69780000Y-59220000D03*
X67570000Y-59220000D03*
D47*
X68670000Y-61370000D03*
X68670000Y-61370000D03*
X68670000Y-64370000D03*
X68670000Y-64370000D03*
D46*
X69780000Y-66520000D03*
X67570000Y-66520000D03*
D48*
X70430000Y-60620000D03*
X70430000Y-63620000D03*
X70430000Y-65120000D03*
G04 #@! TD*
D38*
G04 #@! TO.C,R2*
X87626472Y-103499998D03*
X88646470Y-103500002D03*
G04 #@! TD*
D17*
G04 #@! TO.C,D21*
X197638001Y-94265337D03*
X197820803Y-92776518D03*
D18*
X203001893Y-93412675D03*
D17*
X202819091Y-94901494D03*
G04 #@! TD*
D30*
G04 #@! TO.C,S13*
X169754711Y-70812121D03*
D31*
X168934136Y-74454461D03*
X163761429Y-76210313D03*
D32*
X164275641Y-70332765D03*
D31*
X158972186Y-73582902D03*
D30*
X158796571Y-69853409D03*
D39*
X160972069Y-75966273D03*
X171823106Y-74707208D03*
G04 #@! TD*
D30*
G04 #@! TO.C,S4*
X84484691Y-113675598D03*
D31*
X85595229Y-117240245D03*
D32*
X79500000Y-116000000D03*
D31*
X81993446Y-121347216D03*
X76532148Y-121466431D03*
D30*
X74515309Y-118324402D03*
D49*
X79455787Y-122530547D03*
X88223520Y-116014656D03*
G04 #@! TD*
D19*
G04 #@! TO.C,H4*
X191631740Y-88273151D03*
G04 #@! TD*
G04 #@! TO.C,H7*
X93000000Y-101000000D03*
G04 #@! TD*
D20*
G04 #@! TO.C,D1*
X102621753Y-66115542D03*
X102621753Y-64615542D03*
D21*
X107841753Y-64615542D03*
D20*
X107841753Y-66115542D03*
G04 #@! TD*
D30*
G04 #@! TO.C,S16*
X129231753Y-120115542D03*
D31*
X128731753Y-123815542D03*
X123731753Y-126015542D03*
D32*
X123731753Y-120115542D03*
D31*
X118731753Y-123815542D03*
D30*
X118231753Y-120115542D03*
D34*
X120931753Y-126015542D03*
X131631753Y-123815542D03*
G04 #@! TD*
D30*
G04 #@! TO.C,S7*
X129231753Y-102615542D03*
D31*
X128731753Y-106315542D03*
X123731753Y-108515542D03*
D32*
X123731753Y-102615542D03*
D31*
X118731753Y-106315542D03*
D30*
X118231753Y-102615542D03*
D34*
X120931753Y-108515542D03*
X131631753Y-106315542D03*
G04 #@! TD*
D24*
G04 #@! TO.C,TP3*
X68000000Y-85000000D03*
G04 #@! TD*
D20*
G04 #@! TO.C,D9*
X139621753Y-61615542D03*
X139621753Y-60115542D03*
D21*
X144841753Y-60115542D03*
D20*
X144841753Y-61615542D03*
G04 #@! TD*
D30*
G04 #@! TO.C,S6*
X129231753Y-85115542D03*
D31*
X128731753Y-88815542D03*
X123731753Y-91015542D03*
D32*
X123731753Y-85115542D03*
D31*
X118731753Y-88815542D03*
D30*
X118231753Y-85115542D03*
D34*
X120931753Y-91015542D03*
X131631753Y-88815542D03*
G04 #@! TD*
D30*
G04 #@! TO.C,S8*
X89263140Y-131250000D03*
D31*
X90680127Y-134704294D03*
X87450000Y-139109550D03*
D32*
X84500000Y-134000000D03*
D31*
X82019873Y-139704294D03*
D30*
X79736860Y-136750000D03*
D50*
X85025129Y-140509550D03*
X93191601Y-133254294D03*
G04 #@! TD*
D51*
G04 #@! TO.C,J4*
X71000000Y-84950000D03*
X71000000Y-87450000D03*
X71000000Y-90050000D03*
G04 #@! TD*
D43*
G04 #@! TO.C,J3*
X78590000Y-94280000D03*
D44*
X81130000Y-94280000D03*
X83670000Y-94280000D03*
X86210000Y-94280000D03*
X88750000Y-94280000D03*
G04 #@! TD*
D30*
G04 #@! TO.C,S1*
X110731753Y-69615542D03*
D31*
X110231753Y-73315542D03*
X105231753Y-75515542D03*
D32*
X105231753Y-69615542D03*
D31*
X100231753Y-73315542D03*
D30*
X99731753Y-69615542D03*
D34*
X102431753Y-75515542D03*
X113131753Y-73315542D03*
G04 #@! TD*
D20*
G04 #@! TO.C,D16*
X121121751Y-116615542D03*
X121121751Y-115115542D03*
D21*
X126341751Y-115115542D03*
D20*
X126341751Y-116615542D03*
G04 #@! TD*
D25*
G04 #@! TO.C,JP2*
X81049753Y-90880760D03*
X81049753Y-89880000D03*
G04 #@! TD*
D30*
G04 #@! TO.C,S11*
X147731753Y-100115542D03*
D31*
X147231753Y-103815542D03*
X142231753Y-106015542D03*
D32*
X142231753Y-100115542D03*
D31*
X137231753Y-103815542D03*
D30*
X136731753Y-100115542D03*
D34*
X139431753Y-106015542D03*
X150131753Y-103815542D03*
G04 #@! TD*
D19*
G04 #@! TO.C,H3*
X189561019Y-105630170D03*
G04 #@! TD*
D28*
G04 #@! TO.C,D14*
X160455398Y-84051995D03*
X160586136Y-82557711D03*
D29*
X165786268Y-83012677D03*
D28*
X165655530Y-84506961D03*
G04 #@! TD*
D20*
G04 #@! TO.C,D7*
X121121753Y-99115542D03*
X121121753Y-97615542D03*
D21*
X126341753Y-97615542D03*
D20*
X126341753Y-99115542D03*
G04 #@! TD*
D25*
G04 #@! TO.C,JP1*
X78809753Y-90880760D03*
X78809753Y-89880000D03*
G04 #@! TD*
D30*
G04 #@! TO.C,S19*
X184766190Y-113842583D03*
D31*
X183819001Y-117454069D03*
X178588157Y-119028322D03*
D32*
X179307186Y-113172301D03*
D31*
X173893539Y-116235374D03*
D30*
X173848182Y-112502019D03*
D33*
X175809026Y-118687090D03*
X186697385Y-117807490D03*
G04 #@! TD*
D52*
G04 #@! TO.C,D44*
X206042072Y-111552851D03*
X205639904Y-114828255D03*
G04 #@! TD*
D53*
G04 #@! TO.C,D36*
X170963838Y-83590593D03*
X170676228Y-86878037D03*
G04 #@! TD*
D54*
G04 #@! TO.C,D29*
X131570000Y-97840000D03*
X131570000Y-101140000D03*
G04 #@! TD*
G04 #@! TO.C,D38*
X131570000Y-115250000D03*
X131570000Y-118550000D03*
G04 #@! TD*
D52*
G04 #@! TO.C,D43*
X208156504Y-94332175D03*
X207754336Y-97607579D03*
G04 #@! TD*
D54*
G04 #@! TO.C,D33*
X150030000Y-95330000D03*
X150030000Y-98630000D03*
G04 #@! TD*
G04 #@! TO.C,D32*
X150070000Y-77680000D03*
X150070000Y-80980000D03*
G04 #@! TD*
D55*
G04 #@! TO.C,D30*
X91175000Y-128071059D03*
X92825000Y-130928941D03*
G04 #@! TD*
D53*
G04 #@! TO.C,D35*
X171500000Y-65500000D03*
X171212390Y-68787444D03*
G04 #@! TD*
D54*
G04 #@! TO.C,D31*
X150060000Y-60320000D03*
X150060000Y-63620000D03*
G04 #@! TD*
D52*
G04 #@! TO.C,D41*
X187673874Y-110224596D03*
X187271706Y-113500000D03*
G04 #@! TD*
G04 #@! TO.C,D42*
X210332399Y-76857095D03*
X209930231Y-80132499D03*
G04 #@! TD*
D54*
G04 #@! TO.C,D27*
X131580000Y-62660000D03*
X131580000Y-65960000D03*
G04 #@! TD*
G04 #@! TO.C,D24*
X113060000Y-82290000D03*
X113060000Y-85590000D03*
G04 #@! TD*
G04 #@! TO.C,D25*
X113070000Y-99920000D03*
X113070000Y-103220000D03*
G04 #@! TD*
D52*
G04 #@! TO.C,D40*
X189701084Y-92362298D03*
X189298916Y-95637702D03*
G04 #@! TD*
D54*
G04 #@! TO.C,D23*
X113040000Y-64760000D03*
X113040000Y-68060000D03*
G04 #@! TD*
D56*
G04 #@! TO.C,D34*
X108555667Y-118019507D03*
X109684333Y-121120493D03*
G04 #@! TD*
D54*
G04 #@! TO.C,D28*
X131570000Y-80250000D03*
X131570000Y-83550000D03*
G04 #@! TD*
D53*
G04 #@! TO.C,D37*
X169438988Y-101134448D03*
X169151378Y-104421892D03*
G04 #@! TD*
D52*
G04 #@! TO.C,D39*
X191908482Y-74695671D03*
X191506314Y-77971075D03*
G04 #@! TD*
%LPD*%
M02*
