M48
; DRILL file KiCad 10.0.3 date 2026-05-28T18:30:17
; FORMAT={-:-/ absolute / metric / decimal}
; #@! TF.CreationDate,2026-05-28T18:30:17-05:00
; #@! TF.GenerationSoftware,Kicad,Pcbnew,10.0.3
; #@! TF.FileFunction,NonPlated,1,2,NPTH
FMAT,2
METRIC
; #@! TA.AperFunction,NonPlated,NPTH,ComponentDrill
T1C0.900
; #@! TA.AperFunction,NonPlated,NPTH,ComponentDrill
T2C1.800
; #@! TA.AperFunction,NonPlated,NPTH,ComponentDrill
T3C3.000
; #@! TA.AperFunction,NonPlated,NPTH,ComponentDrill
T4C3.400
; #@! TA.AperFunction,NonPlated,NPTH,ComponentDrill
T5C3.500
%
G90
G05
T1
X68.67Y-61.37
X68.67Y-61.37
X68.67Y-64.37
X68.67Y-64.37
T2
X74.515Y-118.324
X79.737Y-136.75
X84.485Y-113.676
X89.263Y-131.25
X97.7Y-127.188
X99.732Y-69.616
X99.732Y-87.116
X99.732Y-104.616
X108.036Y-123.426
X110.732Y-69.616
X110.732Y-87.116
X110.732Y-104.616
X118.232Y-67.616
X118.232Y-85.116
X118.232Y-102.616
X118.232Y-120.116
X129.232Y-67.616
X129.232Y-85.116
X129.232Y-102.616
X129.232Y-120.116
X136.732Y-65.116
X136.732Y-82.616
X136.732Y-100.116
X147.732Y-65.116
X147.732Y-82.616
X147.732Y-100.116
X155.746Y-104.72
X157.271Y-87.287
X158.797Y-69.853
X166.704Y-105.679
X168.229Y-88.246
X169.755Y-70.812
X173.848Y-112.502
X175.981Y-95.132
X178.114Y-77.763
X184.766Y-113.843
X186.899Y-96.473
X189.032Y-79.103
X192.21Y-114.757
X194.343Y-97.387
X196.476Y-80.017
X203.128Y-116.097
X205.261Y-98.728
X207.394Y-81.358
T3
X76.532Y-121.466
X81.993Y-121.347
X82.02Y-139.704
X85.595Y-117.24
X87.45Y-139.11
X90.68Y-134.704
X99.435Y-130.494
X100.232Y-73.316
X100.232Y-90.816
X100.232Y-108.316
X104.886Y-130.851
X105.232Y-75.516
X105.232Y-93.016
X105.232Y-110.516
X108.832Y-127.073
X110.232Y-73.316
X110.232Y-90.816
X110.232Y-108.316
X118.732Y-71.316
X118.732Y-88.816
X118.732Y-106.316
X118.732Y-123.816
X123.732Y-73.516
X123.732Y-91.016
X123.732Y-108.516
X123.732Y-126.016
X128.732Y-71.316
X128.732Y-88.816
X128.732Y-106.316
X128.732Y-123.816
X137.232Y-68.816
X137.232Y-86.316
X137.232Y-103.816
X142.232Y-71.016
X142.232Y-88.516
X142.232Y-106.016
X147.232Y-68.816
X147.232Y-86.316
X147.232Y-103.816
X155.922Y-108.45
X157.447Y-91.016
X158.972Y-73.583
X160.711Y-111.077
X162.236Y-93.644
X163.761Y-76.21
X165.884Y-109.321
X167.409Y-91.888
X168.934Y-74.454
X173.894Y-116.235
X176.026Y-98.866
X178.159Y-81.496
X178.588Y-119.028
X180.721Y-101.659
X182.854Y-84.289
X183.819Y-117.454
X185.952Y-100.085
X188.084Y-82.715
X192.256Y-118.49
X194.388Y-101.12
X196.521Y-83.751
X196.95Y-121.283
X199.083Y-103.913
X201.216Y-86.544
X202.181Y-119.709
X204.314Y-102.339
X206.447Y-84.97
T4
X79.5Y-116.0
X84.5Y-134.0
X102.868Y-125.307
X105.232Y-69.616
X105.232Y-87.116
X105.232Y-104.616
X123.732Y-67.616
X123.732Y-85.116
X123.732Y-102.616
X123.732Y-120.116
X142.232Y-65.116
X142.232Y-82.616
X142.232Y-100.116
X161.225Y-105.2
X162.75Y-87.766
X164.276Y-70.333
X179.307Y-113.172
X181.44Y-95.803
X183.573Y-78.433
X197.669Y-115.427
X199.802Y-98.057
X201.935Y-80.688
T5
X71.0Y-107.5
X90.89Y-123.49
X93.0Y-101.0
X112.5Y-59.0
X135.5Y-123.0
X189.561Y-105.63
X191.632Y-88.273
M30
