G04 #@! TF.GenerationSoftware,KiCad,Pcbnew,10.0.3*
G04 #@! TF.CreationDate,2026-05-28T18:30:17-05:00*
G04 #@! TF.ProjectId,michele42_trackpad-splayed,6d696368-656c-4653-9432-5f747261636b,rev?*
G04 #@! TF.SameCoordinates,Original*
G04 #@! TF.FileFunction,Soldermask,Bot*
G04 #@! TF.FilePolarity,Negative*
%FSLAX46Y46*%
G04 Gerber Fmt 4.6, Leading zero omitted, Abs format (unit mm)*
G04 Created by KiCad (PCBNEW 10.0.3) date 2026-05-28 18:30:17*
%MOMM*%
%LPD*%
G01*
G04 APERTURE LIST*
G04 Aperture macros list*
%AMRoundRect*
0 Rectangle with rounded corners*
0 $1 Rounding radius*
0 $2 $3 $4 $5 $6 $7 $8 $9 X,Y pos of 4 corners*
0 Add a 4 corners polygon primitive as box body*
4,1,4,$2,$3,$4,$5,$6,$7,$8,$9,$2,$3,0*
0 Add four circle primitives for the rounded corners*
1,1,$1+$1,$2,$3*
1,1,$1+$1,$4,$5*
1,1,$1+$1,$6,$7*
1,1,$1+$1,$8,$9*
0 Add four rect primitives between the rounded corners*
20,1,$1+$1,$2,$3,$4,$5,0*
20,1,$1+$1,$4,$5,$6,$7,0*
20,1,$1+$1,$6,$7,$8,$9,0*
20,1,$1+$1,$8,$9,$2,$3,0*%
%AMRotRect*
0 Rectangle, with rotation*
0 The origin of the aperture is its center*
0 $1 length*
0 $2 width*
0 $3 Rotation angle, in degrees counterclockwise*
0 Add horizontal line*
21,1,$1,$2,0,0,$3*%
G04 Aperture macros list end*
%ADD10RotRect,1.700000X0.820000X353.000000*%
%ADD11RoundRect,0.205000X-0.665175X-0.124866X0.615209X-0.282078X0.665175X0.124866X-0.615209X0.282078X0*%
%ADD12C,3.500000*%
%ADD13R,1.700000X0.820000*%
%ADD14RoundRect,0.205000X-0.645000X-0.205000X0.645000X-0.205000X0.645000X0.205000X-0.645000X0.205000X0*%
%ADD15RotRect,1.700000X0.820000X20.000000*%
%ADD16RoundRect,0.205000X-0.535988X-0.413240X0.676216X0.027966X0.535988X0.413240X-0.676216X-0.027966X0*%
%ADD17RotRect,1.700000X0.820000X25.000000*%
%ADD18RoundRect,0.205000X-0.497932X-0.458382X0.671205X0.086796X0.497932X0.458382X-0.671205X-0.086796X0*%
%ADD19RotRect,1.700000X0.820000X355.000000*%
%ADD20RoundRect,0.205000X-0.660413X-0.148004X0.624679X-0.260435X0.660413X0.148004X-0.624679X0.260435X0*%
%ADD21C,1.800000*%
%ADD22C,3.000000*%
%ADD23C,3.400000*%
%ADD24RotRect,1.600000X2.200000X173.000000*%
%ADD25C,1.524000*%
%ADD26R,1.600000X2.200000*%
%ADD27RotRect,1.600000X2.200000X200.000000*%
%ADD28RotRect,1.700000X0.820000X30.000000*%
%ADD29RoundRect,0.205000X-0.456086X-0.500035X0.661086X0.144965X0.456086X0.500035X-0.661086X-0.144965X0*%
%ADD30RotRect,1.600000X2.200000X175.000000*%
%ADD31C,2.000000*%
%ADD32R,1.700000X1.700000*%
%ADD33O,1.700000X1.700000*%
%ADD34RoundRect,0.225000X0.045437X0.434955X-0.362401X0.244776X-0.045437X-0.434955X0.362401X-0.244776X0*%
%ADD35R,0.800000X1.000000*%
%ADD36C,0.900000*%
%ADD37R,1.500000X0.700000*%
%ADD38RotRect,1.600000X2.200000X205.000000*%
%ADD39RotRect,1.600000X2.200000X210.000000*%
%ADD40R,1.524000X1.524000*%
%ADD41RoundRect,0.225000X-0.344784X0.269024X-0.399625X-0.177622X0.344784X-0.269024X0.399625X0.177622X0*%
%ADD42R,1.143000X0.635000*%
%ADD43RoundRect,0.225000X-0.353963X0.256827X-0.393183X-0.191460X0.353963X-0.256827X0.393183X0.191460X0*%
%ADD44RoundRect,0.225000X-0.375000X0.225000X-0.375000X-0.225000X0.375000X-0.225000X0.375000X0.225000X0*%
%ADD45C,1.000000*%
%ADD46RoundRect,0.135000X0.135000X0.185000X-0.135000X0.185000X-0.135000X-0.185000X0.135000X-0.185000X0*%
%ADD47RoundRect,0.225000X-0.437260X0.007356X-0.212260X-0.382356X0.437260X-0.007356X0.212260X0.382356X0*%
%ADD48R,0.280000X1.250000*%
%ADD49R,1.800000X2.000000*%
%ADD50RoundRect,0.225000X-0.429339X0.083173X-0.275430X-0.339688X0.429339X-0.083173X0.275430X0.339688X0*%
G04 APERTURE END LIST*
D10*
G04 #@! TO.C,D18*
X179458700Y-90521936D03*
X179275898Y-92010755D03*
D11*
X184456988Y-92646912D03*
D10*
X184639790Y-91158093D03*
G04 #@! TD*
D12*
G04 #@! TO.C,H2*
X135500000Y-123000000D03*
G04 #@! TD*
D13*
G04 #@! TO.C,D10*
X139621753Y-77615542D03*
X139621753Y-79115542D03*
D14*
X144841753Y-79115542D03*
D13*
X144841753Y-77615542D03*
G04 #@! TD*
D15*
G04 #@! TO.C,D12*
X98680887Y-121432102D03*
X99193917Y-122841641D03*
D16*
X104099113Y-121056296D03*
D15*
X103586083Y-119646757D03*
G04 #@! TD*
D10*
G04 #@! TO.C,D22*
X195688090Y-110146076D03*
X195505288Y-111634895D03*
D11*
X200686378Y-112271052D03*
D10*
X200869180Y-110782233D03*
G04 #@! TD*
D17*
G04 #@! TO.C,D4*
X75021820Y-112571791D03*
X75655747Y-113931253D03*
D18*
X80386674Y-111725183D03*
D17*
X79752747Y-110365721D03*
G04 #@! TD*
D19*
G04 #@! TO.C,D15*
X159060902Y-99991127D03*
X158930164Y-101485411D03*
D20*
X164130296Y-101940377D03*
D19*
X164261034Y-100446093D03*
G04 #@! TD*
D21*
G04 #@! TO.C,S18*
X186898904Y-96473026D03*
D22*
X185951715Y-100084512D03*
X180720871Y-101658765D03*
D23*
X181439900Y-95802744D03*
D22*
X176026253Y-98865817D03*
D21*
X175980896Y-95132462D03*
D24*
X183500000Y-102000000D03*
X173247124Y-98524584D03*
G04 #@! TD*
D25*
G04 #@! TO.C,U1*
X75290000Y-60910000D03*
X91828815Y-62105745D03*
X75290000Y-63450000D03*
X91828815Y-64645745D03*
X75290000Y-65990000D03*
X91828815Y-67185745D03*
X75290000Y-68530000D03*
X91828815Y-69725745D03*
X75290000Y-71070000D03*
X91828815Y-72265745D03*
X75290000Y-73610000D03*
X91828815Y-74805745D03*
X75290000Y-76150000D03*
X91828815Y-77345745D03*
X75290000Y-78690000D03*
X91828815Y-79885745D03*
X75290000Y-81230000D03*
X91828815Y-82425745D03*
X75290000Y-83770000D03*
X91828815Y-84965745D03*
X75290000Y-86310000D03*
X91828815Y-87505745D03*
X75290000Y-88850000D03*
X91828815Y-90045745D03*
X76588815Y-90045745D03*
X90530000Y-88850000D03*
X76588815Y-87505745D03*
X90530000Y-86310000D03*
X76588815Y-84965745D03*
X90530000Y-83770000D03*
X76588815Y-82425745D03*
X90530000Y-81230000D03*
X76588815Y-79885745D03*
X90530000Y-78690000D03*
X76588815Y-77345745D03*
X90530000Y-76150000D03*
X76588815Y-74805745D03*
X90530000Y-73610000D03*
X76588815Y-72265745D03*
X90530000Y-71070000D03*
X76588815Y-69725745D03*
X90530000Y-68530000D03*
X76588815Y-67185745D03*
X90530000Y-65990000D03*
X76588815Y-64645745D03*
X90530000Y-63450000D03*
X76588815Y-62105745D03*
X90530000Y-60910000D03*
G04 #@! TD*
D21*
G04 #@! TO.C,S9*
X147731753Y-65115542D03*
D22*
X147231753Y-68815542D03*
X142231753Y-71015542D03*
D23*
X142231753Y-65115542D03*
D22*
X137231753Y-68815542D03*
D21*
X136731753Y-65115542D03*
D26*
X145031753Y-71015542D03*
X134431753Y-68815542D03*
G04 #@! TD*
D21*
G04 #@! TO.C,S12*
X108036268Y-123425542D03*
D22*
X108831897Y-127073415D03*
X104885878Y-130850839D03*
D23*
X102867959Y-125306653D03*
D22*
X99434970Y-130493615D03*
D21*
X97699650Y-127187764D03*
D27*
X107517017Y-129893183D03*
X96803831Y-131451273D03*
G04 #@! TD*
D21*
G04 #@! TO.C,S20*
X207393720Y-81358053D03*
D22*
X206446531Y-84969539D03*
X201215687Y-86543792D03*
D23*
X201934716Y-80687771D03*
D22*
X196521069Y-83750844D03*
D21*
X196475712Y-80017489D03*
D24*
X203994816Y-86885027D03*
X193741940Y-83409611D03*
G04 #@! TD*
D13*
G04 #@! TO.C,D2*
X102621753Y-82115542D03*
X102621753Y-83615542D03*
D14*
X107841753Y-83615542D03*
D13*
X107841753Y-82115542D03*
G04 #@! TD*
D28*
G04 #@! TO.C,D8*
X79629132Y-130991749D03*
X80379132Y-132290787D03*
D29*
X84899784Y-129680787D03*
D28*
X84149784Y-128381749D03*
G04 #@! TD*
D13*
G04 #@! TO.C,D11*
X139621753Y-95115542D03*
X139621753Y-96615542D03*
D14*
X144841753Y-96615542D03*
D13*
X144841753Y-95115542D03*
G04 #@! TD*
D10*
G04 #@! TO.C,D19*
X177325986Y-107891494D03*
X177143184Y-109380313D03*
D11*
X182324274Y-110016470D03*
D10*
X182507076Y-108527651D03*
G04 #@! TD*
D13*
G04 #@! TO.C,D5*
X121121753Y-62615542D03*
X121121753Y-64115542D03*
D14*
X126341753Y-64115542D03*
D13*
X126341753Y-62615542D03*
G04 #@! TD*
D21*
G04 #@! TO.C,S10*
X147731753Y-82615542D03*
D22*
X147231753Y-86315542D03*
X142231753Y-88515542D03*
D23*
X142231753Y-82615542D03*
D22*
X137231753Y-86315542D03*
D21*
X136731753Y-82615542D03*
D26*
X145031753Y-88515542D03*
X134431753Y-86315542D03*
G04 #@! TD*
D21*
G04 #@! TO.C,S14*
X168229482Y-88245528D03*
D22*
X167408907Y-91887868D03*
X162236200Y-93643720D03*
D23*
X162750412Y-87766172D03*
D22*
X157446957Y-91016309D03*
D21*
X157271342Y-87286816D03*
D30*
X165025532Y-93887757D03*
X154657617Y-90772280D03*
G04 #@! TD*
D21*
G04 #@! TO.C,S17*
X189031617Y-79103468D03*
D22*
X188084428Y-82714954D03*
X182853584Y-84289207D03*
D23*
X183572613Y-78433186D03*
D22*
X178158966Y-81496259D03*
D21*
X178113609Y-77762904D03*
D24*
X185632713Y-84630442D03*
X175379837Y-81155026D03*
G04 #@! TD*
D21*
G04 #@! TO.C,S21*
X205261006Y-98727610D03*
D22*
X204313817Y-102339096D03*
X199082973Y-103913349D03*
D23*
X199802002Y-98057328D03*
D22*
X194388355Y-101120401D03*
D21*
X194342998Y-97387046D03*
D24*
X201862102Y-104254584D03*
X191609226Y-100779168D03*
G04 #@! TD*
D21*
G04 #@! TO.C,S5*
X129231753Y-67615542D03*
D22*
X128731753Y-71315542D03*
X123731753Y-73515542D03*
D23*
X123731753Y-67615542D03*
D22*
X118731753Y-71315542D03*
D21*
X118231753Y-67615542D03*
D26*
X126531753Y-73515542D03*
X115931753Y-71315542D03*
G04 #@! TD*
D21*
G04 #@! TO.C,S3*
X110731753Y-104615542D03*
D22*
X110231753Y-108315542D03*
X105231753Y-110515542D03*
D23*
X105231753Y-104615542D03*
D22*
X100231753Y-108315542D03*
D21*
X99731753Y-104615542D03*
D26*
X108031753Y-110515542D03*
X97431753Y-108315542D03*
G04 #@! TD*
D21*
G04 #@! TO.C,S2*
X110731753Y-87115542D03*
D22*
X110231753Y-90815542D03*
X105231753Y-93015542D03*
D23*
X105231753Y-87115542D03*
D22*
X100231753Y-90815542D03*
D21*
X99731753Y-87115542D03*
D26*
X108031753Y-93015542D03*
X97431753Y-90815542D03*
G04 #@! TD*
D10*
G04 #@! TO.C,D20*
X199953518Y-75406960D03*
X199770716Y-76895779D03*
D11*
X204951806Y-77531936D03*
D10*
X205134608Y-76043117D03*
G04 #@! TD*
D21*
G04 #@! TO.C,S22*
X203128293Y-116097168D03*
D22*
X202181104Y-119708654D03*
X196950260Y-121282907D03*
D23*
X197669289Y-115426886D03*
D22*
X192255642Y-118489959D03*
D21*
X192210285Y-114756604D03*
D24*
X199729389Y-121624142D03*
X189476513Y-118148726D03*
G04 #@! TD*
D12*
G04 #@! TO.C,H1*
X112500000Y-59000000D03*
G04 #@! TD*
D19*
G04 #@! TO.C,D13*
X162111353Y-65124314D03*
X161980615Y-66618598D03*
D20*
X167180747Y-67073564D03*
D19*
X167311485Y-65579280D03*
G04 #@! TD*
D13*
G04 #@! TO.C,D6*
X121121753Y-80115542D03*
X121121753Y-81615542D03*
D14*
X126341753Y-81615542D03*
D13*
X126341753Y-80115542D03*
G04 #@! TD*
G04 #@! TO.C,D3*
X102621753Y-99665542D03*
X102621753Y-101165542D03*
D14*
X107841753Y-101165542D03*
D13*
X107841753Y-99665542D03*
G04 #@! TD*
D21*
G04 #@! TO.C,S15*
X166704253Y-105678935D03*
D22*
X165883678Y-109321275D03*
X160710971Y-111077127D03*
D23*
X161225183Y-105199579D03*
D22*
X155921728Y-108449716D03*
D21*
X155746113Y-104720223D03*
D30*
X163500303Y-111321164D03*
X153132388Y-108205687D03*
G04 #@! TD*
D31*
G04 #@! TO.C,RSW1*
X68600000Y-75500000D03*
X68600000Y-69000000D03*
G04 #@! TD*
D10*
G04 #@! TO.C,D17*
X181591414Y-73152377D03*
X181408612Y-74641196D03*
D11*
X186589702Y-75277353D03*
D10*
X186772504Y-73788534D03*
G04 #@! TD*
D12*
G04 #@! TO.C,H5*
X90890000Y-123490000D03*
G04 #@! TD*
D32*
G04 #@! TO.C,J1*
X97460000Y-58000000D03*
D33*
X100000000Y-58000000D03*
G04 #@! TD*
D12*
G04 #@! TO.C,H6*
X71000000Y-107500000D03*
G04 #@! TD*
D34*
G04 #@! TO.C,D26*
X90495406Y-119302682D03*
X87504594Y-120697318D03*
G04 #@! TD*
D35*
G04 #@! TO.C,SW1*
X69780000Y-59220000D03*
X67570000Y-59220000D03*
D36*
X68670000Y-61370000D03*
X68670000Y-61370000D03*
X68670000Y-64370000D03*
X68670000Y-64370000D03*
D35*
X69780000Y-66520000D03*
X67570000Y-66520000D03*
D37*
X70430000Y-65120000D03*
X70430000Y-62120000D03*
X70430000Y-60620000D03*
G04 #@! TD*
D10*
G04 #@! TO.C,D21*
X197820803Y-92776518D03*
X197638001Y-94265337D03*
D11*
X202819091Y-94901494D03*
D10*
X203001893Y-93412675D03*
G04 #@! TD*
D21*
G04 #@! TO.C,S13*
X169754711Y-70812121D03*
D22*
X168934136Y-74454461D03*
X163761429Y-76210313D03*
D23*
X164275641Y-70332765D03*
D22*
X158972186Y-73582902D03*
D21*
X158796571Y-69853409D03*
D30*
X166550761Y-76454350D03*
X156182846Y-73338873D03*
G04 #@! TD*
D21*
G04 #@! TO.C,S4*
X84484691Y-113675598D03*
D22*
X85595229Y-117240245D03*
D23*
X79500000Y-116000000D03*
D22*
X81993446Y-121347216D03*
X76532148Y-121466431D03*
D21*
X74515309Y-118324402D03*
D38*
X84531111Y-120163884D03*
X73994487Y-122649761D03*
G04 #@! TD*
D12*
G04 #@! TO.C,H4*
X191631740Y-88273151D03*
G04 #@! TD*
G04 #@! TO.C,H7*
X93000000Y-101000000D03*
G04 #@! TD*
D13*
G04 #@! TO.C,D1*
X102621753Y-64615542D03*
X102621753Y-66115542D03*
D14*
X107841753Y-66115542D03*
D13*
X107841753Y-64615542D03*
G04 #@! TD*
D21*
G04 #@! TO.C,S16*
X129231753Y-120115542D03*
D22*
X128731753Y-123815542D03*
X123731753Y-126015542D03*
D23*
X123731753Y-120115542D03*
D22*
X118731753Y-123815542D03*
D21*
X118231753Y-120115542D03*
D26*
X126531753Y-126015542D03*
X115931753Y-123815542D03*
G04 #@! TD*
D21*
G04 #@! TO.C,S7*
X129231753Y-102615542D03*
D22*
X128731753Y-106315542D03*
X123731753Y-108515542D03*
D23*
X123731753Y-102615542D03*
D22*
X118731753Y-106315542D03*
D21*
X118231753Y-102615542D03*
D26*
X126531753Y-108515542D03*
X115931753Y-106315542D03*
G04 #@! TD*
D13*
G04 #@! TO.C,D9*
X139621753Y-60115542D03*
X139621753Y-61615542D03*
D14*
X144841753Y-61615542D03*
D13*
X144841753Y-60115542D03*
G04 #@! TD*
D21*
G04 #@! TO.C,S6*
X129231753Y-85115542D03*
D22*
X128731753Y-88815542D03*
X123731753Y-91015542D03*
D23*
X123731753Y-85115542D03*
D22*
X118731753Y-88815542D03*
D21*
X118231753Y-85115542D03*
D26*
X126531753Y-91015542D03*
X115931753Y-88815542D03*
G04 #@! TD*
D21*
G04 #@! TO.C,S8*
X89263140Y-131250000D03*
D22*
X90680127Y-134704294D03*
X87450000Y-139109550D03*
D23*
X84500000Y-134000000D03*
D22*
X82019873Y-139704294D03*
D21*
X79736860Y-136750000D03*
D39*
X89874871Y-137709550D03*
X79595002Y-141104294D03*
G04 #@! TD*
D40*
G04 #@! TO.C,J4*
X71000000Y-84950000D03*
X71000000Y-87450000D03*
X71000000Y-90050000D03*
G04 #@! TD*
D32*
G04 #@! TO.C,J3*
X78590000Y-94280000D03*
D33*
X81130000Y-94280000D03*
X83670000Y-94280000D03*
X86210000Y-94280000D03*
X88750000Y-94280000D03*
G04 #@! TD*
D21*
G04 #@! TO.C,S1*
X110731753Y-69615542D03*
D22*
X110231753Y-73315542D03*
X105231753Y-75515542D03*
D23*
X105231753Y-69615542D03*
D22*
X100231753Y-73315542D03*
D21*
X99731753Y-69615542D03*
D26*
X108031753Y-75515542D03*
X97431753Y-73315542D03*
G04 #@! TD*
D13*
G04 #@! TO.C,D16*
X121121751Y-115115542D03*
X121121751Y-116615542D03*
D14*
X126341751Y-116615542D03*
D13*
X126341751Y-115115542D03*
G04 #@! TD*
D21*
G04 #@! TO.C,S11*
X147731753Y-100115542D03*
D22*
X147231753Y-103815542D03*
X142231753Y-106015542D03*
D23*
X142231753Y-100115542D03*
D22*
X137231753Y-103815542D03*
D21*
X136731753Y-100115542D03*
D26*
X145031753Y-106015542D03*
X134431753Y-103815542D03*
G04 #@! TD*
D12*
G04 #@! TO.C,H3*
X189561019Y-105630170D03*
G04 #@! TD*
D19*
G04 #@! TO.C,D14*
X160586136Y-82557711D03*
X160455398Y-84051995D03*
D20*
X165655530Y-84506961D03*
D19*
X165786268Y-83012677D03*
G04 #@! TD*
D13*
G04 #@! TO.C,D7*
X121121753Y-97615542D03*
X121121753Y-99115542D03*
D14*
X126341753Y-99115542D03*
D13*
X126341753Y-97615542D03*
G04 #@! TD*
D21*
G04 #@! TO.C,S19*
X184766190Y-113842583D03*
D22*
X183819001Y-117454069D03*
X178588157Y-119028322D03*
D23*
X179307186Y-113172301D03*
D22*
X173893539Y-116235374D03*
D21*
X173848182Y-112502019D03*
D24*
X181367286Y-119369557D03*
X171114410Y-115894141D03*
G04 #@! TD*
D41*
G04 #@! TO.C,D44*
X206042072Y-111552851D03*
X205639904Y-114828255D03*
G04 #@! TD*
D42*
G04 #@! TO.C,JP1*
X88350000Y-90880380D03*
X88350000Y-89879620D03*
G04 #@! TD*
D43*
G04 #@! TO.C,D36*
X170963838Y-83590593D03*
X170676228Y-86878037D03*
G04 #@! TD*
D42*
G04 #@! TO.C,JP5*
X78809753Y-90880760D03*
X78809753Y-89880000D03*
G04 #@! TD*
D44*
G04 #@! TO.C,D29*
X131570000Y-97840000D03*
X131570000Y-101140000D03*
G04 #@! TD*
G04 #@! TO.C,D38*
X131570000Y-115250000D03*
X131570000Y-118550000D03*
G04 #@! TD*
D45*
G04 #@! TO.C,TP4*
X68000000Y-87500000D03*
G04 #@! TD*
D41*
G04 #@! TO.C,D43*
X208156504Y-94332175D03*
X207754336Y-97607579D03*
G04 #@! TD*
D44*
G04 #@! TO.C,D33*
X150030000Y-95330000D03*
X150030000Y-98630000D03*
G04 #@! TD*
G04 #@! TO.C,D32*
X150070000Y-77680000D03*
X150070000Y-80980000D03*
G04 #@! TD*
D46*
G04 #@! TO.C,R2*
X88646470Y-103500002D03*
X87626472Y-103499998D03*
G04 #@! TD*
D42*
G04 #@! TO.C,JP3*
X83389753Y-90880000D03*
X83389753Y-89879240D03*
G04 #@! TD*
D47*
G04 #@! TO.C,D30*
X91175000Y-128071059D03*
X92825000Y-130928941D03*
G04 #@! TD*
D43*
G04 #@! TO.C,D35*
X171500000Y-65500000D03*
X171212390Y-68787444D03*
G04 #@! TD*
D42*
G04 #@! TO.C,JP4*
X81049753Y-90880760D03*
X81049753Y-89880000D03*
G04 #@! TD*
D45*
G04 #@! TO.C,TP2*
X68000000Y-82500000D03*
G04 #@! TD*
D48*
G04 #@! TO.C,J3*
X77000003Y-107499994D03*
X77500003Y-107500004D03*
X78000000Y-107499992D03*
X78500005Y-107499997D03*
X79000007Y-107500003D03*
X79500007Y-107499996D03*
X80000006Y-107500004D03*
X80500004Y-107499993D03*
X81000005Y-107500002D03*
X81500004Y-107500005D03*
X82000003Y-107499995D03*
X82500000Y-107499999D03*
D49*
X84300009Y-104776002D03*
X75200005Y-104775996D03*
G04 #@! TD*
D45*
G04 #@! TO.C,TP3*
X68000000Y-85000000D03*
G04 #@! TD*
G04 #@! TO.C,TP5*
X68000000Y-90000000D03*
G04 #@! TD*
D46*
G04 #@! TO.C,R1*
X72646471Y-103357363D03*
X71626473Y-103357359D03*
G04 #@! TD*
D44*
G04 #@! TO.C,D31*
X150060000Y-60320000D03*
X150060000Y-63620000D03*
G04 #@! TD*
D41*
G04 #@! TO.C,D41*
X187673874Y-110224596D03*
X187271706Y-113500000D03*
G04 #@! TD*
G04 #@! TO.C,D42*
X210332399Y-76857095D03*
X209930231Y-80132499D03*
G04 #@! TD*
D42*
G04 #@! TO.C,JP2*
X85929753Y-90880000D03*
X85929753Y-89879240D03*
G04 #@! TD*
D44*
G04 #@! TO.C,D27*
X131580000Y-62660000D03*
X131580000Y-65960000D03*
G04 #@! TD*
G04 #@! TO.C,D24*
X113060000Y-82290000D03*
X113060000Y-85590000D03*
G04 #@! TD*
G04 #@! TO.C,D25*
X113070000Y-99920000D03*
X113070000Y-103220000D03*
G04 #@! TD*
D41*
G04 #@! TO.C,D40*
X189701084Y-92362298D03*
X189298916Y-95637702D03*
G04 #@! TD*
D44*
G04 #@! TO.C,D23*
X113040000Y-64760000D03*
X113040000Y-68060000D03*
G04 #@! TD*
D50*
G04 #@! TO.C,D34*
X108555667Y-118019507D03*
X109684333Y-121120493D03*
G04 #@! TD*
D44*
G04 #@! TO.C,D28*
X131570000Y-80250000D03*
X131570000Y-83550000D03*
G04 #@! TD*
D45*
G04 #@! TO.C,TP1*
X68000000Y-80000000D03*
G04 #@! TD*
D43*
G04 #@! TO.C,D37*
X169438988Y-101134448D03*
X169151378Y-104421892D03*
G04 #@! TD*
D41*
G04 #@! TO.C,D39*
X191908482Y-74695671D03*
X191506314Y-77971075D03*
G04 #@! TD*
M02*
